<svg width="117" height="38" viewBox="0 0 117 38" fill="none" xmlns="http://www.w3.org/2000/svg">
<path fill-rule="evenodd" clip-rule="evenodd" d="M33.311 25.4284C33.4845 25.8451 33.6579 26.3213 33.8314 26.7975C34.3517 28.1665 34.4674 29.476 34.2939 30.7856C33.8892 33.5237 32.1547 35.9046 29.6108 36.976C28.6857 37.3927 27.7029 37.5713 26.6622 37.5713C26.3731 37.5713 26.0262 37.5713 25.7371 37.5118C24.523 37.3927 23.3088 36.976 22.0947 36.2618C20.6493 35.4284 19.2039 34.1784 17.585 32.3927C15.9662 34.1784 14.5786 35.4284 13.0754 36.2618C11.8612 36.976 10.6471 37.3332 9.43296 37.5118C9.28842 37.5118 9.12943 37.5266 8.97044 37.5415C8.81144 37.5564 8.65245 37.5713 8.50791 37.5713C7.46722 37.5713 6.48434 37.3927 5.55928 36.976C3.07319 35.9046 1.22307 33.5832 0.818356 30.7856C0.644908 29.4165 0.818356 28.107 1.28089 26.7975C1.45433 26.2618 1.62778 25.8451 1.80123 25.4284C2.09031 24.7737 2.37939 24.1189 2.61066 23.5237L2.66847 23.4641C5.21239 17.8689 7.87193 12.2141 10.6471 6.6189L10.7627 6.3808C11.0518 5.84509 11.3409 5.24985 11.63 4.65461C11.7078 4.52864 11.7857 4.40047 11.8644 4.27094L11.8644 4.27092C12.1947 3.72719 12.5395 3.15959 12.9598 2.6308C14.1739 1.20223 15.7927 0.368896 17.585 0.368896C19.3195 0.368896 20.9962 1.20223 22.1525 2.69033C22.7307 3.34509 23.1354 4.05937 23.4823 4.71413L23.4823 4.71415C23.7714 5.30938 24.0605 5.90461 24.3495 6.44032L24.4652 6.67842C27.2982 12.2737 29.9577 17.9284 32.4438 23.5237H32.5016C32.7329 24.1189 33.022 24.7737 33.311 25.4284ZM61.757 9.71419C61.757 11.0832 60.7163 12.1547 59.3865 12.1547C58.0567 12.1547 57.0161 11.0832 57.0161 9.71419C57.0161 8.34514 58.0567 7.27372 59.3865 7.27372C60.7741 7.33324 61.757 8.40467 61.757 9.71419ZM52.1016 14.5952V15.1905C52.1016 15.1905 51.0031 13.7024 48.5748 13.7024C44.6433 13.7024 41.579 16.7976 41.579 21.0833C41.579 25.3095 44.6433 28.4643 48.5748 28.4643C51.0031 28.4643 52.1016 26.9167 52.1016 26.9167V27.5714C52.1016 27.869 52.3329 28.1071 52.6219 28.1071H55.5706V14.0595H52.6219C52.275 14.0595 52.1016 14.2976 52.1016 14.5952ZM49.1525 25.0714C50.4823 25.0714 51.5808 24.3571 52.1011 23.5238V18.5238C51.5808 17.75 50.4244 16.9762 49.1525 16.9762C46.8398 16.9762 45.0475 18.4643 45.0475 21.0238C45.0475 23.5833 46.8398 25.0714 49.1525 25.0714ZM57.6519 14.0595H61.1209V28.0476H57.6519V14.0595ZM105.986 15.1903C105.986 15.1903 107.142 13.7022 109.513 13.7022C113.444 13.7022 116.508 16.7975 116.508 21.0236C116.508 25.2498 113.444 28.4046 109.513 28.4046C107.084 28.4046 105.986 26.857 105.986 26.857V27.5117C105.986 27.8094 105.755 28.0475 105.466 28.0475H102.517V7.33317H105.986V15.1903ZM108.935 25.0119C107.605 25.0119 106.565 24.2977 105.986 23.4643V18.4643C106.507 17.6905 107.663 16.9167 108.935 16.9167C111.248 16.9167 113.04 18.4048 113.04 20.9643C113.04 23.5238 111.248 25.0119 108.935 25.0119ZM100.725 28.1071V19.7738C100.725 17.3929 100.263 16.0833 99.1062 15.0714C98.0656 14.1786 96.7936 13.7024 95.2904 13.7024C93.9606 13.7024 92.6308 14.119 91.5901 15.1905V14.5952C91.5901 14.2976 91.3589 14.0595 91.0698 14.0595H88.2946V28.1071H91.7636V18.3452C92.4574 17.5119 93.5559 16.9762 94.5966 16.9762C96.5045 16.9762 97.2561 17.869 97.2561 20.1905V28.1071H100.725ZM79.853 13.7022C77.4825 13.7022 76.3262 15.1903 76.3262 15.1903V7.33317H72.8572V28.0475H75.8059C76.0949 28.0475 76.3262 27.8094 76.3262 27.5117V26.857C76.3262 26.857 77.4247 28.4046 79.853 28.4046C83.7845 28.4046 86.8488 25.2498 86.8488 21.0236C86.9066 16.7975 83.8423 13.7022 79.853 13.7022ZM76.326 23.4643C76.9042 24.2977 77.9448 25.0119 79.2746 25.0119C81.5873 25.0119 83.3796 23.5238 83.3796 20.9643C83.3796 18.4048 81.5873 16.9167 79.2746 16.9167C78.0027 16.9167 76.8463 17.6905 76.326 18.4643V23.4643ZM69.9085 13.7024C70.9492 13.7024 71.5274 13.8809 71.5274 13.8809V17.2143C71.5274 17.2143 68.6366 16.2024 66.8443 18.3452V28.1071H63.3753V14.0595H66.3239C66.613 14.0595 66.8443 14.2976 66.8443 14.5952V15.1905C67.4224 14.4167 68.81 13.7024 69.9085 13.7024ZM17.5277 28.7023C15.562 26.1428 14.29 23.7619 13.8853 21.7976C13.7119 20.9642 13.6541 20.1904 13.7697 19.5357C13.8275 18.9404 14.0588 18.4047 14.3479 17.988C15.0416 16.9761 16.198 16.3214 17.5277 16.3214C18.8575 16.3214 20.0717 16.9166 20.7076 17.988C20.9967 18.4642 21.228 18.9404 21.2858 19.5357C21.4014 20.1904 21.3436 20.9642 21.1702 21.7976C20.7654 23.7619 19.4935 26.1428 17.5277 28.7023ZM28.6859 34.8332C30.4782 34.1189 31.7502 32.4523 31.9814 30.488C32.0971 29.4761 31.9814 28.5832 31.808 27.6308C31.7454 27.4375 31.6658 27.2441 31.5785 27.0319C31.5045 26.8521 31.425 26.6588 31.3455 26.4404C31.2009 26.1427 31.0708 25.8302 30.9407 25.5177C30.8107 25.2052 30.6806 24.8927 30.536 24.5951V24.5356C28.0499 18.9999 25.3904 13.3451 22.6152 7.8094L22.4996 7.57131C22.2105 6.97607 21.9214 6.38083 21.6323 5.84512C21.3433 5.24988 20.9964 4.65464 20.5916 4.17845C19.84 3.28559 18.7993 2.8094 17.7008 2.8094C16.6023 2.8094 15.5616 3.28559 14.81 4.17845C14.4053 4.71417 14.0584 5.24988 13.7693 5.84512L13.7693 5.84522C13.4802 6.44043 13.1912 7.03563 12.9021 7.57131L12.7865 7.8094C9.95347 13.3451 7.29393 18.9999 4.80783 24.5356L4.75001 24.5951C4.46093 25.1904 4.17185 25.8451 3.94059 26.4404L3.94058 26.4404C3.76713 26.857 3.59369 27.2737 3.47806 27.6308C3.07335 28.7023 3.01553 29.5951 3.13116 30.5475C3.36243 32.4523 4.63438 34.1189 6.42668 34.8927C7.23611 35.1904 8.16117 35.3689 9.14404 35.2499C10.0691 35.1308 10.9942 34.8332 11.9192 34.2975C13.1912 33.5237 14.5209 32.3927 16.0242 30.6666C13.6537 27.6308 12.1505 24.8332 11.6301 22.3927C11.3411 21.2618 11.2832 20.1904 11.4567 19.238C11.6301 18.2856 11.9192 17.4523 12.4396 16.6785C13.5381 15.0713 15.446 14.0594 17.5274 14.0594C19.6088 14.0594 21.5167 15.0118 22.6152 16.6785C23.1356 17.4523 23.4246 18.2856 23.5981 19.238C23.7137 20.1904 23.6559 21.2618 23.4246 22.3927C22.8465 24.8332 21.4011 27.5713 19.0306 30.607C20.5338 32.3332 21.8058 33.4642 23.1356 34.238C24.1184 34.7737 24.9857 35.0713 25.9107 35.1904C26.8936 35.3094 27.8187 35.1904 28.6859 34.8332Z" fill="#DCDCDC"/>
</svg>
