<!DOCTYPE svg PUBLIC "-//W3C//DTD SVG 1.1//EN" "http://www.w3.org/Graphics/SVG/1.1/DTD/svg11.dtd">
<!-- Uploaded to: SVG Repo, www.svgrepo.com, Transformed by: SVG Repo Mixer Tools -->
<svg height="100px" width="100px" version="1.1" id="Layer_1" xmlns="http://www.w3.org/2000/svg" xmlns:xlink="http://www.w3.org/1999/xlink" viewBox="-51.2 -51.2 614.40 614.40" xml:space="preserve" fill="#3461ff" stroke="#3461ff" stroke-width="5.632" transform="matrix(1, 0, 0, 1, 0, 0)rotate(0)">
<g id="SVGRepo_bgCarrier" stroke-width="0"/>
<g id="SVGRepo_tracerCarrier" stroke-linecap="round" stroke-linejoin="round" stroke="#CCCCCC" stroke-width="2.048"/>
<g id="SVGRepo_iconCarrier"> <path style="fill:#adcbff;" d="M0,256c0,141.158,114.842,256,256,256V0C114.842,0,0,114.842,0,256z"/> <path style="fill:#80b0ff;" d="M256,0v512c141.158,0,256-114.842,256-256S397.158,0,256,0z"/> <path style="fill:#3461ff;" d="M272.454,161.969c-4.366-4.364-10.283-6.817-16.457-6.817c-6.173,0-12.093,2.453-16.457,6.817 L115.422,286.09c-9.087,9.089-9.087,23.824,0.002,32.914c9.087,9.087,23.822,9.087,32.914-0.002l107.661-107.664l107.669,107.666 c4.541,4.541,10.498,6.814,16.454,6.814c5.956,0,11.913-2.273,16.455-6.817c9.089-9.089,9.089-23.824,0-32.914L272.454,161.969z"/> </g>
</svg>