<svg width="287" height="203" viewBox="0 0 287 203" fill="none" xmlns="http://www.w3.org/2000/svg">
<path d="M114.649 103.035C75.3361 125.732 75.3361 162.536 114.649 185.233C153.962 207.93 217.707 207.93 257.015 185.233C296.324 162.536 296.333 125.737 257.015 103.035C217.698 80.3339 153.962 80.3381 114.649 103.035Z" fill="#FAFAFA"/>
<path d="M242.658 79.143C254.027 79.143 263.243 69.9265 263.243 58.5574C263.243 47.1882 254.027 37.9717 242.658 37.9717C231.289 37.9717 222.072 47.1882 222.072 58.5574C222.072 69.9265 231.289 79.143 242.658 79.143Z" fill="#3285FF" fill-opacity="0.5"/>
<path d="M261.104 64.6396C265.846 54.3065 261.313 42.086 250.98 37.3442C240.647 32.6024 228.426 37.1351 223.685 47.4682C218.943 57.8012 223.475 70.0218 233.809 74.7636C244.142 79.5054 256.362 74.9727 261.104 64.6396Z" fill="#EBEBEB"/>
<path d="M257.251 60.8457C259.951 52.8406 255.485 44.1065 247.276 41.3373C239.066 38.5682 230.222 42.8126 227.522 50.8177C224.822 58.8227 229.288 67.5569 237.497 70.326C245.707 73.0952 254.551 68.8507 257.251 60.8457Z" fill="#F5F5F5"/>
<path d="M237.542 70.2684C233.675 68.9624 230.47 66.2006 228.608 62.5697C226.745 58.9387 226.371 54.7246 227.566 50.8225C227.514 50.9633 227.457 51.1042 227.412 51.2451C226.082 55.1857 226.372 59.4931 228.219 63.2198C230.065 66.9465 233.316 69.7871 237.257 71.1168C241.197 72.4464 245.505 72.1562 249.231 70.31C252.958 68.4638 255.799 65.2128 257.128 61.2722L257.263 60.8432C255.849 64.6718 252.997 67.7981 249.315 69.558C245.632 71.318 241.409 71.5728 237.542 70.2684Z" fill="#FAFAFA"/>
<path d="M247.255 41.3974C251.122 42.7021 254.329 45.4633 256.192 49.0944C258.056 52.7255 258.431 56.9403 257.237 60.8433L257.391 60.4207C258.72 56.4792 258.428 52.1713 256.581 48.4446C254.733 44.7179 251.481 41.8778 247.54 40.549C243.598 39.2201 239.29 39.5115 235.564 41.3589C231.837 43.2063 228.997 46.4585 227.668 50.4C227.623 50.5408 227.585 50.6817 227.54 50.8226C228.953 46.9945 231.803 43.8682 235.484 42.1082C239.166 40.3482 243.388 40.0932 247.255 41.3974Z" fill="#3285FF" fill-opacity="0.5"/>
<path d="M244.636 45.655C244.585 45.8022 243.618 45.6165 242.178 45.2196L242.664 45.0147C242.472 45.7062 242.229 46.5194 241.941 47.3966L241.806 47.8128L241.377 47.6719L240.737 47.467C239.629 47.0892 238.611 46.7179 237.772 46.3849L238.246 46.1544C237.689 47.5374 237.247 48.4211 237.106 48.3698C236.966 48.3186 237.138 47.3518 237.542 45.9111L237.631 45.5781L238.009 45.6806C238.88 45.9239 239.93 46.244 241.019 46.6154L241.659 46.8267L241.089 47.1084C241.396 46.244 241.691 45.4437 241.954 44.7778L242.101 44.4192L242.427 44.5472C243.804 45.0659 244.681 45.5077 244.636 45.655Z" fill="#FAFAFA"/>
<path d="M248.778 47.0958C248.695 47.3327 248.003 47.3071 247.222 47.0446C246.441 46.782 245.871 46.4043 245.941 46.1417C246.012 45.8792 246.716 45.9304 247.497 46.1994C248.278 46.4683 248.855 46.8653 248.778 47.0958Z" fill="#FAFAFA"/>
<path d="M234.68 60.0105C234.443 59.9273 235.096 57.3661 236.134 54.2862C237.171 51.2064 238.208 48.7797 238.439 48.8565C238.669 48.9333 238.022 51.4945 236.985 54.5744C235.948 57.6542 234.911 60.0874 234.68 60.0105Z" fill="#FAFAFA"/>
<path d="M244.399 55.7531C244.316 55.99 243.24 55.8364 241.998 55.4202C240.756 55.004 239.802 54.4661 239.885 54.2292C239.968 53.9923 241.037 54.146 242.286 54.5686C243.535 54.9912 244.476 55.5226 244.399 55.7531Z" fill="#FAFAFA"/>
<path d="M242.139 62.7251C242.062 62.962 240.986 62.8148 239.744 62.3922C238.502 61.9696 237.548 61.4381 237.631 61.2076C237.714 60.9771 238.783 61.118 240.026 61.5406C241.268 61.9632 242.222 62.4946 242.139 62.7251Z" fill="#FAFAFA"/>
<path d="M238.859 64.9515L238.123 62.7509L240.123 62.0815L239.528 60.3032L237.528 60.9726L236.784 58.7497L238.784 58.0803L236.419 51.0116L241.954 49.1596C243.199 48.7431 244.298 48.606 245.252 48.7482C246.216 48.8707 247.017 49.2206 247.655 49.7981C248.288 50.3607 248.751 51.0792 249.044 51.9535C249.326 52.7982 249.394 53.6406 249.247 54.4809C249.094 55.3063 248.683 56.0702 248.011 56.7727C247.335 57.4603 246.352 58.0199 245.063 58.4512L242.373 59.3512L242.968 61.1295L247.17 59.7238L247.906 61.9244L243.705 63.3301L244.478 65.6419L241.633 66.5939L240.859 64.2822L238.859 64.9515ZM242.602 51.39L240.001 52.2602L241.63 57.1283L244.23 56.2581C245.179 55.9408 245.794 55.4879 246.075 54.8996C246.37 54.3062 246.397 53.6465 246.154 52.9204C245.906 52.1794 245.493 51.6585 244.914 51.3578C244.336 51.057 243.565 51.0677 242.602 51.39Z" fill="#3285FF" fill-opacity="0.6"/>
<path d="M212.728 177.404C224.097 177.404 233.313 168.188 233.313 156.818C233.313 145.449 224.097 136.233 212.728 136.233C201.359 136.233 192.142 145.449 192.142 156.818C192.142 168.188 201.359 177.404 212.728 177.404Z" fill="#E0E0E0"/>
<path d="M231.174 162.901C235.915 152.568 231.383 140.347 221.05 135.606C210.717 130.864 198.496 135.396 193.754 145.73C189.012 156.063 193.545 168.283 203.878 173.025C214.211 177.767 226.432 173.234 231.174 162.901Z" fill="#EBEBEB"/>
<path d="M227.321 159.107C230.022 151.102 225.556 142.368 217.346 139.599C209.137 136.83 200.293 141.074 197.593 149.079C194.892 157.084 199.358 165.818 207.568 168.588C215.777 171.357 224.621 167.112 227.321 159.107Z" fill="#F5F5F5"/>
<path d="M207.611 168.53C203.745 167.224 200.54 164.462 198.678 160.831C196.815 157.2 196.441 152.986 197.636 149.084C197.584 149.225 197.527 149.366 197.482 149.507C196.152 153.447 196.442 157.755 198.289 161.481C200.135 165.208 203.386 168.049 207.326 169.378C211.267 170.708 215.575 170.418 219.301 168.572C223.028 166.725 225.868 163.474 227.198 159.534L227.333 159.105C225.918 162.933 223.067 166.06 219.385 167.82C215.702 169.58 211.479 169.834 207.611 168.53Z" fill="#FAFAFA"/>
<path d="M217.325 139.659C221.192 140.964 224.399 143.725 226.263 147.356C228.127 150.987 228.501 155.202 227.307 159.105L227.461 158.682C228.79 154.741 228.498 150.433 226.651 146.706C224.804 142.979 221.551 140.139 217.61 138.811C213.668 137.482 209.36 137.773 205.634 139.62C201.907 141.468 199.067 144.72 197.738 148.662C197.693 148.802 197.655 148.943 197.61 149.084C199.023 145.256 201.873 142.13 205.554 140.37C209.236 138.61 213.458 138.355 217.325 139.659Z" fill="#E0E0E0"/>
<path d="M214.707 143.916C214.655 144.064 213.688 143.878 212.248 143.481L212.734 143.276C212.542 143.968 212.299 144.781 212.011 145.658L211.876 146.074L211.447 145.933L210.807 145.728C209.699 145.351 208.681 144.979 207.842 144.646L208.316 144.416C207.759 145.799 207.317 146.683 207.177 146.631C207.036 146.58 207.209 145.613 207.612 144.173L207.702 143.84L208.079 143.942C208.95 144.185 210 144.506 211.089 144.877L211.729 145.088L211.159 145.37C211.467 144.506 211.761 143.705 212.024 143.039L212.171 142.681L212.497 142.809C213.874 143.327 214.751 143.769 214.707 143.916Z" fill="#FAFAFA"/>
<path d="M218.848 145.357C218.765 145.594 218.073 145.568 217.292 145.306C216.511 145.043 215.941 144.666 216.012 144.403C216.082 144.141 216.786 144.192 217.568 144.461C218.349 144.73 218.925 145.127 218.848 145.357Z" fill="#FAFAFA"/>
<path d="M204.749 158.272C204.512 158.189 205.165 155.628 206.203 152.548C207.24 149.468 208.277 147.041 208.508 147.118C208.738 147.195 208.092 149.756 207.054 152.836C206.017 155.916 204.98 158.349 204.749 158.272Z" fill="#FAFAFA"/>
<path d="M214.469 154.015C214.386 154.251 213.31 154.098 212.068 153.682C210.826 153.265 209.872 152.727 209.955 152.491C210.039 152.254 211.108 152.407 212.356 152.83C213.605 153.253 214.546 153.784 214.469 154.015Z" fill="#FAFAFA"/>
<path d="M212.208 160.987C212.131 161.224 211.055 161.076 209.813 160.654C208.571 160.231 207.617 159.7 207.7 159.469C207.783 159.239 208.852 159.38 210.095 159.802C211.337 160.225 212.291 160.756 212.208 160.987Z" fill="#FAFAFA"/>
<path d="M208.929 162.213L208.193 160.012L210.193 159.343L209.598 157.565L207.598 158.234L206.854 156.011L208.854 155.342L206.489 148.273L212.024 146.421C213.269 146.005 214.368 145.867 215.322 146.01C216.286 146.132 217.087 146.482 217.725 147.059C218.358 147.622 218.821 148.341 219.114 149.215C219.396 150.06 219.464 150.902 219.317 151.742C219.164 152.568 218.753 153.332 218.081 154.034C217.405 154.722 216.422 155.281 215.133 155.713L212.443 156.613L213.038 158.391L217.24 156.985L217.976 159.186L213.775 160.592L214.548 162.903L211.703 163.855L210.929 161.544L208.929 162.213ZM212.672 148.651L210.071 149.522L211.7 154.39L214.3 153.52C215.249 153.202 215.864 152.749 216.145 152.161C216.44 151.568 216.467 150.908 216.224 150.182C215.976 149.441 215.563 148.92 214.984 148.619C214.406 148.318 213.635 148.329 212.672 148.651Z" fill="#3285FF" fill-opacity="0.6"/>
<path d="M111.059 50.8594C122.428 50.8594 131.645 41.6429 131.645 30.2737C131.645 18.9046 122.428 9.68811 111.059 9.68811C99.6898 9.68811 90.4733 18.9046 90.4733 30.2737C90.4733 41.6429 99.6898 50.8594 111.059 50.8594Z" fill="#E0E0E0"/>
<path d="M129.505 36.3564C134.247 26.0233 129.714 13.8027 119.381 9.06092C109.048 4.31915 96.8275 8.85181 92.0857 19.1849C87.344 29.518 91.8766 41.7386 102.21 46.4803C112.543 51.2221 124.763 46.6894 129.505 36.3564Z" fill="#EBEBEB"/>
<path d="M125.653 32.5625C128.353 24.5574 123.887 15.8233 115.678 13.0541C107.468 10.2849 98.6245 14.5294 95.9243 22.5345C93.2241 30.5395 97.6902 39.2737 105.9 42.0428C114.109 44.812 122.953 40.5675 125.653 32.5625Z" fill="#F5F5F5"/>
<path d="M105.942 41.9847C102.076 40.6787 98.8714 37.917 97.0087 34.286C95.146 30.6551 94.7722 26.441 95.9666 22.5388C95.9154 22.6797 95.8577 22.8206 95.8129 22.9614C94.4832 26.9021 94.7734 31.2095 96.6196 34.9362C98.4659 38.6628 101.717 41.5035 105.658 42.8331C109.598 44.1628 113.906 43.8726 117.632 42.0264C121.359 40.1802 124.2 36.9292 125.529 32.9885L125.664 32.5595C124.249 36.3881 121.398 39.5145 117.716 41.2744C114.033 43.0344 109.81 43.2892 105.942 41.9847Z" fill="#FAFAFA"/>
<path d="M115.657 13.1138C119.524 14.4186 122.731 17.1798 124.595 20.8109C126.459 24.442 126.833 28.6568 125.639 32.5597L125.793 32.1371C127.122 28.1957 126.83 23.8878 124.983 20.1611C123.135 16.4344 119.883 13.5943 115.942 12.2655C112 10.9366 107.692 11.228 103.966 13.0754C100.239 14.9228 97.399 18.175 96.0702 22.1165C96.0253 22.2573 95.9869 22.3982 95.9421 22.5391C97.3549 18.7109 100.205 15.5847 103.886 13.8247C107.568 12.0647 111.79 11.8097 115.657 13.1138Z" fill="#3285FF" fill-opacity="0.5"/>
<path d="M113.038 17.3715C112.987 17.5188 112.02 17.3331 110.579 16.9361L111.066 16.7312C110.874 17.4227 110.631 18.2359 110.343 19.1131L110.208 19.5293L109.779 19.3885L109.139 19.1836C108.031 18.8058 107.013 18.4344 106.174 18.1015L106.648 17.871C106.091 19.254 105.649 20.1376 105.508 20.0864C105.367 20.0352 105.54 19.0683 105.944 17.6276L106.033 17.2947L106.411 17.3971C107.282 17.6404 108.332 17.9606 109.421 18.332L110.061 18.5433L109.491 18.825C109.798 17.9606 110.093 17.1602 110.355 16.4943L110.503 16.1357L110.829 16.2638C112.206 16.7824 113.083 17.2243 113.038 17.3715Z" fill="#FAFAFA"/>
<path d="M117.18 18.8126C117.097 19.0495 116.405 19.0239 115.624 18.7614C114.843 18.4988 114.273 18.1211 114.344 17.8585C114.414 17.596 115.118 17.6472 115.9 17.9162C116.681 18.1851 117.257 18.5821 117.18 18.8126Z" fill="#FAFAFA"/>
<path d="M103.081 31.7269C102.844 31.6437 103.497 29.0825 104.534 26.0026C105.572 22.9228 106.609 20.496 106.84 20.5729C107.07 20.6497 106.423 23.2109 105.386 26.2907C104.349 29.3706 103.311 31.8037 103.081 31.7269Z" fill="#FAFAFA"/>
<path d="M112.801 27.4695C112.718 27.7064 111.642 27.5527 110.4 27.1365C109.158 26.7203 108.204 26.1825 108.287 25.9456C108.37 25.7087 109.439 25.8623 110.688 26.2849C111.937 26.7075 112.878 27.239 112.801 27.4695Z" fill="#FAFAFA"/>
<path d="M110.539 34.442C110.463 34.6789 109.387 34.5316 108.145 34.109C106.902 33.6864 105.948 33.155 106.032 32.9245C106.115 32.694 107.184 32.8348 108.426 33.2574C109.669 33.68 110.623 34.2115 110.539 34.442Z" fill="#FAFAFA"/>
<path d="M106.261 35.6681L105.525 33.4674L107.525 32.798L106.93 31.0197L104.93 31.6891L104.186 29.4662L106.186 28.7969L103.821 21.7281L109.356 19.8762C110.601 19.4597 111.7 19.3225 112.654 19.4647C113.618 19.5872 114.419 19.9371 115.057 20.5146C115.69 21.0772 116.153 21.7957 116.446 22.67C116.728 23.5147 116.796 24.3572 116.649 25.1974C116.496 26.0228 116.085 26.7868 115.413 27.4892C114.737 28.1769 113.754 28.7364 112.465 29.1678L109.775 30.0677L110.37 31.846L114.572 30.4403L115.308 32.6409L111.107 34.0467L111.88 36.3584L109.035 37.3105L108.262 34.9987L106.261 35.6681ZM110.004 22.1066L107.403 22.9768L109.032 27.8448L111.632 26.9746C112.581 26.6573 113.196 26.2045 113.477 25.6161C113.772 25.0228 113.799 24.363 113.556 23.6369C113.308 22.8959 112.895 22.3751 112.316 22.0743C111.738 21.7735 110.967 21.7843 110.004 22.1066Z" fill="#3285FF" fill-opacity="0.6"/>
<path d="M205.947 97.3638C193.967 104.279 193.967 115.493 205.947 122.413C217.927 129.332 237.349 129.328 249.325 122.413C261.301 115.498 261.305 104.279 249.325 97.3638C237.345 90.4488 217.918 90.4445 205.947 97.3638Z" fill="#3285FF" fill-opacity="0.1"/>
<path d="M95.3086 167.187C88.7551 170.972 88.7551 177.105 95.3086 180.89C101.862 184.675 112.486 184.675 119.039 180.89C125.593 177.105 125.593 170.972 119.039 167.187C112.486 163.402 101.862 163.402 95.3086 167.187Z" fill="#3285FF" fill-opacity="0.1"/>
<path d="M140.144 190.195L135.815 187.643C135.436 187.452 135.018 187.353 134.594 187.353C134.17 187.353 133.752 187.452 133.374 187.643L126.659 191.521C126.281 191.714 125.862 191.815 125.438 191.815C125.014 191.815 124.595 191.714 124.217 191.521L101.478 178.397C100.802 178.006 100.802 177.377 101.478 176.99L176.867 133.462C177.245 133.269 177.663 133.169 178.088 133.169C178.512 133.169 178.93 133.269 179.308 133.462L202.048 146.591C202.72 146.982 202.724 147.616 202.048 148.011L195.32 151.962C194.652 152.357 194.656 152.987 195.32 153.374L199.641 155.836C200.317 156.223 200.317 156.848 199.641 157.24L142.581 190.195C142.203 190.385 141.786 190.485 141.363 190.485C140.939 190.485 140.522 190.385 140.144 190.195Z" fill="#3285FF" fill-opacity="0.1"/>
<path d="M190.6 147.501V12.0368C190.6 8.54954 188.869 7.58841 187.33 6.69957C185.79 5.81074 183.264 5.27489 181.078 6.53797L125.137 38.8337C122.955 40.1095 121.182 43.163 121.182 45.6849V181.153C121.182 183.675 122.764 185.164 124.303 186.048C125.843 186.933 128.522 187.911 130.704 186.652L186.645 154.352C187.882 153.698 188.91 152.708 189.61 151.496C190.309 150.284 190.653 148.9 190.6 147.501Z" fill="#4F5665"/>
<path d="M187.046 148.785L129.522 181.996V45.9401L122.322 41.7852C121.621 42.9682 121.231 44.3102 121.191 45.685V181.153C121.191 183.675 122.773 185.164 124.313 186.048C125.852 186.933 128.531 187.911 130.713 186.652L186.654 154.352C188.201 153.513 189.405 152.159 190.056 150.525L189.835 150.393L187.046 148.785Z" fill="#1F1A1A"/>
<path d="M186.544 10.8625L130.441 43.256C129.634 43.7833 128.962 44.4929 128.479 45.3277C127.997 46.1625 127.718 47.099 127.664 48.0617V182.45C127.664 185.155 129.586 186.277 131.917 184.908L186.544 153.361C187.457 152.762 188.217 151.957 188.763 151.011C189.309 150.065 189.625 149.004 189.687 147.913V12.6784C189.687 10.6796 188.27 9.8631 186.544 10.8625Z" fill="#808080"/>
<path d="M186.95 19.1001V144.706C186.894 145.743 186.596 146.751 186.079 147.651C185.562 148.551 184.841 149.316 183.973 149.886L133.386 179.086C131.736 180.043 130.41 179.273 130.41 177.364V50.8387C130.502 49.1234 131.253 47.5101 132.506 46.335L132.787 46.0755C132.98 45.9212 133.184 45.7791 133.395 45.6503L147.621 37.4339L148.548 36.9023C149.058 36.6046 149.475 36.8427 149.475 37.4339C149.475 38.025 149.9 38.2547 150.466 37.9314L167.052 28.3627C167.335 28.1862 167.572 27.9457 167.745 27.6606C167.918 27.3754 168.021 27.0536 168.047 26.7211C168.066 26.4159 168.153 26.1188 168.3 25.8506C168.447 25.5824 168.651 25.3497 168.897 25.1688L168.995 25.1093L182.855 17.0927L183.148 16.9184C185.249 15.7148 186.95 16.6972 186.95 19.1001Z" fill="black"/>
<path d="M179.624 146.531C180.491 145.962 181.212 145.196 181.73 144.296C182.247 143.396 182.545 142.388 182.601 141.351V17.2421L168.949 25.1225L168.851 25.1821C168.605 25.3629 168.401 25.5956 168.254 25.8638C168.107 26.132 168.021 26.4292 168.001 26.7343C167.975 27.0668 167.872 27.3887 167.699 27.6738C167.526 27.959 167.289 28.1995 167.006 28.3759L150.42 37.9447C149.871 38.2679 149.429 38.0383 149.429 37.4471C149.429 36.856 149.004 36.5966 148.502 36.9155L147.575 37.4471L133.349 45.6635C133.137 45.7914 132.934 45.9334 132.741 46.0888L132.46 46.3482C131.207 47.5234 130.456 49.1367 130.364 50.8519V174.948L179.624 146.531Z" fill="#1F1A1A"/>
<path d="M152.976 32.8922L160.576 28.5034C161.031 28.2397 161.396 28.4268 161.396 28.9286C161.376 29.2041 161.292 29.471 161.149 29.7075C161.006 29.944 160.81 30.1434 160.576 30.2895L152.976 34.6784C152.525 34.9378 152.155 34.755 152.155 34.2531C152.176 33.9778 152.261 33.7112 152.403 33.4748C152.546 33.2384 152.742 33.0388 152.976 32.8922Z" fill="#1F1A1A"/>
<path d="M164.476 25.8924C164.986 25.5947 165.399 25.8371 165.403 26.424C165.385 26.7453 165.292 27.058 165.131 27.3366C164.97 27.6152 164.746 27.8518 164.476 28.0273C163.965 28.3207 163.553 28.0826 163.553 27.4914C163.57 27.1711 163.663 26.8594 163.823 26.5816C163.984 26.3038 164.207 26.0677 164.476 25.8924Z" fill="#1F1A1A"/>
<path d="M126.369 61.9262C126.352 61.4015 126.21 60.8885 125.957 60.4289C125.703 59.9692 125.345 59.5759 124.911 59.2809C124.767 59.1775 124.597 59.115 124.421 59.1C124.244 59.085 124.066 59.1181 123.907 59.1959C123.724 59.3064 123.001 59.7105 122.81 59.8253C122.651 59.9446 122.527 60.1029 122.448 60.2848C122.369 60.4666 122.338 60.6658 122.359 60.863V71.9202C122.378 72.4444 122.521 72.9567 122.775 73.4155C123.029 73.8744 123.388 74.2669 123.822 74.5612C123.96 74.6608 124.122 74.7226 124.291 74.7405C124.46 74.7584 124.631 74.7318 124.787 74.6633C124.987 74.557 125.727 74.1317 125.919 74.0169C126.078 73.8981 126.203 73.7399 126.282 73.5579C126.361 73.3759 126.391 73.1764 126.369 72.9792V61.9262Z" fill="#808080"/>
<path d="M125.287 62.5644V73.6217C125.287 74.6126 124.632 75.0421 123.824 74.5743C123.39 74.28 123.031 73.8875 122.777 73.4286C122.523 72.9698 122.38 72.4575 122.361 71.9333V60.876C122.361 59.8809 123.016 59.4556 123.824 59.9192C124.258 60.2142 124.617 60.6074 124.871 61.067C125.126 61.5266 125.268 62.0396 125.287 62.5644Z" fill="#4F5665"/>
<path d="M126.369 81.2551C126.351 80.7312 126.209 80.2191 125.956 79.7602C125.702 79.3013 125.344 78.9087 124.911 78.6142C124.767 78.5094 124.598 78.4461 124.421 78.4311C124.244 78.4161 124.066 78.45 123.907 78.5291C123.724 78.6397 123.001 79.0437 122.81 79.1585C122.651 79.2778 122.527 79.4361 122.448 79.618C122.369 79.7998 122.338 79.999 122.359 80.1962V91.2322C122.378 91.757 122.52 92.27 122.774 92.7296C123.029 93.1892 123.387 93.5824 123.822 93.8774C123.961 93.9758 124.122 94.0369 124.291 94.0548C124.46 94.0727 124.631 94.0467 124.787 93.9795C124.987 93.8732 125.727 93.4479 125.919 93.3331C126.078 93.2143 126.203 93.0561 126.282 92.8741C126.361 92.6921 126.391 92.4926 126.369 92.2954V81.2551Z" fill="#808080"/>
<path d="M125.287 81.8846V92.9206C125.287 93.9157 124.632 94.3453 123.824 93.8774C123.389 93.5825 123.03 93.1892 122.776 92.7296C122.522 92.2701 122.38 91.7571 122.361 91.2322V80.2132C122.361 79.2181 123.016 78.7885 123.824 79.2563C124.256 79.5496 124.613 79.9402 124.867 80.3966C125.121 80.853 125.265 81.3626 125.287 81.8846Z" fill="#4F5665"/>
<path d="M184.917 27.0133C184.946 26.7492 184.902 26.4823 184.789 26.2417C184.677 26.001 184.5 25.7957 184.28 25.6481L182.638 24.7083C182.4 24.5906 182.134 24.5406 181.869 24.5639C181.604 24.5871 181.351 24.6827 181.137 24.8401L136.772 50.4504C136.161 50.8475 135.653 51.383 135.289 52.0133C134.925 52.6437 134.714 53.3511 134.675 54.0781V85.4382C134.647 85.6992 134.69 85.9629 134.8 86.2016C134.909 86.4403 135.08 86.6452 135.296 86.7948L136.976 87.7517C137.214 87.8624 137.477 87.9075 137.738 87.882C137.999 87.8566 138.248 87.7617 138.46 87.6071L182.821 61.9968C183.43 61.5992 183.937 61.0635 184.301 60.4332C184.665 59.8029 184.874 59.0957 184.913 58.3691L184.917 27.0133Z" fill="#DCDCDC"/>
<path opacity="0.4" d="M184.917 27.0132V58.3733C184.878 59.0992 184.668 59.8055 184.304 60.435C183.941 61.0645 183.434 61.5995 182.825 61.9967L138.46 87.607C137.435 88.2024 136.576 87.8409 136.401 86.8117C136.53 86.7692 136.654 86.7136 136.771 86.6459L181.137 61.0313C181.746 60.6347 182.253 60.0998 182.617 59.4701C182.98 58.8405 183.19 58.1339 183.229 57.4079V26.0521C183.233 25.9093 183.22 25.7666 183.191 25.6268C184.173 25.2653 184.917 25.8267 184.917 27.0132Z" fill="#3285FF"/>
<path d="M182.82 25.8056L143.469 48.9621L140.628 50.6079C140.628 50.6079 139.101 51.416 138.502 51.8412C138.3 51.9837 138.112 52.1446 137.94 52.3218C137.235 53.0544 136.811 54.012 136.741 55.0266V58.3182L136.375 86.3994L136.014 58.331V55.0138C136.079 53.8121 136.574 52.6738 137.409 51.8072C137.611 51.5879 137.834 51.3898 138.077 51.2161C138.702 50.7908 140.233 49.9402 140.233 49.9402L143.086 48.2902L182.82 25.8056Z" fill="white"/>
<g opacity="0.3">
<path opacity="0.3" d="M181.298 58.9437L139.892 82.8486V60.6278L181.298 36.7271V36.2508L139.803 60.2067L139.535 60.3598V83.5333L181.298 59.4242V58.9437Z" fill="white"/>
<path opacity="0.3" d="M181.298 51.3824L139.804 75.3341L139.625 75.9125L181.298 51.8544V51.3824Z" fill="white"/>
<path opacity="0.3" d="M181.299 43.8166L139.804 67.7684L139.626 68.351L181.299 44.2929V43.8166Z" fill="white"/>
<path opacity="0.3" d="M181.299 59.0667L180.941 59.509V36.8118L181.299 36.3695V59.0667Z" fill="white"/>
<path opacity="0.3" d="M176.122 62.0523L175.765 62.4988V39.8017L176.122 39.3551V62.0523Z" fill="white"/>
<path opacity="0.3" d="M170.947 65.042L170.59 65.4842V42.7871L170.947 42.3448V65.042Z" fill="white"/>
<path opacity="0.3" d="M165.771 68.0277L165.413 68.4742V45.777L165.771 45.3305V68.0277Z" fill="white"/>
<path opacity="0.3" d="M160.596 71.0171L160.238 71.4594V48.7623L160.596 48.32V71.0171Z" fill="white"/>
<path opacity="0.3" d="M155.419 74.0067L155.062 74.449V51.7519L155.419 51.3096V74.0067Z" fill="white"/>
<path opacity="0.3" d="M150.244 76.9924L149.886 77.4389V54.7418L150.244 54.2952V76.9924Z" fill="white"/>
<path opacity="0.3" d="M145.069 79.9823L144.712 80.4246V57.7275L145.069 57.2852V79.9823Z" fill="white"/>
</g>
<path d="M139.629 76.5964L139.446 76.2732C140.692 75.5544 141.287 71.7057 141.811 68.3119C142.334 64.9182 142.823 61.7839 143.907 61.0099C144.053 60.8871 144.225 60.7998 144.41 60.7548C144.596 60.7098 144.789 60.7083 144.975 60.7505C145.732 60.9631 146.187 62.0263 146.676 63.1788C147.101 64.2037 147.556 65.2584 148.164 65.4626C148.285 65.4965 148.411 65.5035 148.535 65.4829C148.658 65.4623 148.776 65.4147 148.879 65.3435C150.193 64.5865 150.784 65.2627 151.307 65.8623C151.83 66.462 152.34 67.0446 153.676 66.2876C154.854 65.6072 155.377 64.2463 155.972 62.8046C156.568 61.3629 157.138 59.8914 158.422 59.1472C159.57 58.4837 160.123 59.1472 160.68 59.8021C161.356 60.6059 162.058 61.4352 164.031 60.6144C164.119 60.5733 164.215 60.5521 164.312 60.5521C164.409 60.5521 164.505 60.5733 164.593 60.6144C165.112 60.8483 165.409 61.7244 165.749 62.7408C166.09 63.7572 166.506 64.9692 167.14 65.1564C167.314 65.1843 167.491 65.1699 167.658 65.1144C167.824 65.0588 167.975 64.9638 168.097 64.8374C168.982 64.1399 169.496 62.6302 169.99 61.1715C170.559 59.5001 171.146 57.7693 172.329 57.0888C173.307 56.5232 173.715 55.4898 174.149 54.3968C174.638 53.1677 175.144 51.9004 176.479 51.1307C177.815 50.3609 178.444 51.1859 178.92 51.8706C179.397 52.5553 179.809 53.1465 180.936 52.5043L181.119 52.8233C179.703 53.6441 179.099 52.7765 178.614 52.0833C178.129 51.3901 177.764 50.8074 176.662 51.4496C175.437 52.1556 174.961 53.3634 174.493 54.5329C174.068 55.6344 173.6 56.7784 172.511 57.4078C171.423 58.0372 170.887 59.683 170.343 61.2906C169.828 62.8003 169.296 64.3611 168.327 65.1181C168.162 65.2813 167.959 65.4016 167.736 65.4683C167.514 65.535 167.279 65.5462 167.051 65.5008C166.234 65.2584 165.822 64.0379 165.418 62.8514C165.129 62.0008 164.831 61.1205 164.457 60.9504C164.415 60.9315 164.369 60.9217 164.323 60.9217C164.276 60.9217 164.231 60.9315 164.189 60.9504C161.969 61.8775 161.105 60.8568 160.412 60.036C159.864 59.3853 159.502 58.9558 158.622 59.4619C157.448 60.1423 156.921 61.499 156.334 62.9364C155.747 64.3738 155.169 65.8581 153.876 66.6023C152.277 67.5294 151.592 66.7469 151.043 66.1175C150.495 65.4881 150.133 65.0671 149.079 65.6922C148.931 65.7904 148.764 65.8547 148.589 65.8804C148.414 65.9062 148.236 65.8927 148.066 65.8411C147.297 65.5859 146.816 64.4504 146.365 63.3532C145.94 62.3453 145.515 61.2991 144.911 61.1332C144.778 61.1084 144.642 61.1142 144.512 61.1504C144.383 61.1865 144.263 61.2519 144.162 61.3416C143.201 62.0263 142.699 65.2669 142.215 68.4012C141.615 72.0161 141.054 75.7841 139.629 76.5964Z" fill="white"/>
<path d="M140.017 76.1583C140.019 76.3525 139.977 76.5446 139.894 76.72C139.81 76.8954 139.688 77.0495 139.536 77.1705C139.273 77.3236 139.06 77.1195 139.06 76.7112C139.057 76.5174 139.099 76.3255 139.181 76.1501C139.264 75.9747 139.385 75.8205 139.536 75.699C139.8 75.5459 140.017 75.7501 140.017 76.1583Z" fill="white"/>
<path d="M144.52 60.8951C144.522 61.09 144.481 61.2829 144.397 61.4591C144.314 61.6353 144.191 61.7901 144.039 61.9116C143.775 62.0647 143.563 61.8563 143.563 61.448C143.56 61.2542 143.602 61.0623 143.684 60.8869C143.767 60.7115 143.888 60.5573 144.039 60.4358C144.303 60.2827 144.52 60.4911 144.52 60.8951Z" fill="white"/>
<path d="M149.484 65.2376C149.486 65.4317 149.444 65.6238 149.36 65.7992C149.277 65.9746 149.155 66.1287 149.003 66.2497C148.739 66.4028 148.527 66.1944 148.527 65.7904C148.523 65.5959 148.565 65.4032 148.647 65.227C148.73 65.0508 148.852 64.8959 149.003 64.774C149.267 64.6252 149.484 64.8293 149.484 65.2376Z" fill="white"/>
<path d="M154.178 66.1944C154.18 66.3893 154.139 66.5822 154.055 66.7584C153.972 66.9346 153.85 67.0894 153.697 67.2108C153.433 67.3639 153.221 67.1556 153.221 66.7473C153.218 66.5535 153.26 66.3616 153.342 66.1862C153.425 66.0108 153.546 65.8566 153.697 65.7351C153.961 65.582 154.178 65.7904 154.178 66.1944Z" fill="white"/>
<path d="M159.009 58.9991C159.011 59.1929 158.97 59.3848 158.887 59.5602C158.805 59.7355 158.683 59.8898 158.532 60.0113C158.269 60.1644 158.052 59.956 158.052 59.552C158.049 59.3571 158.091 59.1642 158.174 58.988C158.257 58.8118 158.38 58.657 158.532 58.5355C158.796 58.3867 159.009 58.5908 159.009 58.9991Z" fill="#3285FF"/>
<path d="M164.631 60.4745C164.633 60.6686 164.591 60.8607 164.508 61.0361C164.425 61.2116 164.302 61.3656 164.15 61.4867C163.887 61.6398 163.674 61.4314 163.674 61.0274C163.671 60.8335 163.713 60.6417 163.795 60.4663C163.878 60.2909 163.999 60.1366 164.15 60.0152C164.414 59.8621 164.631 60.0662 164.631 60.4745Z" fill="white"/>
<path d="M168.697 64.6715C168.699 64.8657 168.657 65.0578 168.573 65.2332C168.49 65.4086 168.368 65.5626 168.216 65.6837C167.952 65.8368 167.735 65.6284 167.735 65.2244C167.733 65.0295 167.774 64.8366 167.858 64.6604C167.941 64.4842 168.064 64.3294 168.216 64.2079C168.475 64.0548 168.697 64.2632 168.697 64.6715Z" fill="white"/>
<path d="M172.919 56.9447C172.922 57.1395 172.88 57.3325 172.797 57.5087C172.713 57.6849 172.591 57.8396 172.438 57.9611C172.175 58.1099 171.962 57.9058 171.962 57.4975C171.959 57.3037 172.001 57.1118 172.083 56.9365C172.166 56.7611 172.287 56.6068 172.438 56.4854C172.706 56.311 172.919 56.5194 172.919 56.9447Z" fill="white"/>
<path d="M176.926 51.0499C176.928 51.2438 176.887 51.4356 176.804 51.611C176.722 51.7864 176.6 51.9407 176.449 52.0621C176.186 52.2152 175.969 52.0068 175.969 51.6028C175.966 51.4079 176.008 51.215 176.091 51.0388C176.174 50.8626 176.297 50.7079 176.449 50.5864C176.713 50.4333 176.926 50.6417 176.926 51.0499Z" fill="white"/>
<path d="M181.498 52.3472C181.502 52.5403 181.462 52.7318 181.381 52.9071C181.3 53.0824 181.18 53.2371 181.03 53.3594C180.762 53.5125 180.55 53.3083 180.55 52.9001C180.546 52.7056 180.587 52.5128 180.67 52.3371C180.754 52.1614 180.877 52.0076 181.03 51.8879C181.286 51.7348 181.498 51.9389 181.498 52.3472Z" fill="white"/>
<path d="M139.719 53.6399C139.719 54.1928 140.144 54.4012 140.637 54.1077L152.617 47.1927C152.88 47.0274 153.1 46.8027 153.259 46.5367C153.419 46.2708 153.514 45.971 153.536 45.6617C153.536 45.1131 153.111 44.9047 152.617 45.1981L140.629 52.1132C140.368 52.2782 140.149 52.5025 139.991 52.7677C139.833 53.033 139.74 53.3318 139.719 53.6399Z" fill="#FAFAFA"/>
<path opacity="0.45" d="M139.714 56.8597C139.752 56.861 139.789 56.8506 139.82 56.8299L153.642 48.8644C153.666 48.8508 153.688 48.8324 153.705 48.8103C153.722 48.7883 153.734 48.763 153.741 48.736C153.748 48.7091 153.75 48.681 153.746 48.6533C153.742 48.6257 153.733 48.5992 153.718 48.5753C153.691 48.5263 153.645 48.4902 153.591 48.4751C153.536 48.4599 153.478 48.4669 153.429 48.4945L139.608 56.4642C139.568 56.4879 139.537 56.524 139.519 56.5669C139.502 56.6099 139.499 56.6575 139.511 56.7023C139.523 56.7471 139.549 56.7867 139.586 56.8152C139.623 56.8436 139.668 56.8592 139.714 56.8597ZM157.176 48.5625C157.147 48.5143 157.101 48.479 157.048 48.464C156.994 48.4489 156.936 48.4553 156.887 48.4817L139.608 58.4588C139.568 58.4824 139.537 58.5185 139.519 58.5615C139.502 58.6045 139.499 58.652 139.511 58.6968C139.523 58.7417 139.549 58.7813 139.586 58.8097C139.623 58.8381 139.668 58.8538 139.714 58.8543C139.752 58.8555 139.789 58.8451 139.82 58.8245L157.099 48.8644C157.125 48.8504 157.147 48.8313 157.165 48.8081C157.183 48.785 157.196 48.7585 157.203 48.7302C157.211 48.7018 157.212 48.6723 157.207 48.6435C157.202 48.6146 157.192 48.5871 157.176 48.5625Z" fill="white"/>
<path d="M174.68 35.6079C174.68 36.1565 175.105 36.3649 175.599 36.0715L180.256 33.3795C180.517 33.2146 180.737 32.9906 180.897 32.7254C181.056 32.4602 181.151 32.1613 181.174 31.8527C181.174 31.2999 180.749 31.0915 180.256 31.3849L175.599 34.0769C175.336 34.2417 175.116 34.4663 174.956 34.7323C174.796 34.9984 174.702 35.2984 174.68 35.6079Z" fill="#FAFAFA"/>
<path d="M184.918 69.3627C184.946 69.0986 184.902 68.8317 184.79 68.591C184.677 68.3504 184.501 68.1451 184.28 67.9975L182.638 67.0576C182.4 66.9393 182.135 66.8887 181.87 66.9112C181.605 66.9337 181.352 67.0285 181.137 67.1852L136.772 92.7998C136.163 93.1974 135.655 93.7331 135.292 94.3634C134.928 94.9937 134.719 95.7008 134.68 96.4274V127.783C134.652 128.044 134.695 128.308 134.804 128.547C134.913 128.785 135.085 128.99 135.301 129.14L136.98 130.097C137.218 130.208 137.481 130.253 137.742 130.227C138.003 130.202 138.253 130.107 138.465 129.952L182.826 104.342C183.435 103.944 183.942 103.409 184.306 102.778C184.669 102.148 184.879 101.441 184.918 100.714V69.3627Z" fill="#DCDCDC"/>
<path opacity="0.4" d="M184.917 69.3624V100.718C184.878 101.445 184.669 102.152 184.305 102.782C183.941 103.413 183.434 103.948 182.825 104.346L138.46 129.956C137.435 130.552 136.576 130.186 136.401 129.161C136.531 129.119 136.655 129.062 136.771 128.991L181.137 103.381C181.746 102.984 182.253 102.449 182.616 101.819C182.98 101.19 183.19 100.483 183.229 99.7571V68.4013C183.233 68.2585 183.22 68.1158 183.191 67.976C184.173 67.6145 184.917 68.1717 184.917 69.3624Z" fill="#3285FF"/>
<path d="M182.821 68.1508L143.47 91.3115L140.629 92.9573C140.629 92.9573 139.119 93.7696 138.502 94.1821C138.299 94.3221 138.111 94.4832 137.941 94.6627C137.236 95.3953 136.811 96.3529 136.742 97.3675V100.659L136.38 128.728L136.019 100.659V97.3462C136.085 96.1448 136.58 95.0071 137.414 94.1396C137.622 93.9219 137.851 93.7253 138.098 93.5527C138.724 93.1274 140.255 92.2769 140.255 92.2769L143.108 90.6268L182.821 68.1508Z" fill="white"/>
<g opacity="0.3">
<path opacity="0.3" d="M181.298 101.293L139.892 125.197V102.977L181.298 79.076V78.5996L139.803 102.551L139.535 102.709V125.882L181.298 101.773V101.293Z" fill="white"/>
<path opacity="0.3" d="M181.299 93.7271L139.804 117.683L139.626 118.261L181.299 94.2034V93.7271Z" fill="white"/>
<path opacity="0.3" d="M181.299 86.1655L139.804 110.117L139.626 110.7L181.299 86.6376V86.1655Z" fill="white"/>
<path opacity="0.3" d="M181.299 101.412L180.941 101.859V79.1615L181.299 78.7192V101.412Z" fill="white"/>
<path opacity="0.3" d="M176.122 104.401L175.765 104.848V82.1506L176.122 81.704V104.401Z" fill="white"/>
<path opacity="0.3" d="M170.947 107.391L170.59 107.833V85.1361L170.947 84.6938V107.391Z" fill="white"/>
<path opacity="0.3" d="M165.771 110.377L165.413 110.823V88.1261L165.771 87.6796V110.377Z" fill="white"/>
<path opacity="0.3" d="M160.596 113.367L160.238 113.809V91.1116L160.596 90.6693V113.367Z" fill="white"/>
<path opacity="0.3" d="M155.419 116.352L155.062 116.799V94.1015L155.419 93.655V116.352Z" fill="white"/>
<path opacity="0.3" d="M150.244 119.341L149.886 119.784V97.0908L150.244 96.6443V119.341Z" fill="white"/>
<path opacity="0.3" d="M145.069 122.331L144.712 122.774V100.077L145.069 99.6342V122.331Z" fill="white"/>
</g>
<path d="M139.629 118.763L139.446 118.444C140.794 117.666 141.432 117.908 141.998 118.121C142.563 118.334 142.92 118.47 143.907 117.768C145.055 116.947 145.676 114.821 146.276 112.763C146.939 110.496 147.552 108.357 148.87 107.604C150.189 106.851 150.775 107.498 151.294 108.076C151.813 108.654 152.328 109.216 153.667 108.442C154.85 107.757 155.394 106.515 155.968 105.201C156.542 103.887 157.133 102.535 158.413 101.799C159.553 101.144 160.115 101.701 160.663 102.224C161.31 102.862 162.041 103.585 164.023 102.756C164.822 102.424 165.277 102.973 165.677 103.462C166.23 104.134 166.706 104.712 168.089 103.623C168.973 102.926 169.488 101.118 169.99 99.3705C170.551 97.3844 171.138 95.3388 172.32 94.6541C173.285 94.097 173.698 92.4214 174.136 90.648C174.621 88.6789 175.123 86.6461 176.471 85.8678C176.609 85.7744 176.767 85.7148 176.933 85.6942C177.098 85.6735 177.266 85.6922 177.423 85.7488C178.185 86.0635 178.55 87.3903 178.937 88.798C179.286 90.0739 179.652 91.3965 180.264 91.6474C180.375 91.6829 180.493 91.6921 180.608 91.6744C180.723 91.6567 180.833 91.6125 180.928 91.5453L181.111 91.8643C180.968 91.9614 180.804 92.0232 180.632 92.0446C180.461 92.0661 180.286 92.0465 180.124 91.9876C179.341 91.6687 178.971 90.3205 178.58 88.8958C178.236 87.62 177.878 86.3442 177.283 86.0932C177.178 86.0571 177.066 86.0467 176.957 86.063C176.847 86.0793 176.743 86.1218 176.654 86.1868C175.442 86.8885 174.953 88.8448 174.493 90.7373C174.034 92.6298 173.604 94.3394 172.503 94.9901C171.401 95.6408 170.887 97.5758 170.343 99.4853C169.798 101.395 169.296 103.151 168.318 103.925C166.647 105.239 165.949 104.389 165.392 103.708C164.967 103.181 164.686 102.896 164.163 103.113C161.96 104.032 161.097 103.185 160.404 102.501C159.855 101.96 159.494 101.603 158.596 102.122C157.423 102.798 156.895 104.04 156.304 105.354C155.713 106.668 155.139 108.021 153.85 108.756C152.251 109.679 151.571 108.926 151.022 108.331C150.473 107.736 150.108 107.323 149.053 107.931C147.875 108.612 147.241 110.781 146.633 112.873C146.025 114.965 145.357 117.185 144.124 118.074C142.976 118.895 142.423 118.682 141.866 118.474C141.309 118.266 140.828 118.07 139.629 118.763Z" fill="white"/>
<path d="M140.017 118.329C140.019 118.524 139.977 118.716 139.893 118.891C139.81 119.066 139.688 119.22 139.536 119.342C139.272 119.495 139.06 119.29 139.06 118.882C139.057 118.688 139.099 118.497 139.181 118.321C139.264 118.146 139.385 117.991 139.536 117.87C139.8 117.717 140.017 117.921 140.017 118.329Z" fill="white"/>
<path d="M144.52 117.654C144.522 117.848 144.481 118.041 144.397 118.218C144.314 118.394 144.191 118.549 144.039 118.67C143.775 118.819 143.563 118.615 143.563 118.206C143.56 118.013 143.602 117.821 143.684 117.645C143.767 117.47 143.888 117.316 144.039 117.194C144.303 117.041 144.52 117.25 144.52 117.654Z" fill="white"/>
<path d="M149.484 107.497C149.486 107.692 149.444 107.884 149.36 108.059C149.277 108.235 149.155 108.389 149.003 108.51C148.739 108.663 148.527 108.454 148.527 108.046C148.524 107.852 148.566 107.66 148.648 107.485C148.731 107.31 148.852 107.155 149.003 107.034C149.267 106.881 149.484 107.089 149.484 107.497Z" fill="white"/>
<path d="M154.177 108.365C154.18 108.559 154.137 108.751 154.054 108.926C153.971 109.102 153.849 109.256 153.697 109.377C153.433 109.53 153.221 109.326 153.221 108.918C153.218 108.724 153.259 108.532 153.342 108.357C153.424 108.181 153.546 108.027 153.697 107.905C153.961 107.752 154.177 107.978 154.177 108.365Z" fill="white"/>
<path d="M159.009 101.662C159.011 101.856 158.97 102.048 158.887 102.224C158.805 102.399 158.683 102.553 158.532 102.675C158.269 102.828 158.052 102.624 158.052 102.215C158.05 102.021 158.092 101.829 158.175 101.654C158.258 101.478 158.381 101.324 158.532 101.203C158.796 101.05 159.009 101.254 159.009 101.662Z" fill="white"/>
<path d="M164.631 102.645C164.633 102.839 164.591 103.031 164.508 103.207C164.425 103.382 164.302 103.536 164.151 103.657C163.887 103.81 163.674 103.602 163.674 103.198C163.671 103.004 163.712 102.811 163.795 102.635C163.877 102.458 163.999 102.304 164.151 102.182C164.414 102.024 164.631 102.237 164.631 102.645Z" fill="#3285FF"/>
<path d="M168.697 103.492C168.699 103.686 168.657 103.878 168.574 104.053C168.49 104.229 168.368 104.383 168.216 104.504C167.953 104.657 167.736 104.453 167.736 104.045C167.733 103.851 167.776 103.658 167.859 103.483C167.942 103.308 168.064 103.154 168.216 103.033C168.476 102.875 168.697 103.084 168.697 103.492Z" fill="white"/>
<path d="M172.919 94.5353C172.921 94.7295 172.879 94.9215 172.796 95.097C172.713 95.2724 172.59 95.4264 172.439 95.5475C172.175 95.7006 171.962 95.4922 171.962 95.0882C171.959 94.8936 172 94.7009 172.083 94.5247C172.165 94.3486 172.287 94.1936 172.439 94.0717C172.706 93.9186 172.919 94.127 172.919 94.5353Z" fill="white"/>
<path d="M176.926 85.8294C176.929 86.0233 176.887 86.2151 176.805 86.3905C176.722 86.5659 176.601 86.7202 176.45 86.8416C176.186 86.9947 175.969 86.7906 175.969 86.3823C175.967 86.1882 176.009 85.9961 176.092 85.8207C176.176 85.6453 176.298 85.4912 176.45 85.3701C176.713 85.217 176.926 85.4382 176.926 85.8294Z" fill="white"/>
<path d="M181.498 91.4304C181.501 91.6242 181.459 91.8161 181.377 91.9914C181.294 92.1668 181.173 92.3211 181.022 92.4425C180.754 92.5956 180.541 92.3915 180.541 91.9832C180.537 91.7873 180.58 91.5933 180.665 91.4167C180.75 91.2402 180.875 91.0861 181.03 90.9668C181.286 90.818 181.498 91.0221 181.498 91.4304Z" fill="white"/>
<path d="M139.718 96.1851C139.718 96.7337 140.144 96.9421 140.637 96.6487L152.617 89.7336C152.88 89.5683 153.099 89.3437 153.259 89.0777C153.419 88.8117 153.513 88.512 153.536 88.2026C153.536 87.654 153.11 87.4456 152.617 87.7391L140.629 94.6541C140.367 94.8198 140.149 95.0448 139.99 95.3108C139.832 95.5768 139.739 95.8764 139.718 96.1851Z" fill="#FAFAFA"/>
<path opacity="0.45" d="M139.714 99.4001C139.751 99.4008 139.787 99.392 139.82 99.3746L153.642 91.3921C153.684 91.3611 153.714 91.3155 153.725 91.264C153.735 91.2124 153.727 91.1587 153.7 91.1132C153.674 91.0677 153.631 91.0336 153.581 91.0176C153.531 91.0015 153.477 91.0047 153.429 91.0263L139.607 99.0046C139.559 99.033 139.524 99.0793 139.51 99.1334C139.495 99.1876 139.503 99.2452 139.531 99.2938C139.549 99.3259 139.576 99.3526 139.608 99.3713C139.64 99.3899 139.677 99.3999 139.714 99.4001ZM157.176 91.1029C157.147 91.0546 157.101 91.0195 157.047 91.0052C156.993 90.9908 156.935 90.9984 156.886 91.0263L139.607 100.999C139.559 101.028 139.524 101.074 139.51 101.128C139.495 101.182 139.503 101.24 139.531 101.288C139.549 101.32 139.576 101.347 139.608 101.366C139.64 101.384 139.677 101.394 139.714 101.395C139.751 101.395 139.787 101.387 139.82 101.369L157.099 91.3921C157.147 91.3637 157.182 91.3174 157.197 91.2632C157.211 91.2091 157.204 91.1515 157.176 91.1029Z" fill="white"/>
<path d="M174.68 78.1487C174.68 78.6973 175.105 78.9057 175.599 78.6122L180.256 75.9245C180.518 75.7592 180.738 75.5345 180.897 75.2685C181.057 75.0026 181.152 74.7028 181.174 74.3935C181.174 73.8449 180.749 73.6365 180.256 73.9299L175.599 76.6177C175.336 76.7825 175.116 77.007 174.956 77.2731C174.796 77.5391 174.702 77.8392 174.68 78.1487Z" fill="#FAFAFA"/>
<path d="M184.918 111.712C184.947 111.448 184.903 111.181 184.791 110.94C184.678 110.699 184.502 110.494 184.28 110.347L182.639 109.407C182.401 109.289 182.135 109.238 181.87 109.261C181.606 109.283 181.352 109.378 181.138 109.535L136.772 135.149C136.163 135.547 135.656 136.082 135.292 136.713C134.929 137.343 134.719 138.05 134.68 138.777V170.128C134.652 170.39 134.694 170.655 134.803 170.894C134.913 171.134 135.085 171.339 135.301 171.489L136.981 172.446C137.219 172.556 137.482 172.601 137.743 172.575C138.003 172.55 138.253 172.455 138.465 172.302L182.826 146.679C183.435 146.281 183.942 145.745 184.306 145.115C184.67 144.485 184.879 143.777 184.918 143.051V111.712Z" fill="#DCDCDC"/>
<path opacity="0.4" d="M184.918 111.712V143.068C184.879 143.794 184.669 144.502 184.305 145.132C183.942 145.762 183.435 146.298 182.825 146.695L138.46 172.306C137.435 172.901 136.576 172.535 136.402 171.51C136.531 171.468 136.655 171.411 136.772 171.34L181.137 145.73C181.745 145.333 182.252 144.798 182.616 144.168C182.979 143.539 183.189 142.832 183.229 142.107V110.747C183.233 110.604 183.22 110.461 183.191 110.321C184.173 109.964 184.918 110.53 184.918 111.712Z" fill="#3285FF"/>
<path d="M182.82 110.5L143.469 133.661L140.628 135.307C140.628 135.307 139.118 136.119 138.502 136.531C138.298 136.671 138.11 136.832 137.94 137.012C137.235 137.745 136.811 138.702 136.741 139.717V143.008L136.375 171.098L136.014 143.008V139.708C136.08 138.507 136.575 137.369 137.409 136.502C137.617 136.284 137.847 136.087 138.094 135.915C138.719 135.489 140.25 134.639 140.25 134.639L143.103 132.985L182.82 110.5Z" fill="white"/>
<g opacity="0.3">
<path opacity="0.3" d="M181.298 143.642L139.892 167.547V145.326L181.298 121.425V120.949L139.803 144.901L139.535 145.058V168.232L181.298 144.118V143.642Z" fill="white"/>
<path opacity="0.3" d="M181.299 136.076L139.804 160.032L139.626 160.611L181.299 136.553V136.076Z" fill="white"/>
<path opacity="0.3" d="M181.299 128.51L139.804 152.466L139.626 153.045L181.299 128.986V128.51Z" fill="white"/>
<path opacity="0.3" d="M181.299 143.761L180.941 144.208V121.511L181.299 121.068V143.761Z" fill="white"/>
<path opacity="0.3" d="M176.122 146.751L175.765 147.193V124.496L176.122 124.053V146.751Z" fill="white"/>
<path opacity="0.3" d="M170.947 149.74L170.59 150.183V127.486L170.947 127.043V149.74Z" fill="white"/>
<path opacity="0.3" d="M165.771 152.726L165.414 153.173V130.475L165.771 130.029V152.726Z" fill="white"/>
<path opacity="0.3" d="M160.596 155.716L160.238 156.158V133.461L160.596 133.019V155.716Z" fill="white"/>
<path opacity="0.3" d="M155.419 158.701L155.062 159.148V136.451L155.419 136.004V158.701Z" fill="white"/>
<path opacity="0.3" d="M150.244 161.691L149.886 162.133V139.436L150.244 138.994V161.691Z" fill="white"/>
<path opacity="0.3" d="M145.069 164.677L144.712 165.123V142.426L145.069 141.979V164.677Z" fill="white"/>
</g>
<path d="M139.629 161.291L139.446 160.972C140.722 160.232 141.292 158.705 141.84 157.225C142.334 155.881 142.848 154.495 143.907 153.738C144.072 153.598 144.264 153.495 144.472 153.436C144.679 153.377 144.897 153.362 145.111 153.394C145.783 153.53 146.229 154.244 146.663 154.967C147.377 156.132 147.883 156.804 148.87 156.243C150.01 155.588 150.49 154.75 150.997 153.861C151.578 152.656 152.507 151.652 153.663 150.978C154.824 150.306 155.398 147.435 155.951 144.658C156.546 141.681 157.108 138.857 158.409 138.109C158.52 138.036 158.647 137.989 158.779 137.974C158.911 137.958 159.045 137.974 159.17 138.02C159.864 138.305 160.242 139.627 160.676 141.158C161.165 142.859 161.722 144.828 162.773 145.334C162.97 145.421 163.184 145.463 163.399 145.457C163.615 145.451 163.826 145.398 164.019 145.3C164.822 144.969 165.273 145.517 165.673 146.006C166.226 146.678 166.702 147.257 168.084 146.168C168.969 145.471 169.483 144.042 169.977 142.621C170.547 141.018 171.134 139.359 172.316 138.679C173.285 138.117 173.698 136.74 174.132 135.277C174.617 133.652 175.123 131.972 176.467 131.198C176.63 131.084 176.817 131.006 177.014 130.971C177.211 130.935 177.413 130.943 177.606 130.994C178.236 131.198 178.584 131.972 178.925 132.716C179.265 133.461 179.55 134.107 180.039 134.264C180.191 134.299 180.348 134.301 180.5 134.27C180.653 134.239 180.797 134.177 180.923 134.086L181.106 134.405C180.936 134.523 180.742 134.603 180.538 134.639C180.334 134.676 180.125 134.669 179.924 134.617C179.282 134.409 178.929 133.627 178.589 132.87C178.282 132.193 177.968 131.5 177.491 131.347C177.346 131.313 177.194 131.31 177.048 131.339C176.901 131.369 176.762 131.429 176.641 131.517C175.425 132.219 174.94 133.826 174.476 135.383C174.013 136.939 173.587 138.36 172.49 138.989C171.393 139.619 170.861 141.197 170.317 142.736C169.802 144.186 169.275 145.683 168.305 146.449C166.634 147.763 165.937 146.912 165.379 146.232C164.954 145.704 164.674 145.415 164.15 145.636C163.909 145.752 163.646 145.814 163.379 145.818C163.111 145.821 162.847 145.767 162.602 145.658C161.403 145.079 160.825 143.046 160.314 141.252C159.94 139.933 159.549 138.568 159.039 138.356C158.968 138.331 158.892 138.324 158.818 138.335C158.744 138.346 158.674 138.375 158.613 138.419C157.457 139.087 156.887 141.949 156.334 144.722C155.738 147.699 155.177 150.536 153.867 151.288C152.77 151.935 151.89 152.893 151.337 154.04C150.841 155.081 150.053 155.956 149.07 156.558C147.705 157.344 146.995 156.183 146.365 155.158C145.974 154.521 145.57 153.861 145.055 153.755C144.892 153.736 144.725 153.751 144.568 153.8C144.41 153.849 144.265 153.931 144.141 154.04C143.171 154.729 142.699 156.005 142.202 157.353C141.615 158.897 141.024 160.487 139.629 161.291Z" fill="white"/>
<path d="M140.017 160.857C140.019 161.051 139.977 161.243 139.894 161.419C139.81 161.594 139.688 161.748 139.536 161.869C139.273 162.023 139.06 161.818 139.06 161.41C139.057 161.216 139.099 161.024 139.181 160.849C139.264 160.674 139.385 160.519 139.536 160.398C139.8 160.245 140.017 160.449 140.017 160.857Z" fill="white"/>
<path d="M144.52 153.628C144.522 153.822 144.48 154.014 144.396 154.189C144.313 154.365 144.191 154.519 144.039 154.64C143.775 154.793 143.563 154.584 143.563 154.18C143.559 153.986 143.601 153.793 143.683 153.617C143.766 153.441 143.887 153.286 144.039 153.164C144.303 153.011 144.52 153.219 144.52 153.628Z" fill="white"/>
<path d="M149.484 156.128C149.486 156.322 149.444 156.514 149.36 156.69C149.277 156.865 149.155 157.019 149.003 157.14C148.739 157.293 148.527 157.089 148.527 156.681C148.524 156.487 148.566 156.295 148.648 156.12C148.731 155.944 148.852 155.79 149.003 155.669C149.267 155.516 149.484 155.72 149.484 156.128Z" fill="white"/>
<path d="M154.178 150.893C154.18 151.087 154.138 151.279 154.054 151.455C153.971 151.63 153.849 151.784 153.697 151.905C153.433 152.058 153.221 151.854 153.221 151.446C153.218 151.252 153.26 151.06 153.342 150.885C153.425 150.71 153.546 150.555 153.697 150.434C153.961 150.281 154.178 150.506 154.178 150.893Z" fill="white"/>
<path d="M159.009 137.965C159.012 138.159 158.97 138.35 158.888 138.526C158.805 138.701 158.684 138.855 158.533 138.977C158.269 139.13 158.052 138.926 158.052 138.518C158.05 138.323 158.092 138.131 158.175 137.956C158.259 137.78 158.381 137.626 158.533 137.505C158.796 137.352 159.009 137.556 159.009 137.965Z" fill="white"/>
<path d="M164.631 145.173C164.633 145.367 164.591 145.559 164.508 145.735C164.425 145.91 164.302 146.064 164.151 146.185C163.887 146.338 163.674 146.13 163.674 145.726C163.671 145.531 163.712 145.338 163.795 145.162C163.877 144.986 163.999 144.831 164.151 144.709C164.414 144.552 164.631 144.765 164.631 145.173Z" fill="white"/>
<path d="M168.697 146.019C168.699 146.214 168.657 146.406 168.574 146.581C168.49 146.756 168.368 146.91 168.216 147.031C167.953 147.185 167.736 146.98 167.736 146.572C167.733 146.378 167.776 146.186 167.859 146.011C167.942 145.835 168.064 145.681 168.216 145.56C168.476 145.403 168.697 145.611 168.697 146.019Z" fill="#3285FF"/>
<path d="M172.919 138.535C172.924 138.729 172.883 138.922 172.799 139.098C172.716 139.273 172.592 139.427 172.439 139.547C172.175 139.7 171.962 139.496 171.962 139.087C171.96 138.894 172.001 138.702 172.084 138.526C172.166 138.351 172.288 138.197 172.439 138.075C172.707 137.922 172.919 138.126 172.919 138.535Z" fill="white"/>
<path d="M176.926 131.147C176.929 131.341 176.887 131.533 176.805 131.708C176.722 131.884 176.601 132.038 176.45 132.16C176.186 132.313 175.969 132.104 175.969 131.7C175.966 131.505 176.008 131.312 176.091 131.136C176.175 130.96 176.297 130.805 176.45 130.684C176.713 130.518 176.926 130.739 176.926 131.147Z" fill="white"/>
<path d="M181.498 133.958C181.501 134.152 181.46 134.344 181.377 134.519C181.295 134.694 181.173 134.849 181.022 134.97C180.754 135.123 180.542 134.919 180.542 134.511C180.538 134.315 180.58 134.121 180.665 133.944C180.75 133.768 180.875 133.614 181.031 133.494C181.286 133.345 181.498 133.55 181.498 133.958Z" fill="white"/>
<path d="M139.719 138.726C139.719 139.274 140.144 139.483 140.637 139.189L152.617 132.274C152.879 132.109 153.099 131.885 153.258 131.62C153.418 131.355 153.513 131.056 153.536 130.748C153.536 130.195 153.111 129.986 152.617 130.28L140.629 137.195C140.367 137.36 140.149 137.585 139.991 137.851C139.833 138.117 139.739 138.417 139.719 138.726Z" fill="#FAFAFA"/>
<path d="M174.68 120.69C174.68 121.243 175.106 121.451 175.599 121.158L180.256 118.466C180.518 118.3 180.738 118.076 180.898 117.81C181.057 117.544 181.152 117.244 181.174 116.935C181.174 116.386 180.749 116.178 180.256 116.471L175.599 119.163C175.336 119.327 175.116 119.551 174.957 119.816C174.797 120.082 174.702 120.381 174.68 120.69Z" fill="#FAFAFA"/>
<path opacity="0.45" d="M139.714 141.945C139.751 141.945 139.788 141.934 139.82 141.916L153.642 133.92C153.69 133.891 153.725 133.844 153.74 133.789C153.754 133.734 153.746 133.676 153.718 133.627C153.704 133.603 153.686 133.581 153.664 133.564C153.642 133.547 153.617 133.535 153.59 133.527C153.563 133.52 153.535 133.519 153.507 133.523C153.479 133.526 153.453 133.536 153.429 133.55L139.607 141.529C139.559 141.558 139.524 141.605 139.509 141.66C139.495 141.715 139.503 141.773 139.531 141.822C139.547 141.857 139.573 141.887 139.605 141.909C139.637 141.931 139.675 141.943 139.714 141.945ZM157.176 133.644C157.147 133.596 157.101 133.56 157.047 133.546C156.993 133.532 156.935 133.539 156.886 133.567L139.607 143.54C139.559 143.569 139.524 143.616 139.509 143.671C139.495 143.726 139.503 143.784 139.531 143.834C139.549 143.866 139.576 143.892 139.608 143.911C139.64 143.93 139.677 143.94 139.714 143.94C139.751 143.939 139.788 143.929 139.82 143.91L157.099 133.92C157.143 133.891 157.176 133.847 157.19 133.797C157.204 133.746 157.199 133.691 157.176 133.644Z" fill="white"/>
<path d="M55.749 161.368C83.0939 161.368 105.261 139.2 105.261 111.855C105.261 84.5103 83.0939 62.3429 55.749 62.3429C28.4041 62.3429 6.23669 84.5103 6.23669 111.855C6.23669 139.2 28.4041 161.368 55.749 161.368Z" fill="#FFD84E"/>
<g opacity="0.4">
<path opacity="0.4" d="M55.749 161.368C83.0939 161.368 105.261 139.2 105.261 111.855C105.261 84.5103 83.0939 62.3429 55.749 62.3429C28.4041 62.3429 6.23669 84.5103 6.23669 111.855C6.23669 139.2 28.4041 161.368 55.749 161.368Z" fill="black"/>
</g>
<path d="M101.192 109.631C102.447 82.3148 81.3201 59.1536 54.004 57.8988C26.6879 56.6441 3.52667 77.771 2.27192 105.087C1.01717 132.403 22.1441 155.564 49.4602 156.819C76.7763 158.074 99.9375 136.947 101.192 109.631Z" fill="#FFD84E"/>
<g opacity="0.2">
<path opacity="0.2" d="M62.2438 142.092C82.148 135.939 93.4182 115.213 87.4164 95.8006C81.4147 76.3881 60.4137 65.6397 40.5095 71.7935C20.6053 77.9473 9.33517 98.6728 15.3369 118.085C21.3387 137.498 42.3396 148.246 62.2438 142.092Z" fill="white"/>
</g>
<path d="M62.2053 141.932C52.831 144.83 42.6961 143.959 33.9531 139.506C25.21 135.052 18.5475 127.365 15.3804 118.078C15.4802 118.428 15.5634 118.769 15.6716 119.118C18.6997 128.585 25.3423 136.473 34.1551 141.069C42.968 145.664 53.2386 146.595 62.7341 143.659C72.2297 140.723 80.1824 134.158 84.8633 125.39C89.5442 116.622 90.5748 106.361 87.7311 96.8372C87.6229 96.4961 87.4981 96.1549 87.3817 95.8138C90.0112 105.266 88.8525 115.37 84.1515 123.981C79.4506 132.593 71.5778 139.032 62.2053 141.932Z" fill="#FAFAFA"/>
<g opacity="0.3">
<path opacity="0.3" d="M40.565 71.9359C49.9393 69.0363 60.0749 69.9069 68.8173 74.3628C77.5598 78.8187 84.2197 86.5085 87.3816 95.7976C87.2901 95.4565 87.1986 95.1071 87.0904 94.766C85.6274 90.035 83.247 85.6385 80.0849 81.8276C76.9228 78.0166 73.041 74.8658 68.6613 72.555C64.2815 70.2442 59.4895 68.8187 54.5588 68.3598C49.6281 67.901 44.6553 68.4179 39.9243 69.8808C35.1934 71.3438 30.7969 73.7243 26.986 76.8864C23.175 80.0485 20.0242 83.9302 17.7134 88.31C15.4026 92.6898 13.9771 97.4818 13.5182 102.413C13.0594 107.343 13.5762 112.316 15.0392 117.047C15.1474 117.388 15.2639 117.729 15.3803 118.062C12.7487 108.608 13.9074 98.5003 18.6102 89.887C23.313 81.2738 31.1892 74.8339 40.565 71.9359Z" fill="black"/>
</g>
<path d="M91.2837 77.477C91.1839 77.5519 89.8859 75.813 87.1237 73.0258C82.2837 68.1682 76.4881 64.3682 70.1036 61.8663C63.7191 59.3643 56.8848 58.2149 50.0331 58.4908C45.2129 58.6684 40.4459 59.5629 35.8891 61.1448C33.4903 61.976 31.1594 62.9913 28.917 64.1816C24.2773 66.636 20.0633 69.8218 16.437 73.6165C14.679 75.4527 13.0656 77.4221 11.6114 79.5071C10.2055 81.5186 8.95656 83.6353 7.87572 85.8386C6.83193 87.9494 5.94754 90.1353 5.22995 92.3781C3.88058 96.5236 3.08333 100.829 2.85876 105.183C2.39451 114.542 4.57427 123.844 9.14867 132.023C11.0706 135.442 12.4101 137.165 12.3019 137.24C11.913 136.881 11.5693 136.475 11.2786 136.033C10.9458 135.625 10.5631 135.118 10.1388 134.486C9.71444 133.853 9.20691 133.138 8.71603 132.281C5.81138 127.478 3.7699 122.204 2.68403 116.697C1.94167 112.89 1.6374 109.01 1.77715 105.133C1.96132 100.676 2.73916 96.2633 4.09011 92.012C4.80809 89.7092 5.70092 87.4646 6.76083 85.2978C7.85822 83.0314 9.12944 80.8534 10.5631 78.7832C12.0483 76.6395 13.6978 74.6144 15.4968 72.7263C19.2077 68.8243 23.5298 65.5533 28.293 63.0418C30.5967 61.8171 32.995 60.7793 35.4648 59.9384C40.1355 58.3438 45.0172 57.4521 49.95 57.2927C58.3155 57.0078 66.6168 58.8483 74.078 62.6424C79.0845 65.1763 83.6072 68.5697 87.4399 72.668C88.1304 73.3752 88.6879 74.0575 89.1704 74.6399C89.653 75.2223 90.0607 75.7298 90.3602 76.1541C90.7218 76.5549 91.0321 76.9993 91.2837 77.477Z" fill="#FAFAFA"/>
<path d="M51.5474 80.9048C51.6556 81.2459 50.2079 82.0031 48.3109 82.5688C46.414 83.1346 44.7999 83.3509 44.6917 83.0098C44.5836 82.6687 46.0395 81.9115 47.9282 81.3458C49.8168 80.78 51.4476 80.5637 51.5474 80.9048Z" fill="#FAFAFA"/>
<path d="M42.229 125.924C41.8879 126.033 39.733 120.059 37.4284 112.612C35.1237 105.166 33.5263 99.0092 33.8674 98.901C34.2085 98.7928 36.3634 104.725 38.6681 112.213C40.9727 119.701 42.5701 125.816 42.229 125.924Z" fill="#FAFAFA"/>
<path d="M55.1916 103.934C55.2997 104.275 52.9285 105.307 49.9084 106.247C46.8882 107.187 44.3589 107.662 44.2508 107.312C44.1426 106.963 46.5055 105.939 49.5256 104.999C52.5458 104.059 55.0834 103.61 55.1916 103.934Z" fill="#FAFAFA"/>
<path d="M60.6079 120.724C60.716 121.065 58.3532 122.097 55.333 123.037C52.3128 123.977 49.7752 124.452 49.6671 124.102C49.5589 123.753 51.9218 122.729 54.942 121.789C57.9621 120.849 60.4997 120.383 60.6079 120.724Z" fill="#FAFAFA"/>
<path d="M55.6325 161.343C54.1121 160.048 52.7866 158.54 51.6971 156.866C53.2176 158.161 54.5431 159.669 55.6325 161.343Z" fill="#1F1A1A"/>
<path d="M47.1295 160.461C45.665 159.224 44.3921 157.778 43.3522 156.168C44.1302 156.733 44.8224 157.409 45.4072 158.173C46.0904 158.847 46.6707 159.618 47.1295 160.461Z" fill="#1F1A1A"/>
<path d="M39.0924 158.464C38.3131 157.903 37.6231 157.227 37.0456 156.459C36.3605 155.785 35.7775 155.014 35.3151 154.171C36.0977 154.732 36.7906 155.408 37.3701 156.176C38.0533 156.85 38.6336 157.621 39.0924 158.464Z" fill="#1F1A1A"/>
<path d="M64.277 160.66C63.4708 160.066 62.7535 159.36 62.1471 158.563C61.4326 157.862 60.8243 157.061 60.3416 156.184C61.1501 156.775 61.8677 157.482 62.4716 158.281C63.184 158.983 63.792 159.785 64.277 160.66Z" fill="#1F1A1A"/>
<path d="M72.0396 158.622C71.2274 158.032 70.5068 157.325 69.9013 156.525C69.1886 155.819 68.5807 155.015 68.0959 154.137C69.6136 155.44 70.9411 156.95 72.0396 158.622Z" fill="#1F1A1A"/>
<path d="M79.3528 155.361C78.5444 154.769 77.8268 154.063 77.2229 153.264C76.5105 152.561 75.9025 151.76 75.4175 150.884C76.2237 151.478 76.9409 152.184 77.5474 152.981C78.2619 153.682 78.8701 154.484 79.3528 155.361Z" fill="#1F1A1A"/>
<path d="M85.8508 151.359C85.0494 150.759 84.3329 150.054 83.7209 149.262C83.0051 148.559 82.3967 147.755 81.9154 146.874C82.7214 147.469 83.4385 148.175 84.0453 148.971C84.7611 149.674 85.3695 150.479 85.8508 151.359Z" fill="#1F1A1A"/>
<path d="M91.7663 146.017C90.9566 145.425 90.2364 144.718 89.6281 143.921C88.9123 143.218 88.3039 142.413 87.8226 141.533C88.6283 142.127 89.3454 142.833 89.9525 143.629C90.6661 144.336 91.2767 145.14 91.7663 146.017Z" fill="#1F1A1A"/>
<path d="M96.6085 139.993C95.8029 139.399 95.0857 138.693 94.4786 137.897C93.765 137.19 93.1545 136.386 92.6649 135.509C93.4746 136.102 94.1947 136.808 94.8031 137.606C95.5189 138.309 96.1272 139.113 96.6085 139.993Z" fill="#1F1A1A"/>
<path d="M100.178 133.986C99.3672 133.398 98.6493 132.691 98.0479 131.89C97.3377 131.183 96.7275 130.382 96.2341 129.51C97.0463 130.1 97.7668 130.806 98.3723 131.607C99.0847 132.31 99.6927 133.111 100.178 133.986Z" fill="#1F1A1A"/>
<path d="M103.165 127.231C102.358 126.637 101.641 125.931 101.035 125.134C100.322 124.431 99.7144 123.63 99.2293 122.754C100.038 123.346 100.755 124.052 101.359 124.851C102.074 125.552 102.682 126.354 103.165 127.231Z" fill="#1F1A1A"/>
<path d="M105.203 119.892C104.397 119.299 103.68 118.593 103.073 117.796C102.361 117.093 101.753 116.292 101.268 115.416C102.076 116.007 102.794 116.714 103.398 117.513C104.11 118.216 104.718 119.017 105.203 119.892Z" fill="#1F1A1A"/>
<path d="M105.86 111.98C105.055 111.386 104.338 110.68 103.73 109.883C103.017 109.176 102.406 108.373 101.917 107.496C102.724 108.091 103.444 108.797 104.055 109.592C104.768 110.298 105.376 111.102 105.86 111.98Z" fill="#1F1A1A"/>
<path d="M105.236 103.851C104.284 103.098 103.426 102.232 102.682 101.272C101.828 100.405 101.077 99.4416 100.444 98.4018C101.395 99.1593 102.255 100.025 103.007 100.981C103.861 101.846 104.609 102.81 105.236 103.851Z" fill="#1F1A1A"/>
<path d="M101.85 92.9189C100.9 92.1626 100.043 91.2969 99.2959 90.3397C98.4418 89.4723 97.6908 88.5091 97.0578 87.4693C98.0091 88.2268 98.869 89.0923 99.6203 90.0485C100.477 90.9117 101.226 91.8755 101.85 92.9189Z" fill="#1F1A1A"/>
<g opacity="0.2">
<path opacity="0.2" d="M17.1858 97.9605L55.7573 85.9964L62.8876 90.8885H62.9291H62.9791L74.6271 87.1944L77.7554 86.1877L78.5874 85.9215L78.7455 85.8632C78.7591 85.9114 78.7817 85.9566 78.812 85.9964C78.9303 86.1601 79.0969 86.2826 79.2885 86.3466C79.48 86.4106 79.6869 86.413 79.8798 86.3532C80.0727 86.2935 80.2421 86.1748 80.364 86.0137C80.4859 85.8527 80.5541 85.6575 80.5592 85.4556C80.5697 85.2916 80.5359 85.1278 80.4612 84.9814C80.3865 84.835 80.2738 84.7114 80.1349 84.6236C79.9595 84.5124 79.7487 84.4708 79.5442 84.5071C79.4027 84.5071 79.3445 84.5903 79.3445 84.6069C79.3445 84.6236 79.669 84.6069 79.9935 84.8232C80.0798 84.8942 80.1475 84.985 80.191 85.0879C80.2345 85.1908 80.2523 85.3027 80.2431 85.414C80.2327 85.5468 80.1826 85.6734 80.0995 85.7775C80.0163 85.8816 79.9038 85.9583 79.7765 85.9977C79.6493 86.0371 79.5131 86.0375 79.3857 85.9987C79.2582 85.9599 79.1453 85.8837 79.0616 85.78C78.991 85.6927 78.9427 85.5895 78.921 85.4793C78.8992 85.3691 78.9047 85.2553 78.9368 85.1477C79.0616 84.7484 79.3778 84.6568 79.3445 84.6069C79.3112 84.557 79.2613 84.6069 79.1282 84.6069C78.9405 84.6944 78.7922 84.8486 78.7122 85.0396C78.6587 85.1586 78.631 85.2876 78.631 85.4181C78.631 85.5486 78.6587 85.6776 78.7122 85.7967H78.5624L77.7304 86.038L74.5855 86.9864L62.9375 90.5557L55.8655 85.6303L55.8156 85.5887H55.749L17.1276 97.636L2.5426 102.145C2.5426 102.27 2.5426 102.387 2.5426 102.503L17.1858 97.9605Z" fill="white"/>
<path opacity="0.2" d="M77.0315 75.979L84.5195 81.0458H84.5778H84.6443L92.0741 78.6913L91.9576 78.5332L84.6277 80.7463L77.1397 75.6378H77.0731H76.99L72.1394 77.1354L54.2348 82.7348L48.8018 84.4737L47.3291 84.9646C47.1564 85.0103 46.989 85.0745 46.83 85.1559C47.0073 85.126 47.1823 85.0843 47.3541 85.0311L48.8434 84.5985L54.3013 82.9345L72.2891 77.4266L77.0315 75.979Z" fill="white"/>
<path opacity="0.2" d="M41.8296 106.107L45.9896 106.939H46.0396L52.4127 105.008L54.0767 104.476H54.1932C54.2266 104.566 54.2856 104.644 54.3629 104.7C54.4402 104.757 54.5324 104.79 54.6282 104.795C54.7239 104.8 54.819 104.776 54.9016 104.728C54.9843 104.679 55.051 104.608 55.0934 104.522C55.1358 104.436 55.1521 104.339 55.1403 104.244C55.1285 104.149 55.0892 104.059 55.0271 103.986C54.965 103.913 54.8829 103.86 54.7908 103.833C54.6988 103.806 54.601 103.807 54.5093 103.835C54.3908 103.875 54.2912 103.958 54.2298 104.067C54.1684 104.176 54.1494 104.304 54.1765 104.426H54.0601L52.3961 104.9L46.0229 106.731L41.8629 105.899H41.8047L14.6981 114.219L5.205 117.156L3.125 116.623C3.125 116.74 3.125 116.856 3.19156 116.972L5.1634 117.488H5.21332H5.25492L14.798 114.543L41.8296 106.107Z" fill="white"/>
<path opacity="0.2" d="M44.8664 102.903L40.9976 102.536L38.718 103.252C38.277 101.788 37.886 100.39 37.47 99.092L37.4283 98.9423L37.2869 98.9922L26.7954 102.353L23.8917 103.319L23.5672 103.427C23.524 103.313 23.4386 103.22 23.3286 103.167C23.2185 103.114 23.0925 103.106 22.9765 103.144C22.9148 103.163 22.8574 103.194 22.8077 103.235C22.758 103.277 22.7169 103.327 22.6868 103.384C22.6566 103.442 22.6381 103.504 22.6321 103.569C22.6261 103.633 22.6329 103.698 22.652 103.76C22.6712 103.821 22.7023 103.879 22.7435 103.928C22.7848 103.978 22.8355 104.019 22.8927 104.049C22.9498 104.079 23.0124 104.098 23.0767 104.104C23.1411 104.11 23.206 104.103 23.2677 104.084C23.3876 104.049 23.4888 103.968 23.5496 103.859C23.6103 103.75 23.6256 103.622 23.5922 103.502L23.9167 103.402L26.8536 102.512L37.1621 99.3C37.5559 100.631 37.9636 102.035 38.3851 103.51L38.4351 103.668L38.5848 103.618L40.9976 102.869L44.8664 103.244L49.3093 101.879L69.2773 95.6475L73.4872 96.9371H73.5455L77.2895 95.7391L78.2796 95.4063H78.3295C78.4493 95.5684 78.6166 95.6894 78.8082 95.7524C78.9998 95.8154 79.2062 95.8173 79.3989 95.758C79.5916 95.6986 79.7611 95.5808 79.884 95.4209C80.0069 95.2611 80.0772 95.067 80.085 94.8655C80.0929 94.7009 80.057 94.5372 79.981 94.3911C79.905 94.2449 79.7916 94.1215 79.6523 94.0335C79.478 93.9194 79.2672 93.8748 79.0616 93.9087C78.9202 93.9087 78.8619 93.9919 78.8703 94.0085C78.8786 94.0251 79.1864 94.0085 79.5109 94.2248C79.5983 94.2971 79.6672 94.3891 79.7121 94.4932C79.7569 94.5974 79.7764 94.7107 79.7688 94.8239C79.7584 94.9567 79.7084 95.0833 79.6252 95.1874C79.542 95.2914 79.4295 95.3682 79.3023 95.4076C79.175 95.447 79.0388 95.4474 78.9114 95.4086C78.784 95.3698 78.6711 95.2936 78.5874 95.1899C78.5177 95.1021 78.4695 94.9992 78.4464 94.8895C78.4233 94.7797 78.426 94.6661 78.4543 94.5576C78.5791 94.1583 78.8952 94.0584 78.8703 94.0085C78.8453 93.9586 78.7788 94.0085 78.654 94.0085C78.4632 94.0942 78.3117 94.2487 78.2296 94.4411C78.1759 94.5759 78.1546 94.7215 78.1676 94.8661C78.1806 95.0106 78.2275 95.1501 78.3045 95.2731H78.2629L77.2645 95.556L73.5205 96.6626L69.3106 95.3147H69.269L49.2178 101.463L44.8664 102.903Z" fill="white"/>
<path opacity="0.2" d="M31.0053 143.87C30.8299 143.759 30.6191 143.718 30.4146 143.754C30.2732 143.754 30.2149 143.837 30.2232 143.854C30.2316 143.87 30.5394 143.812 30.8639 144.07C30.9513 144.142 31.0202 144.234 31.0651 144.338C31.1099 144.443 31.1294 144.556 31.1218 144.669C31.1091 144.801 31.0582 144.926 30.9755 145.03C30.8927 145.133 30.7817 145.21 30.6559 145.251C30.5285 145.289 30.393 145.288 30.2659 145.25C30.1388 145.212 30.0256 145.137 29.9404 145.035C29.8706 144.946 29.8223 144.841 29.7992 144.73C29.7761 144.619 29.7789 144.504 29.8072 144.394C29.932 144.003 30.2482 143.904 30.2232 143.854C30.1983 143.804 30.1317 143.854 30.0069 143.854C29.8161 143.939 29.6646 144.094 29.5826 144.286C29.5201 144.433 29.4965 144.594 29.5139 144.753C29.5314 144.912 29.5894 145.063 29.6824 145.193C29.8023 145.355 29.9696 145.476 30.1612 145.539C30.3527 145.602 30.5591 145.604 30.7518 145.545C30.9446 145.486 31.1141 145.368 31.237 145.208C31.3599 145.048 31.4301 144.854 31.438 144.652H31.5794L32.2949 144.453L34.9656 143.679L44.3173 140.85H44.4005V140.759C44.8831 138.778 45.4073 136.599 45.9481 134.386V134.344V134.294L45.1161 131.657C43.918 127.804 42.7864 124.169 41.8296 121.09V121.024H41.7631L36.5881 118.91H36.5132L32.1535 120.316L30.9887 120.707L30.8306 120.766C30.7629 120.561 30.6281 120.385 30.4479 120.266C30.2724 120.155 30.0617 120.114 29.8572 120.15C29.7157 120.15 29.6575 120.233 29.6658 120.25C29.6741 120.266 29.9903 120.25 30.3064 120.466C30.3938 120.538 30.4628 120.63 30.5076 120.735C30.5525 120.839 30.5719 120.952 30.5644 121.065C30.5516 121.197 30.5008 121.322 30.418 121.426C30.3353 121.529 30.2242 121.606 30.0984 121.648C29.9711 121.685 29.8355 121.685 29.7084 121.646C29.5813 121.608 29.4682 121.533 29.3829 121.431C29.3131 121.342 29.2648 121.238 29.2418 121.126C29.2187 121.015 29.2214 120.9 29.2498 120.791C29.3746 120.4 29.6908 120.3 29.6658 120.25C29.6408 120.2 29.5826 120.25 29.4495 120.25C29.2587 120.336 29.1072 120.49 29.0252 120.682C28.9626 120.83 28.939 120.99 28.9565 121.149C28.974 121.308 29.032 121.459 29.125 121.589C29.2449 121.752 29.4121 121.872 29.6037 121.935C29.7953 121.998 30.0017 122 30.1944 121.941C30.3871 121.882 30.5566 121.764 30.6796 121.604C30.8025 121.444 30.8727 121.25 30.8805 121.049C30.8939 120.963 30.8939 120.876 30.8805 120.791H31.0386L32.2284 120.45L36.5714 119.16L41.6216 121.232C42.5701 124.318 43.6684 127.888 44.8415 131.74L45.6735 134.336L44.126 140.542L34.8991 143.463L32.2616 144.295L31.5628 144.536L31.4296 144.586C31.4205 144.442 31.3772 144.301 31.3035 144.177C31.2297 144.053 31.1275 143.948 31.0053 143.87Z" fill="white"/>
<path opacity="0.2" d="M79.0034 119.452C79.1224 119.415 79.223 119.334 79.2848 119.226C79.3466 119.118 79.365 118.991 79.3362 118.869L80.7257 118.47L85.8425 116.939L90.3685 111.307L101.185 107.979C101.185 107.854 101.185 107.737 101.185 107.612L90.3436 110.99H90.2937L85.8092 116.681L80.7589 118.295L79.3861 118.753C79.3411 118.636 79.2536 118.54 79.141 118.484C79.0285 118.429 78.8991 118.418 78.7788 118.453C78.717 118.472 78.6595 118.503 78.6097 118.545C78.5599 118.586 78.5187 118.637 78.4886 118.694C78.4584 118.751 78.4399 118.814 78.434 118.878C78.4281 118.942 78.435 119.007 78.4543 119.069C78.4786 119.192 78.5493 119.3 78.6517 119.371C78.7541 119.442 78.8802 119.471 79.0034 119.452Z" fill="white"/>
<path opacity="0.2" d="M60.2751 155.943C60.2252 155.777 60.1752 155.569 60.1004 155.311L59.2684 152.415C58.5528 149.977 57.5295 146.591 56.3813 142.905C56.0236 141.741 55.6741 140.617 55.3413 139.577V139.511H55.2831L48.7436 136.075C48.4524 135.193 48.2111 134.469 48.0197 133.912C47.8949 133.537 47.8034 133.296 47.7618 133.196C47.8226 133.204 47.8841 133.204 47.9449 133.196C48.0666 133.168 48.1738 133.097 48.2462 132.995C48.3185 132.893 48.3508 132.769 48.3369 132.645C48.323 132.521 48.2639 132.406 48.1708 132.323C48.0778 132.24 47.9573 132.194 47.8325 132.194C47.7077 132.194 47.5873 132.24 47.4942 132.323C47.4012 132.406 47.3421 132.521 47.3282 132.645C47.3143 132.769 47.3466 132.893 47.4189 132.995C47.4912 133.097 47.5985 133.168 47.7202 133.196C47.7202 133.304 47.8034 133.554 47.9116 133.953C48.078 134.527 48.2943 135.276 48.5522 136.191H48.5938L55.0418 139.661L56.0569 142.989C57.205 146.699 58.2616 150.044 59.0354 152.473C59.4264 153.638 59.7426 154.603 59.9839 155.336C60.0671 155.585 60.142 155.793 60.2002 155.951C60.0915 155.995 60.0007 156.074 59.9423 156.176L60.7077 156.043C60.6485 155.993 60.5785 155.958 60.5033 155.941C60.4282 155.924 60.35 155.924 60.2751 155.943Z" fill="white"/>
<path opacity="0.2" d="M23.0264 89.0671C23.0545 89.1624 23.1103 89.2471 23.1868 89.3105C23.2633 89.3739 23.3569 89.413 23.4558 89.4228C23.5546 89.4327 23.6542 89.4128 23.7416 89.3658C23.8291 89.3188 23.9006 89.2467 23.9469 89.1589C23.9932 89.071 24.0123 88.9713 24.0016 88.8725C23.991 88.7738 23.9511 88.6804 23.8871 88.6045C23.8231 88.5285 23.7379 88.4734 23.6424 88.4461C23.5468 88.4188 23.4454 88.4207 23.3509 88.4514C23.2273 88.4916 23.1243 88.5784 23.0637 88.6934C23.0031 88.8083 22.9897 88.9424 23.0264 89.0671Z" fill="white"/>
<path opacity="0.2" d="M70.5753 125.167L71.5237 124.868L71.6901 124.809C71.686 124.843 71.686 124.876 71.6901 124.909C71.708 125.039 71.7744 125.157 71.8759 125.239C71.9773 125.321 72.1062 125.362 72.2366 125.353C72.3669 125.344 72.489 125.286 72.5782 125.191C72.6674 125.095 72.7169 124.969 72.7169 124.839C72.7169 124.708 72.6674 124.582 72.5782 124.487C72.489 124.391 72.3669 124.333 72.2366 124.324C72.1062 124.315 71.9773 124.356 71.8759 124.438C71.7744 124.521 71.708 124.638 71.6901 124.768H71.5154L70.5503 125.017L66.9893 125.983L55.0418 129.311C54.6009 127.996 54.1433 126.632 53.669 125.234L53.2946 124.111C54.4761 122.105 55.6159 120.192 56.6226 118.436V118.378V118.312C56.1401 116.789 55.6908 115.35 55.2831 114.052V113.993H55.2332L53.5692 113.112H53.5192H53.4693L48.0863 114.842L46.622 115.333L46.4389 115.391C46.38 115.178 46.2435 114.994 46.0562 114.875C45.8807 114.764 45.67 114.723 45.4655 114.759C45.3241 114.759 45.2658 114.842 45.2658 114.859C45.2658 114.875 45.5903 114.859 45.9148 115.075C46.0448 115.182 46.1307 115.333 46.1561 115.499H46.1145C46.1145 115.499 46.1145 115.499 46.1644 115.499C46.1685 115.549 46.1685 115.599 46.1644 115.649C46.1549 115.782 46.1052 115.909 46.022 116.013C45.9388 116.117 45.826 116.193 45.6985 116.232C45.5704 116.269 45.434 116.268 45.3066 116.228C45.1792 116.188 45.0665 116.111 44.9829 116.007C44.9123 115.92 44.864 115.816 44.8422 115.706C44.8205 115.596 44.8259 115.482 44.8581 115.375C44.9829 114.984 45.2991 114.884 45.2658 114.834C45.2325 114.784 45.1826 114.834 45.0495 114.834C44.8618 114.921 44.7135 115.075 44.6335 115.266C44.5694 115.413 44.5448 115.574 44.5624 115.733C44.5799 115.892 44.6388 116.044 44.7333 116.173C44.8516 116.337 45.0182 116.46 45.2098 116.524C45.4013 116.588 45.6081 116.59 45.8011 116.53C45.994 116.47 46.1634 116.352 46.2853 116.191C46.4071 116.03 46.4755 115.834 46.4805 115.633C46.4933 115.555 46.4933 115.477 46.4805 115.4L46.6636 115.35L48.1529 114.925L53.5192 113.328L55.1001 114.16C55.4911 115.433 55.9321 116.831 56.3647 118.32L52.9785 123.986V124.052V124.127C53.1033 124.51 53.2447 124.959 53.3778 125.334C53.8687 126.781 54.3513 128.187 54.8089 129.552L54.8588 129.71L55.0169 129.66L67.0476 126.232L70.5753 125.167Z" fill="white"/>
<path opacity="0.2" d="M63.0207 125.126C62.1055 122.014 61.1487 118.736 60.1752 115.416C60.0338 114.959 59.9007 114.501 59.7675 114.043V113.977H59.701L54.2098 110.915H54.1515H54.0767L25.8303 119.668L10.7378 135.026C10.7869 135.087 10.8314 135.151 10.8709 135.218L26.0133 119.909L54.1682 111.223L59.5346 114.21C59.6594 114.651 59.7925 115.042 59.9173 115.516C60.9157 118.902 61.8892 122.23 62.821 125.392L62.8709 125.558L63.029 125.508L100.868 114.226C100.868 114.135 100.868 114.043 100.868 113.952L63.0207 125.126Z" fill="white"/>
<path opacity="0.2" d="M58.6444 107.363C58.9522 108.295 59.3765 109.609 59.9173 111.265H59.9589L69.4687 115.932H69.5269H69.5852L80.2514 112.604L98.6636 106.963L101.226 106.131C101.226 106.065 101.226 105.998 101.226 105.932L98.6053 106.764L80.1349 112.421L69.5352 115.749L60.0754 111.223L58.7276 107.33L58.3532 106.306C58.3162 106.187 58.2659 106.073 58.2034 105.965C58.2244 106.087 58.255 106.206 58.2949 106.323L58.6444 107.363Z" fill="white"/>
<path opacity="0.2" d="M65.317 92.911H65.2754L62.8543 95.4819L54.1599 98.2358L51.6639 99.0678C51.4226 99.1427 51.2313 99.2176 51.0649 99.2758C50.9979 99.0888 50.8724 98.9283 50.7071 98.8182C50.5316 98.707 50.3209 98.6654 50.1164 98.7017C49.9749 98.7017 49.9084 98.7849 49.9167 98.8016C49.925 98.8182 50.2412 98.76 50.5657 99.0179C50.6751 99.115 50.7532 99.2424 50.7903 99.384C50.8033 99.4583 50.8033 99.5343 50.7903 99.6086C50.7784 99.7407 50.7273 99.8663 50.6436 99.9692C50.5598 100.072 50.4473 100.148 50.3203 100.186C50.1933 100.225 50.0577 100.224 49.931 100.185C49.8042 100.146 49.692 100.07 49.6089 99.9664C49.5382 99.8791 49.4899 99.7758 49.4682 99.6657C49.4464 99.5555 49.4519 99.4416 49.4841 99.334C49.6005 98.943 49.925 98.8432 49.8917 98.7932C49.8585 98.7433 49.8085 98.7932 49.6754 98.7932C49.4877 98.8807 49.3394 99.0349 49.2594 99.2259C49.1953 99.3726 49.1707 99.5335 49.1883 99.6926C49.2058 99.8518 49.2647 100.004 49.3592 100.133C49.4775 100.296 49.6441 100.419 49.8357 100.483C50.0273 100.547 50.2341 100.549 50.427 100.49C50.6199 100.43 50.7893 100.311 50.9112 100.15C51.0331 99.9891 51.1014 99.7939 51.1065 99.592C51.111 99.4904 51.0969 99.3889 51.0649 99.2924L51.6639 99.126L54.1599 98.3939L62.9292 95.7481H62.9708L65.4002 93.1939L70.0511 91.8544L84.4114 87.6444L88.7461 86.3299L89.8693 85.9721C89.8917 86.036 89.9265 86.0949 89.9717 86.1454C90.0168 86.1959 90.0715 86.237 90.1325 86.2663C90.1935 86.2957 90.2598 86.3127 90.3274 86.3165C90.395 86.3203 90.4627 86.3107 90.5266 86.2883C90.5905 86.2659 90.6494 86.2311 90.6999 86.186C90.7504 86.1408 90.7915 86.0862 90.8208 86.0251C90.8502 85.9641 90.8672 85.8979 90.871 85.8302C90.8748 85.7626 90.8652 85.6949 90.8428 85.631C90.8064 85.5052 90.7215 85.3991 90.6068 85.3359C90.4921 85.2727 90.357 85.2576 90.2312 85.294C90.1055 85.3304 89.9993 85.4153 89.9361 85.53C89.8729 85.6447 89.8579 85.7798 89.8943 85.9056L88.7628 86.2051L84.3865 87.4115L70.0012 91.5216L65.317 92.911Z" fill="white"/>
<path opacity="0.2" d="M51.173 146.441C50.7653 145.119 50.341 143.837 49.9832 142.614V142.539H49.9084L46.4972 141.275H46.4472H46.3973L39.5999 143.438L37.6863 144.079L37.4616 144.153C37.4167 144.038 37.3301 143.945 37.2191 143.891C37.108 143.837 36.9808 143.827 36.8626 143.862C36.7371 143.902 36.6326 143.991 36.5718 144.107C36.511 144.224 36.4989 144.36 36.5381 144.486C36.5571 144.548 36.5881 144.606 36.6294 144.655C36.6706 144.705 36.7213 144.746 36.7785 144.776C36.8357 144.807 36.8983 144.825 36.9627 144.831C37.0271 144.837 37.0921 144.83 37.1538 144.811C37.2722 144.776 37.3726 144.697 37.4345 144.59C37.4964 144.483 37.5151 144.357 37.4866 144.237L37.7112 144.17L39.6581 143.613L46.4389 141.583L49.717 142.822C50.0831 144.029 50.4741 145.318 50.8735 146.575L54.1016 156.866H54.3596C53.461 153.938 52.3628 150.352 51.173 146.441Z" fill="white"/>
<path opacity="0.2" d="M57.5212 153.588V153.521V153.455C55.9487 148.38 54.4594 143.596 53.1615 139.411V139.352H53.1116L48.1196 136.757C46.9881 133.171 46.0645 130.25 45.4072 128.187L44.6418 125.824C44.5586 125.583 44.492 125.391 44.4421 125.233H44.5836C44.7091 125.193 44.8136 125.105 44.8744 124.988C44.9352 124.871 44.9473 124.735 44.9081 124.609C44.8694 124.485 44.7829 124.38 44.6674 124.32C44.552 124.259 44.417 124.246 44.2924 124.285C44.1677 124.323 44.0635 124.41 44.0026 124.526C43.9418 124.641 43.9293 124.776 43.9679 124.901C43.9988 125.001 44.0619 125.089 44.1475 125.151C44.2332 125.213 44.3367 125.244 44.4421 125.242C44.4421 125.408 44.542 125.608 44.6085 125.857C44.7749 126.431 45.0079 127.23 45.3074 128.237C45.9397 130.317 46.83 133.279 47.9282 136.898V136.948H47.9781L52.9202 139.577L57.205 153.505L56.8556 154.17L55.4911 156.758H55.8988L57.1634 154.362L57.5212 153.588Z" fill="white"/>
<path opacity="0.2" d="M97.5736 123.013L73.8284 130.301L68.6284 131.915H68.5202V132.032C68.3788 134.336 68.2373 136.549 68.1125 138.688V138.746C69.7765 144.046 71.2325 148.73 72.3807 152.374L72.5804 152.283C71.4572 148.622 70.0344 143.963 68.4204 138.679C68.5535 136.624 68.6866 134.453 68.8281 132.198L73.9199 130.634L97.6319 123.246L98.7551 122.888C98.7551 122.805 98.8133 122.713 98.8466 122.63L97.5736 123.013Z" fill="white"/>
<path opacity="0.2" d="M63.0706 109.825V109.9H63.1455L65.109 110.732L70.6169 113.144H70.6751H70.7333L82.8556 109.417L86.3666 108.277L87.1986 108.011C87.2419 108.127 87.3283 108.222 87.4398 108.276C87.5514 108.331 87.6795 108.34 87.7977 108.302C87.8594 108.283 87.9167 108.252 87.9665 108.211C88.0162 108.169 88.0573 108.119 88.0874 108.062C88.1175 108.004 88.1361 107.942 88.1421 107.877C88.148 107.813 88.1412 107.748 88.1221 107.686C88.103 107.625 88.0719 107.567 88.0306 107.518C87.9894 107.468 87.9387 107.427 87.8815 107.397C87.8243 107.367 87.7618 107.348 87.6974 107.342C87.6331 107.336 87.5682 107.343 87.5065 107.362C87.3878 107.399 87.2879 107.48 87.2275 107.588C87.167 107.697 87.1508 107.824 87.182 107.944L86.35 108.169L82.8057 109.217L70.7417 112.886L65.2921 110.482L63.3951 109.65L60.2834 99.666L60.2418 99.5246L60.1004 99.5745L52.4626 101.996L50.3327 102.694L50.0498 102.794C49.9958 102.742 49.9373 102.695 49.8751 102.653C49.6996 102.542 49.4889 102.5 49.2844 102.536C49.1429 102.536 49.0847 102.62 49.093 102.636C49.1014 102.653 49.4092 102.636 49.7337 102.853L49.7753 102.894C49.7122 102.914 49.6509 102.939 49.5922 102.969C49.5922 102.969 49.6588 102.969 49.7919 102.969C49.8562 103.04 49.9056 103.122 49.937 103.212C49.9685 103.302 49.9814 103.398 49.9749 103.493C49.9622 103.625 49.9113 103.75 49.8286 103.854C49.7459 103.957 49.6348 104.034 49.509 104.076C49.3817 104.113 49.2461 104.113 49.119 104.074C48.9919 104.036 48.8788 103.961 48.7935 103.859C48.7201 103.772 48.6695 103.668 48.6463 103.556C48.623 103.444 48.6279 103.328 48.6604 103.219C48.7852 102.828 49.1013 102.728 49.0764 102.678C49.0514 102.628 48.9849 102.678 48.8517 102.678C48.6641 102.765 48.5158 102.92 48.4357 103.11C48.3733 103.259 48.3497 103.421 48.3672 103.581C48.3846 103.741 48.4426 103.894 48.5356 104.026C48.6554 104.188 48.8227 104.309 49.0143 104.372C49.2059 104.435 49.4123 104.437 49.605 104.377C49.7977 104.318 49.9672 104.2 50.0901 104.04C50.2131 103.881 50.2833 103.686 50.2911 103.485C50.2913 103.261 50.215 103.044 50.0748 102.869L50.341 102.794L52.4959 102.17L60.0338 99.9073C60.9241 102.819 61.9641 106.189 63.0706 109.825Z" fill="white"/>
<path opacity="0.2" d="M98.8217 95.4984L93.4552 92.6613H93.3887H93.3221L92.9228 92.7861L73.4873 98.8264L69.9513 97.6866H69.9097L65.8661 98.9429H65.8162C64.5765 101.322 63.5449 103.311 62.7545 104.842C63.1705 106.151 63.4949 107.158 63.7279 107.862L63.9858 108.627C64.0088 108.717 64.0423 108.804 64.0857 108.885C64.0857 108.885 64.0856 108.794 64.0191 108.619C63.9525 108.444 63.8943 108.161 63.8028 107.837L62.8876 104.933C63.7196 103.419 64.7346 101.472 65.9909 99.1093L69.918 97.9112L73.4457 99.076H73.4956H73.5372L93.0226 93.1189L93.3554 93.0107L98.7301 95.8478H98.7884H98.8549L99.8284 95.5483C99.8284 95.4402 99.7784 95.332 99.7452 95.2238L98.8217 95.4984Z" fill="white"/>
<path opacity="0.2" d="M27.2697 67.7093H27.3362L33.0105 70.6962C34.4665 75.3304 35.7644 79.4821 36.8044 82.8101V82.8767H36.8709L41.8629 84.1663H41.9045L44.6169 83.2843L45.3157 83.0431C45.3976 83.0245 45.4761 82.9936 45.5487 82.9515C45.4637 82.9573 45.3798 82.9741 45.2991 83.0015L44.5919 83.2011L41.8796 84.0331L37.029 82.6853C36.0057 79.3573 34.741 75.1973 33.3183 70.5464V70.4799H33.2517L27.5692 67.4763L26.6873 64.6642L26.3961 64.8389L27.2281 67.6427L27.2697 67.7093Z" fill="white"/>
<path opacity="0.2" d="M36.0389 69.6567V69.7149V69.7731C37.0789 73.0429 37.9609 75.8384 38.6098 77.8602C38.9177 78.817 39.1756 79.5907 39.3669 80.1731C39.449 80.4577 39.5519 80.7357 39.6748 81.0051C39.6267 80.7229 39.5571 80.4448 39.4668 80.1731C39.2921 79.5907 39.0674 78.8087 38.7929 77.8435C38.1772 75.8135 37.3452 73.0346 36.3634 69.7731C37.4034 67.8013 38.5516 65.6131 39.7497 63.3834L41.5634 59.9306V59.8723V59.8058C41.4719 59.5312 41.3887 59.265 41.3055 58.9738L40.9893 59.0403C41.0642 59.2983 41.1391 59.5479 41.2223 59.8141C40.6399 60.9234 40.0436 62.0522 39.4335 63.2003L36.0389 69.6567Z" fill="white"/>
<path opacity="0.2" d="M41.5551 68.3083C41.5878 68.2233 41.5958 68.1307 41.578 68.0413C41.5603 67.9519 41.5177 67.8694 41.455 67.8032C41.3923 67.7371 41.3122 67.69 41.2239 67.6675C41.1356 67.645 41.0427 67.648 40.9561 67.676C40.8935 67.6941 40.8351 67.7245 40.7844 67.7654C40.7337 67.8063 40.6916 67.8568 40.6607 67.9141C40.6297 67.9714 40.6104 68.0343 40.604 68.0992C40.5976 68.164 40.6041 68.2294 40.6232 68.2917C40.6634 68.4172 40.7515 68.5217 40.8684 68.5825C40.9853 68.6433 41.1215 68.6554 41.2472 68.6162C41.3483 68.5799 41.4356 68.513 41.4968 68.4248C41.6466 68.5247 41.8463 68.6411 42.0792 68.7743C42.7032 69.132 43.5935 69.6063 44.6418 70.1887L45.3074 72.4018C45.8399 74.124 46.3474 75.6799 46.7218 76.8031C46.8987 77.4174 47.1269 78.0158 47.4041 78.5919C47.3067 77.9592 47.1564 77.3358 46.9548 76.7282C46.6386 75.5883 46.1727 74.0242 45.6402 72.3019C45.3906 71.4699 45.1493 70.7461 44.9247 70.0389V69.9723H44.8664C43.7848 69.4149 42.853 68.949 42.1874 68.6328L41.5551 68.3083Z" fill="white"/>
<path opacity="0.2" d="M49.8418 79.6568V79.7067H49.8834L52.9451 81.8117H53.0117H53.0866L67.5384 77.3605L74.9848 75.0475H75.0514V74.981L79.2613 66.2034L78.9951 66.0203L74.8268 74.8146L67.4469 77.0943L53.0866 81.5455L50.1247 79.5237L43.6018 58.6405V58.549H43.4104V58.6738C44.9996 63.8405 47.2293 71.1122 49.8418 79.6568Z" fill="white"/>
<path opacity="0.2" d="M11.8444 78.0511L15.5634 80.4888H15.63H15.7048L23.8584 77.9263L25.2312 82.1695L25.564 83.1595C25.564 83.1595 25.564 83.1595 25.564 83.2011C25.564 83.2427 25.564 83.2011 25.614 83.2011L25.6639 83.3343C25.7052 83.4743 25.7581 83.6107 25.822 83.7419C25.8126 83.5941 25.7817 83.4483 25.7304 83.3093V83.2095C25.9162 83.2148 26.0949 83.2821 26.238 83.4008C26.3253 83.4731 26.3943 83.5651 26.4391 83.6692C26.484 83.7734 26.5034 83.8867 26.4959 83.9999C26.4831 84.1317 26.4323 84.257 26.3496 84.3604C26.2668 84.4638 26.1558 84.5409 26.03 84.5823C25.9019 84.6211 25.7652 84.6204 25.6376 84.5803C25.5099 84.5402 25.3973 84.4626 25.3144 84.3576C25.2448 84.2697 25.1965 84.1669 25.1734 84.0571C25.1503 83.9474 25.153 83.8338 25.1813 83.7253C25.3061 83.3343 25.6223 83.2344 25.5973 83.1845C25.5724 83.1346 25.5058 83.1845 25.381 83.1845C25.1902 83.2703 25.0387 83.4247 24.9567 83.6171C24.8942 83.7642 24.8705 83.9248 24.888 84.0836C24.9055 84.2425 24.9635 84.3941 25.0565 84.524C25.1764 84.6862 25.3437 84.8071 25.5352 84.8701C25.7268 84.9331 25.9332 84.9351 26.1259 84.8757C26.3187 84.8163 26.4882 84.6986 26.6111 84.5387C26.734 84.3788 26.8042 84.1847 26.812 83.9832C26.8191 83.8188 26.7828 83.6554 26.7069 83.5094C26.6309 83.3634 26.518 83.2399 26.3794 83.1512C26.2039 83.04 25.9932 82.9985 25.7887 83.0347H25.7055C25.6306 82.7602 25.5391 82.4274 25.4226 82.0363C25.1064 80.9547 24.6655 79.4655 24.1247 77.6434V77.5186H23.9999L15.7797 80.0146L12.1522 77.6267L11.8444 78.0511Z" fill="white"/>
<path d="M40.1342 125.095C34.316 123.129 29.493 118.973 26.6899 113.509C23.8867 108.045 23.3242 101.703 25.1216 95.8306C25.0446 96.0426 24.9578 96.2546 24.8904 96.4665C22.8893 102.397 23.3261 108.879 26.1044 114.487C28.8828 120.095 33.7752 124.37 39.7054 126.371C45.6357 128.372 52.1179 127.936 57.7261 125.157C63.3344 122.379 67.6092 117.486 69.6102 111.556L69.8126 110.911C67.6844 116.672 63.3937 121.377 57.8519 124.026C52.3102 126.674 45.9542 127.058 40.1342 125.095Z" fill="#FAFAFA"/>
<path d="M50.8107 88.0544C50.7336 88.276 49.2786 87.9966 47.1106 87.3991L47.8429 87.0908C47.5538 88.1315 47.1877 89.3552 46.7541 90.6753L46.5517 91.3017L45.9061 91.0897L44.9425 90.7813C43.2755 90.2128 41.7434 89.6539 40.4811 89.1529L41.1942 88.806C40.3559 90.8873 39.691 92.2171 39.479 92.14C39.267 92.0629 39.5272 90.6079 40.1343 88.4398L40.2692 87.9388L40.8377 88.0929C42.1482 88.4591 43.7284 88.9409 45.3665 89.4998L46.3301 89.8177L45.4725 90.2417C45.935 88.9409 46.3783 87.7364 46.7734 86.7343L46.995 86.1947L47.4864 86.3874C49.5581 87.1679 50.8782 87.8328 50.8107 88.0544Z" fill="#FAFAFA"/>
<path d="M57.0451 90.2225C56.9198 90.579 55.8791 90.5405 54.7036 90.1454C53.528 89.7504 52.6704 89.1818 52.7764 88.7868C52.8824 88.3917 53.9423 88.4688 55.1179 88.8735C56.2935 89.2782 57.1607 89.8756 57.0451 90.2225Z" fill="#FAFAFA"/>
<path d="M50.4542 103.251C50.3289 103.607 48.7101 103.376 46.8408 102.75C44.9714 102.123 43.5357 101.314 43.661 100.957C43.7862 100.601 45.3954 100.832 47.2744 101.468C49.1534 102.104 50.5698 102.904 50.4542 103.251Z" fill="#FAFAFA"/>
<path d="M47.0527 113.743C46.9371 114.1 45.3183 113.878 43.4489 113.242C41.5796 112.606 40.1439 111.806 40.2691 111.459C40.3944 111.112 42.0036 111.324 43.8729 111.96C45.7423 112.596 47.178 113.396 47.0527 113.743Z" fill="#FAFAFA"/>
<path d="M42.3992 125.932L40.6715 120.769L45.3657 119.198L43.9696 115.025L39.2754 116.596L37.5302 111.38L42.2244 109.81L36.6747 93.2235L49.662 88.878C52.5829 87.9007 55.1624 87.5789 57.4006 87.9126C59.662 88.1999 61.5413 89.021 63.0386 90.3759C64.5242 91.6961 65.6103 93.3819 66.2967 95.4335C66.9599 97.4155 67.1187 99.3922 66.7731 101.364C66.4158 103.301 65.4497 105.093 63.8746 106.741C62.2879 108.355 59.982 109.668 56.9569 110.68L50.6458 112.792L52.0419 116.964L61.8997 113.666L63.6274 118.829L53.7696 122.128L55.5846 127.552L48.9084 129.786L47.0934 124.362L42.3992 125.932ZM51.1811 94.1114L45.0786 96.1533L48.9006 107.576L55.003 105.534C57.2284 104.789 58.6708 103.727 59.3302 102.346C60.0243 100.954 60.0863 99.406 59.5162 97.7022C58.9345 95.9636 57.9649 94.7414 56.6075 94.0357C55.2501 93.3299 53.4413 93.3552 51.1811 94.1114Z" fill="#4F5665"/>
</g>
</svg>
