<svg width="539" height="537" viewBox="0 0 539 537" fill="none" xmlns="http://www.w3.org/2000/svg">
<rect x="0.249939" width="538" height="537" rx="10" fill="#FAFAFA"/>
<g filter="url(#filter0_bdi_1_2356)">
<rect x="333.939" y="304.874" width="173.739" height="173.739" rx="86.8694" transform="rotate(-0.561514 333.939 304.874)" fill="white" fill-opacity="0.93" shape-rendering="crispEdges"/>
</g>
<path d="M421.663 310.714C408.307 310.714 395.167 314.081 383.457 320.504C371.747 326.928 361.845 336.2 354.668 347.463C347.49 358.726 343.268 371.617 342.392 384.945C341.515 398.272 344.013 411.605 349.655 423.711C355.296 435.817 363.898 446.305 374.667 454.206C385.435 462.107 398.021 467.166 411.262 468.915C424.503 470.663 437.971 469.045 450.421 464.21C462.871 459.376 473.902 451.48 482.492 441.253L421.663 390.156L421.663 310.714Z" fill="#3285FF" fill-opacity="0.6"/>
<path d="M392.489 316.265C379.89 321.239 368.771 329.353 360.191 339.834C351.611 350.316 345.853 362.817 343.465 376.151L421.663 390.156L392.489 316.265Z" fill="#3285FF" fill-opacity="0.5"/>
<path d="M480.144 428.416C487.934 418.994 492.817 407.462 494.227 395.155C495.638 382.847 493.518 370.267 488.114 358.87C482.71 347.473 474.243 337.725 463.691 330.753C453.139 323.78 440.934 319.869 428.489 319.472L428.739 385.352L480.144 428.416Z" fill="#DCDCDC"/>
<rect width="291.448" height="151.306" rx="10" transform="matrix(0.999957 -0.00928495 0.0103438 0.999946 16.2499 321.916)" fill="white"/>
<path d="M276.871 367.518C276.871 368.118 276.776 368.643 276.586 369.093C276.396 369.543 276.131 369.918 275.791 370.218C275.451 370.518 275.061 370.743 274.621 370.893C274.181 371.043 273.706 371.118 273.196 371.118C272.556 371.118 271.996 371.018 271.516 370.818C271.046 370.618 270.641 370.353 270.301 370.023C269.971 369.683 269.691 369.313 269.461 368.913L270.541 368.178C270.701 368.478 270.911 368.763 271.171 369.033C271.441 369.293 271.751 369.508 272.101 369.678C272.451 369.838 272.816 369.918 273.196 369.918C273.696 369.918 274.121 369.818 274.471 369.618C274.821 369.418 275.086 369.138 275.266 368.778C275.456 368.418 275.551 367.998 275.551 367.518C275.551 367.038 275.446 366.618 275.236 366.258C275.036 365.898 274.756 365.618 274.396 365.418C274.046 365.218 273.646 365.118 273.196 365.118C272.866 365.118 272.561 365.148 272.281 365.208C272.011 365.258 271.736 365.353 271.456 365.493C271.186 365.623 270.871 365.813 270.511 366.063L271.891 360.468H276.841V361.593H272.881L272.176 364.368C272.426 364.238 272.681 364.143 272.941 364.083C273.211 364.013 273.476 363.978 273.736 363.978C274.336 363.978 274.871 364.128 275.341 364.428C275.821 364.728 276.196 365.143 276.466 365.673C276.736 366.203 276.871 366.818 276.871 367.518ZM279.353 365.718C279.353 366.328 279.413 366.893 279.533 367.413C279.653 367.923 279.828 368.368 280.058 368.748C280.288 369.118 280.563 369.408 280.883 369.618C281.213 369.818 281.578 369.918 281.978 369.918C282.388 369.918 282.753 369.818 283.073 369.618C283.393 369.408 283.668 369.118 283.898 368.748C284.128 368.368 284.303 367.923 284.423 367.413C284.543 366.893 284.603 366.328 284.603 365.718C284.603 365.108 284.543 364.548 284.423 364.038C284.303 363.518 284.128 363.073 283.898 362.703C283.668 362.323 283.393 362.033 283.073 361.833C282.753 361.623 282.388 361.518 281.978 361.518C281.578 361.518 281.213 361.623 280.883 361.833C280.563 362.033 280.288 362.323 280.058 362.703C279.828 363.073 279.653 363.518 279.533 364.038C279.413 364.548 279.353 365.108 279.353 365.718ZM278.078 365.718C278.078 364.668 278.243 363.738 278.573 362.928C278.903 362.118 279.358 361.483 279.938 361.023C280.528 360.553 281.208 360.318 281.978 360.318C282.748 360.318 283.423 360.553 284.003 361.023C284.593 361.483 285.053 362.118 285.383 362.928C285.713 363.738 285.878 364.668 285.878 365.718C285.878 366.768 285.713 367.698 285.383 368.508C285.053 369.318 284.593 369.958 284.003 370.428C283.423 370.888 282.748 371.118 281.978 371.118C281.208 371.118 280.528 370.888 279.938 370.428C279.358 369.958 278.903 369.318 278.573 368.508C278.243 367.698 278.078 366.768 278.078 365.718ZM269.536 382.718C269.536 382.268 269.631 381.863 269.821 381.503C270.021 381.143 270.301 380.858 270.661 380.648C271.021 380.428 271.436 380.318 271.906 380.318C272.386 380.318 272.801 380.428 273.151 380.648C273.511 380.858 273.786 381.143 273.976 381.503C274.176 381.863 274.276 382.268 274.276 382.718C274.276 383.158 274.176 383.563 273.976 383.933C273.786 384.293 273.511 384.583 273.151 384.803C272.801 385.013 272.386 385.118 271.906 385.118C271.436 385.118 271.021 385.013 270.661 384.803C270.301 384.583 270.021 384.293 269.821 383.933C269.631 383.563 269.536 383.158 269.536 382.718ZM270.601 382.718C270.601 382.968 270.651 383.203 270.751 383.423C270.861 383.643 271.011 383.818 271.201 383.948C271.401 384.078 271.636 384.143 271.906 384.143C272.186 384.143 272.421 384.078 272.611 383.948C272.801 383.818 272.946 383.643 273.046 383.423C273.156 383.203 273.211 382.968 273.211 382.718C273.211 382.458 273.156 382.223 273.046 382.013C272.946 381.793 272.801 381.618 272.611 381.488C272.421 381.358 272.186 381.293 271.906 381.293C271.636 381.293 271.401 381.358 271.201 381.488C271.011 381.618 270.861 381.793 270.751 382.013C270.651 382.223 270.601 382.458 270.601 382.718ZM275.011 388.718C275.011 388.268 275.106 387.863 275.296 387.503C275.496 387.143 275.776 386.858 276.136 386.648C276.496 386.428 276.911 386.318 277.381 386.318C277.861 386.318 278.276 386.428 278.626 386.648C278.986 386.858 279.261 387.143 279.451 387.503C279.651 387.863 279.751 388.268 279.751 388.718C279.751 389.158 279.651 389.563 279.451 389.933C279.261 390.293 278.986 390.583 278.626 390.803C278.276 391.013 277.861 391.118 277.381 391.118C276.911 391.118 276.496 391.013 276.136 390.803C275.776 390.583 275.496 390.293 275.296 389.933C275.106 389.563 275.011 389.158 275.011 388.718ZM276.076 388.718C276.076 388.968 276.126 389.203 276.226 389.423C276.336 389.643 276.486 389.818 276.676 389.948C276.876 390.078 277.111 390.143 277.381 390.143C277.661 390.143 277.896 390.078 278.086 389.948C278.276 389.818 278.421 389.643 278.521 389.423C278.631 389.203 278.686 388.968 278.686 388.718C278.686 388.458 278.631 388.223 278.521 388.013C278.421 387.793 278.276 387.618 278.086 387.488C277.896 387.358 277.661 387.293 277.381 387.293C277.111 387.293 276.876 387.358 276.676 387.488C276.486 387.618 276.336 387.793 276.226 388.013C276.126 388.223 276.076 388.458 276.076 388.718ZM277.456 380.468H278.581L271.831 390.968H270.706L277.456 380.468Z" fill="#303030"/>
<path d="M207.922 356.172C207.922 356.652 208.022 357.077 208.222 357.447C208.432 357.807 208.712 358.092 209.062 358.302C209.422 358.512 209.827 358.617 210.277 358.617C210.727 358.617 211.127 358.512 211.477 358.302C211.837 358.092 212.117 357.807 212.317 357.447C212.527 357.077 212.632 356.652 212.632 356.172C212.632 355.692 212.527 355.267 212.317 354.897C212.117 354.517 211.837 354.222 211.477 354.012C211.127 353.802 210.727 353.697 210.277 353.697C209.827 353.697 209.422 353.802 209.062 354.012C208.712 354.222 208.432 354.517 208.222 354.897C208.022 355.267 207.922 355.692 207.922 356.172ZM210.907 349.122H212.512L209.227 353.457L209.137 353.382C209.337 353.132 209.567 352.967 209.827 352.887C210.097 352.807 210.402 352.767 210.742 352.767C211.172 352.767 211.572 352.852 211.942 353.022C212.322 353.192 212.652 353.432 212.932 353.742C213.222 354.052 213.447 354.417 213.607 354.837C213.767 355.247 213.847 355.692 213.847 356.172C213.847 356.892 213.687 357.522 213.367 358.062C213.057 358.602 212.632 359.022 212.092 359.322C211.562 359.622 210.957 359.772 210.277 359.772C209.607 359.772 209.002 359.622 208.462 359.322C207.922 359.022 207.492 358.602 207.172 358.062C206.862 357.522 206.707 356.892 206.707 356.172C206.707 355.742 206.767 355.342 206.887 354.972C207.007 354.602 207.167 354.277 207.367 353.997L210.907 349.122ZM216.474 354.372C216.474 354.982 216.534 355.547 216.654 356.067C216.774 356.577 216.949 357.022 217.179 357.402C217.409 357.772 217.684 358.062 218.004 358.272C218.334 358.472 218.699 358.572 219.099 358.572C219.509 358.572 219.874 358.472 220.194 358.272C220.514 358.062 220.789 357.772 221.019 357.402C221.249 357.022 221.424 356.577 221.544 356.067C221.664 355.547 221.724 354.982 221.724 354.372C221.724 353.762 221.664 353.202 221.544 352.692C221.424 352.172 221.249 351.727 221.019 351.357C220.789 350.977 220.514 350.687 220.194 350.487C219.874 350.277 219.509 350.172 219.099 350.172C218.699 350.172 218.334 350.277 218.004 350.487C217.684 350.687 217.409 350.977 217.179 351.357C216.949 351.727 216.774 352.172 216.654 352.692C216.534 353.202 216.474 353.762 216.474 354.372ZM215.199 354.372C215.199 353.322 215.364 352.392 215.694 351.582C216.024 350.772 216.479 350.137 217.059 349.677C217.649 349.207 218.329 348.972 219.099 348.972C219.869 348.972 220.544 349.207 221.124 349.677C221.714 350.137 222.174 350.772 222.504 351.582C222.834 352.392 222.999 353.322 222.999 354.372C222.999 355.422 222.834 356.352 222.504 357.162C222.174 357.972 221.714 358.612 221.124 359.082C220.544 359.542 219.869 359.772 219.099 359.772C218.329 359.772 217.649 359.542 217.059 359.082C216.479 358.612 216.024 357.972 215.694 357.162C215.364 356.352 215.199 355.422 215.199 354.372ZM206.482 371.372C206.482 370.922 206.577 370.517 206.767 370.157C206.967 369.797 207.247 369.512 207.607 369.302C207.967 369.082 208.382 368.972 208.852 368.972C209.332 368.972 209.747 369.082 210.097 369.302C210.457 369.512 210.732 369.797 210.922 370.157C211.122 370.517 211.222 370.922 211.222 371.372C211.222 371.812 211.122 372.217 210.922 372.587C210.732 372.947 210.457 373.237 210.097 373.457C209.747 373.667 209.332 373.772 208.852 373.772C208.382 373.772 207.967 373.667 207.607 373.457C207.247 373.237 206.967 372.947 206.767 372.587C206.577 372.217 206.482 371.812 206.482 371.372ZM207.547 371.372C207.547 371.622 207.597 371.857 207.697 372.077C207.807 372.297 207.957 372.472 208.147 372.602C208.347 372.732 208.582 372.797 208.852 372.797C209.132 372.797 209.367 372.732 209.557 372.602C209.747 372.472 209.892 372.297 209.992 372.077C210.102 371.857 210.157 371.622 210.157 371.372C210.157 371.112 210.102 370.877 209.992 370.667C209.892 370.447 209.747 370.272 209.557 370.142C209.367 370.012 209.132 369.947 208.852 369.947C208.582 369.947 208.347 370.012 208.147 370.142C207.957 370.272 207.807 370.447 207.697 370.667C207.597 370.877 207.547 371.112 207.547 371.372ZM211.957 377.372C211.957 376.922 212.052 376.517 212.242 376.157C212.442 375.797 212.722 375.512 213.082 375.302C213.442 375.082 213.857 374.972 214.327 374.972C214.807 374.972 215.222 375.082 215.572 375.302C215.932 375.512 216.207 375.797 216.397 376.157C216.597 376.517 216.697 376.922 216.697 377.372C216.697 377.812 216.597 378.217 216.397 378.587C216.207 378.947 215.932 379.237 215.572 379.457C215.222 379.667 214.807 379.772 214.327 379.772C213.857 379.772 213.442 379.667 213.082 379.457C212.722 379.237 212.442 378.947 212.242 378.587C212.052 378.217 211.957 377.812 211.957 377.372ZM213.022 377.372C213.022 377.622 213.072 377.857 213.172 378.077C213.282 378.297 213.432 378.472 213.622 378.602C213.822 378.732 214.057 378.797 214.327 378.797C214.607 378.797 214.842 378.732 215.032 378.602C215.222 378.472 215.367 378.297 215.467 378.077C215.577 377.857 215.632 377.622 215.632 377.372C215.632 377.112 215.577 376.877 215.467 376.667C215.367 376.447 215.222 376.272 215.032 376.142C214.842 376.012 214.607 375.947 214.327 375.947C214.057 375.947 213.822 376.012 213.622 376.142C213.432 376.272 213.282 376.447 213.172 376.667C213.072 376.877 213.022 377.112 213.022 377.372ZM214.402 369.122H215.527L208.777 379.622H207.652L214.402 369.122Z" fill="#303030"/>
<path d="M140.805 380.968L146.625 372.568H147.15V383.068H145.875V380.428V380.263V375.403L142.905 379.843H146.4H146.655H148.8V380.968H140.805ZM151.125 377.818C151.125 378.428 151.185 378.993 151.305 379.513C151.425 380.023 151.6 380.468 151.83 380.848C152.06 381.218 152.335 381.508 152.655 381.718C152.985 381.918 153.35 382.018 153.75 382.018C154.16 382.018 154.525 381.918 154.845 381.718C155.165 381.508 155.44 381.218 155.67 380.848C155.9 380.468 156.075 380.023 156.195 379.513C156.315 378.993 156.375 378.428 156.375 377.818C156.375 377.208 156.315 376.648 156.195 376.138C156.075 375.618 155.9 375.173 155.67 374.803C155.44 374.423 155.165 374.133 154.845 373.933C154.525 373.723 154.16 373.618 153.75 373.618C153.35 373.618 152.985 373.723 152.655 373.933C152.335 374.133 152.06 374.423 151.83 374.803C151.6 375.173 151.425 375.618 151.305 376.138C151.185 376.648 151.125 377.208 151.125 377.818ZM149.85 377.818C149.85 376.768 150.015 375.838 150.345 375.028C150.675 374.218 151.13 373.583 151.71 373.123C152.3 372.653 152.98 372.418 153.75 372.418C154.52 372.418 155.195 372.653 155.775 373.123C156.365 373.583 156.825 374.218 157.155 375.028C157.485 375.838 157.65 376.768 157.65 377.818C157.65 378.868 157.485 379.798 157.155 380.608C156.825 381.418 156.365 382.058 155.775 382.528C155.195 382.988 154.52 383.218 153.75 383.218C152.98 383.218 152.3 382.988 151.71 382.528C151.13 382.058 150.675 381.418 150.345 380.608C150.015 379.798 149.85 378.868 149.85 377.818ZM141.03 394.818C141.03 394.368 141.125 393.963 141.315 393.603C141.515 393.243 141.795 392.958 142.155 392.748C142.515 392.528 142.93 392.418 143.4 392.418C143.88 392.418 144.295 392.528 144.645 392.748C145.005 392.958 145.28 393.243 145.47 393.603C145.67 393.963 145.77 394.368 145.77 394.818C145.77 395.258 145.67 395.663 145.47 396.033C145.28 396.393 145.005 396.683 144.645 396.903C144.295 397.113 143.88 397.218 143.4 397.218C142.93 397.218 142.515 397.113 142.155 396.903C141.795 396.683 141.515 396.393 141.315 396.033C141.125 395.663 141.03 395.258 141.03 394.818ZM142.095 394.818C142.095 395.068 142.145 395.303 142.245 395.523C142.355 395.743 142.505 395.918 142.695 396.048C142.895 396.178 143.13 396.243 143.4 396.243C143.68 396.243 143.915 396.178 144.105 396.048C144.295 395.918 144.44 395.743 144.54 395.523C144.65 395.303 144.705 395.068 144.705 394.818C144.705 394.558 144.65 394.323 144.54 394.113C144.44 393.893 144.295 393.718 144.105 393.588C143.915 393.458 143.68 393.393 143.4 393.393C143.13 393.393 142.895 393.458 142.695 393.588C142.505 393.718 142.355 393.893 142.245 394.113C142.145 394.323 142.095 394.558 142.095 394.818ZM146.505 400.818C146.505 400.368 146.6 399.963 146.79 399.603C146.99 399.243 147.27 398.958 147.63 398.748C147.99 398.528 148.405 398.418 148.875 398.418C149.355 398.418 149.77 398.528 150.12 398.748C150.48 398.958 150.755 399.243 150.945 399.603C151.145 399.963 151.245 400.368 151.245 400.818C151.245 401.258 151.145 401.663 150.945 402.033C150.755 402.393 150.48 402.683 150.12 402.903C149.77 403.113 149.355 403.218 148.875 403.218C148.405 403.218 147.99 403.113 147.63 402.903C147.27 402.683 146.99 402.393 146.79 402.033C146.6 401.663 146.505 401.258 146.505 400.818ZM147.57 400.818C147.57 401.068 147.62 401.303 147.72 401.523C147.83 401.743 147.98 401.918 148.17 402.048C148.37 402.178 148.605 402.243 148.875 402.243C149.155 402.243 149.39 402.178 149.58 402.048C149.77 401.918 149.915 401.743 150.015 401.523C150.125 401.303 150.18 401.068 150.18 400.818C150.18 400.558 150.125 400.323 150.015 400.113C149.915 399.893 149.77 399.718 149.58 399.588C149.39 399.458 149.155 399.393 148.875 399.393C148.605 399.393 148.37 399.458 148.17 399.588C147.98 399.718 147.83 399.893 147.72 400.113C147.62 400.323 147.57 400.558 147.57 400.818ZM148.95 392.568H150.075L143.325 403.068H142.2L148.95 392.568Z" fill="#303030"/>
<path d="M71.4648 419.262V417.942L75.0648 417.042V427.692H73.7898V418.572L71.4648 419.262ZM78.8928 422.442C78.8928 423.052 78.9528 423.617 79.0728 424.137C79.1928 424.647 79.3678 425.092 79.5978 425.472C79.8278 425.842 80.1028 426.132 80.4228 426.342C80.7528 426.542 81.1178 426.642 81.5178 426.642C81.9278 426.642 82.2928 426.542 82.6128 426.342C82.9328 426.132 83.2078 425.842 83.4378 425.472C83.6678 425.092 83.8428 424.647 83.9628 424.137C84.0828 423.617 84.1428 423.052 84.1428 422.442C84.1428 421.832 84.0828 421.272 83.9628 420.762C83.8428 420.242 83.6678 419.797 83.4378 419.427C83.2078 419.047 82.9328 418.757 82.6128 418.557C82.2928 418.347 81.9278 418.242 81.5178 418.242C81.1178 418.242 80.7528 418.347 80.4228 418.557C80.1028 418.757 79.8278 419.047 79.5978 419.427C79.3678 419.797 79.1928 420.242 79.0728 420.762C78.9528 421.272 78.8928 421.832 78.8928 422.442ZM77.6178 422.442C77.6178 421.392 77.7828 420.462 78.1128 419.652C78.4428 418.842 78.8978 418.207 79.4778 417.747C80.0678 417.277 80.7478 417.042 81.5178 417.042C82.2878 417.042 82.9628 417.277 83.5428 417.747C84.1328 418.207 84.5928 418.842 84.9228 419.652C85.2528 420.462 85.4178 421.392 85.4178 422.442C85.4178 423.492 85.2528 424.422 84.9228 425.232C84.5928 426.042 84.1328 426.682 83.5428 427.152C82.9628 427.612 82.2878 427.842 81.5178 427.842C80.7478 427.842 80.0678 427.612 79.4778 427.152C78.8978 426.682 78.4428 426.042 78.1128 425.232C77.7828 424.422 77.6178 423.492 77.6178 422.442ZM70.7898 439.442C70.7898 438.992 70.8848 438.587 71.0748 438.227C71.2748 437.867 71.5548 437.582 71.9148 437.372C72.2748 437.152 72.6898 437.042 73.1598 437.042C73.6398 437.042 74.0548 437.152 74.4048 437.372C74.7648 437.582 75.0398 437.867 75.2298 438.227C75.4298 438.587 75.5298 438.992 75.5298 439.442C75.5298 439.882 75.4298 440.287 75.2298 440.657C75.0398 441.017 74.7648 441.307 74.4048 441.527C74.0548 441.737 73.6398 441.842 73.1598 441.842C72.6898 441.842 72.2748 441.737 71.9148 441.527C71.5548 441.307 71.2748 441.017 71.0748 440.657C70.8848 440.287 70.7898 439.882 70.7898 439.442ZM71.8548 439.442C71.8548 439.692 71.9048 439.927 72.0048 440.147C72.1148 440.367 72.2648 440.542 72.4548 440.672C72.6548 440.802 72.8898 440.867 73.1598 440.867C73.4398 440.867 73.6748 440.802 73.8648 440.672C74.0548 440.542 74.1998 440.367 74.2998 440.147C74.4098 439.927 74.4648 439.692 74.4648 439.442C74.4648 439.182 74.4098 438.947 74.2998 438.737C74.1998 438.517 74.0548 438.342 73.8648 438.212C73.6748 438.082 73.4398 438.017 73.1598 438.017C72.8898 438.017 72.6548 438.082 72.4548 438.212C72.2648 438.342 72.1148 438.517 72.0048 438.737C71.9048 438.947 71.8548 439.182 71.8548 439.442ZM76.2648 445.442C76.2648 444.992 76.3598 444.587 76.5498 444.227C76.7498 443.867 77.0298 443.582 77.3898 443.372C77.7498 443.152 78.1648 443.042 78.6348 443.042C79.1148 443.042 79.5298 443.152 79.8798 443.372C80.2398 443.582 80.5148 443.867 80.7048 444.227C80.9048 444.587 81.0048 444.992 81.0048 445.442C81.0048 445.882 80.9048 446.287 80.7048 446.657C80.5148 447.017 80.2398 447.307 79.8798 447.527C79.5298 447.737 79.1148 447.842 78.6348 447.842C78.1648 447.842 77.7498 447.737 77.3898 447.527C77.0298 447.307 76.7498 447.017 76.5498 446.657C76.3598 446.287 76.2648 445.882 76.2648 445.442ZM77.3298 445.442C77.3298 445.692 77.3798 445.927 77.4798 446.147C77.5898 446.367 77.7398 446.542 77.9298 446.672C78.1298 446.802 78.3648 446.867 78.6348 446.867C78.9148 446.867 79.1498 446.802 79.3398 446.672C79.5298 446.542 79.6748 446.367 79.7748 446.147C79.8848 445.927 79.9398 445.692 79.9398 445.442C79.9398 445.182 79.8848 444.947 79.7748 444.737C79.6748 444.517 79.5298 444.342 79.3398 444.212C79.1498 444.082 78.9148 444.017 78.6348 444.017C78.3648 444.017 78.1298 444.082 77.9298 444.212C77.7398 444.342 77.5898 444.517 77.4798 444.737C77.3798 444.947 77.3298 445.182 77.3298 445.442ZM78.7098 437.192H79.8348L73.0848 447.692H71.9598L78.7098 437.192Z" fill="#303030"/>
<path d="M96.322 435.288C69.3484 450.718 49.0434 412.686 41.5308 388.486V459.194H286.577V398.317C285.549 397.884 284.576 397.347 283.656 396.727C271.589 388.604 268.325 371.461 256.682 362.741C241.54 351.398 229.617 356.349 222.322 362.396C212.744 370.336 193.188 388.486 161.659 388.486C144.18 388.486 129.013 399.986 119.002 411.033C111.522 419.286 105.991 429.757 96.322 435.288Z" fill="url(#paint0_linear_1_2356)"/>
<path d="M42.324 388.517C49.897 412.912 70.4692 451.362 97.7675 434.937C106.89 429.448 112.211 419.561 119.299 411.616C129.301 400.405 144.682 388.517 162.453 388.517C193.981 388.517 213.537 370.368 223.116 362.427C229.966 356.748 240.899 352.036 254.747 360.879C268.861 369.892 271.936 391.849 287.37 398.348V398.348" stroke="#3285FF" stroke-opacity="0.5" stroke-width="3" stroke-linecap="round"/>
<ellipse cx="150.883" cy="390.76" rx="7.98196" ry="7.56236" fill="#F3F4F4"/>
<path d="M157.365 390.76C157.365 394.032 154.54 396.822 150.883 396.822C147.226 396.822 144.401 394.032 144.401 390.76C144.401 387.487 147.226 384.697 150.883 384.697C154.54 384.697 157.365 387.487 157.365 390.76Z" stroke="#3285FF" stroke-opacity="0.5" stroke-width="3"/>
<ellipse cx="216.331" cy="367.316" rx="7.98196" ry="7.56236" fill="#F3F4F4"/>
<path d="M222.813 367.316C222.813 370.589 219.989 373.378 216.331 373.378C212.674 373.378 209.849 370.589 209.849 367.316C209.849 364.043 212.674 361.254 216.331 361.254C219.989 361.254 222.813 364.043 222.813 367.316Z" stroke="#3285FF" stroke-opacity="0.5" stroke-width="3"/>
<ellipse cx="83.0351" cy="436.131" rx="7.98196" ry="7.56236" fill="#F3F4F4"/>
<path d="M89.5171 436.131C89.5171 439.404 86.6924 442.194 83.0351 442.194C79.3779 442.194 76.5532 439.404 76.5532 436.131C76.5532 432.858 79.3779 430.069 83.0351 430.069C86.6924 430.069 89.5171 432.858 89.5171 436.131Z" stroke="#3285FF" stroke-opacity="0.5" stroke-width="3"/>
<ellipse cx="273.801" cy="382.439" rx="7.98196" ry="7.56236" fill="#F3F4F4"/>
<path d="M280.282 382.439C280.282 385.712 277.458 388.502 273.801 388.502C270.143 388.502 267.319 385.712 267.319 382.439C267.319 379.167 270.143 376.377 273.801 376.377C277.458 376.377 280.282 379.167 280.282 382.439Z" stroke="#3285FF" stroke-opacity="0.5" stroke-width="3"/>
<rect x="22.2499" y="38.5912" width="492.296" height="205.213" rx="10" transform="rotate(-0.561514 22.2499 38.5912)" fill="white"/>
<path d="M448.314 78.8726C448.934 78.8726 449.493 78.9702 449.991 79.1655C450.489 79.356 450.885 79.6416 451.178 80.0225C451.471 80.4033 451.617 80.8745 451.617 81.436C451.617 81.8706 451.527 82.249 451.346 82.5713C451.17 82.8936 450.931 83.1768 450.628 83.4209C450.326 83.6602 449.986 83.8726 449.61 84.0581C450.03 84.2632 450.416 84.5 450.768 84.7686C451.124 85.0322 451.41 85.3423 451.624 85.6987C451.844 86.0552 451.954 86.4727 451.954 86.9512C451.954 87.5518 451.8 88.0718 451.493 88.5112C451.19 88.9458 450.768 89.2827 450.226 89.522C449.684 89.7563 449.051 89.8735 448.329 89.8735C447.552 89.8735 446.891 89.7588 446.344 89.5293C445.797 89.2998 445.382 88.9727 445.099 88.5479C444.815 88.1182 444.674 87.6055 444.674 87.0098C444.674 86.5166 444.771 86.0894 444.967 85.728C445.162 85.3667 445.423 85.0542 445.75 84.7905C446.082 84.5269 446.446 84.3047 446.842 84.124C446.505 83.9238 446.197 83.6992 445.919 83.4502C445.641 83.1963 445.418 82.9058 445.252 82.5786C445.091 82.2466 445.011 81.8633 445.011 81.4287C445.011 80.8721 445.16 80.4058 445.457 80.0298C445.755 79.6489 446.153 79.3608 446.651 79.1655C447.154 78.9702 447.708 78.8726 448.314 78.8726ZM446.314 86.9438C446.314 87.4126 446.48 87.7983 446.812 88.1011C447.144 88.4038 447.64 88.5552 448.299 88.5552C448.954 88.5552 449.452 88.4062 449.793 88.1084C450.135 87.8105 450.306 87.4175 450.306 86.9292C450.306 86.6167 450.218 86.3408 450.042 86.1016C449.872 85.8623 449.64 85.6499 449.347 85.4644C449.059 85.2739 448.739 85.0981 448.387 84.937L448.153 84.8418C447.772 85.0029 447.445 85.186 447.171 85.3911C446.898 85.5913 446.685 85.8184 446.534 86.0723C446.388 86.3262 446.314 86.6167 446.314 86.9438ZM448.299 80.1982C447.826 80.1982 447.435 80.3154 447.127 80.5498C446.825 80.7793 446.673 81.1113 446.673 81.5459C446.673 81.8535 446.747 82.1172 446.893 82.3369C447.044 82.5566 447.247 82.7471 447.501 82.9082C447.755 83.0645 448.036 83.2109 448.343 83.3477C448.641 83.2158 448.91 83.0718 449.149 82.9155C449.393 82.7544 449.586 82.564 449.727 82.3442C449.874 82.1196 449.947 81.8511 449.947 81.5386C449.947 81.1089 449.793 80.7793 449.486 80.5498C449.183 80.3154 448.788 80.1982 448.299 80.1982ZM460.538 84.3657C460.538 85.23 460.47 86.0039 460.333 86.6875C460.201 87.3662 459.991 87.9424 459.703 88.416C459.415 88.8896 459.039 89.251 458.575 89.5C458.111 89.749 457.55 89.8735 456.891 89.8735C456.065 89.8735 455.384 89.6562 454.847 89.2217C454.31 88.7822 453.912 88.1523 453.653 87.332C453.394 86.5068 453.265 85.5181 453.265 84.3657C453.265 83.2134 453.382 82.2271 453.617 81.4067C453.856 80.5815 454.242 79.9492 454.774 79.5098C455.306 79.0703 456.012 78.8506 456.891 78.8506C457.721 78.8506 458.404 79.0703 458.941 79.5098C459.483 79.9443 459.884 80.5742 460.143 81.3994C460.406 82.2197 460.538 83.2085 460.538 84.3657ZM455.001 84.3657C455.001 85.269 455.06 86.0234 455.177 86.6289C455.299 87.2344 455.499 87.6885 455.777 87.9912C456.056 88.2891 456.427 88.438 456.891 88.438C457.354 88.438 457.726 88.2891 458.004 87.9912C458.282 87.6934 458.482 87.2417 458.604 86.6362C458.731 86.0308 458.795 85.2739 458.795 84.3657C458.795 83.4673 458.734 82.7153 458.612 82.1099C458.49 81.5044 458.289 81.0503 458.011 80.7476C457.733 80.4399 457.359 80.2861 456.891 80.2861C456.422 80.2861 456.048 80.4399 455.77 80.7476C455.497 81.0503 455.299 81.5044 455.177 82.1099C455.06 82.7153 455.001 83.4673 455.001 84.3657ZM464.156 78.8652C464.942 78.8652 465.538 79.1582 465.943 79.7441C466.349 80.3252 466.551 81.1479 466.551 82.2124C466.551 83.272 466.356 84.0996 465.965 84.6953C465.58 85.291 464.977 85.5889 464.156 85.5889C463.39 85.5889 462.806 85.291 462.406 84.6953C462.005 84.0996 461.805 83.272 461.805 82.2124C461.805 81.1479 461.993 80.3252 462.369 79.7441C462.75 79.1582 463.346 78.8652 464.156 78.8652ZM464.164 80.0664C463.846 80.0664 463.612 80.2446 463.46 80.6011C463.314 80.9575 463.241 81.4971 463.241 82.2197C463.241 82.9375 463.314 83.4795 463.46 83.8457C463.612 84.207 463.846 84.3877 464.164 84.3877C464.486 84.3877 464.725 84.207 464.881 83.8457C465.042 83.4844 465.123 82.9424 465.123 82.2197C465.123 81.502 465.045 80.9648 464.889 80.6084C464.732 80.2471 464.491 80.0664 464.164 80.0664ZM471.349 79.019L465.409 89.7271H463.995L469.935 79.019H471.349ZM471.151 83.1499C471.937 83.1499 472.533 83.4429 472.938 84.0288C473.348 84.6099 473.553 85.4326 473.553 86.4971C473.553 87.5518 473.358 88.377 472.967 88.9727C472.581 89.5684 471.976 89.8662 471.151 89.8662C470.384 89.8662 469.801 89.5684 469.4 88.9727C469 88.377 468.8 87.5518 468.8 86.4971C468.8 85.4326 468.988 84.6099 469.364 84.0288C469.745 83.4429 470.34 83.1499 471.151 83.1499ZM471.158 84.3511C470.841 84.3511 470.606 84.5293 470.455 84.8857C470.309 85.2422 470.235 85.7817 470.235 86.5044C470.235 87.2222 470.309 87.7642 470.455 88.1304C470.606 88.4917 470.841 88.6724 471.158 88.6724C471.485 88.6724 471.727 88.4941 471.883 88.1377C472.039 87.7764 472.118 87.2319 472.118 86.5044C472.118 85.7866 472.039 85.2495 471.883 84.8931C471.727 84.5317 471.485 84.3511 471.158 84.3511Z" fill="#303030"/>
<rect x="46.2499" y="75.9211" width="376" height="16" rx="8" fill="#EBEBEB"/>
<rect x="46.2499" y="75.9211" width="325" height="16" rx="8" fill="#3285FF" fill-opacity="0.5"/>
<path d="M452.342 124.376H450.892V126.727H449.193V124.376H444.322V123.072L449.215 115.99H450.892V122.948H452.342V124.376ZM449.193 122.948V120.289C449.193 120.069 449.195 119.847 449.2 119.623C449.21 119.393 449.22 119.173 449.229 118.963C449.239 118.753 449.249 118.561 449.259 118.385C449.268 118.204 449.276 118.055 449.281 117.938H449.222C449.129 118.133 449.027 118.333 448.914 118.539C448.802 118.739 448.683 118.934 448.556 119.125L445.919 122.948H449.193ZM456.927 120.033C457.616 120.033 458.221 120.157 458.744 120.406C459.271 120.65 459.681 121.012 459.974 121.49C460.267 121.964 460.414 122.545 460.414 123.233C460.414 123.985 460.255 124.635 459.937 125.182C459.62 125.724 459.154 126.141 458.539 126.434C457.923 126.727 457.174 126.874 456.29 126.874C455.728 126.874 455.204 126.825 454.715 126.727C454.232 126.629 453.814 126.483 453.463 126.288V124.735C453.829 124.94 454.268 125.108 454.781 125.24C455.294 125.367 455.785 125.431 456.253 125.431C456.751 125.431 457.179 125.357 457.535 125.211C457.892 125.064 458.165 124.84 458.355 124.537C458.551 124.234 458.648 123.851 458.648 123.387C458.648 122.772 458.451 122.298 458.055 121.966C457.664 121.629 457.052 121.461 456.217 121.461C455.924 121.461 455.611 121.488 455.279 121.542C454.952 121.59 454.679 121.644 454.459 121.703L453.705 121.256L454.107 116.019H459.674V117.535H455.623L455.389 120.201C455.565 120.162 455.775 120.125 456.019 120.091C456.263 120.052 456.566 120.033 456.927 120.033ZM464.156 115.865C464.942 115.865 465.538 116.158 465.943 116.744C466.349 117.325 466.551 118.148 466.551 119.212C466.551 120.272 466.356 121.1 465.965 121.695C465.58 122.291 464.977 122.589 464.156 122.589C463.39 122.589 462.806 122.291 462.406 121.695C462.005 121.1 461.805 120.272 461.805 119.212C461.805 118.148 461.993 117.325 462.369 116.744C462.75 116.158 463.346 115.865 464.156 115.865ZM464.164 117.066C463.846 117.066 463.612 117.245 463.46 117.601C463.314 117.958 463.241 118.497 463.241 119.22C463.241 119.938 463.314 120.479 463.46 120.846C463.612 121.207 463.846 121.388 464.164 121.388C464.486 121.388 464.725 121.207 464.881 120.846C465.042 120.484 465.123 119.942 465.123 119.22C465.123 118.502 465.045 117.965 464.889 117.608C464.732 117.247 464.491 117.066 464.164 117.066ZM471.349 116.019L465.409 126.727H463.995L469.935 116.019H471.349ZM471.151 120.15C471.937 120.15 472.533 120.443 472.938 121.029C473.348 121.61 473.553 122.433 473.553 123.497C473.553 124.552 473.358 125.377 472.967 125.973C472.581 126.568 471.976 126.866 471.151 126.866C470.384 126.866 469.801 126.568 469.4 125.973C469 125.377 468.8 124.552 468.8 123.497C468.8 122.433 468.988 121.61 469.364 121.029C469.745 120.443 470.34 120.15 471.151 120.15ZM471.158 121.351C470.841 121.351 470.606 121.529 470.455 121.886C470.309 122.242 470.235 122.782 470.235 123.504C470.235 124.222 470.309 124.764 470.455 125.13C470.606 125.492 470.841 125.672 471.158 125.672C471.485 125.672 471.727 125.494 471.883 125.138C472.039 124.776 472.118 124.232 472.118 123.504C472.118 122.787 472.039 122.25 471.883 121.893C471.727 121.532 471.485 121.351 471.158 121.351Z" fill="#303030"/>
<rect x="46.2499" y="112.921" width="376" height="16" rx="8" fill="#EBEBEB"/>
<rect x="46.2499" y="112.921" width="217" height="16" rx="8" fill="#DCDCDC"/>
<path d="M451.939 157.582C451.939 158.217 451.893 158.839 451.8 159.45C451.712 160.06 451.556 160.631 451.331 161.164C451.112 161.696 450.807 162.167 450.416 162.577C450.03 162.982 449.542 163.3 448.951 163.529C448.36 163.759 447.647 163.874 446.812 163.874C446.602 163.874 446.358 163.861 446.08 163.837C445.807 163.817 445.582 163.788 445.406 163.749V162.313C445.592 162.367 445.799 162.411 446.029 162.445C446.263 162.475 446.495 162.489 446.725 162.489C447.628 162.489 448.331 162.321 448.834 161.984C449.342 161.647 449.701 161.183 449.911 160.592C450.125 160.001 450.247 159.33 450.277 158.578H450.189C450.047 158.812 449.869 159.027 449.654 159.223C449.439 159.413 449.173 159.567 448.856 159.684C448.539 159.796 448.153 159.853 447.699 159.853C447.083 159.853 446.546 159.723 446.087 159.464C445.633 159.206 445.279 158.83 445.025 158.336C444.776 157.838 444.652 157.24 444.652 156.542C444.652 155.785 444.796 155.133 445.084 154.586C445.372 154.04 445.78 153.62 446.307 153.327C446.834 153.029 447.455 152.88 448.167 152.88C448.705 152.88 449.2 152.978 449.654 153.173C450.113 153.363 450.514 153.656 450.855 154.052C451.197 154.442 451.463 154.933 451.654 155.524C451.844 156.11 451.939 156.796 451.939 157.582ZM448.189 154.301C447.647 154.301 447.206 154.484 446.864 154.85C446.522 155.211 446.351 155.768 446.351 156.52C446.351 157.13 446.497 157.614 446.79 157.97C447.083 158.327 447.533 158.505 448.138 158.505C448.558 158.505 448.919 158.419 449.222 158.249C449.53 158.073 449.767 157.851 449.933 157.582C450.103 157.313 450.189 157.04 450.189 156.762C450.189 156.474 450.147 156.186 450.064 155.897C449.986 155.609 449.864 155.346 449.698 155.106C449.532 154.867 449.322 154.674 449.068 154.528C448.819 154.376 448.526 154.301 448.189 154.301ZM460.538 158.366C460.538 159.23 460.47 160.004 460.333 160.688C460.201 161.366 459.991 161.942 459.703 162.416C459.415 162.89 459.039 163.251 458.575 163.5C458.111 163.749 457.55 163.874 456.891 163.874C456.065 163.874 455.384 163.656 454.847 163.222C454.31 162.782 453.912 162.152 453.653 161.332C453.394 160.507 453.265 159.518 453.265 158.366C453.265 157.213 453.382 156.227 453.617 155.407C453.856 154.582 454.242 153.949 454.774 153.51C455.306 153.07 456.012 152.851 456.891 152.851C457.721 152.851 458.404 153.07 458.941 153.51C459.483 153.944 459.884 154.574 460.143 155.399C460.406 156.22 460.538 157.208 460.538 158.366ZM455.001 158.366C455.001 159.269 455.06 160.023 455.177 160.629C455.299 161.234 455.499 161.688 455.777 161.991C456.056 162.289 456.427 162.438 456.891 162.438C457.354 162.438 457.726 162.289 458.004 161.991C458.282 161.693 458.482 161.242 458.604 160.636C458.731 160.031 458.795 159.274 458.795 158.366C458.795 157.467 458.734 156.715 458.612 156.11C458.49 155.504 458.289 155.05 458.011 154.748C457.733 154.44 457.359 154.286 456.891 154.286C456.422 154.286 456.048 154.44 455.77 154.748C455.497 155.05 455.299 155.504 455.177 156.11C455.06 156.715 455.001 157.467 455.001 158.366ZM464.156 152.865C464.942 152.865 465.538 153.158 465.943 153.744C466.349 154.325 466.551 155.148 466.551 156.212C466.551 157.272 466.356 158.1 465.965 158.695C465.58 159.291 464.977 159.589 464.156 159.589C463.39 159.589 462.806 159.291 462.406 158.695C462.005 158.1 461.805 157.272 461.805 156.212C461.805 155.148 461.993 154.325 462.369 153.744C462.75 153.158 463.346 152.865 464.156 152.865ZM464.164 154.066C463.846 154.066 463.612 154.245 463.46 154.601C463.314 154.958 463.241 155.497 463.241 156.22C463.241 156.938 463.314 157.479 463.46 157.846C463.612 158.207 463.846 158.388 464.164 158.388C464.486 158.388 464.725 158.207 464.881 157.846C465.042 157.484 465.123 156.942 465.123 156.22C465.123 155.502 465.045 154.965 464.889 154.608C464.732 154.247 464.491 154.066 464.164 154.066ZM471.349 153.019L465.409 163.727H463.995L469.935 153.019H471.349ZM471.151 157.15C471.937 157.15 472.533 157.443 472.938 158.029C473.348 158.61 473.553 159.433 473.553 160.497C473.553 161.552 473.358 162.377 472.967 162.973C472.581 163.568 471.976 163.866 471.151 163.866C470.384 163.866 469.801 163.568 469.4 162.973C469 162.377 468.8 161.552 468.8 160.497C468.8 159.433 468.988 158.61 469.364 158.029C469.745 157.443 470.34 157.15 471.151 157.15ZM471.158 158.351C470.841 158.351 470.606 158.529 470.455 158.886C470.309 159.242 470.235 159.782 470.235 160.504C470.235 161.222 470.309 161.764 470.455 162.13C470.606 162.492 470.841 162.672 471.158 162.672C471.485 162.672 471.727 162.494 471.883 162.138C472.039 161.776 472.118 161.232 472.118 160.504C472.118 159.787 472.039 159.25 471.883 158.893C471.727 158.532 471.485 158.351 471.158 158.351Z" fill="#303030"/>
<rect x="46.2499" y="149.921" width="376" height="16" rx="8" fill="#EBEBEB"/>
<rect x="46.2499" y="149.921" width="358" height="16" rx="8" fill="#808080"/>
<path d="M444.718 196.164C444.718 195.534 444.762 194.914 444.85 194.304C444.942 193.693 445.099 193.122 445.318 192.59C445.538 192.058 445.841 191.589 446.227 191.184C446.617 190.778 447.108 190.461 447.699 190.231C448.289 189.997 449 189.88 449.83 189.88C450.045 189.88 450.287 189.89 450.555 189.909C450.824 189.929 451.046 189.96 451.222 190.004V191.433C451.031 191.379 450.821 191.337 450.592 191.308C450.367 191.279 450.143 191.264 449.918 191.264C449.019 191.264 448.319 191.435 447.816 191.777C447.313 192.114 446.954 192.578 446.739 193.168C446.524 193.754 446.4 194.426 446.366 195.183H446.454C446.6 194.938 446.783 194.721 447.003 194.531C447.223 194.34 447.491 194.189 447.809 194.077C448.126 193.959 448.495 193.901 448.914 193.901C449.539 193.901 450.084 194.033 450.548 194.296C451.012 194.555 451.368 194.931 451.617 195.424C451.871 195.917 451.998 196.516 451.998 197.219C451.998 197.976 451.854 198.627 451.566 199.174C451.283 199.721 450.877 200.141 450.35 200.434C449.828 200.727 449.205 200.874 448.482 200.874C447.95 200.874 447.455 200.776 446.996 200.581C446.541 200.385 446.143 200.092 445.802 199.702C445.46 199.311 445.194 198.823 445.003 198.237C444.813 197.646 444.718 196.955 444.718 196.164ZM448.453 199.453C449.01 199.453 449.456 199.272 449.793 198.911C450.135 198.544 450.306 197.985 450.306 197.233C450.306 196.623 450.155 196.14 449.852 195.783C449.554 195.427 449.105 195.249 448.504 195.249C448.094 195.249 447.735 195.336 447.428 195.512C447.12 195.688 446.881 195.91 446.71 196.179C446.544 196.447 446.461 196.721 446.461 196.999C446.461 197.282 446.502 197.568 446.585 197.856C446.668 198.144 446.793 198.41 446.959 198.654C447.125 198.894 447.332 199.086 447.581 199.233C447.831 199.379 448.121 199.453 448.453 199.453ZM460.538 195.366C460.538 196.23 460.47 197.004 460.333 197.688C460.201 198.366 459.991 198.942 459.703 199.416C459.415 199.89 459.039 200.251 458.575 200.5C458.111 200.749 457.55 200.874 456.891 200.874C456.065 200.874 455.384 200.656 454.847 200.222C454.31 199.782 453.912 199.152 453.653 198.332C453.394 197.507 453.265 196.518 453.265 195.366C453.265 194.213 453.382 193.227 453.617 192.407C453.856 191.582 454.242 190.949 454.774 190.51C455.306 190.07 456.012 189.851 456.891 189.851C457.721 189.851 458.404 190.07 458.941 190.51C459.483 190.944 459.884 191.574 460.143 192.399C460.406 193.22 460.538 194.208 460.538 195.366ZM455.001 195.366C455.001 196.269 455.06 197.023 455.177 197.629C455.299 198.234 455.499 198.688 455.777 198.991C456.056 199.289 456.427 199.438 456.891 199.438C457.354 199.438 457.726 199.289 458.004 198.991C458.282 198.693 458.482 198.242 458.604 197.636C458.731 197.031 458.795 196.274 458.795 195.366C458.795 194.467 458.734 193.715 458.612 193.11C458.49 192.504 458.289 192.05 458.011 191.748C457.733 191.44 457.359 191.286 456.891 191.286C456.422 191.286 456.048 191.44 455.77 191.748C455.497 192.05 455.299 192.504 455.177 193.11C455.06 193.715 455.001 194.467 455.001 195.366ZM464.156 189.865C464.942 189.865 465.538 190.158 465.943 190.744C466.349 191.325 466.551 192.148 466.551 193.212C466.551 194.272 466.356 195.1 465.965 195.695C465.58 196.291 464.977 196.589 464.156 196.589C463.39 196.589 462.806 196.291 462.406 195.695C462.005 195.1 461.805 194.272 461.805 193.212C461.805 192.148 461.993 191.325 462.369 190.744C462.75 190.158 463.346 189.865 464.156 189.865ZM464.164 191.066C463.846 191.066 463.612 191.245 463.46 191.601C463.314 191.958 463.241 192.497 463.241 193.22C463.241 193.938 463.314 194.479 463.46 194.846C463.612 195.207 463.846 195.388 464.164 195.388C464.486 195.388 464.725 195.207 464.881 194.846C465.042 194.484 465.123 193.942 465.123 193.22C465.123 192.502 465.045 191.965 464.889 191.608C464.732 191.247 464.491 191.066 464.164 191.066ZM471.349 190.019L465.409 200.727H463.995L469.935 190.019H471.349ZM471.151 194.15C471.937 194.15 472.533 194.443 472.938 195.029C473.348 195.61 473.553 196.433 473.553 197.497C473.553 198.552 473.358 199.377 472.967 199.973C472.581 200.568 471.976 200.866 471.151 200.866C470.384 200.866 469.801 200.568 469.4 199.973C469 199.377 468.8 198.552 468.8 197.497C468.8 196.433 468.988 195.61 469.364 195.029C469.745 194.443 470.34 194.15 471.151 194.15ZM471.158 195.351C470.841 195.351 470.606 195.529 470.455 195.886C470.309 196.242 470.235 196.782 470.235 197.504C470.235 198.222 470.309 198.764 470.455 199.13C470.606 199.492 470.841 199.672 471.158 199.672C471.485 199.672 471.727 199.494 471.883 199.138C472.039 198.776 472.118 198.232 472.118 197.504C472.118 196.787 472.039 196.25 471.883 195.893C471.727 195.532 471.485 195.351 471.158 195.351Z" fill="#303030"/>
<rect x="46.2499" y="186.921" width="376" height="16" rx="8" fill="#EBEBEB"/>
<rect x="46.2499" y="186.921" width="235" height="16" rx="8" fill="#3285FF"/>
<defs>
<filter id="filter0_bdi_1_2356" x="306.786" y="282.58" width="229.739" height="237.178" filterUnits="userSpaceOnUse" color-interpolation-filters="sRGB">
<feFlood flood-opacity="0" result="BackgroundImageFix"/>
<feGaussianBlur in="BackgroundImageFix" stdDeviation="10.7192"/>
<feComposite in2="SourceAlpha" operator="in" result="effect1_backgroundBlur_1_2356"/>
<feColorMatrix in="SourceAlpha" type="matrix" values="0 0 0 0 0 0 0 0 0 0 0 0 0 0 0 0 0 0 127 0" result="hardAlpha"/>
<feOffset dy="14"/>
<feGaussianBlur stdDeviation="14"/>
<feComposite in2="hardAlpha" operator="out"/>
<feColorMatrix type="matrix" values="0 0 0 0 0.804167 0 0 0 0 0.804167 0 0 0 0 0.804167 0 0 0 0.25 0"/>
<feBlend mode="normal" in2="effect1_backgroundBlur_1_2356" result="effect2_dropShadow_1_2356"/>
<feBlend mode="normal" in="SourceGraphic" in2="effect2_dropShadow_1_2356" result="shape"/>
<feColorMatrix in="SourceAlpha" type="matrix" values="0 0 0 0 0 0 0 0 0 0 0 0 0 0 0 0 0 0 127 0" result="hardAlpha"/>
<feOffset dx="-2.57262" dy="2.57262"/>
<feComposite in2="hardAlpha" operator="arithmetic" k2="-1" k3="1"/>
<feColorMatrix type="matrix" values="0 0 0 0 1 0 0 0 0 1 0 0 0 0 1 0 0 0 1 0"/>
<feBlend mode="normal" in2="shape" result="effect3_innerShadow_1_2356"/>
</filter>
<linearGradient id="paint0_linear_1_2356" x1="164.453" y1="371.47" x2="169.828" y2="503.08" gradientUnits="userSpaceOnUse">
<stop stop-color="#B4B4B4"/>
<stop offset="1" stop-color="white" stop-opacity="0"/>
</linearGradient>
</defs>
</svg>
