<svg width="117" height="40" viewBox="0 0 117 40" fill="none" xmlns="http://www.w3.org/2000/svg">
<path d="M29.2451 13.9999H15.6972V18.1249H25.3312C24.8495 23.9374 20.153 26.4999 15.7574 26.4999C10.0974 26.4999 5.15999 21.8749 5.15999 15.4374C5.15999 9.12491 9.85658 4.24991 15.7574 4.24991C20.3336 4.24991 22.983 7.24991 22.983 7.24991L25.7527 4.24991C25.7527 4.24991 22.14 0.124909 15.5768 0.124909C7.20722 0.0624095 0.764465 7.37491 0.764465 15.3124C0.764465 23.0624 6.84595 30.6249 15.8176 30.6249C23.7055 30.6249 29.4859 25.0624 29.4859 16.7499C29.4859 14.9999 29.2451 13.9999 29.2451 13.9999Z" fill="#DCDCDC"/>
<path fill-rule="evenodd" clip-rule="evenodd" d="M30.7502 20.6874C30.7502 15.4374 34.7242 10.9374 40.2638 10.9374C44.84 10.9374 49.7774 14.3124 49.8376 20.8124C49.8376 26.5624 45.6227 30.6249 40.3842 30.6249C34.6038 30.6249 30.7502 26.0624 30.7502 20.6874ZM45.6223 20.8122C45.6223 17.1872 43.0332 14.8747 40.3236 14.8747C37.2528 14.8747 34.9045 17.3747 34.9647 20.7497C34.9647 24.2497 37.313 26.7497 40.3236 26.7497C43.0934 26.7497 45.6223 24.4372 45.6223 20.8122Z" fill="#DCDCDC"/>
<path fill-rule="evenodd" clip-rule="evenodd" d="M51.4639 20.6874C51.4639 15.4374 55.438 10.9374 60.9775 10.9374C65.5537 10.9374 70.4911 14.3124 70.5514 20.8124C70.5514 26.5624 66.3365 30.6249 61.098 30.6249C55.3175 30.6249 51.4639 26.0624 51.4639 20.6874ZM66.3361 20.8122C66.3361 17.1872 63.7469 14.8747 61.0374 14.8747C57.9665 14.8747 55.6182 17.3747 55.6784 20.7497C55.6784 24.2497 58.0267 26.7497 61.0374 26.7497C63.8072 26.7497 66.3361 24.4372 66.3361 20.8122Z" fill="#DCDCDC"/>
<path fill-rule="evenodd" clip-rule="evenodd" d="M72.1772 20.8123C72.1772 15.6248 76.1512 10.9998 81.2693 10.9998C83.4972 10.9998 85.1831 11.8748 86.267 13.2498V11.5623H90.241V29.2498C90.241 36.1873 86.3874 39.4998 81.3295 39.4998C76.6931 39.4998 74.104 36.5623 72.8395 33.7498L76.5125 32.1873C77.0544 33.4373 78.4995 35.6873 81.3897 35.6873C84.4004 35.6873 86.3874 33.6248 86.3874 30.2498V28.3123C85.2433 29.6248 83.8584 30.6873 81.1489 30.6873C76.8136 30.6873 72.1772 26.6873 72.1772 20.8123ZM86.6888 20.8747C86.6888 17.1247 84.0997 14.8747 81.6309 14.8747C78.9816 14.8747 76.3924 17.0622 76.3322 20.9372C76.3322 24.4997 78.8611 26.8122 81.5707 26.8122C84.1599 26.8122 86.6888 24.7497 86.6888 20.8747Z" fill="#DCDCDC"/>
<path fill-rule="evenodd" clip-rule="evenodd" d="M99.2121 20.7499C99.2121 14.8749 103.246 10.9374 108.063 10.9374C111.797 10.9374 114.627 13.5624 115.891 16.5624L116.553 18.1874L103.848 23.6874C104.631 25.1874 105.835 26.6874 108.485 26.6874C110.833 26.6874 112.278 25.3749 113.121 23.9999L116.433 26.3124C114.988 28.3124 112.459 30.6249 108.485 30.6249C103.728 30.6249 99.2121 26.9374 99.2121 20.7499ZM111.736 16.8749C111.134 15.6874 109.93 14.7499 108.183 14.7499C105.474 14.7499 102.824 17.6874 103.306 20.5624L111.736 16.8749Z" fill="#DCDCDC"/>
<path d="M93.1913 30.0623H97.346V1.06226H93.1913V30.0623Z" fill="#DCDCDC"/>
</svg>
