<svg width="23" height="22" viewBox="0 0 23 22" fill="none" xmlns="http://www.w3.org/2000/svg">
<path d="M20.4272 0H2.2752C1.28335 0 0.416748 0.71367 0.416748 1.69387V19.8861C0.416748 20.8717 1.28335 21.7499 2.2752 21.7499H20.4218C21.419 21.7499 22.1667 20.8659 22.1667 19.8861V1.69387C22.1725 0.71367 21.419 0 20.4272 0ZM7.15874 18.1296H4.04287V8.44169H7.15874V18.1296ZM5.70858 6.96872H5.68625C4.68906 6.96872 4.04335 6.2264 4.04335 5.29718C4.04335 4.35096 4.70605 3.62612 5.72558 3.62612C6.7451 3.62612 7.36896 4.34562 7.39129 5.29718C7.39081 6.2264 6.7451 6.96872 5.70858 6.96872ZM18.5464 18.1296H15.4305V12.8325C15.4305 11.5634 14.9771 10.6963 13.8498 10.6963C12.9885 10.6963 12.4787 11.2789 12.252 11.8464C12.1671 12.0503 12.1442 12.328 12.1442 12.6116V18.1296H9.02836V8.44169H12.1442V9.7899C12.5977 9.1442 13.306 8.21497 14.9542 8.21497C16.9996 8.21497 18.5469 9.56317 18.5469 12.4698L18.5464 18.1296Z" fill="#808080"/>
</svg>
