<svg width="23" height="22" viewBox="0 0 23 22" fill="none" xmlns="http://www.w3.org/2000/svg">
<path d="M16.4535 1.95045C17.6823 1.95399 18.8598 2.42527 19.7286 3.26139C20.5975 4.09751 21.0873 5.23051 21.091 6.41296V15.337C21.0873 16.5194 20.5975 17.6524 19.7286 18.4886C18.8598 19.3247 17.6823 19.796 16.4535 19.7995H7.17963C5.95083 19.796 4.77341 19.3247 3.90451 18.4886C3.03562 17.6524 2.54585 16.5194 2.54218 15.337V6.41296C2.54585 5.23051 3.03562 4.09751 3.90451 3.26139C4.77341 2.42527 5.95083 1.95399 7.17963 1.95045H16.4535ZM16.4535 0.165741H7.17963C3.60888 0.165741 0.6875 2.97692 0.6875 6.41296V15.337C0.6875 18.773 3.60888 21.5842 7.17963 21.5842H16.4535C20.0243 21.5842 22.9457 18.773 22.9457 15.337V6.41296C22.9457 2.97692 20.0243 0.165741 16.4535 0.165741Z" fill="#808080"/>
<path d="M17.8447 6.41333C17.5696 6.41333 17.3006 6.33482 17.0718 6.18773C16.8431 6.04064 16.6648 5.83157 16.5595 5.58696C16.4542 5.34235 16.4266 5.07319 16.4803 4.81352C16.534 4.55385 16.6665 4.31532 16.861 4.12811C17.0556 3.94089 17.3034 3.8134 17.5733 3.76175C17.8432 3.71009 18.1229 3.7366 18.3771 3.83792C18.6313 3.93924 18.8485 4.11082 19.0014 4.33096C19.1542 4.5511 19.2358 4.80992 19.2358 5.07468C19.2362 5.25058 19.2005 5.42482 19.1307 5.58741C19.061 5.74999 18.9585 5.89771 18.8293 6.02209C18.7 6.14647 18.5465 6.24506 18.3775 6.3122C18.2086 6.37934 18.0275 6.41371 17.8447 6.41333ZM11.8166 7.30545C12.5504 7.30545 13.2676 7.51482 13.8777 7.90709C14.4878 8.29935 14.9633 8.8569 15.2441 9.50921C15.5249 10.1615 15.5983 10.8793 15.4552 11.5718C15.312 12.2643 14.9587 12.9004 14.4399 13.3997C13.921 13.8989 13.26 14.2389 12.5404 14.3767C11.8207 14.5144 11.0748 14.4437 10.3969 14.1735C9.71903 13.9033 9.13963 13.4458 8.73198 12.8587C8.32434 12.2716 8.10676 11.5814 8.10676 10.8754C8.10781 9.92887 8.49901 9.02144 9.19451 8.35217C9.89002 7.6829 10.833 7.30646 11.8166 7.30545ZM11.8166 5.52074C10.7161 5.52074 9.64021 5.83478 8.72512 6.42315C7.81004 7.01153 7.09682 7.8478 6.67565 8.82623C6.25449 9.80466 6.14429 10.8813 6.359 11.92C6.57371 12.9587 7.10368 13.9128 7.88189 14.6616C8.66011 15.4105 9.65161 15.9205 10.731 16.1271C11.8104 16.3337 12.9293 16.2277 13.9461 15.8224C14.9629 15.4171 15.8319 14.7308 16.4434 13.8502C17.0548 12.9697 17.3812 11.9344 17.3812 10.8754C17.3812 9.45522 16.7949 8.09325 15.7513 7.08907C14.7078 6.08488 13.2924 5.52074 11.8166 5.52074Z" fill="#808080"/>
</svg>
