<svg width="159" height="53" viewBox="0 0 159 53" fill="none" xmlns="http://www.w3.org/2000/svg">
<path d="M24.1875 1.73205C26.0439 0.660254 28.3311 0.660254 30.1875 1.73205L47.1372 11.5179C48.9936 12.5897 50.1372 14.5705 50.1372 16.7141V36.2859C50.1372 38.4295 48.9936 40.4103 47.1372 41.4821L30.1875 51.2679C28.3311 52.3397 26.0439 52.3397 24.1875 51.2679L7.23783 41.4821C5.38142 40.4103 4.23783 38.4295 4.23783 36.2859V16.7141C4.23783 14.5705 5.38142 12.5897 7.23783 11.5179L24.1875 1.73205Z" fill="#3285FF"/>
<path d="M26.9951 14L18.6874 22.3077L26.9951 30.6154" fill="#3285FF"/>
<path d="M26.9951 14L18.6874 22.3077L26.9951 30.6154" stroke="white" stroke-width="3.46154" stroke-miterlimit="10" stroke-linecap="square"/>
<path d="M27.6875 22L35.9952 30.3077L27.6875 38.6154" fill="#3285FF"/>
<path d="M27.6875 22L35.9952 30.3077L27.6875 38.6154" stroke="white" stroke-width="3.46154" stroke-miterlimit="10" stroke-linecap="square"/>
<path d="M76.0244 32.0527C76.0244 33.3223 75.7168 34.4258 75.1016 35.3633C74.4863 36.3008 73.5879 37.0234 72.4062 37.5312C71.2344 38.0391 69.8086 38.293 68.1289 38.293C67.3867 38.293 66.6592 38.2441 65.9463 38.1465C65.2432 38.0488 64.5645 37.9072 63.9102 37.7217C63.2656 37.5264 62.6504 37.2871 62.0645 37.0039V32.7852C63.0801 33.2344 64.1348 33.6396 65.2285 34.001C66.3223 34.3623 67.4062 34.543 68.4805 34.543C69.2227 34.543 69.8184 34.4453 70.2676 34.25C70.7266 34.0547 71.0586 33.7861 71.2637 33.4443C71.4688 33.1025 71.5713 32.7119 71.5713 32.2725C71.5713 31.7354 71.3906 31.2764 71.0293 30.8955C70.668 30.5146 70.1699 30.1582 69.5352 29.8262C68.9102 29.4941 68.2021 29.1377 67.4111 28.7568C66.9131 28.5225 66.3711 28.2393 65.7852 27.9072C65.1992 27.5654 64.6426 27.1504 64.1152 26.6621C63.5879 26.1738 63.1533 25.583 62.8115 24.8896C62.4795 24.1865 62.3135 23.3467 62.3135 22.3701C62.3135 21.0908 62.6064 19.9971 63.1924 19.0889C63.7783 18.1807 64.6133 17.4873 65.6973 17.0088C66.791 16.5205 68.0801 16.2764 69.5645 16.2764C70.6777 16.2764 71.7373 16.4082 72.7432 16.6719C73.7588 16.9258 74.8184 17.2969 75.9219 17.7852L74.457 21.3154C73.4707 20.915 72.5869 20.6074 71.8057 20.3926C71.0244 20.168 70.2285 20.0557 69.418 20.0557C68.8516 20.0557 68.3682 20.1484 67.9678 20.334C67.5674 20.5098 67.2646 20.7637 67.0596 21.0957C66.8545 21.418 66.752 21.7939 66.752 22.2236C66.752 22.7314 66.8984 23.1611 67.1914 23.5127C67.4941 23.8545 67.9434 24.1865 68.5391 24.5088C69.1445 24.8311 69.8965 25.207 70.7949 25.6367C71.8887 26.1543 72.8213 26.6963 73.5928 27.2627C74.374 27.8193 74.9746 28.4785 75.3945 29.2402C75.8145 29.9922 76.0244 30.9297 76.0244 32.0527ZM79.9062 38V16.584H84.4473V38H79.9062ZM97.9678 25.9736H106.464V37.0771C105.341 37.4482 104.174 37.7461 102.963 37.9707C101.752 38.1855 100.38 38.293 98.8467 38.293C96.7178 38.293 94.9111 37.873 93.4268 37.0332C91.9424 36.1934 90.8145 34.9531 90.043 33.3125C89.2715 31.6719 88.8857 29.6553 88.8857 27.2627C88.8857 25.0166 89.3154 23.0732 90.1748 21.4326C91.0439 19.792 92.3086 18.5225 93.9688 17.624C95.6387 16.7256 97.6748 16.2764 100.077 16.2764C101.21 16.2764 102.328 16.3984 103.432 16.6426C104.535 16.8867 105.536 17.2041 106.435 17.5947L104.926 21.2275C104.271 20.8955 103.524 20.6172 102.685 20.3926C101.845 20.168 100.966 20.0557 100.048 20.0557C98.7295 20.0557 97.582 20.3584 96.6055 20.9639C95.6387 21.5693 94.8867 22.4189 94.3496 23.5127C93.8223 24.5967 93.5586 25.876 93.5586 27.3506C93.5586 28.7471 93.749 29.9873 94.1299 31.0713C94.5107 32.1455 95.1113 32.9902 95.9316 33.6055C96.752 34.2109 97.8213 34.5137 99.1396 34.5137C99.7842 34.5137 100.326 34.4844 100.766 34.4258C101.215 34.3574 101.635 34.2891 102.025 34.2207V29.7529H97.9678V25.9736ZM120.644 38L115.487 21.1982H115.355C115.375 21.5986 115.404 22.2041 115.443 23.0146C115.492 23.8154 115.536 24.6699 115.575 25.5781C115.614 26.4863 115.634 27.3066 115.634 28.0391V38H111.576V16.584H117.758L122.826 32.9609H122.914L128.29 16.584H134.472V38H130.238V27.8633C130.238 27.1895 130.248 26.4131 130.268 25.5342C130.297 24.6553 130.331 23.8203 130.37 23.0293C130.409 22.2285 130.438 21.6279 130.458 21.2275H130.326L124.804 38H120.644ZM152.987 38L151.435 32.9023H143.627L142.074 38H137.182L144.74 16.4961H150.292L157.88 38H152.987ZM150.351 29.0938L148.798 24.1133C148.7 23.7812 148.568 23.3564 148.402 22.8389C148.246 22.3115 148.085 21.7793 147.919 21.2422C147.763 20.6953 147.636 20.2217 147.538 19.8213C147.44 20.2217 147.304 20.7197 147.128 21.3154C146.962 21.9014 146.801 22.458 146.645 22.9854C146.488 23.5127 146.376 23.8887 146.308 24.1133L144.77 29.0938H150.351Z" fill="#1F1A1A"/>
</svg>
