<svg width="115" height="33" viewBox="0 0 115 33" fill="none" xmlns="http://www.w3.org/2000/svg">
<path fill-rule="evenodd" clip-rule="evenodd" d="M12.6694 31.1871L12.6693 31.1871L12.6692 31.1871C12.0004 31.2579 11.3214 31.3298 10.6261 31.4181L5.04802 14.7545V32.1272C3.30486 32.3045 1.73602 32.5409 0.0509644 32.8363V0.986328H4.69938L11.0329 19.0681V0.986328H15.9718V30.7682C14.8805 30.9531 13.7892 31.0686 12.6694 31.1871ZM25.6173 12.6863C26.5989 12.6863 27.8393 12.6554 29.0502 12.6251H29.0502L29.0503 12.6251L29.0508 12.6251C30.2051 12.5963 31.3325 12.5681 32.1832 12.5681V17.5318C30.0333 17.5318 27.4767 17.5318 25.6173 17.65V25.0363C26.5228 24.98 27.4342 24.9176 28.3496 24.855L28.3498 24.855H28.3498H28.3498H28.3499H28.3499C30.3126 24.7207 32.2938 24.5851 34.275 24.5045V29.2909L20.7364 30.3545V0.986328H34.275V5.94997H25.6173V12.6863ZM47.3484 6.00906H52.4035C52.4035 6.00906 52.4035 0.986328 52.4616 0.986328H37.4124V6.00906H42.4675V28.9363C44.0364 28.8772 45.7214 28.8772 47.3484 28.8772V6.00906ZM59.3647 12.3318H66.0468V17.2954H59.3647V28.5818H54.542V0.986328H68.1967V5.94996H59.3647V12.3318ZM81.2247 24.4466C79.5444 24.3462 77.851 24.2449 76.1577 24.2091V0.986328H71.2769V28.8772C75.751 28.9954 80.1089 29.2318 84.4668 29.5272V24.6227C83.394 24.5763 82.3122 24.5116 81.225 24.4466L81.2247 24.4466ZM88.5925 29.8818C89.1361 29.9227 89.6867 29.9566 90.2419 29.9907C91.2889 30.0551 92.3521 30.1205 93.4153 30.2363V0.986328H88.5925V29.8818ZM108.581 16.1136L114.798 0.986328H109.394L105.966 9.31815L102.77 0.986328H97.5406L103.235 15.9363L96.9596 30.4727C97.6568 30.5672 98.3541 30.6429 99.0514 30.7185C100.097 30.832 101.143 30.9454 102.189 31.1227L105.792 22.6727L109.278 31.8909C109.929 31.9943 110.573 32.1051 111.215 32.2154C112.406 32.4202 113.59 32.6237 114.798 32.7772L108.581 16.1136Z" fill="#DCDCDC"/>
</svg>
