<svg width="217" height="185" viewBox="0 0 217 185" fill="none" xmlns="http://www.w3.org/2000/svg">
<g clip-path="url(#clip0_1_476)">
<g opacity="0.35">
<path fill-rule="evenodd" clip-rule="evenodd" d="M247.242 53.1447C237.908 43.5854 222.75 43.6715 213.52 53.3365L208.861 58.2141C197.469 70.143 178.673 69.9778 167.482 57.8514L163.899 53.9682C163.899 53.9681 163.899 53.9682 163.899 53.9682C154.722 44.0242 139.342 43.8018 129.895 53.4765L125.461 58.0167C113.766 69.9942 94.6281 69.3943 83.6694 56.7078C74.1913 45.7357 57.4592 45.7889 48.0477 56.8212C47.1438 57.8807 45.5704 57.9909 44.5335 57.0673C43.4966 56.1436 43.3888 54.536 44.2927 53.4764C55.6813 40.1265 75.9347 40.062 87.4041 53.3394C96.4605 63.8237 112.271 64.3185 121.935 54.4213L126.369 49.8811C137.801 38.1731 156.418 38.4427 167.523 50.4759L171.107 54.3591C171.107 54.3591 171.107 54.3592 171.107 54.3591C180.355 64.38 195.882 64.5163 205.296 54.659L209.954 49.7814C221.124 38.0856 239.472 37.9811 250.768 49.5494C251.74 50.5444 251.738 52.1559 250.764 53.1487C249.791 54.1415 248.214 54.1397 247.242 53.1447Z" fill="url(#paint0_linear_1_476)"/>
<path fill-rule="evenodd" clip-rule="evenodd" d="M247.242 97.4767C237.908 87.9174 222.75 88.0035 213.52 97.6686L208.861 102.546C197.469 114.475 178.673 114.31 167.482 102.183L163.899 98.3002C163.899 98.3002 163.899 98.3002 163.899 98.3002C154.722 88.3562 139.342 88.1338 129.895 97.8085L125.461 102.349C113.766 114.326 94.6281 113.726 83.6694 101.04C74.1913 90.0677 57.4592 90.1209 48.0477 101.153C47.1438 102.213 45.5704 102.323 44.5335 101.399C43.4966 100.476 43.3888 98.868 44.2927 97.8084C55.6813 84.4586 75.9347 84.3941 87.4041 97.6714C96.4605 108.156 112.271 108.651 121.935 98.7533L126.369 94.2132C137.801 82.5052 156.418 82.7748 167.523 94.808L171.107 98.6912C171.107 98.6911 171.107 98.6912 171.107 98.6912C180.355 108.712 195.882 108.848 205.296 98.991L209.954 94.1135C221.124 82.4176 239.472 82.3132 250.768 93.8814C251.74 94.8764 251.738 96.4879 250.764 97.4807C249.791 98.4735 248.214 98.4717 247.242 97.4767Z" fill="url(#paint1_linear_1_476)"/>
<path fill-rule="evenodd" clip-rule="evenodd" d="M247.242 142.266C237.908 132.706 222.75 132.793 213.52 142.458L208.861 147.335C197.469 159.264 178.673 159.099 167.482 146.972L163.899 143.089C163.899 143.089 163.899 143.089 163.899 143.089C154.722 133.145 139.342 132.923 129.895 142.598L125.461 147.138C113.766 159.115 94.6281 158.515 83.6694 145.829C74.1913 134.857 57.4592 134.91 48.0477 145.942C47.1438 147.002 45.5704 147.112 44.5335 146.188C43.4966 145.265 43.3888 143.657 44.2927 142.597C55.6813 129.248 75.9347 129.183 87.4041 142.46C96.4605 152.945 112.271 153.44 121.935 143.542L126.369 139.002C137.801 127.294 156.418 127.564 167.523 139.597L171.107 143.48C171.107 143.48 171.107 143.48 171.107 143.48C180.355 153.501 195.882 153.637 205.296 143.78L209.954 138.903C221.124 127.207 239.472 127.102 250.768 138.67C251.74 139.665 251.738 141.277 250.764 142.27C249.791 143.263 248.214 143.261 247.242 142.266Z" fill="url(#paint2_linear_1_476)"/>
</g>
<path fill-rule="evenodd" clip-rule="evenodd" d="M143.046 21.7698H45.0929V12.9743C45.0929 11.0663 46.6366 9.51941 48.5405 9.51941H139.599C141.503 9.51941 143.046 11.0663 143.046 12.9743V21.7698Z" fill="#3285FF"/>
<path fill-rule="evenodd" clip-rule="evenodd" d="M139.599 106.457H48.5405C46.6366 106.457 45.0929 104.91 45.0929 103.002V20.7396H143.046V103.002C143.046 104.91 141.503 106.457 139.599 106.457Z" fill="#DCDCDC"/>
<path fill-rule="evenodd" clip-rule="evenodd" d="M53.0533 15.2205C53.0533 16.4179 52.0845 17.3887 50.8895 17.3887C49.6946 17.3887 48.726 16.4179 48.726 15.2205C48.726 14.0231 49.6946 13.0522 50.8895 13.0522C52.0845 13.0522 53.0533 14.0231 53.0533 15.2205Z" fill="white"/>
<path fill-rule="evenodd" clip-rule="evenodd" d="M61.1334 15.2205C61.1334 16.4179 60.1648 17.3887 58.9698 17.3887C57.7749 17.3887 56.8063 16.4179 56.8063 15.2205C56.8063 14.0231 57.7749 13.0522 58.9698 13.0522C60.1648 13.0522 61.1334 14.0231 61.1334 15.2205Z" fill="white"/>
<path fill-rule="evenodd" clip-rule="evenodd" d="M69.2137 15.2205C69.2137 16.4179 68.2451 17.3887 67.0501 17.3887C65.8552 17.3887 64.8866 16.4179 64.8866 15.2205C64.8866 14.0231 65.8552 13.0522 67.0501 13.0522C68.2451 13.0522 69.2137 14.0231 69.2137 15.2205Z" fill="white"/>
<path fill-rule="evenodd" clip-rule="evenodd" d="M55.6799 94.7977C55.0857 94.7977 54.6042 94.3154 54.6042 93.7205V31.2728C54.6042 30.6779 55.0857 30.1956 55.6799 30.1956H133.529C134.124 30.1956 134.605 30.6779 134.605 31.2728V93.7205C134.605 94.3154 134.124 94.7977 133.529 94.7977H55.6799Z" fill="white"/>
<path d="M81.6414 57.4153C82.0891 57.032 82.7672 57.1179 83.1064 57.5945L83.1239 57.62L98.7897 81.1014L110.907 72.5867C111.051 72.4858 111.218 72.4246 111.393 72.4089L111.43 72.4063L127.442 71.5707C127.993 71.542 128.464 71.9658 128.493 72.5175C128.521 73.0594 128.112 73.5231 127.575 73.5665L127.546 73.5684L111.822 74.3888L99.1015 83.3273C98.6501 83.6445 98.0293 83.5356 97.7117 83.0892L97.6944 83.064L82.0857 59.6682L63.8433 75.2865C63.4315 75.6391 62.8156 75.5985 62.4533 75.2001L62.433 75.1772C62.0804 74.7654 62.121 74.1495 62.5194 73.7872L62.5423 73.7669L81.6414 57.4153Z" fill="#3285FF"/>
<path d="M125.07 43.244C125.378 42.7852 125.999 42.6627 126.458 42.9704C126.909 43.2725 127.035 43.8769 126.748 44.333L126.732 44.3582L112.487 65.5991C112.13 66.1318 111.373 66.1935 110.934 65.7336L110.912 65.7106L94.6306 47.5951L83.3445 55.2101C83.1852 55.3176 82.9986 55.3767 82.8071 55.3809L82.7687 55.381L63.1765 55.0608C62.6241 55.0518 62.1837 54.5967 62.1926 54.0444C62.2016 53.5017 62.641 53.0671 63.1802 53.0606L63.2092 53.0606L82.4866 53.3756L94.2334 45.45C94.6384 45.1768 95.18 45.2367 95.5156 45.5878L95.5367 45.6106L111.541 63.4177L125.07 43.244Z" fill="#3285FF"/>
<path d="M100.393 56.8472C100.643 56.6289 100.983 56.549 101.303 56.632L101.336 56.6412L111.766 59.7351L127.14 57.2856C127.675 57.2002 128.18 57.5575 128.28 58.0874L128.285 58.1159C128.37 58.6519 128.013 59.1562 127.483 59.2561L127.454 59.2611L111.857 61.7463C111.723 61.7676 111.586 61.7614 111.455 61.7282L111.415 61.7174L101.295 58.7156L83.7103 74.0954C83.3864 74.3787 82.9187 74.4223 82.5489 74.207L82.5213 74.1904L61.5131 61.0456C61.0448 60.7526 60.9027 60.1355 61.1957 59.6672C61.4834 59.2074 62.0835 59.0621 62.5485 59.3343L62.5741 59.3498L82.9526 72.1005L100.393 56.8472Z" fill="#1F1A1A"/>
<path fill-rule="evenodd" clip-rule="evenodd" d="M82.3555 38.3708H62.6486C61.8417 38.3708 61.1818 37.7094 61.1818 36.9009C61.1818 36.0923 61.8417 35.431 62.6486 35.431H82.3555C83.1623 35.431 83.8223 36.0923 83.8223 36.9009C83.8223 37.7094 83.1623 38.3708 82.3555 38.3708Z" fill="#DCDCDC"/>
<path fill-rule="evenodd" clip-rule="evenodd" d="M70.9615 45.3035H63.6272C62.8172 45.3035 62.1603 44.6453 62.1603 43.8336C62.1603 43.0217 62.8172 42.3636 63.6272 42.3636H70.9615C71.7717 42.3636 72.4283 43.0217 72.4283 43.8336C72.4283 44.6453 71.7717 45.3035 70.9615 45.3035Z" fill="#DCDCDC"/>
<path d="M124.1 77.2891C120.665 77.2891 117.888 80.1113 117.888 83.5833C117.888 87.0553 120.665 89.8774 124.1 89.8774C127.535 89.8774 130.312 87.0553 130.312 83.5833C130.312 80.1113 127.535 77.2891 124.1 77.2891ZM124.1 79.6568C126.219 79.6568 127.944 81.4104 127.944 83.5833C127.944 85.7562 126.219 87.5097 124.1 87.5097C121.981 87.5097 120.256 85.7562 120.256 83.5833C120.256 81.4104 121.981 79.6568 124.1 79.6568Z" fill="#DCDCDC"/>
<path d="M128.231 80.2636C128.832 80.0064 129.528 80.2852 129.785 80.8863C130.131 81.6939 130.312 82.573 130.312 83.4767C130.312 84.2162 130.19 84.94 129.956 85.6229C129.744 86.2414 129.071 86.5707 128.452 86.3585C127.844 86.1497 127.515 85.4946 127.707 84.8845L127.717 84.8545C127.866 84.4184 127.944 83.9542 127.944 83.4767C127.944 82.9181 127.838 82.3784 127.635 81.8822L127.608 81.8177C127.351 81.2166 127.63 80.5208 128.231 80.2636Z" fill="#597EF7"/>
<path fill-rule="evenodd" clip-rule="evenodd" d="M175.742 43.1918C175.742 43.1918 156.347 45.7205 155.91 56.2685C155.685 61.6934 161.058 67.7375 158.323 69.3215C147.635 75.5143 158.983 78.4874 152.173 83.5099C142.046 90.9814 147.718 104.357 158.215 103.767C169.089 103.156 163.476 117.697 182.279 114.008C192.876 111.929 196.01 109.798 203.587 106.447C211.163 103.097 216.3 84.5999 207.376 75.1992C201.832 69.2523 196.352 69.6722 193.461 59.9473C190.569 50.2231 187.686 44.2336 182.658 44.8897C180.908 42.3491 175.742 43.1918 175.742 43.1918Z" fill="black"/>
<path fill-rule="evenodd" clip-rule="evenodd" d="M163.785 65.7378C163.739 65.5337 163.442 65.5135 163.365 65.7098C162.691 67.4448 161.058 72.1339 162.996 72.4155C165.183 72.7335 164.209 67.6062 163.785 65.7378Z" fill="white"/>
<path fill-rule="evenodd" clip-rule="evenodd" d="M181.201 80.5967C179.351 72.337 179.1 69.0446 179.1 69.0446L168.512 73.2817L169.129 82.21C169.356 85.4969 172.39 87.9515 175.826 87.6294C179.46 87.2884 181.964 84.003 181.201 80.5967Z" fill="#FEBFAE"/>
<path fill-rule="evenodd" clip-rule="evenodd" d="M176.028 54.3854C176.028 54.3854 174.92 51.0434 172.475 52.5065C170.728 53.5525 171.23 52.6442 170.902 51.7414C169.685 48.3896 168.553 56.04 163.005 57.4431C162.675 61.5481 161.818 76.4045 171.152 76.0768C174.167 75.9713 179.262 74.5606 181.413 69.6513C182.713 66.6852 181.943 63.5332 180.708 62.854C176.641 60.616 176.839 58.5394 176.028 54.3854Z" fill="#FEBFAE"/>
<path d="M168.129 57.6323C167.993 57.6628 167.903 57.7827 167.913 57.9114L167.92 57.9545L168.438 60.0539L168.4 60.4262L168.364 60.7336C168.332 61.0016 168.292 61.2988 168.246 61.624C168.058 62.9263 167.791 64.4052 167.43 66.0323C167.402 66.1566 167.47 66.2823 167.592 66.3333C168.226 66.5984 168.874 66.7672 169.505 66.8591C169.858 66.9105 170.149 66.9308 170.357 66.933L170.441 66.9329C170.596 66.9295 170.718 66.8068 170.715 66.6589C170.712 66.5257 170.607 66.4175 170.473 66.3996L170.428 66.3971H170.36L170.209 66.3923C170.043 66.384 169.833 66.3648 169.59 66.3293C169.151 66.2654 168.703 66.1613 168.259 66.0099L168.027 65.9256L168.062 65.7676C168.358 64.3992 168.587 63.1388 168.757 62.0033L168.802 61.6967C168.859 61.3018 168.905 60.9471 168.941 60.6349L168.983 60.2494L169.001 60.0539L168.994 59.972L168.466 57.8318C168.434 57.7021 168.309 57.6168 168.174 57.6258L168.129 57.6323Z" fill="#DD936F"/>
<path d="M174.094 66.9302C174.02 66.7432 173.801 66.6489 173.605 66.7195L173.352 66.8049C173.306 66.8199 173.255 66.8362 173.2 66.8537C172.875 66.9559 172.516 67.0583 172.135 67.1538C171.337 67.354 170.553 67.4967 169.823 67.5568C169.238 67.605 168.708 67.5978 168.249 67.5292C168.042 67.4983 167.848 67.6333 167.815 67.8308C167.783 68.0282 167.925 68.2134 168.132 68.2443C168.657 68.3229 169.246 68.3309 169.889 68.278C170.666 68.2139 171.492 68.0638 172.328 67.8539C172.725 67.7544 173.098 67.6478 173.437 67.5411L173.732 67.4457C173.79 67.4259 173.838 67.4094 173.873 67.3967C174.069 67.3261 174.168 67.1173 174.094 66.9302Z" fill="#3285FF"/>
<path d="M168.328 57.2178C166.234 56.488 164.64 56.335 163.535 56.5186C163.378 56.5447 163.268 56.5724 163.204 56.5939C163.013 56.6581 162.913 56.8576 162.98 57.0396C163.042 57.2064 163.223 57.3005 163.399 57.2656L163.488 57.2414C163.526 57.2321 163.583 57.2199 163.661 57.2069C164.636 57.0449 166.101 57.1854 168.077 57.8741C168.267 57.9403 168.477 57.8471 168.547 57.6658C168.616 57.4846 168.518 57.284 168.328 57.2178Z" fill="#253368"/>
<path d="M176.387 56.6187C175.265 56.5193 174.059 56.5306 172.917 56.7297C172.343 56.83 171.811 56.9754 171.33 57.1714C171.144 57.2472 171.058 57.4525 171.138 57.63C171.217 57.8074 171.432 57.8897 171.618 57.8139C172.045 57.6397 172.525 57.5085 173.049 57.4171C174.115 57.2312 175.258 57.2205 176.319 57.3145L176.557 57.3376C176.673 57.35 176.76 57.3613 176.816 57.3697C177.016 57.3995 177.203 57.2691 177.235 57.0785C177.266 56.8879 177.129 56.7092 176.93 56.6793L176.782 56.6598L176.596 56.6389C176.53 56.632 176.46 56.6253 176.387 56.6187Z" fill="#253368"/>
<path d="M170.419 69.6629C170.263 69.6593 170.135 69.7763 170.131 69.9242C170.127 70.0574 170.226 70.1702 170.359 70.1941L170.405 70.1987L171.419 70.2224C171.574 70.2261 171.703 70.1091 171.707 69.9611C171.71 69.828 171.611 69.7151 171.478 69.6913L171.433 69.6867L170.419 69.6629Z" fill="#DD936F"/>
<path fill-rule="evenodd" clip-rule="evenodd" d="M187.021 65.1767C187.935 61.7313 184.429 61.8159 184.429 61.8159C184.429 61.8159 184.222 65.2753 183.148 68.3357C186.658 68.3616 187.021 65.1767 187.021 65.1767Z" fill="#FEBFAE"/>
<path fill-rule="evenodd" clip-rule="evenodd" d="M184.949 67.5401C184.903 67.3354 184.606 67.3159 184.529 67.5122C183.855 69.2471 182.222 73.9356 184.16 74.2179C186.346 74.5358 185.373 69.4086 184.949 67.5401Z" fill="white"/>
<path d="M167.027 61.2248C166.825 61.2292 166.665 61.3892 166.669 61.5821C166.685 62.2342 166.321 62.7355 165.924 62.7439C165.526 62.7527 165.139 62.2679 165.123 61.6157C165.118 61.4228 164.951 61.27 164.748 61.2744C164.546 61.2788 164.386 61.4388 164.391 61.6317C164.415 62.6305 165.079 63.4615 165.94 63.4424C166.802 63.4242 167.425 62.5649 167.401 61.5661C167.397 61.3732 167.229 61.2204 167.027 61.2248Z" fill="#253368"/>
<path d="M175.293 61.3165C175.091 61.3209 174.93 61.4809 174.935 61.6738C174.951 62.3257 174.587 62.8267 174.19 62.8356C173.792 62.8444 173.404 62.3596 173.389 61.7074C173.384 61.5145 173.216 61.3617 173.014 61.3661C172.812 61.3705 172.652 61.5305 172.657 61.7234C172.68 62.7222 173.345 63.5532 174.207 63.5341C175.068 63.515 175.691 62.6562 175.667 61.6578C175.663 61.4649 175.495 61.3121 175.293 61.3165Z" fill="#253368"/>
<path fill-rule="evenodd" clip-rule="evenodd" d="M130.526 120.467C130.526 120.467 144.745 98.3573 147.944 94.5255C155.673 85.2701 163.45 87.5829 165.065 94.1552C167.012 102.079 140.216 128.333 140.216 128.333C140.216 128.333 136.922 132.117 132.001 129.324C126.184 126.024 130.526 120.467 130.526 120.467Z" fill="#FEBFAE"/>
<path fill-rule="evenodd" clip-rule="evenodd" d="M113.195 87.4795C121.487 110.735 122.814 116.78 126.829 123.933C133.495 135.811 143.409 129.794 140.809 122.724C139.177 118.287 133.843 110.38 129.978 103.132C124.529 92.9149 120.22 85.6118 120.22 85.6118L113.195 87.4795Z" fill="#FEBFAE"/>
<path d="M135.32 112.822C135.242 112.694 135.07 112.65 134.936 112.724C134.815 112.791 134.766 112.93 134.813 113.051L134.833 113.09L139.134 120.192C139.211 120.32 139.383 120.364 139.518 120.29C139.638 120.223 139.688 120.084 139.64 119.963L139.62 119.924L135.32 112.822Z" fill="#DD936F"/>
<path fill-rule="evenodd" clip-rule="evenodd" d="M120.363 85.9098L115.458 72.657C115.458 72.657 108.17 62.1055 105.848 62.9223C103.71 63.9746 108.889 66.8065 110.082 69.8404C107.98 69.825 109.129 72.7374 109.129 72.7374C109.129 72.7374 107.458 72.7807 108.068 75.1738C106.58 76.1416 108.005 78.8436 108.005 78.8436C108.005 78.8436 111.603 85.9706 115.373 90.6409C115.373 90.6409 121.368 94.5028 120.363 85.9098Z" fill="#FEBFAE"/>
<path fill-rule="evenodd" clip-rule="evenodd" d="M119.168 81.4039C119.168 81.4039 118.262 76.8118 117.658 74.4809C117.053 72.1499 117.813 67.8283 116.086 69.0664C114.925 69.8986 115.305 72.4189 115.473 74.2845C115.642 76.1494 112.775 80.7694 115.336 83.6915C117.067 85.6654 119.596 85.7849 119.168 81.4039Z" fill="#FEBFAE"/>
<path d="M110.273 69.6441C110.159 69.5435 109.982 69.5501 109.876 69.6587C109.771 69.7673 109.778 69.9368 109.892 70.0374L110.02 70.1535C110.123 70.2486 110.238 70.3574 110.363 70.4779C110.718 70.8221 111.074 71.1906 111.405 71.5677C111.743 71.9522 112.036 72.3241 112.271 72.6743C112.999 73.7579 113.08 74.4578 112.458 74.7508C112.319 74.8163 112.262 74.977 112.331 75.1097C112.4 75.2424 112.568 75.2969 112.707 75.2313C113.75 74.7399 113.63 73.7036 112.744 72.3852C112.495 72.0139 112.188 71.6243 111.836 71.2235C111.494 70.8344 111.129 70.4556 110.763 70.1017L110.578 69.9251L110.314 69.6802C110.297 69.6651 110.283 69.653 110.273 69.6441Z" fill="#DD936F"/>
<path d="M109.1 72.6661C109.013 72.789 109.048 72.9555 109.177 73.0378L109.308 73.1242C109.414 73.1951 109.533 73.2764 109.66 73.3666C110.025 73.6244 110.39 73.9017 110.73 74.1873C111.125 74.5196 111.459 74.8409 111.712 75.1409C112.274 75.8064 112.362 76.246 111.985 76.4993C111.784 76.6346 111.54 76.6579 111.243 76.577C110.925 76.4905 110.569 76.2898 110.204 76.009C110.021 75.8683 109.848 75.717 109.691 75.5656L109.52 75.3946C109.511 75.3845 109.502 75.3757 109.495 75.3682C109.394 75.2564 109.216 75.2444 109.099 75.3414C108.982 75.4384 108.97 75.6076 109.071 75.7194L109.137 75.7896C109.178 75.8316 109.23 75.8835 109.292 75.9431C109.463 76.1076 109.651 76.2721 109.852 76.4262C110.27 76.7481 110.686 76.9827 111.089 77.0924C111.538 77.2146 111.956 77.1747 112.309 76.9373C113.041 76.4452 112.888 75.6788 112.15 74.8048C111.874 74.4781 111.519 74.1361 111.101 73.7852C110.749 73.4887 110.372 73.2022 109.995 72.9359L109.804 72.8032L109.489 72.5926C109.361 72.5102 109.186 72.5431 109.1 72.6661Z" fill="#DD936F"/>
<path d="M108.664 75.0495C108.509 75.0358 108.373 75.1442 108.358 75.2915C108.344 75.4389 108.457 75.5695 108.612 75.5831C108.943 75.6124 109.384 75.8716 109.931 76.4122C111.078 77.5444 111.347 78.2911 111.061 78.4748C110.757 78.6699 109.963 78.3814 109.42 77.7323C109.202 77.4722 108.781 77.7489 108.958 78.0356C109.576 79.0353 110.266 79.7655 111.068 80.3234L111.28 80.4677C111.686 80.7367 112.012 80.902 112.738 81.2183L113.287 81.4544C114.986 82.1798 115.648 82.7789 116.11 84.4266C116.151 84.5695 116.305 84.6543 116.454 84.616C116.604 84.5777 116.693 84.4308 116.653 84.2878C116.154 82.5112 115.398 81.7908 113.667 81.0305L112.872 80.6871C112.139 80.3652 111.859 80.2111 111.399 79.8905C111.054 79.6504 110.731 79.3753 110.426 79.0548L110.378 79.0026L110.441 79.0194C110.765 79.0968 111.071 79.0819 111.311 78.9563L111.375 78.9193C112.085 78.4627 111.697 77.3844 110.336 76.0399C109.703 75.4157 109.154 75.0929 108.664 75.0495Z" fill="#DD936F"/>
<path d="M115.268 71.6846C115.129 71.6821 115.011 71.7771 114.987 71.904L114.982 71.9474L114.912 75.4614L114.84 75.6014L114.786 75.7142C114.67 75.957 114.555 76.2278 114.447 76.52C114.12 77.4076 113.931 78.3001 113.954 79.1417C113.974 79.9017 114.168 80.5823 114.565 81.1575C114.65 81.2811 114.824 81.3154 114.954 81.234C115.083 81.1526 115.119 80.9864 115.034 80.8628C114.699 80.3779 114.533 79.7941 114.515 79.1281C114.495 78.3607 114.671 77.529 114.977 76.6977C115.079 76.4211 115.188 76.1649 115.297 75.9357L115.382 75.7623C115.406 75.7152 115.425 75.6789 115.439 75.6544C115.453 75.6296 115.462 75.603 115.468 75.5755L115.472 75.5338L115.544 71.9577C115.547 71.8097 115.423 71.6875 115.268 71.6846Z" fill="#DD936F"/>
<path fill-rule="evenodd" clip-rule="evenodd" d="M146.778 216.024C148.083 186.844 151.572 155.665 154.47 149.332C154.47 149.332 157.956 145.536 168.102 151.814C179.933 159.135 177.619 168.38 177.619 168.38L175.76 217.557C175.447 221.413 174.006 233.377 158.488 231.595C143.215 229.84 146.749 216.659 146.778 216.024Z" fill="#E4EBF7"/>
<path d="M154.873 94.4259C154.688 94.4198 154.53 94.5461 154.5 94.7158L154.495 94.763L154.347 98.8643L154.269 99.0395C154.185 99.2297 154.091 99.4473 153.991 99.6892C153.704 100.38 153.417 101.127 153.149 101.904C152.786 102.956 152.487 103.98 152.273 104.947C152.002 106.176 151.877 107.269 151.928 108.197C152.008 109.666 152.436 111.524 153.149 113.687C153.498 114.748 153.909 115.863 154.37 117.012C154.904 118.345 155.477 119.655 156.049 120.888L156.338 121.505L156.703 122.261C156.752 122.361 156.789 122.436 156.813 122.484C156.901 122.658 157.12 122.731 157.302 122.647C157.485 122.564 157.561 122.355 157.474 122.181L157.267 121.761L157.005 121.216C156.914 121.023 156.818 120.819 156.719 120.606C156.151 119.383 155.583 118.083 155.054 116.762C154.598 115.625 154.192 114.524 153.847 113.478C153.152 111.366 152.735 109.56 152.659 108.161C152.612 107.302 152.73 106.266 152.99 105.092C153.198 104.152 153.49 103.151 153.845 102.122C154.064 101.486 154.296 100.871 154.531 100.29L154.672 99.9468C154.75 99.757 154.825 99.5827 154.893 99.4255L155.045 99.0842C155.058 99.057 155.067 99.0284 155.072 98.9992L155.076 98.955L155.227 94.787C155.234 94.5942 155.075 94.4325 154.873 94.4259Z" fill="#3285FF"/>
<path fill-rule="evenodd" clip-rule="evenodd" d="M166.2 170.399L152.563 158.025C152.563 158.025 154.172 143.827 160.665 137.224L185.481 134.604C185.481 134.604 195.748 139.385 200.548 157.363L178.62 169.606L166.2 170.399Z" fill="#E4EBF7"/>
<path fill-rule="evenodd" clip-rule="evenodd" d="M186.083 134.84L160.665 137.224L161.004 133.462L184.937 131.047L186.083 134.84Z" fill="#E4EBF7"/>
<path d="M169.538 136.604C169.386 136.599 169.259 136.711 169.252 136.856C169.155 139.171 169.138 141.673 169.194 144.334C169.299 149.261 169.647 154.531 170.161 159.854L170.263 160.886C170.434 162.589 170.613 164.202 170.793 165.697L170.937 166.864L171.16 168.559C171.18 168.702 171.318 168.803 171.469 168.783C171.619 168.764 171.724 168.632 171.704 168.489L171.566 167.457C171.512 167.042 171.454 166.582 171.393 166.081L171.285 165.186C171.088 163.519 170.892 161.714 170.708 159.806C170.195 154.495 169.848 149.236 169.744 144.323C169.688 141.673 169.704 139.181 169.801 136.877C169.807 136.732 169.689 136.61 169.538 136.604Z" fill="#A3B5D6"/>
<path d="M186.005 134.776L161.084 136.986C160.933 137 160.822 137.127 160.836 137.271C160.849 137.401 160.958 137.5 161.09 137.508L161.135 137.508L186.056 135.298C186.207 135.284 186.318 135.157 186.304 135.013C186.291 134.883 186.182 134.784 186.05 134.776L186.005 134.776Z" fill="#A3B5D6"/>
<path fill-rule="evenodd" clip-rule="evenodd" d="M176.402 209.477C173.027 180.449 171.435 148.405 173.287 141.725C173.287 141.725 176.125 137.466 187.156 142.195C200.019 147.71 200.426 158.153 200.426 158.153L206.029 206.612C206.336 210.469 207.567 221.681 192.084 223.706C176.843 225.7 176.475 210.11 176.402 209.477Z" fill="#E4EBF7"/>
<path fill-rule="evenodd" clip-rule="evenodd" d="M195.864 126.931C195.864 126.931 185.931 106.56 184.385 101.485C180.655 89.229 186.437 86.8366 193.078 89.642C201.084 93.0239 210.787 126.316 210.787 126.316C210.787 126.316 211.646 130.538 206.444 132.862C200.296 135.609 195.864 126.931 195.864 126.931Z" fill="#FEBFAE"/>
<path fill-rule="evenodd" clip-rule="evenodd" d="M139.797 105.317C141.295 103.325 151.91 83.9138 160.236 88.9629C167.289 93.2405 165.637 100.091 153.883 113.713L139.797 105.317Z" fill="#3285FF"/>
<path fill-rule="evenodd" clip-rule="evenodd" d="M183.978 132.055C178.129 133.869 163.058 134.014 161.231 133.417C159.404 132.821 160.779 129.498 160.779 129.498C152.717 112.275 152.831 112.534 152.288 108.909C151.75 105.309 154.643 98.8007 154.643 98.8007C154.643 98.8007 152.08 91.956 152.871 89.9338C153.94 87.1997 164.43 87.6203 166.314 86.5149C168.198 85.4089 167.969 81.8432 167.969 81.8432L182.317 80.4653C182.317 80.4653 182.742 84.497 183.62 85.6828C185.328 87.9858 190.634 85.1755 194.855 89.778C202.398 98.0042 189.208 115.562 184.918 126.832C184.918 126.832 186.934 129.352 183.978 132.055Z" fill="#3285FF"/>
<path d="M179.088 86.1846L167.032 87.7484C166.831 87.7744 166.691 87.9504 166.718 88.1416C166.743 88.3169 166.9 88.444 167.081 88.444L167.13 88.4407L179.187 86.877C179.387 86.851 179.528 86.6749 179.5 86.4837C179.475 86.3085 179.318 86.1813 179.138 86.1814L179.088 86.1846Z" fill="#3285FF"/>
<path d="M176.19 88.2369L167.82 89.9432C167.622 89.9835 167.496 90.1692 167.539 90.3579C167.577 90.5308 167.744 90.6463 167.924 90.6333L167.973 90.6265L176.343 88.9202C176.54 88.8799 176.667 88.6942 176.624 88.5055C176.586 88.3326 176.419 88.2171 176.239 88.2301L176.19 88.2369Z" fill="#3285FF"/>
<path d="M182.977 106.376C182.829 106.245 182.598 106.252 182.46 106.394L182.402 106.45C182.32 106.527 182.19 106.638 182.013 106.775C181.627 107.073 181.164 107.372 180.625 107.652C178.492 108.758 175.861 109.241 172.731 108.749L172.461 108.704C171.318 108.506 168.625 108.534 164.806 108.73L163.742 108.787C163.202 108.817 162.649 108.851 162.087 108.886L161.522 108.922C160.504 108.988 159.504 109.058 158.554 109.129L156.68 109.274C156.478 109.291 156.329 109.46 156.347 109.652C156.364 109.845 156.542 109.987 156.743 109.97L157.918 109.878L159.089 109.79C159.892 109.732 160.725 109.674 161.571 109.619L162.692 109.549C163.246 109.515 163.789 109.484 164.319 109.455L165.58 109.391C168.863 109.237 171.224 109.22 172.257 109.38L172.33 109.392C175.75 109.985 178.639 109.477 180.974 108.266C181.555 107.965 182.055 107.642 182.474 107.318L182.632 107.193C182.803 107.054 182.924 106.943 182.996 106.87C183.134 106.729 183.125 106.508 182.977 106.376Z" fill="#3285FF"/>
<path fill-rule="evenodd" clip-rule="evenodd" d="M189.884 114.537C189.033 112.223 175.611 92.6115 187.311 87.6317C194.944 84.3826 199.06 91.0729 205.743 108.232L189.884 114.537Z" fill="#3285FF"/>
<path fill-rule="evenodd" clip-rule="evenodd" d="M158.793 129.1C159.014 131.23 160.868 132.868 163.111 132.914L202.545 133.726C207.074 133.819 210.698 130.164 210.35 125.856C210.01 121.645 206.011 118.584 201.628 119.181L162.58 124.495C160.229 124.815 158.56 126.845 158.793 129.1Z" fill="#FEBFAE"/>
<path fill-rule="evenodd" clip-rule="evenodd" d="M162.021 138.774L153.351 112.901C153.208 112.474 152.795 112.183 152.326 112.176L128.014 111.863C127.26 111.853 126.722 112.56 126.967 113.241L136.018 138.428C136.163 138.833 136.554 139.112 137.002 139.131L160.933 140.132C161.692 140.163 162.252 139.465 162.021 138.774Z" fill="#253368"/>
<path fill-rule="evenodd" clip-rule="evenodd" d="M160.739 138.459L152.221 113.036C152.047 112.52 151.548 112.167 150.979 112.159L126.367 111.841C125.839 111.834 125.463 112.329 125.634 112.805L134.811 138.341C134.972 138.789 135.404 139.098 135.901 139.118L159.423 140.103C160.342 140.141 161.019 139.294 160.739 138.459Z" fill="#253368"/>
<path fill-rule="evenodd" clip-rule="evenodd" d="M148.888 114.609C148.613 114.901 148.712 115.414 149.109 115.755C149.507 116.096 150.052 116.136 150.327 115.844C150.602 115.552 150.504 115.039 150.106 114.697C149.709 114.357 149.163 114.317 148.888 114.609Z" fill="#ADC6FF"/>
<path fill-rule="evenodd" clip-rule="evenodd" d="M149.215 114.914C149.072 115.066 149.123 115.332 149.33 115.51C149.535 115.686 149.819 115.707 149.962 115.555C150.105 115.404 150.053 115.137 149.847 114.961C149.641 114.784 149.357 114.763 149.215 114.914Z" fill="#E4EBF7"/>
<path fill-rule="evenodd" clip-rule="evenodd" d="M151.199 133.909C149.802 133.78 149.067 133.223 149.199 132.113C147.519 131.608 147.707 130.251 147.707 130.251C147.707 130.251 144.473 130.203 143.929 128.885C143.718 128.373 144.128 127.825 144.703 127.788C151.632 127.34 156.572 123.838 156.572 123.838C156.572 123.838 153.849 120.021 154.137 118.26C154.221 117.739 154.936 117.572 155.269 117.991C158.125 121.588 163.854 124.408 163.854 124.408C163.854 124.408 170.73 130.553 163.271 133.34C163.271 133.34 157.586 135.502 153.626 135.228C151.752 135.098 151.199 133.909 151.199 133.909Z" fill="#FEBFAE"/>
<path d="M152.803 129.079C152.745 128.98 152.614 128.945 152.511 129C152.015 129.265 151.435 129.481 150.788 129.651C150.017 129.854 149.19 129.983 148.358 130.054C147.939 130.089 147.582 130.105 147.313 130.109L147.119 130.11C147 130.109 146.903 130.199 146.901 130.312C146.9 130.413 146.975 130.497 147.074 130.516L147.113 130.52L147.218 130.52C147.507 130.519 147.912 130.503 148.396 130.462C149.252 130.389 150.104 130.256 150.902 130.046C151.58 129.867 152.192 129.64 152.72 129.358C152.824 129.302 152.861 129.178 152.803 129.079Z" fill="#DD936F"/>
<path d="M153.455 131.11C153.404 131.008 153.276 130.966 153.169 131.015L152.977 131.101C152.153 131.455 151.269 131.682 150.382 131.807C149.834 131.884 149.394 131.909 149.121 131.907C149 131.905 148.902 131.996 148.901 132.109C148.899 132.209 148.974 132.294 149.074 132.313L149.112 132.316L149.203 132.316L149.395 132.311C149.672 132.3 150.029 132.27 150.444 132.212C151.369 132.082 152.29 131.845 153.153 131.474L153.356 131.383C153.462 131.334 153.507 131.212 153.455 131.11Z" fill="#DD936F"/>
<path d="M154.688 133.38C154.636 133.278 154.508 133.236 154.401 133.285C154.173 133.39 153.634 133.488 152.902 133.569C152.527 133.61 152.125 133.645 151.723 133.672L151.334 133.697L151.188 133.705C151.07 133.711 150.978 133.807 150.984 133.92C150.991 134.033 151.091 134.12 151.21 134.114L151.36 134.106C151.479 134.099 151.612 134.091 151.754 134.081C152.162 134.053 152.57 134.018 152.951 133.976L153.253 133.94C153.88 133.861 154.338 133.769 154.588 133.654C154.695 133.604 154.739 133.482 154.688 133.38Z" fill="#DD936F"/>
<path d="M201.638 118.976L201.599 118.978L163.526 123.94C163.408 123.956 163.326 124.059 163.342 124.171C163.356 124.27 163.443 124.343 163.545 124.348L163.584 124.346L201.657 119.384C201.775 119.368 201.857 119.265 201.841 119.153C201.827 119.053 201.739 118.98 201.638 118.976Z" fill="#DD936F"/>
</g>
<defs>
<linearGradient id="paint0_linear_1_476" x1="220.99" y1="88.196" x2="55.7457" y2="88.5144" gradientUnits="userSpaceOnUse">
<stop stop-color="#5D5FEF"/>
<stop offset="1" stop-color="#6163DE" stop-opacity="0"/>
</linearGradient>
<linearGradient id="paint1_linear_1_476" x1="220.99" y1="88.196" x2="55.7457" y2="88.5144" gradientUnits="userSpaceOnUse">
<stop stop-color="#5D5FEF"/>
<stop offset="1" stop-color="#6163DE" stop-opacity="0"/>
</linearGradient>
<linearGradient id="paint2_linear_1_476" x1="220.99" y1="88.196" x2="55.7457" y2="88.5144" gradientUnits="userSpaceOnUse">
<stop stop-color="#5D5FEF"/>
<stop offset="1" stop-color="#6163DE" stop-opacity="0"/>
</linearGradient>
<clipPath id="clip0_1_476">
<rect width="215.548" height="184" fill="white" transform="translate(0.97583 0.5)"/>
</clipPath>
</defs>
</svg>
