<svg width="178" height="177" viewBox="0 0 178 177" fill="none" xmlns="http://www.w3.org/2000/svg">
<path d="M0.337021 157.334C0.337021 167.928 38.0146 176.516 84.4925 176.516C101.446 176.516 117.228 175.374 130.438 173.408C131.423 173.261 132.423 173.268 133.418 173.303C137.117 173.432 144.827 172.958 148.738 172.661C153.55 172.346 168.648 162.155 168.648 157.334C168.648 146.74 130.971 138.151 84.4925 138.151C38.0146 138.151 0.337021 146.74 0.337021 157.334Z" fill="#DCDCDC"/>
<path d="M95.6831 1.48768C95.6899 1.10577 96.0631 0.795691 96.5859 0.676636L96.5568 2.28227C96.0352 2.05091 95.6769 1.81657 95.6831 1.48768Z" fill="#1E1E2D"/>
<path d="M97.6972 6.63361L97.7325 4.72681C98.2714 4.98775 98.6588 5.28595 98.6866 5.73172C98.7194 6.25144 98.2813 6.55088 97.6972 6.63361Z" fill="#1E1E2D"/>
<path d="M8.06276 158.975L15.8451 147.427C17.184 145.251 26.8073 144.682 27.8114 144.749H125.55C129.037 144.86 136.078 145.468 136.345 147.009C139.776 149.423 133.144 153.781 124.881 162.155C123.291 162.908 115.676 163.075 111.409 163.075H19.6106C12.671 163.075 9.0631 162.327 8.16356 161.506C7.99754 161.354 7.96475 161.119 7.96475 160.894V159.393C7.94303 159.252 7.97236 159.11 8.06276 158.975Z" fill="#3285FF"/>
<path d="M15.8451 147.427L8.06276 158.975C7.97236 159.11 7.94303 159.252 7.96475 159.393C8.02359 159.775 8.45606 160.153 9.06693 160.397C11.661 161.434 16.5145 161.569 20.8659 161.569H111.91C114.17 161.569 122.203 161.569 124.881 160.397C125.567 160.097 132.531 152.833 136.073 149.095C136.575 148.565 136.417 147.421 136.345 147.009C136.078 145.468 129.037 144.86 125.55 144.749H27.8114C26.8073 144.682 17.184 145.251 15.8451 147.427Z" fill="#3285FF"/>
<path d="M10.0708 158.474L17.853 147.428C18.6899 146.089 22.7903 145.253 27.8948 145.085H124.295C127.726 145.085 136.931 145.838 135.341 148.097L125.55 158.223C122.705 161.068 115.592 160.482 111.492 160.482H99.442H20.9491C14.9243 160.482 13.7529 160.482 11.2423 159.813C9.98699 159.478 9.73613 158.976 10.0708 158.474Z" fill="white"/>
<path d="M92.0689 153.13L78.6498 145.717C78.3503 145.551 77.9741 145.66 77.8089 145.959L74.9791 151.081C74.8139 151.38 74.9222 151.757 75.2217 151.922L88.6408 159.336C88.9403 159.501 89.3165 159.393 89.4817 159.093L92.3114 153.971C92.4766 153.672 92.3683 153.296 92.0689 153.13Z" fill="white"/>
<ellipse cx="84.3144" cy="160.758" rx="2.76147" ry="2.76147" transform="rotate(28.9187 84.3144 160.758)" fill="white"/>
<path d="M67.618 147.151L53.384 152.846C53.0672 152.973 52.9125 153.333 53.0393 153.651L55.2131 159.083C55.3406 159.401 55.7007 159.555 56.0176 159.428L70.2516 153.733C70.569 153.605 70.7231 153.245 70.5963 152.928L68.4225 147.495C68.2956 147.178 67.9355 147.024 67.618 147.151Z" fill="white"/>
<ellipse cx="62.2308" cy="156.8" rx="2.76147" ry="2.76147" transform="rotate(-21.8075 62.2308 156.8)" fill="white"/>
<rect x="5.28104" y="26.7571" width="145.9" height="92.928" rx="10" fill="#DCDCDC"/>
<rect x="7.38073" y="29.7915" width="141.431" height="87.3546" rx="10" fill="white"/>
<path d="M1.14021 31.1782H45.5108V63.9226C45.5108 66.1317 43.72 67.9226 41.5108 67.9226H5.14021C2.93107 67.9226 1.14021 66.1317 1.14021 63.9226V31.1782Z" fill="#DCDCDC"/>
<path d="M1.26487 30.6501C1.26487 26.467 4.65603 23.0758 8.83918 23.0758H37.8743C42.0573 23.0758 45.4483 26.467 45.4483 30.6501H1.26487Z" fill="#3285FF"/>
<path d="M1.14021 26.8649C1.14021 24.6557 2.93107 22.8649 5.14021 22.8649H41.5108C43.72 22.8649 45.5108 24.6557 45.5108 26.8649V31.1844H1.14021V26.8649Z" fill="#3285FF"/>
<ellipse cx="40.259" cy="26.9976" rx="1.26239" ry="1.26239" fill="#FCFEFD"/>
<ellipse cx="35.209" cy="26.9976" rx="1.26239" ry="1.26239" fill="#FCFEFD"/>
<ellipse cx="30.1572" cy="26.9976" rx="1.26239" ry="1.26239" fill="#FCFEFD"/>
<path opacity="0.5" d="M19.6397 36.7544C19.6397 36.4058 19.9223 36.1232 20.2709 36.1232H42.2924C42.641 36.1232 42.9236 36.4058 42.9236 36.7544C42.9236 37.103 42.641 37.3856 42.2924 37.3856H20.2709C19.9223 37.3856 19.6397 37.103 19.6397 36.7544Z" fill="#A2A2A7"/>
<path opacity="0.5" d="M19.6397 40.6961C19.6397 40.3475 19.9223 40.0649 20.2709 40.0649H42.2924C42.641 40.0649 42.9236 40.3475 42.9236 40.6961C42.9236 41.0447 42.641 41.3273 42.2924 41.3273H20.2709C19.9223 41.3273 19.6397 41.0447 19.6397 40.6961Z" fill="#A2A2A7"/>
<path opacity="0.5" d="M19.6397 44.6384C19.6397 44.2898 19.9223 44.0072 20.2709 44.0072H42.2924C42.641 44.0072 42.9236 44.2898 42.9236 44.6384C42.9236 44.987 42.641 45.2696 42.2924 45.2696H20.2709C19.9223 45.2696 19.6397 44.987 19.6397 44.6384Z" fill="#A2A2A7"/>
<path d="M3.64915 39.9012C3.64915 36.1828 6.66348 33.1685 10.3819 33.1685C14.1002 33.1685 17.1146 36.1828 17.1146 39.9012V41.3038C17.1146 45.0222 14.1002 48.0366 10.3819 48.0366C6.66348 48.0366 3.64915 45.0222 3.64915 41.3038V39.9012Z" fill="#FEFFFF"/>
<path d="M10.3818 38.2266C11.2339 38.2266 11.9247 37.5359 11.9247 36.6838C11.9247 35.8316 11.2339 35.1409 10.3818 35.1409C9.52968 35.1409 8.83886 35.8316 8.83886 36.6838C8.83886 37.5359 9.52968 38.2266 10.3818 38.2266Z" fill="#1E1E2D"/>
<path d="M9.67571 39.2003C9.21354 39.2003 8.83886 39.575 8.83886 40.0372V44.5352C8.83886 44.9973 9.21354 45.372 9.67571 45.372H11.0879C11.5501 45.372 11.9247 44.9973 11.9247 44.5352V40.0372C11.9247 39.575 11.5501 39.2003 11.0879 39.2003H9.67571Z" fill="#1E1E2D"/>
<rect x="5.89053" y="59.1178" width="1.54291" height="3.64688" fill="white"/>
<rect x="10.3826" y="60.3827" width="1.54291" height="2.3845" fill="white"/>
<rect x="15.2918" y="58.9836" width="1.54291" height="3.78715" fill="white"/>
<rect x="19.9213" y="57.0176" width="1.54291" height="5.75086" fill="white"/>
<rect x="24.5463" y="54.7687" width="1.54291" height="7.99508" fill="white"/>
<rect x="29.1775" y="56.1733" width="1.54291" height="6.59246" fill="white"/>
<rect x="33.8046" y="54.4921" width="1.54291" height="8.27563" fill="white"/>
<rect x="38.4325" y="53.2318" width="1.54291" height="9.53803" fill="white"/>
<path d="M59.6722 51.6326C59.6722 43.3483 66.388 36.6326 74.6722 36.6326H124.406C132.69 36.6326 139.406 43.3483 139.406 51.6326V81.548C139.406 89.8322 132.69 96.548 124.406 96.548H74.6722C66.388 96.548 59.6722 89.8322 59.6722 81.548V51.6326Z" fill="#DCDCDC"/>
<path d="M59.6722 45.3895C59.6722 40.5532 61.8199 36.6326 66.6557 36.6326H133.558C138.395 36.6326 139.406 40.5532 139.406 45.3895H59.6722Z" fill="black"/>
<ellipse cx="115.673" cy="40.7803" rx="1.61311" ry="1.6131" fill="white"/>
<ellipse cx="122.354" cy="40.7803" rx="1.61311" ry="1.6131" fill="white"/>
<ellipse cx="129.036" cy="40.7803" rx="1.61311" ry="1.6131" fill="white"/>
<path d="M103.856 63.8265C103.856 61.7902 105.507 60.1394 107.543 60.1394H131.97C134.006 60.1394 135.657 61.7902 135.657 63.8265C135.657 65.8628 134.006 67.5136 131.97 67.5136H107.543C105.507 67.5136 103.856 65.8628 103.856 63.8265Z" fill="white"/>
<path d="M103.856 76.9725C103.856 74.9362 105.507 73.2854 107.543 73.2854H131.97C134.006 73.2854 135.657 74.9362 135.657 76.9725C135.657 79.0088 134.006 80.6596 131.97 80.6596H107.543C105.507 80.6596 103.856 79.0088 103.856 76.9725Z" fill="white"/>
<path d="M95.0039 74.7204C95.6487 74.9475 95.9915 75.6567 95.7174 76.2829C94.6475 78.7308 93.0089 80.8959 90.931 82.5945C88.5332 84.5542 85.6422 85.8166 82.5749 86.2435C79.5076 86.6705 76.3814 86.246 73.5393 85.0152C70.6972 83.7851 68.2481 81.7969 66.4604 79.2679C64.6727 76.7389 63.6146 73.7669 63.4029 70.6773C63.1907 67.587 63.8324 64.4986 65.2581 61.7494C66.6838 59.0001 68.8384 56.6957 71.4856 55.0887C73.78 53.696 76.3672 52.8734 79.0323 52.6812C79.7142 52.632 80.268 53.1916 80.2674 53.8751L80.2482 68.6439C80.2476 69.1693 80.5787 69.6383 81.0743 69.8128L95.0039 74.7204Z" fill="white"/>
<path d="M91.0517 56.4308C91.4521 55.877 92.2287 55.7483 92.7522 56.1882C95.2032 58.2469 97.0255 60.9665 97.9939 64.0351C98.9623 67.1037 99.031 70.3765 98.2056 73.4685C98.0298 74.1294 97.3194 74.4704 96.674 74.2464L83.4641 69.6618C82.6807 69.3895 82.3812 68.4396 82.8664 67.7676L91.0517 56.4308Z" fill="#3285FF"/>
<path d="M81.0661 52.8476C81.0661 52.1641 81.6211 51.6053 82.3024 51.6553C85.0567 51.8576 87.7193 52.7325 90.0565 54.2028C90.635 54.5667 90.7508 55.3457 90.3455 55.8965L83.2999 65.4611C82.5914 66.4227 81.0661 65.9215 81.0661 64.7266V52.8476Z" fill="#707070"/>
<path d="M153.051 56.4044C152.632 54.2838 152.853 51.6919 152.853 50.5727C152.853 45.5066 160.393 46.7437 160.393 49.9836C160.393 51.5743 160.303 53.7922 159.922 55.6977C159.391 58.3486 153.678 60.2923 153.051 56.4044Z" fill="#FEBFAE"/>
<path d="M161.928 44.6123C161.692 48.0878 160.514 51.6222 158.394 52.3291C156.577 52.9345 154.439 52.8486 152.672 50.7387C152.275 50.2653 151.551 47.8902 150.981 45.1425C151.213 45.6727 151.808 46.9333 152.326 47.7344C152.974 48.7359 154.565 47.4988 156.155 47.0276C157.745 46.5563 159.395 49.5605 160.22 48.4413C161.044 47.3221 160.455 47.0274 161.928 44.6123Z" fill="#2B1818"/>
<path d="M155.328 55.9884C153.793 55.4959 153.145 54.1995 152.971 53.691C152.971 53.1609 151.793 54.7515 150.792 59.9939C149.991 64.188 151.558 74.3869 152.442 78.9622H154.149C156.408 71.7162 160.948 56.7663 161.042 54.9278C161.16 52.6307 160.512 52.1005 160.04 52.8663C159.67 53.4679 158.446 55.2013 156.208 55.9668C156.031 56.0256 155.533 56.0547 155.328 55.9884Z" fill="#F2F2F2"/>
<path d="M153.854 57.64C153.854 57.3238 154.937 56.4327 155.33 55.981C155.476 56.0361 155.97 56.0336 156.21 55.96C156.878 56.3455 157.887 57.218 157.746 57.6895C157.569 58.2786 156.147 59.3478 155.739 59.3478C155.406 59.3478 153.854 58.0521 153.854 57.64Z" fill="#1F1A1A"/>
<path d="M152.443 70.9519C152.678 69.491 154.229 62.0178 154.976 58.4635H156.448C156.664 61.6843 157.084 68.2775 157.037 68.8901C156.998 69.3994 155.492 73.1975 154.364 75.9654C154.149 76.4951 153.408 76.4647 153.252 75.9152C152.766 74.2111 152.269 72.0274 152.443 70.9519Z" fill="#1F1A1A"/>
<path d="M155.329 55.9833C154.292 57.5383 153.814 59.3062 152.973 59.1391C152.485 59.042 152.368 57.9677 152.413 56.7964C152.057 60.8965 154.065 59.6416 155.329 55.9833Z" fill="#DEE5FF"/>
<path d="M158.499 59.3066C159.314 59.3066 161.012 55.4899 161.041 54.9237C161.033 55.1421 160.591 57.2708 159.503 58.7212C157.746 61.064 156.821 57.1538 156.207 55.962C156.986 57.1 157.495 59.3066 158.499 59.3066Z" fill="#DEE5FF"/>
<path d="M155.33 55.9889C154.03 55.5551 153.264 54.4357 152.973 53.6916C152.734 53.2577 151.824 58.9164 152.973 59.1447C153.815 59.3118 154.293 57.5439 155.33 55.9889Z" fill="#F2F2F2"/>
<path d="M161.041 54.9218C161.148 52.8389 160.507 52.3677 160.272 52.4855C159.329 54.0171 157.68 55.4899 156.207 55.9608C156.986 57.0987 157.494 59.3053 158.499 59.3053C159.314 59.3053 161.012 55.4886 161.041 54.9218Z" fill="#F2F2F2"/>
<path d="M168.167 98.2233C168.812 115.52 163.864 117.818 162.862 149.981H154.792C151.905 105.448 151.905 92.9005 151.905 92.9005L168.167 98.2233Z" fill="#1E1E2D"/>
<path d="M163.773 104.665C163.522 107.008 164.861 110.69 166.116 112.112" stroke="#2F2F42" stroke-width="2" stroke-linecap="round"/>
<path d="M167.037 103.825C167.037 113.532 162.351 127.34 162.267 147.088" stroke="#2F2F42" stroke-width="2"/>
<path d="M142.012 149.976C142.012 113.454 141.129 109.978 144.961 89.1469L156.566 93.6826C156.566 93.6826 152.263 110.862 151.057 149.976H142.012Z" fill="#1E1E2D"/>
<path d="M146.367 102.988C146.702 105.666 145.698 109.682 143.02 111.775" stroke="#2F2F42" stroke-width="2"/>
<path d="M143.854 102.823C143.129 104.748 141.762 128.429 143.854 143.994" stroke="#2F2F42" stroke-width="2"/>
<path d="M153.636 113.938L155.107 102.652L153.199 102.404L152.008 111.531C151.868 112.61 152.974 114.048 153.636 113.938Z" fill="#2F2F42"/>
<path d="M119.986 77.3612C121.929 77.7151 124.345 78.9521 124.934 77.6557C125.238 76.9862 125.228 76.0011 125.25 75.1818C124.164 72.5687 120.689 72.6274 117.508 70.6244C114.508 68.7359 118.215 72.8954 116.333 72.9436C114.036 73.0024 111.091 70.7049 111.621 73.2382C112.151 75.7709 118.042 77.0079 119.986 77.3612Z" fill="#FEBFAE"/>
<path d="M138.186 83.1967C135.181 83.4325 125.575 80.1708 123.691 79.1696C122.225 78.3912 123.488 72.9254 124.692 72.9254C124.692 72.9254 131.525 74.3394 134.588 75.2818C137.652 76.2242 136.886 71.6885 139.183 65.2673C141.607 58.4934 145.73 57.1383 147.964 59.1629C149.849 60.8708 145.486 72.8667 144.426 75.8709C143.366 78.8751 141.19 82.961 138.186 83.1967Z" fill="#3285FF"/>
<path d="M154.033 103.056C153.892 102.585 153.385 97.3224 153.149 94.75C152.877 91.864 152.265 80.9071 154.033 77.432C155.8 73.9563 160.391 54.5547 160.273 52.5516C160.204 51.3735 162.217 53.553 167.287 55.5776C174.12 57.6388 173.944 59.1115 168.053 75.9593C162.162 92.8064 168.642 103.94 167.11 103.94C165.579 103.94 154.21 103.645 154.033 103.056Z" fill="#3285FF"/>
<path d="M160.272 52.5516C160.253 52.2356 160.384 52.1612 160.684 52.2604C162.098 53.6708 161.686 58.148 162.804 59.1492C163.158 59.5614 161.721 60.5867 160.919 60.6807C161.45 61.5056 162.804 62.7426 163.924 62.7426L154.031 77.432C155.24 75.0552 157.768 65.2338 159.208 58.6189C159.875 55.559 160.309 53.185 160.272 52.5516Z" fill="#5D5FEF" fill-opacity="0.7"/>
<path d="M146.489 103.087C149.077 103.654 149.321 102.932 150.263 101.164C154.975 90.8558 154.916 83.6692 153.974 80.7826C153.032 77.8959 152.619 74.185 152.03 68.8833C151.441 63.5815 153.381 54.6653 152.91 52.6036C152.595 51.2254 148.26 55.8064 145.433 57.6912C142.605 59.576 143.783 58.5748 145.433 74.2438C147.082 89.9128 139.008 101.636 140.186 102.46C141.364 103.285 144.062 102.554 146.489 103.087Z" fill="#3285FF"/>
<path d="M152.028 68.8834C152.588 73.9241 152.989 77.5273 153.837 80.3502C153.911 80.5773 153.957 80.7252 153.972 80.7827C153.926 80.6404 153.881 80.4969 153.837 80.3502C153.086 78.0372 149.52 67.545 147.725 61.9697C148.667 61.7339 150.238 61.0471 150.729 60.2024C150.398 60.0143 149.433 58.7476 149.551 58.6121C150.493 57.528 151.259 53.0311 152.454 52.368C152.697 52.312 152.856 52.3778 152.908 52.6036C153.113 53.4999 152.863 55.6914 152.562 58.3182L152.555 58.3764C152.165 61.7816 151.697 65.9033 152.028 68.8834Z" fill="#5D5FEF" fill-opacity="0.7"/>
<path d="M173.614 102.5H150.119C148.416 102.5 147.035 101.349 147.035 99.9287V84.8203C147.035 83.5097 148.309 82.4473 149.882 82.4473H173.851C175.424 82.4473 176.699 83.5097 176.699 84.8203V99.9287C176.699 101.349 175.318 102.5 173.614 102.5Z" fill="black"/>
<path d="M161.636 82.453H173.851C175.424 82.453 176.699 83.5154 176.699 84.826V98.6102H147.035V84.826C147.035 83.5154 148.309 82.453 149.882 82.453H151.94C151.94 81.5501 152.819 80.8181 153.902 80.8181H159.674C160.758 80.8181 161.636 81.5501 161.636 82.453Z" fill="#1E1E2D"/>
<path d="M167.405 101.34C167.523 98.9835 169.349 98.5126 168.76 97.806C168.416 97.3926 167.254 96.6402 166.286 96.0579C165.167 95.3568 164.813 97.0399 163.282 97.3932C161.75 97.7466 160.16 99.5138 160.513 100.633C160.867 101.753 162.339 99.455 162.162 100.633C161.985 101.811 158.922 102.577 161.043 103.696C164.342 105.287 167.287 103.696 167.405 101.34Z" fill="#FEBFAE"/>
<path d="M174.12 92.0943C173.531 93.5076 171.167 98.0594 170.169 98.4932C168.891 99.0489 164.273 96.1851 165.044 94.8999C165.751 93.7217 168.995 85.3786 169.525 81.7853C170.055 78.1919 167.758 67.3532 166.403 63.5242C165.048 59.6951 165.814 54.3939 170.762 56.9854C175.71 59.5775 177.301 67.6478 177.89 76.7192C178.359 83.9436 174.709 90.6804 174.12 92.0943Z" fill="#3285FF"/>
<path d="M161.191 38.9652C160.848 40.2616 162.117 40.3146 162.117 43.8069C162.146 44.1897 162.244 44.3856 162.356 44.4371C162.356 47.5904 160.768 51.221 158.519 53.1728C157.117 54.3899 155.503 53.7696 154.603 53.1728C152.402 51.7124 150.741 47.4845 150.741 44.7858C151.397 44.1085 150.625 41.4257 151.323 40.2881C151.826 39.4679 151.667 37.5365 152.54 37.2455C153.598 37.7482 160.662 36.1343 161.191 38.9652Z" fill="#FEBFAE"/>
<path d="M158.522 53.1769C157.12 54.3941 155.396 53.9135 154.606 53.1769C153.647 52.2816 153.601 50.0285 153.945 49.1024C156.035 46.8536 158.072 47.806 159.289 49.1024C159.474 50.928 159.422 52.2684 158.522 53.1769Z" fill="#232533"/>
<path d="M149.128 41.0015C149.277 42.335 149.843 42.245 150.743 44.7849C151.399 44.1076 150.627 41.4249 151.325 40.2872C151.828 39.467 151.669 37.5356 152.542 37.2446C153.6 37.7473 160.664 36.1333 161.194 38.9643C160.85 40.2607 162.119 40.3136 162.119 43.806C162.148 44.1888 162.246 44.3847 162.358 44.4362C162.554 44.5271 162.79 44.1685 162.754 43.5943C162.648 41.8746 164.315 42.4831 164.527 36.5831C165.453 36.4508 163.892 32.5351 162.754 33.1701C162.358 31.8737 160.426 31.2123 159.791 31.371C160.024 30.9054 159.888 30.3833 159.791 30.1805C159.813 30.6884 159.306 30.9742 159.05 31.0535C159.368 30.9477 159.306 30.3745 159.236 30.1011C159.257 30.5244 158.768 30.9124 158.521 31.0535C158.839 30.8419 158.654 30.3304 158.521 30.1011C158.627 30.609 158.195 30.9477 157.965 31.0535C158.204 30.8419 158.098 30.4186 157.965 30.1011C157.965 30.5456 157.26 30.9213 156.907 31.0535C157.204 30.7784 157.03 30.3039 156.907 30.1011C156.801 30.5244 156.157 30.9124 155.849 31.0535C156.103 30.6302 155.955 30.2422 155.849 30.1011C155.32 31.8472 152.674 30.6038 151.034 33.858C150.161 33.5141 149.432 34.3871 149.128 35.0221C148.018 37.3504 149.128 39.8374 149.128 41.0015Z" fill="#232533"/>
<path d="M154.01 42.817C154.01 43.1194 153.855 43.3641 153.664 43.3641C153.472 43.3641 153.317 43.1187 153.317 42.817C153.317 42.5146 153.472 42.2699 153.664 42.2699C153.855 42.2699 154.01 42.5146 154.01 42.817Z" fill="#0C375A"/>
<path d="M159.556 42.817C159.556 43.1194 159.401 43.3641 159.209 43.3641C159.018 43.3641 158.863 43.1187 158.863 42.817C158.863 42.5146 159.018 42.2699 159.209 42.2699C159.401 42.2699 159.556 42.5146 159.556 42.817Z" fill="#0C375A"/>
<path d="M160.195 41.1116C160.195 41.1116 159.05 40.6582 158.168 41.0401L158.257 41.5314C158.257 41.5314 159.55 41.422 160.202 41.6862C160.261 41.497 160.269 41.3057 160.195 41.1116Z" fill="#0C375A"/>
<path d="M152.677 41.1116C152.677 41.1116 153.822 40.6582 154.704 41.0401L154.615 41.5314C154.615 41.5314 153.322 41.422 152.67 41.6862C152.611 41.497 152.603 41.3057 152.677 41.1116Z" fill="#0C375A"/>
<path d="M156.812 45.5844C156.509 45.6214 156.194 45.5401 156.145 45.5265C156.048 45.5003 155.991 45.4009 156.018 45.3042C156.044 45.2074 156.143 45.1505 156.239 45.1767C156.41 45.2228 156.812 45.2788 156.968 45.1568C156.997 45.1333 157.038 45.089 157.035 44.9787C157.024 44.3423 156.594 42.2551 156.591 42.2343C156.571 42.1358 156.633 42.04 156.731 42.0201C156.83 41.9993 156.925 42.0625 156.945 42.1611C156.963 42.2479 157.385 44.3017 157.398 44.9724C157.402 45.2246 157.288 45.3683 157.19 45.4443C157.084 45.5265 156.949 45.5672 156.812 45.5844Z" fill="#1012A7"/>
<path d="M158.731 49.8118C158.864 48.2773 154.446 48.1979 154.446 49.8118C154.446 50.3146 154.79 51.3729 155.742 51.8755C156.076 51.5925 156.511 50.9092 155.805 50.7988C155.769 50.7933 155.742 50.7636 155.742 50.7279C155.742 50.6896 155.773 50.6585 155.811 50.6585H157.395C157.432 50.6585 157.462 50.6881 157.462 50.7246C157.462 50.7611 157.432 50.7904 157.395 50.7938C156.99 50.8314 156.791 51.2223 157.118 51.8755C157.964 51.8755 158.674 50.4733 158.731 49.8118Z" fill="#FFA289" stroke="#FEBFAE"/>
<path d="M147.936 167.417C142.262 167.417 137.663 166.425 137.663 165.201V167.417C140.684 170.236 157 170.035 158.209 167.417V165.201C158.209 166.425 153.609 167.417 147.936 167.417Z" fill="#FEDB35"/>
<path d="M157.222 168.23C157.362 168.163 157.49 168.095 157.603 168.024V166.063C157.603 166.028 157.595 165.995 157.579 165.967C157.467 166.032 157.34 166.097 157.201 166.159V168.139C157.201 168.171 157.209 168.202 157.222 168.23Z" fill="#EACF6D"/>
<path d="M156.61 168.478C156.748 168.43 156.878 168.38 157.001 168.329V166.323C157.001 166.298 156.996 166.273 156.988 166.25C156.866 166.299 156.736 166.347 156.598 166.393V168.409C156.598 168.433 156.603 168.456 156.61 168.478Z" fill="#EACF6D"/>
<path d="M156 168.664C156.137 168.626 156.269 168.587 156.395 168.547V166.518C156.395 166.498 156.392 166.479 156.387 166.46C156.261 166.5 156.13 166.537 155.992 166.575V168.609C155.992 168.628 155.995 168.647 156 168.664Z" fill="#EACF6D"/>
<path d="M155.393 168.822C155.529 168.791 155.662 168.76 155.791 168.726V166.684C155.791 166.668 155.789 166.651 155.785 166.636C155.657 166.669 155.525 166.7 155.388 166.731V168.776C155.388 168.792 155.39 168.807 155.393 168.822Z" fill="#EACF6D"/>
<path d="M154.789 168.939C154.925 168.913 155.058 168.886 155.188 168.858V166.809C155.188 166.795 155.187 166.781 155.184 166.768C155.055 166.796 154.922 166.823 154.785 166.849V168.901C154.785 168.914 154.787 168.927 154.789 168.939Z" fill="#EACF6D"/>
<path d="M154.181 169.049C154.316 169.027 154.45 169.005 154.581 168.981V166.927C154.581 166.916 154.58 166.904 154.578 166.892C154.448 166.916 154.314 166.939 154.178 166.962V169.016C154.178 169.028 154.179 169.038 154.181 169.049Z" fill="#EACF6D"/>
<path d="M153.579 169.138C153.715 169.12 153.848 169.1 153.98 169.081V167.025C153.98 167.014 153.98 167.005 153.978 166.995C153.847 167.015 153.713 167.035 153.577 167.054V169.11C153.577 169.12 153.578 169.129 153.579 169.138Z" fill="#EACF6D"/>
<path d="M152.972 169.214C153.108 169.199 153.242 169.183 153.374 169.166V167.11C153.374 167.101 153.373 167.092 153.372 167.084C153.24 167.101 153.107 167.118 152.971 167.135V169.191C152.971 169.199 152.971 169.207 152.972 169.214Z" fill="#EACF6D"/>
<path d="M152.37 169.283C152.506 169.27 152.64 169.256 152.772 169.242V167.186C152.772 167.179 152.772 167.171 152.771 167.164C152.639 167.179 152.505 167.194 152.37 167.207V169.263C152.37 169.27 152.37 169.276 152.37 169.283Z" fill="#EACF6D"/>
<path d="M151.765 169.329C151.9 169.318 152.034 169.307 152.167 169.295V167.24C152.167 167.234 152.167 167.227 152.166 167.221C152.034 167.234 151.899 167.247 151.764 167.258V169.312C151.764 169.318 151.765 169.323 151.765 169.329Z" fill="#EACF6D"/>
<path d="M151.158 169.377C151.293 169.368 151.427 169.359 151.56 169.349V167.297C151.56 167.291 151.56 167.286 151.559 167.281C151.426 167.292 151.293 167.302 151.157 167.311V169.363C151.157 169.368 151.157 169.373 151.158 169.377Z" fill="#EACF6D"/>
<path d="M150.558 169.403C150.693 169.397 150.827 169.389 150.96 169.382V167.364C150.96 167.348 150.958 167.333 150.955 167.318C150.824 167.327 150.691 167.335 150.558 167.342C150.558 167.349 150.557 167.357 150.557 167.364V169.393C150.557 169.396 150.557 169.4 150.558 169.403Z" fill="#EACF6D"/>
<path d="M149.949 169.437C150.084 169.432 150.218 169.427 150.352 169.421V167.372C150.352 167.369 150.352 167.365 150.351 167.362C150.218 167.369 150.084 167.376 149.949 167.381V169.429C149.949 169.432 149.949 169.434 149.949 169.437Z" fill="#EACF6D"/>
<path d="M149.348 169.452C149.483 169.449 149.618 169.446 149.751 169.442V167.395C149.751 167.393 149.751 167.39 149.751 167.388C149.618 167.393 149.483 167.398 149.348 167.402V169.447C149.348 169.449 149.348 169.45 149.348 169.452Z" fill="#EACF6D"/>
<path d="M148.743 169.453C148.878 169.452 149.012 169.451 149.146 169.448V167.404C149.146 167.402 149.146 167.401 149.146 167.399C149.012 167.403 148.878 167.405 148.743 167.408V169.451V169.453Z" fill="#EACF6D"/>
<path d="M148.136 169.455C148.271 169.455 148.405 169.455 148.539 169.455V167.413V167.411C148.406 167.413 148.271 167.414 148.136 167.414V169.455Z" fill="#EACF6D"/>
<path d="M147.535 169.448C147.67 169.451 147.805 169.452 147.939 169.454V169.451V167.415C147.804 167.415 147.669 167.415 147.536 167.414L147.535 167.415V169.448Z" fill="#EACF6D"/>
<path d="M146.928 169.432C147.063 169.437 147.197 169.44 147.331 169.443C147.331 169.442 147.331 169.439 147.331 169.439V167.411C147.196 167.409 147.062 167.406 146.928 167.404V167.408V169.432Z" fill="#EACF6D"/>
<path d="M146.326 169.419C146.46 169.425 146.594 169.431 146.728 169.436C146.728 169.433 146.728 169.431 146.728 169.428V167.408C146.594 167.405 146.459 167.401 146.326 167.397C146.326 167.398 146.326 167.401 146.326 167.403V169.419Z" fill="#EACF6D"/>
<path d="M145.748 169.391C145.882 169.398 146.017 169.406 146.151 169.412C146.152 169.408 146.152 169.403 146.152 169.399L146.124 167.39C145.989 167.385 145.855 167.379 145.721 167.372C145.721 167.377 145.721 167.38 145.721 167.384L145.748 169.391Z" fill="#EACF6D"/>
<path d="M145.132 169.345C145.266 169.354 145.4 169.363 145.535 169.371C145.535 169.367 145.535 169.362 145.535 169.356L145.516 167.356C145.381 167.349 145.247 167.341 145.114 167.333C145.113 167.338 145.113 167.342 145.113 167.347L145.132 169.345Z" fill="#EACF6D"/>
<path d="M144.513 169.299C144.646 169.31 144.781 169.321 144.916 169.332C144.916 169.327 144.916 169.321 144.916 169.316V167.324C144.781 167.315 144.646 167.305 144.514 167.296C144.513 167.3 144.513 167.305 144.513 167.31V169.299Z" fill="#EACF6D"/>
<path d="M143.905 169.239C144.038 169.252 144.173 169.266 144.308 169.278C144.308 169.272 144.308 169.265 144.308 169.259V167.277C144.173 167.267 144.039 167.255 143.906 167.243C143.906 167.249 143.905 167.254 143.905 167.26V169.239Z" fill="#EACF6D"/>
<path d="M143.278 169.171C143.411 169.188 143.544 169.204 143.679 169.219C143.68 169.212 143.68 169.205 143.68 169.198L143.704 167.228C143.569 167.215 143.435 167.201 143.303 167.186C143.302 167.193 143.302 167.199 143.302 167.205L143.278 169.171Z" fill="#EACF6D"/>
<path d="M142.698 169.087C142.831 169.105 142.964 169.124 143.099 169.141C143.101 169.132 143.101 169.123 143.101 169.114V167.155C142.966 167.14 142.832 167.124 142.7 167.106C142.699 167.115 142.698 167.123 142.698 167.132V169.087Z" fill="#EACF6D"/>
<path d="M142.094 168.997C142.227 169.019 142.36 169.04 142.495 169.06C142.496 169.05 142.498 169.04 142.498 169.03V167.084C142.361 167.066 142.228 167.047 142.097 167.027C142.095 167.037 142.094 167.046 142.094 167.056V168.997Z" fill="#EACF6D"/>
<path d="M141.492 168.892C141.623 168.917 141.757 168.942 141.891 168.965C141.893 168.953 141.895 168.942 141.895 168.93V166.999C141.758 166.978 141.625 166.955 141.494 166.932C141.492 166.944 141.492 166.955 141.492 166.967V168.892Z" fill="#EACF6D"/>
<path d="M140.884 168.763C141.015 168.793 141.148 168.821 141.284 168.849C141.286 168.835 141.287 168.822 141.287 168.808V166.893C141.151 166.869 141.018 166.843 140.889 166.817C140.886 166.829 140.884 166.842 140.884 166.856V168.763Z" fill="#EACF6D"/>
<path d="M140.284 168.613C140.413 168.647 140.546 168.68 140.681 168.712C140.685 168.697 140.687 168.681 140.687 168.665V166.77C140.55 166.741 140.418 166.711 140.289 166.68C140.286 166.695 140.284 166.71 140.284 166.725V168.613Z" fill="#EACF6D"/>
<path d="M139.677 168.445C139.805 168.485 139.937 168.525 140.073 168.563C140.078 168.545 140.08 168.526 140.08 168.507V166.636C139.943 166.6 139.812 166.565 139.685 166.528C139.68 166.545 139.677 166.563 139.677 166.583V168.445Z" fill="#EACF6D"/>
<path d="M139.072 168.232C139.197 168.281 139.328 168.329 139.463 168.375C139.47 168.354 139.475 168.331 139.475 168.308V166.465C139.337 166.421 139.206 166.377 139.083 166.332C139.076 166.353 139.072 166.375 139.072 166.399V168.232Z" fill="#EACF6D"/>
<path d="M138.471 167.957C138.592 168.019 138.721 168.079 138.856 168.138C138.868 168.112 138.874 168.084 138.874 168.055V166.245C138.735 166.189 138.607 166.131 138.491 166.073C138.478 166.099 138.471 166.128 138.471 166.159V167.957Z" fill="#EACF6D"/>
<path d="M137.865 167.585C137.977 167.67 138.101 167.753 138.238 167.832C138.256 167.801 138.267 167.765 138.267 167.727V165.951C138.125 165.866 138.005 165.777 137.912 165.688C137.882 165.722 137.865 165.768 137.865 165.817V165.639C137.732 165.498 137.663 165.351 137.663 165.201V167.417C137.711 167.461 137.762 167.504 137.816 167.548C137.846 167.512 137.865 167.467 137.865 167.417V167.585Z" fill="#EACF6D"/>
<path d="M157.72 165.877V167.786C157.72 167.834 157.737 167.879 157.764 167.913C157.975 167.759 158.125 167.593 158.207 167.417V165.201C158.207 165.436 158.036 165.664 157.72 165.877Z" fill="#EACF6D"/>
<ellipse cx="147.936" cy="165.2" rx="10.2728" ry="2.2157" transform="rotate(180 147.936 165.2)" fill="#FEDB35"/>
<path d="M139.825 164.943C139.778 164.963 139.736 164.982 139.699 165C139.736 165.018 139.778 165.037 139.825 165.057C140.222 165.224 140.834 165.388 141.637 165.531C143.231 165.814 145.46 165.993 147.938 165.993C150.415 165.993 152.644 165.814 154.238 165.531C155.041 165.388 155.653 165.224 156.05 165.057C156.097 165.037 156.139 165.018 156.176 165C156.139 164.982 156.097 164.963 156.05 164.943C155.653 164.776 155.041 164.612 154.238 164.47C152.644 164.187 150.415 164.008 147.938 164.008C145.46 164.008 143.231 164.187 141.637 164.47C140.834 164.612 140.222 164.776 139.825 164.943Z" fill="#F9A52A"/>
<path d="M139.445 164.84C139.445 164.84 139.446 164.841 139.447 164.842M156.43 164.84C156.43 164.84 156.429 164.841 156.428 164.842M156.43 165.16C156.43 165.16 156.429 165.159 156.428 165.158M139.447 165.158C139.446 165.159 139.445 165.16 139.445 165.16M139.825 164.943C139.778 164.963 139.736 164.982 139.699 165C139.736 165.018 139.778 165.037 139.825 165.057C140.222 165.224 140.834 165.388 141.637 165.531C143.231 165.814 145.46 165.993 147.938 165.993C150.415 165.993 152.644 165.814 154.238 165.531C155.041 165.388 155.653 165.224 156.05 165.057C156.097 165.037 156.139 165.018 156.176 165C156.139 164.982 156.097 164.963 156.05 164.943C155.653 164.776 155.041 164.612 154.238 164.47C152.644 164.187 150.415 164.008 147.938 164.008C145.46 164.008 143.231 164.187 141.637 164.47C140.834 164.612 140.222 164.776 139.825 164.943Z" stroke="#EACF6D" stroke-width="2"/>
<path d="M149.246 164.528C143.573 164.528 138.974 163.536 138.974 162.312V164.528C141.995 167.348 158.31 167.146 159.52 164.528V162.312C159.52 163.536 154.92 164.528 149.246 164.528Z" fill="#FEDB35"/>
<path d="M158.536 165.331C158.676 165.265 158.803 165.196 158.918 165.125V163.164C158.918 163.129 158.909 163.096 158.893 163.067C158.781 163.134 158.655 163.198 158.515 163.26V165.241C158.515 165.273 158.523 165.304 158.536 165.331Z" fill="#EACF6D"/>
<path d="M157.923 165.583C158.06 165.536 158.191 165.486 158.313 165.435V163.429C158.313 163.403 158.309 163.378 158.3 163.356C158.178 163.405 158.048 163.453 157.91 163.499V165.515C157.91 165.539 157.915 165.562 157.923 165.583Z" fill="#EACF6D"/>
<path d="M157.311 165.773C157.448 165.735 157.58 165.696 157.706 165.656V163.627C157.706 163.606 157.703 163.587 157.698 163.569C157.572 163.608 157.44 163.646 157.304 163.684V165.718C157.304 165.737 157.306 165.755 157.311 165.773Z" fill="#EACF6D"/>
<path d="M156.708 165.919C156.844 165.889 156.976 165.856 157.105 165.824V163.782C157.105 163.765 157.103 163.749 157.099 163.733C156.971 163.766 156.839 163.798 156.702 163.829V165.874C156.702 165.889 156.704 165.905 156.708 165.919Z" fill="#EACF6D"/>
<path d="M156.099 166.05C156.235 166.024 156.368 165.997 156.498 165.969V163.92C156.498 163.906 156.497 163.892 156.494 163.879C156.365 163.907 156.232 163.934 156.096 163.96V166.012C156.096 166.024 156.097 166.037 156.099 166.05Z" fill="#EACF6D"/>
<path d="M155.496 166.155C155.632 166.133 155.766 166.111 155.896 166.088V164.034C155.896 164.022 155.896 164.01 155.893 163.999C155.763 164.023 155.629 164.046 155.493 164.068V166.122C155.493 166.133 155.495 166.145 155.496 166.155Z" fill="#EACF6D"/>
<path d="M154.889 166.246C155.025 166.228 155.159 166.209 155.29 166.189V164.134C155.29 164.123 155.289 164.113 155.288 164.103C155.157 164.124 155.023 164.143 154.888 164.163V166.219C154.888 166.228 154.888 166.237 154.889 166.246Z" fill="#EACF6D"/>
<path d="M154.283 166.322C154.419 166.307 154.553 166.291 154.685 166.274V164.218C154.685 164.209 154.684 164.2 154.683 164.192C154.551 164.209 154.418 164.226 154.282 164.243V166.299C154.282 166.307 154.283 166.315 154.283 166.322Z" fill="#EACF6D"/>
<path d="M153.681 166.377C153.817 166.364 153.95 166.351 154.083 166.336V164.281C154.083 164.273 154.083 164.265 154.082 164.258C153.95 164.273 153.816 164.288 153.681 164.302V166.357C153.681 166.364 153.681 166.37 153.681 166.377Z" fill="#EACF6D"/>
<path d="M153.074 166.436C153.209 166.425 153.344 166.414 153.477 166.402V164.348C153.477 164.341 153.477 164.335 153.476 164.329C153.343 164.342 153.209 164.354 153.074 164.366V166.42C153.074 166.425 153.074 166.431 153.074 166.436Z" fill="#EACF6D"/>
<path d="M152.472 166.476C152.607 166.467 152.741 166.458 152.874 166.448V164.395C152.874 164.39 152.874 164.385 152.873 164.379C152.741 164.39 152.607 164.4 152.471 164.41V166.462C152.471 166.467 152.472 166.471 152.472 166.476Z" fill="#EACF6D"/>
<path d="M151.866 166.515C152.001 166.509 152.135 166.501 152.269 166.493V164.475C152.269 164.46 152.267 164.445 152.264 164.43C152.132 164.439 152 164.447 151.867 164.454C151.866 164.461 151.866 164.469 151.866 164.475V166.505C151.866 166.508 151.866 166.512 151.866 166.515Z" fill="#EACF6D"/>
<path d="M151.261 166.532C151.395 166.527 151.529 166.522 151.663 166.516V164.467C151.663 164.464 151.663 164.461 151.663 164.458C151.53 164.464 151.396 164.471 151.26 164.477V166.525C151.26 166.527 151.26 166.53 151.261 166.532Z" fill="#EACF6D"/>
<path d="M150.66 166.552C150.794 166.549 150.929 166.546 151.063 166.541V164.495C151.063 164.493 151.063 164.49 151.063 164.488C150.929 164.493 150.795 164.498 150.66 164.501V166.547C150.66 166.549 150.66 166.55 150.66 166.552Z" fill="#EACF6D"/>
<path d="M150.052 166.564C150.187 166.563 150.321 166.561 150.455 166.559V164.515C150.455 164.513 150.455 164.512 150.455 164.51C150.321 164.514 150.187 164.516 150.052 164.519V166.562V166.564Z" fill="#EACF6D"/>
<path d="M149.451 166.564C149.585 166.565 149.72 166.565 149.854 166.564V164.523V164.521C149.72 164.522 149.586 164.523 149.451 164.524V166.564Z" fill="#EACF6D"/>
<path d="M148.845 166.558C148.979 166.561 149.113 166.563 149.248 166.564V166.561V164.526C149.113 164.526 148.978 164.525 148.845 164.524V164.526V166.558Z" fill="#EACF6D"/>
<path d="M148.24 166.543C148.374 166.548 148.508 166.551 148.643 166.554C148.643 166.553 148.643 166.551 148.643 166.549V164.522C148.507 164.52 148.373 164.517 148.24 164.515C148.24 164.516 148.24 164.517 148.24 164.519V166.543Z" fill="#EACF6D"/>
<path d="M147.638 166.521C147.772 166.526 147.906 166.532 148.041 166.537C148.041 166.534 148.041 166.532 148.041 166.529V164.51C147.906 164.506 147.772 164.502 147.638 164.498C147.638 164.5 147.638 164.502 147.638 164.504V166.521Z" fill="#EACF6D"/>
<path d="M147.059 166.486C147.193 166.493 147.327 166.5 147.462 166.507C147.462 166.502 147.462 166.498 147.462 166.494L147.435 164.485C147.299 164.48 147.165 164.473 147.032 164.467C147.031 164.472 147.031 164.475 147.031 164.479L147.059 166.486Z" fill="#EACF6D"/>
<path d="M146.448 166.444C146.582 166.453 146.716 166.463 146.851 166.471C146.851 166.466 146.851 166.461 146.851 166.456L146.832 164.455C146.697 164.449 146.563 164.441 146.429 164.432C146.429 164.437 146.429 164.442 146.429 164.446L146.448 166.444Z" fill="#EACF6D"/>
<path d="M145.822 166.403C145.956 166.415 146.09 166.426 146.224 166.437C146.225 166.432 146.225 166.426 146.225 166.42V164.429C146.09 164.42 145.956 164.41 145.822 164.4C145.822 164.405 145.822 164.41 145.822 164.415V166.403Z" fill="#EACF6D"/>
<path d="M145.217 166.336C145.35 166.35 145.484 166.363 145.619 166.376C145.62 166.369 145.62 166.363 145.62 166.356V164.374C145.485 164.363 145.35 164.352 145.218 164.34C145.217 164.346 145.217 164.352 145.217 164.358V166.336Z" fill="#EACF6D"/>
<path d="M144.59 166.272C144.723 166.289 144.856 166.305 144.991 166.319C144.992 166.313 144.993 166.306 144.993 166.299L145.017 164.329C144.881 164.316 144.748 164.302 144.615 164.287C144.615 164.294 144.614 164.3 144.614 164.306L144.59 166.272Z" fill="#EACF6D"/>
<path d="M144.01 166.198C144.143 166.218 144.276 166.236 144.411 166.253C144.413 166.245 144.413 166.236 144.413 166.227V164.268C144.278 164.252 144.143 164.236 144.012 164.219C144.011 164.228 144.01 164.236 144.01 164.244V166.198Z" fill="#EACF6D"/>
<path d="M143.407 166.097C143.539 166.119 143.672 166.14 143.807 166.16C143.809 166.15 143.81 166.14 143.81 166.13V164.184C143.674 164.166 143.541 164.147 143.409 164.127C143.408 164.137 143.407 164.146 143.407 164.156V166.097Z" fill="#EACF6D"/>
<path d="M142.801 165.99C142.932 166.015 143.065 166.04 143.201 166.063C143.203 166.052 143.204 166.04 143.204 166.028V164.097C143.068 164.075 142.934 164.054 142.804 164.031C142.802 164.042 142.801 164.053 142.801 164.064V165.99Z" fill="#EACF6D"/>
<path d="M142.199 165.863C142.33 165.893 142.463 165.921 142.598 165.949C142.601 165.935 142.602 165.921 142.602 165.907V163.993C142.466 163.968 142.333 163.943 142.203 163.917C142.2 163.929 142.199 163.942 142.199 163.955V165.863Z" fill="#EACF6D"/>
<path d="M141.594 165.721C141.724 165.755 141.856 165.789 141.991 165.821C141.995 165.805 141.997 165.789 141.997 165.773V163.879C141.86 163.849 141.728 163.819 141.599 163.788C141.596 163.803 141.594 163.819 141.594 163.834V165.721Z" fill="#EACF6D"/>
<path d="M140.989 165.541C141.117 165.581 141.248 165.621 141.384 165.659C141.39 165.641 141.392 165.622 141.392 165.603V163.731C141.255 163.697 141.123 163.661 140.997 163.624C140.992 163.641 140.989 163.659 140.989 163.679V165.541Z" fill="#EACF6D"/>
<path d="M140.385 165.333C140.511 165.382 140.642 165.429 140.777 165.475C140.785 165.454 140.788 165.432 140.788 165.408V163.565C140.651 163.522 140.52 163.478 140.397 163.432C140.39 163.454 140.385 163.476 140.385 163.499V165.333Z" fill="#EACF6D"/>
<path d="M139.78 165.059C139.901 165.121 140.03 165.181 140.166 165.238C140.177 165.213 140.183 165.186 140.183 165.156V163.346C140.044 163.29 139.916 163.233 139.799 163.174C139.787 163.2 139.78 163.23 139.78 163.26V165.059Z" fill="#EACF6D"/>
<path d="M139.175 164.697C139.287 164.782 139.412 164.864 139.548 164.943C139.567 164.913 139.578 164.877 139.578 164.838V163.063C139.435 162.978 139.316 162.889 139.223 162.799C139.193 162.834 139.175 162.879 139.175 162.929V162.751C139.043 162.609 138.974 162.463 138.974 162.312V164.528C139.022 164.573 139.072 164.616 139.127 164.659C139.157 164.624 139.175 164.578 139.175 164.528V164.697Z" fill="#EACF6D"/>
<path d="M159.034 162.989V164.898C159.034 164.946 159.051 164.991 159.079 165.025C159.29 164.87 159.44 164.705 159.522 164.528V162.312C159.522 162.548 159.351 162.775 159.034 162.989Z" fill="#EACF6D"/>
<ellipse cx="149.248" cy="162.31" rx="10.2728" ry="2.2157" transform="rotate(180 149.248 162.31)" fill="#FEDB35"/>
<path d="M141.137 162.049C141.091 162.069 141.049 162.088 141.011 162.106C141.049 162.124 141.091 162.143 141.137 162.162C141.535 162.33 142.146 162.494 142.948 162.636C144.544 162.919 146.771 163.099 149.25 163.099C151.728 163.099 153.956 162.919 155.551 162.636C156.353 162.494 156.965 162.33 157.362 162.162C157.409 162.143 157.451 162.124 157.488 162.106C157.451 162.088 157.409 162.069 157.362 162.049C156.965 161.882 156.353 161.718 155.551 161.576C153.956 161.292 151.728 161.113 149.25 161.113C146.771 161.113 144.544 161.292 142.948 161.576C142.146 161.718 141.535 161.882 141.137 162.049Z" fill="#F9A52A"/>
<path d="M140.757 161.946C140.757 161.946 140.758 161.947 140.759 161.948M157.742 161.946C157.742 161.946 157.741 161.947 157.741 161.948M157.742 162.266C157.742 162.266 157.742 162.265 157.741 162.263M140.759 162.263C140.758 162.265 140.757 162.266 140.757 162.266M141.137 162.049C141.091 162.069 141.049 162.088 141.011 162.106C141.049 162.124 141.091 162.143 141.137 162.162C141.535 162.33 142.146 162.494 142.948 162.636C144.544 162.919 146.771 163.099 149.25 163.099C151.728 163.099 153.956 162.919 155.551 162.636C156.353 162.494 156.965 162.33 157.362 162.162C157.409 162.143 157.451 162.124 157.488 162.106C157.451 162.088 157.409 162.069 157.362 162.049C156.965 161.882 156.353 161.718 155.551 161.576C153.956 161.292 151.728 161.113 149.25 161.113C146.771 161.113 144.544 161.292 142.948 161.576C142.146 161.718 141.535 161.882 141.137 162.049Z" stroke="#EACF6D" stroke-width="2"/>
<path d="M150.123 161.897C144.449 161.897 139.85 160.905 139.85 159.681V161.897C142.871 164.716 159.187 164.515 160.396 161.897V159.681C160.396 160.905 155.796 161.897 150.123 161.897Z" fill="#FEDB35"/>
<path d="M159.408 162.71C159.548 162.643 159.675 162.575 159.79 162.504V160.543C159.79 160.508 159.781 160.475 159.765 160.447C159.652 160.512 159.526 160.577 159.387 160.64V162.619C159.387 162.652 159.394 162.682 159.408 162.71Z" fill="#EACF6D"/>
<path d="M158.792 162.954C158.93 162.905 159.061 162.856 159.183 162.805V160.798C159.183 160.773 159.178 160.749 159.17 160.727C159.048 160.775 158.918 160.823 158.78 160.87V162.885C158.78 162.909 158.785 162.932 158.792 162.954Z" fill="#EACF6D"/>
<path d="M158.188 163.143C158.325 163.105 158.457 163.066 158.583 163.025V160.996C158.583 160.976 158.58 160.957 158.575 160.939C158.448 160.978 158.317 161.016 158.18 161.053V163.087C158.18 163.106 158.183 163.125 158.188 163.143Z" fill="#EACF6D"/>
<path d="M157.579 163.3C157.716 163.269 157.848 163.237 157.977 163.204V161.162C157.977 161.146 157.975 161.129 157.971 161.114C157.842 161.146 157.711 161.178 157.574 161.209V163.254C157.574 163.27 157.576 163.285 157.579 163.3Z" fill="#EACF6D"/>
<path d="M156.975 163.424C157.111 163.398 157.244 163.372 157.374 163.344V161.294C157.374 161.28 157.373 161.266 157.371 161.253C157.241 161.281 157.108 161.308 156.971 161.334V163.385C156.971 163.398 156.973 163.411 156.975 163.424Z" fill="#EACF6D"/>
<path d="M156.368 163.527C156.504 163.505 156.637 163.482 156.769 163.459V161.405C156.769 161.393 156.767 161.381 156.766 161.37C156.635 161.394 156.502 161.417 156.366 161.44V163.494C156.366 163.505 156.366 163.516 156.368 163.527Z" fill="#EACF6D"/>
<path d="M155.764 163.614C155.9 163.595 156.034 163.576 156.165 163.556V161.501C156.165 161.491 156.164 161.48 156.163 161.47C156.032 161.491 155.898 161.511 155.762 161.53V163.586C155.762 163.595 155.763 163.605 155.764 163.614Z" fill="#EACF6D"/>
<path d="M155.16 163.699C155.295 163.683 155.429 163.667 155.562 163.65V161.594C155.562 161.585 155.561 161.576 155.56 161.568C155.428 161.585 155.294 161.603 155.159 161.619V163.675C155.159 163.683 155.159 163.691 155.16 163.699Z" fill="#EACF6D"/>
<path d="M154.554 163.76C154.689 163.747 154.823 163.733 154.956 163.719V161.663C154.956 161.656 154.956 161.648 154.954 161.641C154.823 161.656 154.688 161.671 154.553 161.685V163.74C154.553 163.747 154.553 163.753 154.554 163.76Z" fill="#EACF6D"/>
<path d="M153.951 163.809C154.086 163.799 154.22 163.787 154.353 163.775V161.721C154.353 161.715 154.353 161.708 154.352 161.702C154.22 161.715 154.085 161.727 153.95 161.739V163.793C153.95 163.799 153.95 163.804 153.951 163.809Z" fill="#EACF6D"/>
<path d="M153.344 163.856C153.479 163.848 153.614 163.839 153.747 163.829V161.776C153.747 161.771 153.747 161.765 153.746 161.76C153.613 161.771 153.479 161.782 153.344 161.791V163.843C153.344 163.848 153.344 163.852 153.344 163.856Z" fill="#EACF6D"/>
<path d="M152.74 163.884C152.875 163.877 153.009 163.87 153.143 163.862V161.845C153.143 161.829 153.141 161.814 153.137 161.799C153.006 161.807 152.874 161.816 152.741 161.824C152.74 161.83 152.739 161.837 152.739 161.845V163.874C152.739 163.877 152.74 163.88 152.74 163.884Z" fill="#EACF6D"/>
<path d="M152.138 163.913C152.273 163.908 152.407 163.903 152.541 163.897V161.848C152.541 161.845 152.541 161.841 152.541 161.838C152.407 161.845 152.273 161.851 152.138 161.857V163.905C152.138 163.908 152.138 163.91 152.138 163.913Z" fill="#EACF6D"/>
<path d="M151.532 163.932C151.667 163.929 151.801 163.925 151.934 163.922V161.875C151.934 161.872 151.934 161.87 151.934 161.868C151.801 161.873 151.667 161.877 151.532 161.882V163.927C151.532 163.929 151.532 163.93 151.532 163.932Z" fill="#EACF6D"/>
<path d="M150.929 163.942C151.063 163.941 151.197 163.939 151.331 163.937V161.893C151.331 161.892 151.331 161.89 151.331 161.889C151.198 161.892 151.063 161.895 150.929 161.897V163.94V163.942Z" fill="#EACF6D"/>
<path d="M150.322 163.934C150.456 163.934 150.591 163.934 150.724 163.934V161.892V161.891C150.591 161.892 150.456 161.894 150.322 161.894V163.934Z" fill="#EACF6D"/>
<path d="M149.721 163.927C149.855 163.929 149.99 163.931 150.124 163.932V163.93V161.894C149.989 161.894 149.855 161.893 149.721 161.892V161.894V163.927Z" fill="#EACF6D"/>
<path d="M149.115 163.918C149.25 163.921 149.384 163.925 149.518 163.928C149.518 163.926 149.518 163.925 149.518 163.923V161.895C149.383 161.893 149.249 161.892 149.115 161.889V161.892V163.918Z" fill="#EACF6D"/>
<path d="M148.509 163.899C148.643 163.905 148.777 163.91 148.911 163.915C148.912 163.912 148.912 163.91 148.912 163.907V161.888C148.776 161.884 148.642 161.881 148.509 161.876C148.509 161.878 148.509 161.88 148.509 161.883V163.899Z" fill="#EACF6D"/>
<path d="M147.935 163.868C148.069 163.876 148.203 163.883 148.338 163.889C148.338 163.884 148.338 163.881 148.338 163.876L148.31 161.867C148.175 161.862 148.041 161.856 147.907 161.85C147.907 161.854 147.907 161.857 147.907 161.862L147.935 163.868Z" fill="#EACF6D"/>
<path d="M147.319 163.821C147.453 163.831 147.587 163.84 147.722 163.848C147.722 163.843 147.722 163.838 147.722 163.834L147.703 161.832C147.568 161.826 147.433 161.818 147.3 161.81C147.3 161.814 147.3 161.819 147.3 161.824L147.319 163.821Z" fill="#EACF6D"/>
<path d="M146.7 163.782C146.833 163.794 146.967 163.805 147.102 163.815C147.103 163.81 147.103 163.804 147.103 163.799V161.808C146.967 161.798 146.834 161.789 146.701 161.778C146.7 161.783 146.7 161.788 146.7 161.793V163.782Z" fill="#EACF6D"/>
<path d="M146.093 163.714C146.226 163.729 146.36 163.742 146.495 163.754C146.496 163.748 146.496 163.742 146.496 163.735V161.754C146.361 161.742 146.227 161.731 146.094 161.718C146.094 161.724 146.093 161.731 146.093 161.736V163.714Z" fill="#EACF6D"/>
<path d="M145.467 163.652C145.599 163.668 145.734 163.684 145.868 163.699C145.869 163.692 145.869 163.685 145.87 163.679L145.893 161.708C145.758 161.695 145.624 161.681 145.492 161.666C145.492 161.672 145.491 161.679 145.491 161.685L145.467 163.652Z" fill="#EACF6D"/>
<path d="M144.886 163.569C145.018 163.588 145.152 163.606 145.288 163.623C145.288 163.615 145.289 163.606 145.289 163.597V161.638C145.153 161.622 145.02 161.606 144.888 161.589C144.887 161.597 144.886 161.606 144.886 161.614V163.569Z" fill="#EACF6D"/>
<path d="M144.279 163.474C144.411 163.496 144.545 163.517 144.68 163.538C144.681 163.528 144.682 163.517 144.682 163.507V161.561C144.546 161.543 144.412 161.524 144.281 161.504C144.28 161.514 144.279 161.524 144.279 161.533V163.474Z" fill="#EACF6D"/>
<path d="M143.678 163.367C143.809 163.393 143.943 163.417 144.077 163.44C144.079 163.429 144.081 163.417 144.081 163.405V161.474C143.945 161.453 143.811 161.43 143.681 161.408C143.679 161.419 143.678 161.43 143.678 161.442V163.367Z" fill="#EACF6D"/>
<path d="M143.073 163.242C143.203 163.271 143.336 163.3 143.471 163.327C143.474 163.314 143.475 163.3 143.475 163.286V161.372C143.339 161.347 143.206 161.322 143.076 161.295C143.074 161.308 143.073 161.321 143.073 161.334V163.242Z" fill="#EACF6D"/>
<path d="M142.465 163.093C142.595 163.127 142.727 163.161 142.863 163.192C142.866 163.177 142.868 163.161 142.868 163.145V161.25C142.732 161.221 142.599 161.191 142.471 161.16C142.467 161.175 142.465 161.19 142.465 161.206V163.093Z" fill="#EACF6D"/>
<path d="M141.866 162.922C141.994 162.962 142.125 163.001 142.261 163.039C142.266 163.022 142.269 163.003 142.269 162.984V161.112C142.132 161.077 142 161.041 141.874 161.005C141.869 161.022 141.866 161.04 141.866 161.059V162.922Z" fill="#EACF6D"/>
<path d="M141.258 162.71C141.384 162.758 141.514 162.806 141.65 162.852C141.657 162.831 141.661 162.809 141.661 162.786V160.942C141.524 160.899 141.393 160.855 141.269 160.81C141.262 160.831 141.258 160.853 141.258 160.877V162.71Z" fill="#EACF6D"/>
<path d="M140.656 162.438C140.777 162.499 140.906 162.559 141.042 162.617C141.052 162.592 141.059 162.564 141.059 162.535V160.725C140.92 160.669 140.792 160.612 140.676 160.553C140.663 160.579 140.656 160.608 140.656 160.639V162.438Z" fill="#EACF6D"/>
<path d="M140.052 162.065C140.164 162.151 140.288 162.233 140.425 162.312C140.443 162.281 140.454 162.245 140.454 162.207V160.431C140.311 160.346 140.193 160.258 140.099 160.168C140.07 160.203 140.052 160.248 140.052 160.298V160.12C139.919 159.978 139.85 159.831 139.85 159.681V161.897C139.898 161.941 139.949 161.985 140.003 162.028C140.033 161.992 140.052 161.947 140.052 161.897V162.065Z" fill="#EACF6D"/>
<path d="M159.905 160.357V162.267C159.905 162.315 159.922 162.359 159.95 162.393C160.161 162.239 160.31 162.074 160.392 161.897V159.681C160.392 159.917 160.221 160.144 159.905 160.357Z" fill="#EACF6D"/>
<ellipse cx="150.121" cy="159.679" rx="10.2728" ry="2.2157" transform="rotate(180 150.121 159.679)" fill="#FEDB35"/>
<path d="M142.008 159.426C141.961 159.446 141.919 159.465 141.882 159.483C141.919 159.501 141.961 159.521 142.008 159.54C142.405 159.707 143.016 159.871 143.819 160.014C145.414 160.297 147.642 160.476 150.12 160.476C152.598 160.476 154.826 160.297 156.421 160.014C157.223 159.871 157.835 159.707 158.232 159.54C158.279 159.521 158.321 159.501 158.359 159.483C158.321 159.465 158.279 159.446 158.232 159.426C157.835 159.26 157.223 159.096 156.421 158.953C154.826 158.67 152.598 158.491 150.12 158.491C147.642 158.491 145.414 158.67 143.819 158.953C143.016 159.096 142.405 159.26 142.008 159.426Z" fill="#F9A52A"/>
<path d="M141.627 159.323C141.627 159.323 141.628 159.324 141.629 159.326M158.612 159.323C158.612 159.323 158.612 159.324 158.611 159.326M158.612 159.643C158.612 159.643 158.612 159.642 158.611 159.641M141.629 159.641C141.628 159.642 141.627 159.643 141.627 159.643M142.008 159.426C141.961 159.446 141.919 159.465 141.882 159.483C141.919 159.501 141.961 159.521 142.008 159.54C142.405 159.707 143.016 159.871 143.819 160.014C145.414 160.297 147.642 160.476 150.12 160.476C152.598 160.476 154.826 160.297 156.421 160.014C157.223 159.871 157.835 159.707 158.232 159.54C158.279 159.521 158.321 159.501 158.359 159.483C158.321 159.465 158.279 159.446 158.232 159.426C157.835 159.26 157.223 159.096 156.421 158.953C154.826 158.67 152.598 158.491 150.12 158.491C147.642 158.491 145.414 158.67 143.819 158.953C143.016 159.096 142.405 159.26 142.008 159.426Z" stroke="#EACF6D" stroke-width="2"/>
<path d="M149.513 169.786C156.704 169.786 162.534 167.543 162.534 164.777V159.769C162.534 162.456 156.704 164.634 149.513 164.634C142.322 164.634 136.492 162.456 136.492 159.769V164.777C136.492 167.543 142.322 169.786 149.513 169.786Z" fill="#FFE29E"/>
<path d="M149.512 169.784V164.633C149.126 164.633 148.744 164.626 148.368 164.614V169.765C148.744 169.777 149.126 169.784 149.512 169.784Z" fill="#FFF494"/>
<path d="M147.795 169.741V164.591C147.408 164.572 147.026 164.546 146.65 164.515V169.663C147.026 169.695 147.408 169.721 147.795 169.741Z" fill="#FFF494"/>
<path d="M146.08 169.611V164.466C145.691 164.426 145.309 164.38 144.935 164.327V169.469C145.309 169.523 145.691 169.571 146.08 169.611Z" fill="#FFF494"/>
<path d="M144.361 169.372V164.233C143.969 164.17 143.587 164.1 143.216 164.023V169.156C143.587 169.235 143.969 169.307 144.361 169.372Z" fill="#FFF494"/>
<path d="M142.646 169.025V163.895C142.25 163.803 141.868 163.703 141.501 163.596V168.717C141.868 168.827 142.25 168.93 142.646 169.025Z" fill="#FFF494"/>
<path d="M140.928 168.536V163.421C140.523 163.288 140.14 163.146 139.783 162.995V168.099C140.14 168.253 140.523 168.399 140.928 168.536Z" fill="#FFF494"/>
<path d="M139.213 167.838V162.743C138.786 162.537 138.403 162.318 138.068 162.088V167.164C138.403 167.401 138.786 167.626 139.213 167.838Z" fill="#FFF494"/>
<path d="M137.492 166.7V161.637C137.033 161.225 136.72 160.784 136.578 160.325H136.493V164.771C136.493 165.455 136.848 166.107 137.492 166.7Z" fill="#FFF494"/>
<path d="M151.232 169.736C150.856 169.755 150.474 169.768 150.088 169.774V164.623C150.474 164.617 150.856 164.604 151.232 164.586V169.736Z" fill="#FFF494"/>
<path d="M152.945 169.602C152.57 169.642 152.188 169.675 151.8 169.701V164.552C152.188 164.527 152.57 164.495 152.945 164.457V169.602Z" fill="#FFF494"/>
<path d="M154.666 169.371C154.292 169.433 153.911 169.488 153.521 169.536V164.392C153.911 164.345 154.292 164.291 154.666 164.231V169.371Z" fill="#FFF494"/>
<path d="M156.379 169.034C156.01 169.122 155.628 169.203 155.235 169.278V164.141C155.628 164.069 156.01 163.99 156.379 163.904V169.034Z" fill="#FFF494"/>
<path d="M158.099 168.537C157.735 168.66 157.353 168.775 156.954 168.881V163.757C157.353 163.653 157.735 163.541 158.099 163.421V168.537Z" fill="#FFF494"/>
<path d="M159.817 167.832C159.465 168.008 159.082 168.174 158.673 168.33V163.22C159.082 163.069 159.465 162.907 159.817 162.737V167.832Z" fill="#FFF494"/>
<path d="M161.531 166.706C161.216 166.996 160.832 167.273 160.386 167.532V162.445C160.832 162.193 161.216 161.925 161.531 161.643V166.706Z" fill="#FFF494"/>
<path d="M162.537 160.325V164.771C162.537 165.215 162.388 165.644 162.107 166.053V161.009C162.264 160.787 162.38 160.558 162.452 160.325H162.537Z" fill="#FFF494"/>
<path d="M149.512 169.778C142.321 169.778 136.491 167.536 136.491 164.771C136.486 164.962 136.491 165.343 136.592 165.772C136.774 166.144 137.056 166.496 137.418 166.826C138.095 167.441 139.066 167.989 140.254 168.445C142.63 169.359 145.904 169.922 149.512 169.922C153.121 169.922 156.394 169.359 158.771 168.445C159.958 167.989 160.929 167.441 161.606 166.826C161.856 166.599 162.067 166.361 162.233 166.115C162.338 165.96 162.532 165.546 162.532 164.902C162.503 165.322 162.362 165.618 162.233 165.844C160.956 168.094 155.746 169.778 149.512 169.778Z" fill="#FFC234"/>
<path d="M162.391 160.826C162.208 161.158 161.941 161.474 161.605 161.771C160.928 162.368 159.958 162.9 158.77 163.344C156.394 164.232 153.121 164.777 149.513 164.777C145.905 164.777 142.632 164.232 140.256 163.344C139.069 162.9 138.098 162.368 137.421 161.771C137.085 161.474 136.819 161.158 136.635 160.826C136.525 160.428 136.495 159.985 136.492 159.792C136.492 159.785 136.492 159.777 136.492 159.769C136.492 159.777 136.492 159.784 136.492 159.792C136.496 160.031 136.544 160.264 136.635 160.493C137.571 162.837 142.98 164.634 149.513 164.634C156.046 164.634 161.455 162.837 162.391 160.493C162.485 160.257 162.534 160.016 162.534 159.769C162.534 159.949 162.534 160.414 162.391 160.826Z" fill="white"/>
<path d="M162.534 159.761C162.534 162.448 156.704 164.626 149.512 164.626C142.321 164.626 136.492 162.448 136.492 159.761C136.492 157.074 142.321 154.896 149.512 154.896C156.704 154.896 162.534 157.074 162.534 159.761Z" fill="#FFF494"/>
<path d="M162.525 159.94C162.53 159.881 162.534 159.821 162.534 159.761C162.534 157.074 156.704 154.896 149.512 154.896C142.321 154.896 136.492 157.074 136.492 159.761C136.492 159.817 136.494 159.871 136.499 159.927C136.75 157.284 142.48 155.171 149.511 155.171C156.555 155.171 162.292 157.291 162.525 159.94Z" fill="#FFF8EA"/>
<path d="M160.102 159.762C160.102 161.974 155.361 163.768 149.514 163.768C143.666 163.768 138.925 161.974 138.925 159.762C138.925 157.549 143.666 155.755 149.514 155.755C155.361 155.755 160.102 157.549 160.102 159.762Z" fill="#FFF494"/>
<path d="M160.099 159.671C160.006 161.775 155.302 163.47 149.512 163.47C143.745 163.47 139.055 161.788 138.927 159.695C138.926 159.717 138.925 159.74 138.925 159.762C138.925 161.974 143.666 163.768 149.514 163.768C155.361 163.768 160.102 161.974 160.102 159.762C160.102 159.731 160.101 159.701 160.099 159.671Z" fill="#FFC234"/>
<path d="M152.091 159.492C151.692 159.507 151.382 159.572 151.159 159.688C150.936 159.803 150.729 159.999 150.538 160.276C150.346 160.552 150.151 160.809 149.953 161.044C149.755 161.279 149.523 161.485 149.257 161.659C148.991 161.835 148.681 161.973 148.326 162.074C147.971 162.175 147.54 162.236 147.03 162.255C146.178 162.287 145.472 162.157 144.91 161.864C144.344 161.573 144.006 161.167 143.895 160.65L142.3 160.71L142.275 160.055L143.901 159.994C144.019 159.487 144.384 159.078 144.999 158.77C145.608 158.458 146.391 158.285 147.349 158.248L147.402 159.64C146.877 159.659 146.476 159.729 146.198 159.849C145.92 159.97 145.784 160.132 145.792 160.335C145.799 160.516 145.91 160.653 146.126 160.747C146.336 160.838 146.625 160.877 146.993 160.862C147.366 160.849 147.661 160.78 147.879 160.656C148.091 160.533 148.294 160.34 148.486 160.077C148.673 159.814 148.871 159.567 149.078 159.333C149.281 159.098 149.517 158.892 149.782 158.717C150.048 158.543 150.361 158.402 150.721 158.294C151.08 158.187 151.514 158.124 152.023 158.105C152.885 158.073 153.594 158.196 154.15 158.475C154.706 158.75 155.039 159.143 155.149 159.653L156.669 159.596L156.693 160.25L155.165 160.308C155.072 160.91 154.714 161.384 154.091 161.729C153.463 162.072 152.627 162.262 151.583 162.302L151.531 160.914C152.106 160.893 152.542 160.808 152.839 160.659C153.131 160.508 153.273 160.305 153.263 160.049C153.256 159.863 153.149 159.72 152.944 159.621C152.733 159.522 152.449 159.478 152.091 159.492Z" fill="white"/>
<path d="M160.062 160.111C160.089 159.996 160.102 159.88 160.102 159.762C160.102 157.549 155.361 155.755 149.514 155.755C143.666 155.755 138.925 157.549 138.925 159.762C138.925 159.88 138.939 159.996 138.965 160.111C139.433 158.392 143.977 157.043 149.514 157.043C155.05 157.043 159.594 158.392 160.062 160.111Z" fill="#FFC234"/>
<path d="M149.513 164.372C156.704 164.372 162.534 162.13 162.534 159.364V154.356C162.534 157.043 156.704 159.221 149.513 159.221C142.322 159.221 136.493 157.043 136.493 154.356V159.364C136.493 162.13 142.322 164.372 149.513 164.372Z" fill="#FFE29E"/>
<path d="M149.512 164.372V159.221C149.126 159.22 148.744 159.214 148.368 159.202V164.353C148.744 164.365 149.126 164.372 149.512 164.372Z" fill="#FFF494"/>
<path d="M147.795 164.329V159.179C147.408 159.16 147.026 159.135 146.65 159.103V164.251C147.026 164.283 147.408 164.309 147.795 164.329Z" fill="#FFF494"/>
<path d="M146.08 164.196V159.05C145.691 159.011 145.309 158.964 144.935 158.912V164.054C145.309 164.108 145.691 164.155 146.08 164.196Z" fill="#FFF494"/>
<path d="M144.361 163.959V158.819C143.969 158.756 143.587 158.686 143.216 158.609V163.742C143.587 163.822 143.969 163.893 144.361 163.959Z" fill="#FFF494"/>
<path d="M142.646 163.612V158.483C142.25 158.391 141.868 158.29 141.501 158.183V163.304C141.868 163.414 142.25 163.517 142.646 163.612Z" fill="#FFF494"/>
<path d="M140.928 163.124V158.008C140.523 157.876 140.14 157.733 139.783 157.583V162.686C140.14 162.841 140.523 162.987 140.928 163.124Z" fill="#FFF494"/>
<path d="M139.213 162.425V157.329C138.786 157.123 138.403 156.904 138.068 156.674V161.751C138.403 161.988 138.786 162.213 139.213 162.425Z" fill="#FFF494"/>
<path d="M137.492 161.291V156.228C137.033 155.816 136.72 155.376 136.578 154.916H136.493V159.363C136.493 160.046 136.848 160.697 137.492 161.291Z" fill="#FFF494"/>
<path d="M151.232 164.324C150.856 164.344 150.474 164.357 150.088 164.363V159.212C150.474 159.206 150.856 159.193 151.232 159.175V164.324Z" fill="#FFF494"/>
<path d="M152.945 164.194C152.57 164.233 152.188 164.267 151.8 164.293V159.144C152.188 159.118 152.57 159.086 152.945 159.048V164.194Z" fill="#FFF494"/>
<path d="M154.666 163.959C154.292 164.02 153.911 164.076 153.521 164.124V158.98C153.911 158.933 154.292 158.879 154.666 158.819V163.959Z" fill="#FFF494"/>
<path d="M156.38 163.62C156.01 163.708 155.628 163.79 155.235 163.864V158.728C155.628 158.655 156.01 158.576 156.38 158.491V163.62Z" fill="#FFF494"/>
<path d="M158.099 163.126C157.735 163.249 157.353 163.364 156.954 163.471V158.346C157.353 158.242 157.735 158.13 158.099 158.01V163.126Z" fill="#FFF494"/>
<path d="M159.817 162.431C159.464 162.606 159.082 162.772 158.673 162.928V157.818C159.082 157.667 159.464 157.506 159.817 157.336V162.431Z" fill="#FFF494"/>
<path d="M161.532 161.296C161.217 161.586 160.832 161.862 160.387 162.121V157.034C160.832 156.782 161.217 156.514 161.532 156.233V161.296Z" fill="#FFF494"/>
<path d="M162.537 154.916V159.363C162.537 159.806 162.388 160.235 162.107 160.645V155.6C162.264 155.378 162.38 155.149 162.452 154.916H162.537Z" fill="#FFF494"/>
<path d="M149.512 164.367C142.321 164.367 136.491 162.125 136.491 159.359C136.486 159.55 136.491 159.932 136.592 160.361C136.774 160.732 137.056 161.085 137.418 161.414C138.095 162.029 139.066 162.577 140.254 163.034C142.63 163.948 145.904 164.51 149.512 164.51C153.121 164.51 156.394 163.948 158.771 163.034C159.958 162.577 160.929 162.029 161.606 161.414C161.856 161.187 162.067 160.95 162.233 160.703C162.338 160.549 162.532 160.134 162.532 159.491C162.503 159.91 162.362 160.206 162.233 160.432C160.956 162.682 155.746 164.367 149.512 164.367Z" fill="#FFC234"/>
<path d="M162.391 155.412C162.208 155.744 161.941 156.06 161.605 156.357C160.929 156.954 159.958 157.486 158.77 157.93C156.394 158.818 153.121 159.364 149.513 159.364C145.905 159.364 142.632 158.818 140.256 157.93C139.069 157.486 138.098 156.954 137.421 156.357C137.085 156.06 136.819 155.744 136.635 155.412C136.525 155.014 136.495 154.572 136.493 154.378C136.493 154.371 136.493 154.364 136.493 154.356C136.493 154.363 136.493 154.37 136.493 154.378C136.496 154.617 136.544 154.85 136.635 155.079C137.571 157.423 142.98 159.221 149.513 159.221C156.046 159.221 161.455 157.423 162.391 155.079C162.485 154.844 162.534 154.602 162.534 154.356C162.534 154.536 162.534 155 162.391 155.412Z" fill="white"/>
<path d="M162.534 154.36C162.534 157.046 156.704 159.225 149.512 159.225C142.321 159.225 136.492 157.046 136.492 154.36C136.492 151.673 142.321 149.495 149.512 149.495C156.704 149.495 162.534 151.673 162.534 154.36Z" fill="#FFF494"/>
<path d="M162.525 154.538C162.53 154.479 162.534 154.42 162.534 154.36C162.534 151.673 156.704 149.495 149.512 149.495C142.321 149.495 136.492 151.673 136.492 154.36C136.492 154.415 136.494 154.47 136.499 154.524C136.75 151.882 142.48 149.769 149.511 149.769C156.555 149.769 162.292 151.889 162.525 154.538Z" fill="#FFF8EA"/>
<path d="M160.102 154.35C160.102 156.563 155.361 158.357 149.514 158.357C143.666 158.357 138.925 156.563 138.925 154.35C138.925 152.138 143.666 150.344 149.514 150.344C155.361 150.344 160.102 152.138 160.102 154.35Z" fill="#FFF494"/>
<path d="M160.099 154.26C160.006 156.364 155.302 158.059 149.512 158.059C143.745 158.059 139.055 156.377 138.927 154.284C138.926 154.306 138.925 154.328 138.925 154.351C138.925 156.563 143.666 158.357 149.513 158.357C155.361 158.357 160.102 156.563 160.102 154.351C160.102 154.32 160.101 154.29 160.099 154.26Z" fill="#FFC234"/>
<path d="M152.091 154.083C151.692 154.099 151.382 154.164 151.159 154.279C150.936 154.395 150.729 154.591 150.538 154.867C150.346 155.144 150.151 155.4 149.953 155.636C149.755 155.871 149.523 156.076 149.257 156.251C148.991 156.426 148.681 156.564 148.326 156.665C147.971 156.767 147.54 156.827 147.03 156.846C146.178 156.878 145.472 156.748 144.91 156.456C144.344 156.164 144.006 155.759 143.895 155.241L142.3 155.301L142.275 154.647L143.901 154.586C144.019 154.078 144.384 153.67 144.999 153.361C145.608 153.05 146.391 152.876 147.349 152.84L147.402 154.231C146.877 154.251 146.476 154.321 146.198 154.441C145.92 154.561 145.784 154.724 145.792 154.927C145.799 155.108 145.91 155.245 146.126 155.339C146.336 155.43 146.625 155.468 146.993 155.454C147.366 155.44 147.661 155.371 147.879 155.248C148.091 155.125 148.294 154.932 148.486 154.669C148.673 154.406 148.871 154.158 149.078 153.925C149.281 153.689 149.517 153.484 149.782 153.309C150.048 153.134 150.361 152.993 150.721 152.886C151.08 152.779 151.514 152.716 152.023 152.697C152.885 152.664 153.594 152.787 154.15 153.066C154.706 153.342 155.039 153.735 155.149 154.245L156.669 154.187L156.693 154.842L155.165 154.899C155.072 155.502 154.714 155.975 154.091 156.321C153.463 156.663 152.627 156.854 151.583 156.893L151.531 155.506C152.106 155.485 152.542 155.399 152.839 155.251C153.131 155.1 153.273 154.896 153.263 154.641C153.256 154.454 153.149 154.311 152.944 154.212C152.733 154.113 152.449 154.07 152.091 154.083Z" fill="white"/>
<path d="M160.062 154.7C160.089 154.584 160.102 154.469 160.102 154.35C160.102 152.138 155.361 150.344 149.514 150.344C143.666 150.344 138.925 152.138 138.925 154.35C138.925 154.469 138.939 154.584 138.965 154.7C139.433 152.98 143.977 151.632 149.514 151.632C155.05 151.632 159.594 152.98 160.062 154.7Z" fill="#FFC234"/>
<path d="M149.512 158.959C156.704 158.959 162.534 156.717 162.534 153.951V148.944C162.534 151.63 156.704 153.809 149.512 153.809C142.321 153.809 136.492 151.63 136.492 148.944V153.951C136.492 156.717 142.321 158.959 149.512 158.959Z" fill="#FFE29E"/>
<path d="M149.512 158.959V153.809C149.126 153.808 148.744 153.802 148.367 153.789V158.94C148.744 158.953 149.126 158.959 149.512 158.959Z" fill="#FFF494"/>
<path d="M147.794 158.918V153.768C147.408 153.749 147.026 153.724 146.65 153.692V158.84C147.026 158.872 147.408 158.898 147.794 158.918Z" fill="#FFF494"/>
<path d="M146.08 158.785V153.639C145.691 153.599 145.309 153.553 144.935 153.5V158.642C145.309 158.696 145.691 158.744 146.08 158.785Z" fill="#FFF494"/>
<path d="M144.361 158.55V153.41C143.969 153.347 143.587 153.277 143.216 153.2V158.333C143.587 158.412 143.969 158.484 144.361 158.55Z" fill="#FFF494"/>
<path d="M142.646 158.205V153.076C142.25 152.984 141.867 152.883 141.501 152.776V157.897C141.867 158.008 142.25 158.11 142.646 158.205Z" fill="#FFF494"/>
<path d="M140.926 157.712V152.596C140.522 152.464 140.14 152.321 139.782 152.171V157.274C140.14 157.429 140.522 157.575 140.926 157.712Z" fill="#FFF494"/>
<path d="M139.212 157.016V151.921C138.786 151.715 138.403 151.496 138.068 151.265V156.342C138.403 156.579 138.786 156.804 139.212 157.016Z" fill="#FFF494"/>
<path d="M137.492 155.874V150.811C137.032 150.399 136.719 149.959 136.578 149.498H136.492V153.945C136.492 154.629 136.848 155.28 137.492 155.874Z" fill="#FFF494"/>
<path d="M151.232 158.911C150.855 158.93 150.473 158.943 150.087 158.95V153.799C150.473 153.793 150.855 153.78 151.232 153.762V158.911Z" fill="#FFF494"/>
<path d="M152.945 158.779C152.57 158.818 152.188 158.851 151.8 158.877V153.729C152.188 153.703 152.57 153.671 152.945 153.632V158.779Z" fill="#FFF494"/>
<path d="M154.666 158.551C154.292 158.613 153.911 158.669 153.521 158.717V153.573C153.911 153.526 154.292 153.472 154.666 153.412V158.551Z" fill="#FFF494"/>
<path d="M156.379 158.207C156.01 158.296 155.628 158.378 155.234 158.452V153.315C155.628 153.243 156.01 153.164 156.379 153.078V158.207Z" fill="#FFF494"/>
<path d="M158.098 157.711C157.734 157.834 157.352 157.949 156.953 158.056V152.931C157.352 152.827 157.734 152.715 158.098 152.595V157.711Z" fill="#FFF494"/>
<path d="M159.818 157.017C159.465 157.192 159.082 157.358 158.673 157.514V152.404C159.082 152.253 159.465 152.092 159.818 151.922V157.017Z" fill="#FFF494"/>
<path d="M161.531 155.88C161.216 156.17 160.831 156.446 160.386 156.705V151.618C160.831 151.366 161.216 151.098 161.531 150.817V155.88Z" fill="#FFF494"/>
<path d="M162.537 149.498V153.945C162.537 154.388 162.388 154.818 162.107 155.228V150.183C162.264 149.96 162.38 149.732 162.451 149.498H162.537Z" fill="#FFF494"/>
<path d="M149.512 158.953C142.321 158.953 136.491 156.711 136.491 153.945C136.486 154.136 136.491 154.517 136.592 154.946C136.774 155.317 137.056 155.67 137.418 156C138.095 156.615 139.066 157.163 140.254 157.619C142.63 158.533 145.904 159.096 149.512 159.096C153.121 159.096 156.394 158.533 158.771 157.619C159.958 157.163 160.929 156.615 161.606 156C161.856 155.773 162.067 155.536 162.233 155.289C162.338 155.134 162.532 154.72 162.532 154.076C162.503 154.496 162.362 154.791 162.233 155.018C160.956 157.268 155.746 158.953 149.512 158.953Z" fill="#FFC234"/>
<path d="M162.39 150C162.207 150.332 161.941 150.648 161.605 150.944C160.928 151.542 159.957 152.074 158.769 152.518C156.393 153.405 153.121 153.951 149.512 153.951C145.904 153.951 142.631 153.405 140.255 152.518C139.068 152.074 138.097 151.542 137.421 150.944C137.085 150.648 136.819 150.332 136.635 150C136.525 149.603 136.494 149.16 136.492 148.966C136.492 148.958 136.492 148.951 136.492 148.944C136.492 148.95 136.492 148.958 136.492 148.966C136.495 149.204 136.544 149.438 136.635 149.667C137.57 152.011 142.98 153.809 149.512 153.809C156.046 153.809 161.455 152.011 162.39 149.667C162.485 149.431 162.534 149.189 162.534 148.944C162.534 149.123 162.534 149.587 162.39 150Z" fill="white"/>
<path d="M162.534 148.948C162.534 151.634 156.704 153.813 149.512 153.813C142.321 153.813 136.492 151.634 136.492 148.948C136.492 146.261 142.321 144.083 149.512 144.083C156.704 144.083 162.534 146.261 162.534 148.948Z" fill="#FFF494"/>
<path d="M162.525 149.126C162.53 149.067 162.534 149.008 162.534 148.948C162.534 146.261 156.704 144.083 149.512 144.083C142.321 144.083 136.492 146.261 136.492 148.948C136.492 149.003 136.494 149.058 136.499 149.112C136.75 146.47 142.48 144.357 149.511 144.357C156.555 144.357 162.292 146.477 162.525 149.126Z" fill="#FFF8EA"/>
<path d="M160.102 148.941C160.102 151.154 155.361 152.948 149.514 152.948C143.666 152.948 138.925 151.154 138.925 148.941C138.925 146.729 143.666 144.935 149.514 144.935C155.361 144.935 160.102 146.729 160.102 148.941Z" fill="#FFF494"/>
<path d="M160.099 148.853C160.006 150.957 155.301 152.652 149.513 152.652C143.746 152.652 139.055 150.97 138.927 148.877C138.926 148.899 138.925 148.921 138.925 148.944C138.925 151.156 143.666 152.95 149.514 152.95C155.361 152.95 160.102 151.156 160.102 148.944C160.102 148.913 160.101 148.883 160.099 148.853Z" fill="#FFC234"/>
<path d="M160.062 149.291C160.088 149.176 160.102 149.06 160.102 148.941C160.102 146.729 155.361 144.935 149.514 144.935C143.666 144.935 138.925 146.729 138.925 148.941C138.925 149.06 138.939 149.176 138.965 149.291C139.433 147.571 143.977 146.223 149.514 146.223C155.05 146.223 159.594 147.571 160.062 149.291Z" fill="#FFC234"/>
<path d="M158.185 165.751C162.826 170.122 169.503 170.57 173.1 166.752C176.697 162.933 175.95 156.428 171.309 152.057C165.275 146.372 159.894 147.104 156.297 150.922C152.699 154.741 153.545 161.38 158.185 165.751Z" fill="#FFC234"/>
<path d="M159.461 165.433C164.101 169.804 170.779 170.252 174.376 166.434C177.973 162.615 177.127 155.976 172.487 151.605C167.846 147.234 161.169 146.786 157.572 150.604C153.974 154.423 154.82 161.062 159.461 165.433Z" fill="#FFF494"/>
<path d="M160.275 150.74L173.647 164.028L171.816 165.944L158.529 152.444L160.275 150.74Z" fill="#FFC234"/>
<path d="M161.383 150.485L174.201 163.091C176.587 160.025 172.285 153.764 170.965 152.785C167.081 149.037 162.958 149.69 161.383 150.485Z" fill="#FFC234"/>
<path fill-rule="evenodd" clip-rule="evenodd" d="M172.629 164.772C169.987 167.576 164.785 167.443 160.957 163.837C157.13 160.232 156.687 155.046 159.328 152.242C161.969 149.438 167.172 149.571 170.999 153.177C174.826 156.782 175.27 161.968 172.629 164.772ZM173.435 165.531C170.243 168.92 164.316 168.522 160.198 164.643C156.08 160.763 155.329 154.872 158.522 151.483C161.714 148.094 167.64 148.492 171.758 152.371C175.876 156.25 176.627 162.142 173.435 165.531Z" fill="#FFE7AD"/>
</svg>
