<svg width="221" height="184" viewBox="0 0 221 184" fill="none" xmlns="http://www.w3.org/2000/svg">
<path opacity="0.6" d="M110.657 184C171.426 184 220.688 179.008 220.688 172.849C220.688 166.691 171.426 161.698 110.657 161.698C49.8884 161.698 0.625702 166.691 0.625702 172.849C0.625702 179.008 49.8884 184 110.657 184Z" fill="#3285FF" fill-opacity="0.16"/>
<path d="M140.921 8.77205V163.341C140.921 168.186 137.089 172.113 132.36 172.113H57.2388C54.8631 172.113 52.715 171.122 51.1634 169.522C49.627 167.935 48.6777 165.752 48.6777 163.341V8.77205C48.6777 3.92687 52.5101 0 57.2388 0H132.36C133.758 0 135.077 0.343033 136.244 0.952325C139.021 2.40219 140.921 5.35924 140.921 8.77205Z" fill="#1F1A1A"/>
<path d="M140.923 8.77212V163.341C140.923 168.186 137.09 172.113 132.362 172.113H57.2401C54.8644 172.113 52.7163 171.123 51.1647 169.522L136.245 0.952393C139.022 2.40225 140.923 5.35931 140.923 8.77212Z" fill="#1F1A1A"/>
<path d="M48.6781 48.2275H47.1598C46.2683 48.2275 45.5465 47.487 45.5465 46.5746V29.4609C45.5465 28.5475 46.2692 27.808 47.1598 27.808H48.6781V48.2275Z" fill="#1F1A1A"/>
<path d="M140.925 42.8865H142.168C142.897 42.8865 143.488 42.2811 143.488 41.5338V27.6115C143.488 26.8642 142.897 26.2588 142.168 26.2588H140.925V42.8865Z" fill="#343434"/>
<path d="M48.6781 71.4119H47.1598C46.2683 71.4119 45.5465 70.6715 45.5465 69.759V52.6454C45.5465 51.7319 46.2692 50.9915 47.1598 50.9915H48.6781V71.4119Z" fill="#1F1A1A"/>
<path d="M52.9488 158.759V13.3559C52.9488 8.39699 56.8723 4.37683 61.712 4.37683H127.889C132.729 4.37683 136.652 8.39699 136.652 13.3559V158.76C136.652 163.719 132.729 167.738 127.89 167.738H61.711C56.8714 167.738 52.9488 163.718 52.9488 158.759Z" fill="white"/>
<path opacity="0.6" d="M122.495 25.6238H67.1032C66.2649 25.6238 65.5849 24.9271 65.5849 24.068V21.1411C65.5849 20.2821 66.2649 19.5853 67.1032 19.5853H122.495C123.334 19.5853 124.014 20.2821 124.014 21.1411V24.068C124.014 24.928 123.334 25.6238 122.495 25.6238Z" fill="#DCDCDC"/>
<path opacity="0.6" d="M84.9899 39.8607H59.461C58.8521 39.8607 58.3589 39.3553 58.3589 38.7315V36.6062C58.3589 35.9824 58.8521 35.4771 59.461 35.4771H84.9899C85.5988 35.4771 86.0919 35.9824 86.0919 36.6062V38.7315C86.0919 39.3553 85.5988 39.8607 84.9899 39.8607Z" fill="#DCDCDC"/>
<path opacity="0.6" d="M84.9899 48.2734H59.461C58.8521 48.2734 58.3589 47.7681 58.3589 47.1442V45.019C58.3589 44.3951 58.8521 43.8898 59.461 43.8898H84.9899C85.5988 43.8898 86.0919 44.3951 86.0919 45.019V47.1442C86.0919 47.7671 85.5988 48.2734 84.9899 48.2734Z" fill="#DCDCDC"/>
<path opacity="0.6" d="M84.9899 55.9686H59.461C58.8521 55.9686 58.3589 55.4632 58.3589 54.8394V52.7141C58.3589 52.0903 58.8521 51.585 59.461 51.585H84.9899C85.5988 51.585 86.0919 52.0903 86.0919 52.7141V54.8394C86.0919 55.4623 85.5988 55.9686 84.9899 55.9686Z" fill="#DCDCDC"/>
<path d="M102.531 87.0144H86.0905V159.194H102.531V87.0144Z" fill="#FFF494"/>
<path d="M86.0907 140.155C91.9157 138.312 97.3766 135.007 102.531 131.454V159.193H86.0907V140.155Z" fill="#3285FF"/>
<path d="M75.6606 107.071H59.2201V159.194H75.6606V107.071Z" fill="#FFF494"/>
<path d="M72.618 141.381C73.6433 141.534 74.6571 141.627 75.6614 141.667V159.197H59.2201V141.831C62.1297 140.85 66.3861 140.448 72.618 141.381Z" fill="#3285FF"/>
<path d="M129.405 65.4509H112.964V159.195H129.405V65.4509Z" fill="#FFF494"/>
<path d="M129.405 116.828V159.196H112.965V124.021C118.808 119.955 124.254 116.807 129.405 116.828Z" fill="#3285FF"/>
<path d="M128.787 37.6631L113.825 40.9505L117.844 44.9882L94.9363 68.9167L86.8977 60.8375L56.5073 92.5829L60.5114 96.6079L86.9745 68.9653L95.0131 77.0445L121.848 49.0132L125.865 53.0508L128.787 37.6631Z" fill="#4F5665"/>
<path opacity="0.5" d="M220.874 21.314L216.624 26.0357L216.457 26.2233L205.744 38.1196L203.298 40.8366C202.156 40.7482 201.029 40.684 199.921 40.6364C199.879 40.6364 199.84 40.6335 199.798 40.6335C198.518 40.58 197.26 40.5557 196.035 40.5509H195.566C195.49 40.5509 195.414 40.5509 195.339 40.5538L195.558 40.3138L195.676 40.1855L197.953 37.6871L205.68 29.2085L205.967 28.8927L214.2 19.8612L214.771 19.2334L218.409 15.2444C219.469 17.1267 220.304 19.1625 220.874 21.314Z" fill="white"/>
<path d="M190.985 163.797C190.986 163.821 190.986 163.843 190.986 163.868C190.986 164.741 190.531 165.581 189.693 166.364C189.488 166.557 189.261 166.744 189.011 166.928C188.313 167.444 187.445 167.93 186.43 168.381C186.21 168.48 185.982 168.575 185.748 168.669C184.96 168.987 184.097 169.284 183.166 169.559C182.943 169.625 182.716 169.69 182.484 169.754C181.669 169.977 180.807 170.184 179.902 170.373C179.677 170.42 179.45 170.466 179.22 170.51C178.391 170.671 177.529 170.816 176.638 170.945C176.413 170.978 176.186 171.009 175.957 171.04C175.118 171.152 174.257 171.249 173.375 171.333C173.149 171.353 172.922 171.374 172.693 171.393C171.85 171.464 170.988 171.52 170.112 171.563C169.886 171.574 169.658 171.584 169.43 171.593C168.582 171.626 167.721 171.646 166.848 171.65C166.697 171.651 166.544 171.651 166.392 171.651C166.317 171.651 166.241 171.651 166.166 171.65C165.294 171.649 164.433 171.632 163.584 171.601C163.355 171.593 163.129 171.583 162.902 171.574C162.256 171.545 161.619 171.507 160.99 171.463C160.765 171.447 160.542 171.43 160.32 171.412C160.092 171.394 159.865 171.375 159.638 171.354C158.756 171.275 157.895 171.18 157.057 171.071C156.827 171.041 156.601 171.011 156.375 170.979C155.841 170.904 155.318 170.823 154.805 170.736C154.463 170.678 154.126 170.618 153.794 170.555C153.564 170.512 153.336 170.467 153.112 170.421C152.209 170.238 151.346 170.035 150.529 169.818C150.368 169.775 150.209 169.73 150.05 169.687C149.982 169.667 149.915 169.648 149.847 169.628C149.478 169.522 149.119 169.413 148.771 169.299C148.244 169.127 147.742 168.948 147.266 168.762C147.032 168.67 146.805 168.578 146.584 168.484C145.713 168.109 144.945 167.71 144.294 167.289C144.195 167.225 144.096 167.159 144.002 167.094C143.884 167.012 143.77 166.93 143.662 166.846C143.542 166.756 143.429 166.663 143.321 166.571C142.337 165.731 141.798 164.82 141.798 163.871C141.798 163.804 141.801 163.737 141.808 163.67L141.811 158.292L143.321 158.29L144.003 158.289L146.585 158.285L147.267 158.284L149.282 158.281L149.849 158.28L150.531 158.279L153.114 158.275L153.795 158.274L156.377 158.27L157.059 158.269L159.64 158.265L160.322 158.264L162.904 158.26L163.586 158.259L166.168 158.255L166.85 158.254L169.432 158.25L170.114 158.249L172.695 158.244L173.377 158.243L175.958 158.239L176.64 158.238L179.222 158.234L179.904 158.233L182.486 158.23L183.168 158.229H183.336L185.75 158.225L186.432 158.224L189.013 158.219L189.695 158.218L190.979 158.216L190.985 163.797Z" fill="#FFF494"/>
<path d="M144.007 158.29V167.096C143.889 167.015 143.775 166.932 143.667 166.849C143.548 166.758 143.435 166.666 143.327 166.574V158.292L144.007 158.29Z" fill="#4F5665"/>
<path d="M147.273 158.288V168.768C147.04 168.676 146.813 168.584 146.592 168.489V158.29L147.273 158.288Z" fill="#4F5665"/>
<path d="M150.533 158.281V169.821C150.371 169.778 150.212 169.734 150.054 169.69C149.986 169.67 149.919 169.651 149.852 169.631V158.282L150.533 158.281Z" fill="#4F5665"/>
<path d="M153.795 158.272V170.555C153.566 170.511 153.339 170.466 153.114 170.42V158.273L153.795 158.272Z" fill="#4F5665"/>
<path d="M157.062 158.262V171.067C156.833 171.037 156.607 171.007 156.381 170.974V158.264L157.062 158.262Z" fill="#4F5665"/>
<path d="M160.326 158.26V171.411C160.098 171.393 159.871 171.373 159.645 171.353V158.261L160.326 158.26Z" fill="#4F5665"/>
<path d="M163.588 158.257V171.602C163.359 171.594 163.133 171.584 162.907 171.575V158.259L163.588 158.257Z" fill="#4F5665"/>
<path d="M166.845 158.249V171.648C166.694 171.649 166.541 171.649 166.389 171.649C166.314 171.649 166.239 171.649 166.164 171.648V158.249H166.845Z" fill="#4F5665"/>
<path d="M170.115 158.247V171.563C169.89 171.574 169.663 171.584 169.434 171.593V158.248L170.115 158.247Z" fill="#4F5665"/>
<path d="M173.374 158.243V171.335C173.149 171.355 172.921 171.375 172.693 171.395V158.244L173.374 158.243Z" fill="#4F5665"/>
<path d="M176.638 158.235V170.944C176.413 170.977 176.186 171.008 175.957 171.039V158.235H176.638Z" fill="#4F5665"/>
<path d="M179.902 158.23V170.371C179.677 170.419 179.451 170.465 179.221 170.508V158.231L179.902 158.23Z" fill="#4F5665"/>
<path d="M183.17 158.226V169.559C182.947 169.625 182.72 169.691 182.489 169.754V158.228L183.17 158.226Z" fill="#4F5665"/>
<path d="M186.426 158.222V168.382C186.207 168.48 185.979 168.576 185.745 168.67V158.222H186.426Z" fill="#4F5665"/>
<path d="M189.694 158.216V166.364C189.49 166.556 189.262 166.744 189.013 166.927V158.216H189.694Z" fill="#4F5665"/>
<path d="M190.983 158.283C190.983 162.234 179.978 165.438 166.399 165.438C164.544 165.438 162.736 165.378 160.999 165.265C158.813 165.123 156.738 164.895 154.816 164.596C153.099 164.329 151.505 164.004 150.064 163.631C149.623 163.517 149.196 163.398 148.785 163.275C146.977 162.735 145.461 162.112 144.31 161.428C144.084 161.294 143.872 161.159 143.677 161.021C142.476 160.178 141.814 159.254 141.814 158.285C141.814 158.197 141.821 158.109 141.834 158.02C142.311 154.192 153.127 151.131 166.399 151.131C169.665 151.131 172.781 151.317 175.632 151.653C176.183 151.718 176.724 151.788 177.254 151.865C179.57 152.197 181.678 152.632 183.512 153.15C183.916 153.263 184.306 153.382 184.683 153.503C186.022 153.937 187.181 154.417 188.127 154.937C189.102 155.472 189.852 156.047 190.338 156.652C190.693 157.094 190.906 157.551 190.964 158.02C190.977 158.107 190.983 158.195 190.983 158.283Z" fill="#FFCE4F"/>
<path opacity="0.3" d="M190.339 156.651L161 165.265C158.815 165.123 156.74 164.896 154.817 164.597L188.129 154.935C189.105 155.47 189.854 156.045 190.339 156.651Z" fill="white"/>
<path opacity="0.3" d="M177.246 151.856L144.301 161.42C144.076 161.286 143.864 161.151 143.669 161.013L175.624 151.645C176.174 151.709 176.716 151.78 177.246 151.856Z" fill="white"/>
<path opacity="0.3" d="M184.681 153.501L150.062 163.63C149.621 163.516 149.194 163.397 148.783 163.274L183.511 153.148C183.915 153.261 184.305 153.379 184.681 153.501Z" fill="white"/>
<path d="M186.05 158.285C186.05 158.372 186.041 158.461 186.031 158.547C185.557 161.579 176.934 164.003 166.4 164.003C155.866 164.003 147.244 161.579 146.769 158.547C146.758 158.46 146.75 158.372 146.75 158.285C146.75 155.132 155.565 152.567 166.4 152.567C177.236 152.567 186.05 155.132 186.05 158.285Z" fill="#4F5665"/>
<path d="M186.027 158.546C185.553 161.578 176.93 164.001 166.396 164.001C166.16 164.001 165.928 163.999 165.694 163.997C163.345 163.973 161.099 163.829 159.027 163.584C156.954 163.34 155.057 162.995 153.407 162.571C152.988 162.463 152.585 162.35 152.195 162.233C150.435 161.696 149.025 161.061 148.086 160.357C147.858 160.189 147.658 160.016 147.488 159.84C147.082 159.426 146.838 158.993 146.767 158.547C147.241 155.515 155.864 153.09 166.398 153.09C167.731 153.09 169.033 153.129 170.294 153.204C170.936 153.241 171.569 153.289 172.189 153.345C174.719 153.572 177.033 153.945 179.016 154.43C179.443 154.534 179.858 154.644 180.255 154.76C181.799 155.207 183.09 155.728 184.058 156.303C185.001 156.864 185.637 157.475 185.906 158.119C185.963 158.258 186.004 158.402 186.027 158.546Z" fill="#FFF494"/>
<path opacity="0.2" d="M185.906 158.117L165.697 163.997C163.347 163.973 161.102 163.829 159.029 163.584L184.059 156.301C185 156.862 185.637 157.473 185.906 158.117Z" fill="white"/>
<path opacity="0.2" d="M172.19 153.341L148.088 160.354C147.86 160.186 147.66 160.013 147.49 159.837L170.296 153.201C170.937 153.238 171.57 153.285 172.19 153.341Z" fill="white"/>
<path opacity="0.2" d="M180.249 154.755L153.403 162.567C152.984 162.459 152.581 162.346 152.191 162.228L179.01 154.424C179.438 154.529 179.852 154.639 180.249 154.755Z" fill="white"/>
<path d="M169.129 161.526V162.477H164.982V161.569C162.041 161.518 159.188 161.286 157.423 160.97L159.659 159.498C161.6 159.833 164.188 160.046 166.453 160.046C168.424 160.046 169.129 159.927 169.129 159.721C169.129 158.968 157.747 159.575 157.747 157.342C157.747 156.375 160.159 155.562 164.983 155.365V154.432H169.13V155.348C171.307 155.408 173.424 155.57 175.1 155.844L173.012 157.308C170.982 157.009 169.071 156.863 167.277 156.863C165.247 156.863 164.601 157.034 164.601 157.239C164.601 157.958 175.982 157.358 175.982 159.567C175.982 160.49 173.688 161.295 169.129 161.526Z" fill="#4F5665"/>
<path d="M169.01 161.211V162.162H164.862V161.254C161.921 161.202 159.068 160.971 157.303 160.654L159.539 159.182C161.48 159.517 164.068 159.73 166.333 159.73C168.304 159.73 169.01 159.611 169.01 159.405C169.01 158.652 157.628 159.259 157.628 157.026C157.628 156.059 160.04 155.246 164.863 155.048V154.115H169.01V155.031C171.187 155.091 173.305 155.253 174.981 155.527L172.892 156.991C170.863 156.692 168.951 156.546 167.157 156.546C165.128 156.546 164.481 156.717 164.481 156.922C164.481 157.641 175.864 157.041 175.864 159.25C175.863 160.176 173.568 160.981 169.01 161.211Z" fill="#FFCE4F"/>
<path d="M192.528 154.972C192.529 154.996 192.529 155.018 192.529 155.042C192.529 155.916 192.075 156.756 191.237 157.539C191.032 157.731 190.804 157.919 190.555 158.103C189.857 158.619 188.989 159.104 187.973 159.556C187.753 159.654 187.526 159.75 187.292 159.844C186.504 160.162 185.641 160.459 184.711 160.734C184.488 160.8 184.26 160.865 184.029 160.928C183.213 161.153 182.351 161.359 181.446 161.547C181.222 161.594 180.995 161.64 180.765 161.684C179.936 161.846 179.074 161.991 178.183 162.12C177.957 162.153 177.731 162.184 177.501 162.215C176.663 162.327 175.802 162.425 174.92 162.508C174.694 162.528 174.466 162.548 174.238 162.568C173.395 162.639 172.532 162.695 171.656 162.738C171.43 162.749 171.203 162.759 170.974 162.767C170.126 162.8 169.265 162.819 168.393 162.824C168.241 162.825 168.088 162.825 167.937 162.825C167.862 162.825 167.786 162.825 167.711 162.824C166.838 162.822 165.977 162.806 165.128 162.775C164.9 162.767 164.673 162.757 164.446 162.748C163.801 162.718 163.163 162.68 162.534 162.637C162.31 162.621 162.087 162.604 161.865 162.586C161.636 162.568 161.41 162.548 161.183 162.528C160.301 162.449 159.44 162.354 158.602 162.245C158.372 162.215 158.145 162.185 157.92 162.153C157.386 162.077 156.862 161.996 156.349 161.909C156.008 161.851 155.671 161.79 155.338 161.728C155.109 161.684 154.881 161.64 154.656 161.594C153.753 161.41 152.89 161.208 152.074 160.991C151.912 160.948 151.753 160.903 151.595 160.859C151.526 160.84 151.459 160.821 151.393 160.801C151.024 160.695 150.663 160.585 150.316 160.472C149.789 160.3 149.287 160.121 148.811 159.935C148.578 159.843 148.35 159.751 148.13 159.656C147.259 159.282 146.491 158.883 145.841 158.462C145.741 158.398 145.643 158.332 145.549 158.267C145.43 158.185 145.316 158.103 145.208 158.019C145.089 157.929 144.976 157.836 144.868 157.744C143.883 156.903 143.345 155.992 143.345 155.043C143.345 154.976 143.348 154.91 143.354 154.843L143.357 149.465L144.868 149.463L145.55 149.462L148.131 149.458L148.812 149.457L150.828 149.454L151.395 149.453L152.077 149.452L154.659 149.448L155.341 149.447L157.922 149.443L158.604 149.442L161.186 149.437L161.868 149.436L164.449 149.433L165.131 149.432L167.714 149.428L168.396 149.427L170.977 149.423L171.659 149.422L174.241 149.417L174.922 149.416L177.504 149.412L178.186 149.411L180.767 149.407L181.449 149.406L184.032 149.402L184.714 149.401H184.882L187.295 149.398L187.976 149.397L190.558 149.392L191.24 149.391L192.523 149.389L192.528 154.972Z" fill="#FFF494"/>
<path d="M145.554 149.463V158.269C145.436 158.188 145.322 158.105 145.214 158.022C145.095 157.931 144.982 157.839 144.874 157.747V149.465L145.554 149.463Z" fill="#4F5665"/>
<path d="M148.818 149.454V159.935C148.585 159.842 148.357 159.75 148.138 159.656V149.456L148.818 149.454Z" fill="#4F5665"/>
<path d="M152.079 149.451V160.991C151.918 160.948 151.759 160.903 151.601 160.86C151.533 160.84 151.465 160.821 151.399 160.801V149.452L152.079 149.451Z" fill="#4F5665"/>
<path d="M155.341 149.448V161.73C155.112 161.686 154.885 161.642 154.66 161.596V149.449L155.341 149.448Z" fill="#4F5665"/>
<path d="M158.605 149.446V162.251C158.376 162.221 158.149 162.191 157.924 162.159V149.448L158.605 149.446Z" fill="#4F5665"/>
<path d="M161.864 149.438V162.589C161.636 162.571 161.409 162.551 161.183 162.531V149.438H161.864Z" fill="#4F5665"/>
<path d="M165.129 149.434V162.779C164.901 162.771 164.674 162.762 164.448 162.752V149.436L165.129 149.434Z" fill="#4F5665"/>
<path d="M168.393 149.426V162.824C168.242 162.825 168.089 162.825 167.938 162.825C167.863 162.825 167.787 162.825 167.712 162.824V149.427L168.393 149.426Z" fill="#4F5665"/>
<path d="M171.661 149.424V162.74C171.436 162.75 171.209 162.761 170.98 162.769V149.424H171.661Z" fill="#4F5665"/>
<path d="M174.918 149.417V162.509C174.693 162.529 174.466 162.549 174.237 162.569V149.418L174.918 149.417Z" fill="#4F5665"/>
<path d="M178.183 149.415V162.123C177.957 162.156 177.731 162.187 177.502 162.218V149.415H178.183Z" fill="#4F5665"/>
<path d="M181.444 149.408V161.549C181.219 161.596 180.993 161.642 180.763 161.686V149.409L181.444 149.408Z" fill="#4F5665"/>
<path d="M184.712 149.4V160.734C184.49 160.8 184.263 160.865 184.031 160.928V149.402L184.712 149.4Z" fill="#4F5665"/>
<path d="M187.976 149.394V159.553C187.756 159.651 187.529 159.747 187.296 159.841V149.395L187.976 149.394Z" fill="#4F5665"/>
<path d="M191.241 149.39V157.537C191.036 157.73 190.809 157.917 190.56 158.101V149.39H191.241Z" fill="#4F5665"/>
<path d="M192.522 149.455C192.522 153.406 181.517 156.609 167.938 156.609C166.083 156.609 164.275 156.549 162.538 156.436C160.353 156.294 158.277 156.066 156.355 155.767C154.638 155.5 153.044 155.175 151.603 154.802C151.162 154.689 150.735 154.569 150.324 154.447C148.517 153.906 147 153.283 145.849 152.599C145.623 152.466 145.412 152.33 145.216 152.192C144.015 151.35 143.354 150.425 143.354 149.457C143.354 149.368 143.36 149.28 143.373 149.191C143.85 145.364 154.666 142.302 167.938 142.302C171.204 142.302 174.321 142.488 177.171 142.824C177.722 142.889 178.263 142.959 178.793 143.036C181.109 143.369 183.217 143.803 185.051 144.321C185.455 144.435 185.845 144.553 186.222 144.675C187.561 145.108 188.72 145.589 189.666 146.108C190.642 146.642 191.392 147.219 191.877 147.823C192.232 148.265 192.445 148.723 192.503 149.191C192.516 149.277 192.522 149.366 192.522 149.455Z" fill="#FFCE4F"/>
<path opacity="0.3" d="M191.88 147.825L162.541 156.44C160.356 156.298 158.28 156.07 156.358 155.771L189.669 146.11C190.644 146.644 191.394 147.22 191.88 147.825Z" fill="white"/>
<path opacity="0.3" d="M178.796 143.034L145.852 152.598C145.626 152.465 145.415 152.329 145.219 152.191L177.175 142.823C177.725 142.887 178.266 142.957 178.796 143.034Z" fill="white"/>
<path opacity="0.3" d="M186.228 144.682L151.609 154.81C151.168 154.697 150.741 154.577 150.33 154.455L185.058 144.328C185.461 144.443 185.851 144.56 186.228 144.682Z" fill="white"/>
<path d="M187.589 149.456C187.589 149.544 187.58 149.632 187.57 149.719C187.096 152.751 178.473 155.174 167.94 155.174C157.406 155.174 148.784 152.751 148.309 149.719C148.298 149.631 148.29 149.544 148.29 149.456C148.29 146.303 157.105 143.739 167.94 143.739C178.775 143.739 187.589 146.303 187.589 149.456Z" fill="#4F5665"/>
<path d="M187.571 149.726C187.097 152.757 178.474 155.181 167.941 155.181C167.705 155.181 167.473 155.179 167.239 155.177C164.89 155.153 162.644 155.009 160.572 154.764C158.499 154.519 156.602 154.174 154.952 153.75C154.533 153.642 154.13 153.529 153.74 153.411C151.98 152.874 150.57 152.24 149.63 151.536C149.403 151.368 149.203 151.195 149.033 151.019C148.627 150.605 148.383 150.172 148.312 149.726C148.786 146.694 157.409 144.269 167.943 144.269C169.275 144.269 170.578 144.308 171.839 144.383C172.48 144.42 173.114 144.467 173.734 144.524C176.264 144.751 178.578 145.123 180.56 145.608C180.988 145.712 181.403 145.823 181.8 145.939C183.344 146.386 184.635 146.907 185.603 147.482C186.546 148.042 187.182 148.654 187.451 149.298C187.507 149.438 187.549 149.581 187.571 149.726Z" fill="#FFF494"/>
<path opacity="0.2" d="M187.449 149.294L167.24 155.175C164.891 155.151 162.645 155.007 160.573 154.762L185.602 147.479C186.545 148.039 187.18 148.651 187.449 149.294Z" fill="white"/>
<path opacity="0.2" d="M173.731 144.526L149.628 151.538C149.401 151.37 149.201 151.197 149.031 151.021L171.836 144.385C172.478 144.423 173.111 144.47 173.731 144.526Z" fill="white"/>
<path opacity="0.2" d="M181.792 145.934L154.946 153.746C154.527 153.638 154.124 153.526 153.734 153.408L180.553 145.604C180.98 145.709 181.394 145.819 181.792 145.934Z" fill="white"/>
<path d="M170.671 152.704V153.655H166.524V152.747C163.583 152.696 160.73 152.464 158.965 152.147L161.2 150.675C163.142 151.01 165.73 151.223 167.994 151.223C169.965 151.223 170.671 151.104 170.671 150.898C170.671 150.145 159.288 150.752 159.288 148.519C159.288 147.552 161.7 146.739 166.524 146.542V145.609H170.671V146.525C172.847 146.585 174.965 146.747 176.641 147.021L174.553 148.485C172.523 148.186 170.611 148.04 168.818 148.04C166.788 148.04 166.141 148.211 166.141 148.417C166.141 149.136 177.523 148.536 177.523 150.745C177.524 151.669 175.23 152.474 170.671 152.704Z" fill="#4F5665"/>
<path d="M170.557 152.39V153.34H166.411V152.434C163.47 152.382 160.617 152.151 158.852 151.834L161.088 150.362C163.029 150.696 165.617 150.91 167.882 150.91C169.853 150.91 170.558 150.791 170.558 150.585C170.558 149.831 159.177 150.439 159.177 148.206C159.177 147.239 161.589 146.425 166.412 146.229V145.296H170.558V146.212C172.735 146.272 174.853 146.434 176.53 146.708L174.441 148.172C172.412 147.872 170.5 147.727 168.706 147.727C166.677 147.727 166.03 147.898 166.03 148.103C166.03 148.822 177.412 148.222 177.412 150.431C177.411 151.354 175.116 152.159 170.557 152.39Z" fill="#FFCE4F"/>
<path d="M192.307 146.153C192.308 146.177 192.308 146.2 192.308 146.224C192.308 147.097 191.854 147.937 191.016 148.72C190.811 148.912 190.583 149.1 190.334 149.284C189.636 149.8 188.768 150.286 187.752 150.737C187.532 150.836 187.304 150.931 187.07 151.025C186.282 151.343 185.419 151.64 184.489 151.915C184.266 151.981 184.039 152.046 183.807 152.11C182.991 152.334 182.129 152.54 181.224 152.729C181 152.775 180.773 152.821 180.542 152.866C179.714 153.027 178.851 153.172 177.961 153.301C177.735 153.334 177.508 153.365 177.279 153.396C176.441 153.508 175.579 153.605 174.697 153.689C174.472 153.71 174.244 153.73 174.016 153.749C173.172 153.82 172.31 153.876 171.434 153.918C171.208 153.929 170.981 153.939 170.752 153.948C169.904 153.981 169.043 154.001 168.171 154.005C168.019 154.006 167.866 154.006 167.714 154.006C167.64 154.006 167.564 154.006 167.489 154.005C166.616 154.004 165.755 153.987 164.906 153.956C164.678 153.948 164.451 153.938 164.224 153.929C163.578 153.9 162.941 153.862 162.311 153.818C162.087 153.802 161.864 153.785 161.642 153.767C161.413 153.749 161.187 153.729 160.96 153.709C160.078 153.63 159.217 153.535 158.378 153.426C158.149 153.396 157.922 153.366 157.697 153.333C157.163 153.258 156.639 153.177 156.126 153.089C155.785 153.031 155.448 152.971 155.115 152.908C154.885 152.865 154.658 152.82 154.433 152.774C153.53 152.591 152.667 152.388 151.851 152.171C151.689 152.128 151.53 152.084 151.372 152.04C151.303 152.021 151.236 152.001 151.169 151.981C150.8 151.875 150.44 151.766 150.092 151.652C149.565 151.48 149.063 151.301 148.587 151.115C148.354 151.023 148.126 150.931 147.905 150.837C147.035 150.462 146.266 150.063 145.616 149.642C145.516 149.578 145.418 149.513 145.324 149.447C145.205 149.365 145.091 149.283 144.983 149.199C144.864 149.109 144.751 149.016 144.643 148.924C143.658 148.084 143.12 147.173 143.12 146.224C143.12 146.157 143.123 146.09 143.129 146.023L143.132 140.645L144.644 140.643L145.326 140.641L147.907 140.637L148.589 140.636L150.603 140.633L151.171 140.632L151.853 140.631L154.435 140.627L155.117 140.626L157.698 140.621L158.38 140.62L160.962 140.616L161.644 140.615L164.225 140.611L164.907 140.61L167.49 140.606L168.172 140.605L170.753 140.601L171.435 140.6L174.017 140.596L174.698 140.595L177.28 140.591L177.962 140.59L180.543 140.586L181.225 140.585L183.808 140.582L184.49 140.58H184.657L187.071 140.576L187.753 140.575L190.335 140.57L191.016 140.569L192.3 140.567L192.307 146.153Z" fill="#FFF494"/>
<path d="M145.332 140.639V149.445C145.213 149.363 145.1 149.281 144.992 149.197C144.872 149.107 144.76 149.014 144.652 148.922V140.641L145.332 140.639Z" fill="#4F5665"/>
<path d="M148.59 140.634V151.115C148.357 151.022 148.13 150.93 147.909 150.836V140.636L148.59 140.634Z" fill="#4F5665"/>
<path d="M151.854 140.625V152.165C151.693 152.122 151.533 152.078 151.375 152.034C151.307 152.015 151.24 151.995 151.173 151.975V140.626L151.854 140.625Z" fill="#4F5665"/>
<path d="M155.121 140.624V152.906C154.892 152.862 154.665 152.817 154.44 152.772V140.625L155.121 140.624Z" fill="#4F5665"/>
<path d="M158.388 140.621V153.425C158.159 153.395 157.933 153.365 157.707 153.332V140.622L158.388 140.621Z" fill="#4F5665"/>
<path d="M161.646 140.613V153.764C161.418 153.746 161.192 153.726 160.965 153.706V140.614L161.646 140.613Z" fill="#4F5665"/>
<path d="M164.904 140.609V153.954C164.676 153.946 164.45 153.936 164.223 153.926V140.61L164.904 140.609Z" fill="#4F5665"/>
<path d="M168.175 140.605V154.004C168.023 154.005 167.871 154.005 167.719 154.005C167.645 154.005 167.569 154.005 167.494 154.004V140.606L168.175 140.605Z" fill="#4F5665"/>
<path d="M171.434 140.603V153.919C171.209 153.93 170.981 153.941 170.753 153.949V140.604L171.434 140.603Z" fill="#4F5665"/>
<path d="M174.698 140.598V153.689C174.472 153.711 174.245 153.731 174.017 153.749V140.599L174.698 140.598Z" fill="#4F5665"/>
<path d="M177.962 140.595V153.303C177.736 153.337 177.51 153.368 177.281 153.399V140.595H177.962Z" fill="#4F5665"/>
<path d="M181.227 140.586V152.727C181.003 152.774 180.776 152.82 180.546 152.864V140.587L181.227 140.586Z" fill="#4F5665"/>
<path d="M184.486 140.579V151.913C184.263 151.979 184.037 152.044 183.805 152.107V140.581L184.486 140.579Z" fill="#4F5665"/>
<path d="M187.752 140.577V150.736C187.533 150.835 187.305 150.93 187.071 151.024V140.577H187.752Z" fill="#4F5665"/>
<path d="M191.01 140.575V148.722C190.805 148.915 190.578 149.102 190.329 149.286V140.575H191.01Z" fill="#4F5665"/>
<path d="M192.301 140.634C192.301 144.585 181.296 147.788 167.717 147.788C165.862 147.788 164.054 147.729 162.317 147.615C160.131 147.473 158.056 147.246 156.133 146.946C154.416 146.679 152.823 146.355 151.381 145.98C150.94 145.867 150.513 145.747 150.102 145.625C148.294 145.084 146.778 144.462 145.627 143.777C145.401 143.644 145.189 143.508 144.994 143.37C143.793 142.528 143.131 141.604 143.131 140.635C143.131 140.546 143.138 140.458 143.151 140.37C143.628 136.542 154.444 133.481 167.716 133.481C170.982 133.481 174.098 133.666 176.949 134.003C177.5 134.068 178.041 134.139 178.571 134.214C180.887 134.547 182.995 134.981 184.829 135.499C185.233 135.613 185.623 135.731 186 135.853C187.339 136.286 188.498 136.766 189.444 137.286C190.419 137.822 191.17 138.397 191.655 139.001C192.01 139.443 192.223 139.901 192.281 140.37C192.296 140.457 192.301 140.545 192.301 140.634Z" fill="#FFCE4F"/>
<path opacity="0.3" d="M191.653 139.003L162.314 147.618C160.128 147.476 158.053 147.248 156.13 146.949L189.442 137.288C190.418 137.822 191.168 138.397 191.653 139.003Z" fill="white"/>
<path opacity="0.3" d="M178.57 134.215L145.625 143.779C145.4 143.646 145.188 143.51 144.993 143.372L176.948 134.004C177.499 134.068 178.04 134.139 178.57 134.215Z" fill="white"/>
<path opacity="0.3" d="M186.001 135.863L151.381 145.992C150.94 145.878 150.514 145.758 150.103 145.636L184.83 135.509C185.233 135.623 185.624 135.742 186.001 135.863Z" fill="white"/>
<path d="M187.365 140.639C187.365 140.727 187.357 140.815 187.346 140.902C186.872 143.933 178.249 146.357 167.716 146.357C157.182 146.357 148.56 143.933 148.086 140.902C148.074 140.814 148.067 140.727 148.067 140.639C148.067 137.486 156.881 134.921 167.717 134.921C178.551 134.92 187.365 137.486 187.365 140.639Z" fill="#4F5665"/>
<path d="M187.349 140.898C186.875 143.93 178.252 146.354 167.718 146.354C167.482 146.354 167.25 146.352 167.016 146.35C164.667 146.326 162.421 146.182 160.349 145.937C158.276 145.692 156.379 145.347 154.729 144.922C154.31 144.814 153.907 144.702 153.517 144.584C151.757 144.047 150.347 143.412 149.408 142.709C149.18 142.541 148.98 142.367 148.81 142.192C148.404 141.778 148.16 141.344 148.089 140.898C148.564 137.866 157.186 135.442 167.719 135.442C169.052 135.442 170.354 135.481 171.615 135.556C172.256 135.593 172.89 135.64 173.51 135.697C176.04 135.924 178.355 136.296 180.337 136.781C180.764 136.885 181.178 136.996 181.576 137.111C183.12 137.558 184.411 138.079 185.379 138.655C186.322 139.215 186.958 139.826 187.228 140.471C187.286 140.61 187.327 140.754 187.349 140.898Z" fill="#FFF494"/>
<path opacity="0.2" d="M187.225 140.467L167.016 146.347C164.667 146.323 162.421 146.179 160.349 145.934L185.378 138.651C186.321 139.213 186.957 139.823 187.225 140.467Z" fill="white"/>
<path opacity="0.2" d="M173.504 135.698L149.402 142.711C149.174 142.543 148.974 142.369 148.804 142.194L171.609 135.558C172.251 135.595 172.885 135.642 173.504 135.698Z" fill="white"/>
<path opacity="0.2" d="M181.576 137.111L154.729 144.923C154.31 144.815 153.907 144.703 153.517 144.585L180.336 136.781C180.764 136.885 181.178 136.996 181.576 137.111Z" fill="white"/>
<path d="M170.452 143.879V144.828H166.305V143.921C163.364 143.869 160.511 143.638 158.746 143.321L160.981 141.849C162.923 142.182 165.511 142.397 167.776 142.397C169.746 142.397 170.452 142.277 170.452 142.071C170.452 141.318 159.07 141.926 159.07 139.693C159.07 138.726 161.482 137.912 166.306 137.715V136.782H170.453V137.698C172.63 137.758 174.747 137.92 176.423 138.194L174.335 139.658C172.305 139.358 170.394 139.212 168.6 139.212C166.57 139.212 165.923 139.383 165.923 139.59C165.923 140.309 177.306 139.709 177.306 141.917C177.304 142.843 175.01 143.648 170.452 143.879Z" fill="#4F5665"/>
<path d="M170.33 143.566V144.516H166.183V143.609C163.242 143.557 160.39 143.326 158.625 143.009L160.86 141.537C162.801 141.871 165.39 142.085 167.654 142.085C169.625 142.085 170.331 141.965 170.331 141.759C170.331 141.006 158.949 141.613 158.949 139.38C158.949 138.413 161.361 137.6 166.184 137.404V136.471H170.331V137.386C172.507 137.447 174.625 137.609 176.301 137.883L174.213 139.346C172.183 139.047 170.271 138.901 168.478 138.901C166.448 138.901 165.801 139.072 165.801 139.277C165.801 139.996 177.184 139.397 177.184 141.606C177.183 142.53 174.889 143.334 170.33 143.566Z" fill="#FFCE4F"/>
<path d="M191.085 138.252C191.086 138.275 191.086 138.298 191.086 138.323C191.086 139.196 190.631 140.036 189.793 140.819C189.588 141.011 189.36 141.199 189.111 141.383C188.413 141.899 187.545 142.384 186.529 142.836C186.309 142.934 186.082 143.03 185.848 143.124C185.059 143.442 184.196 143.739 183.266 144.014C183.043 144.08 182.817 144.145 182.584 144.208C181.769 144.432 180.906 144.639 180.002 144.827C179.777 144.874 179.55 144.92 179.32 144.964C178.491 145.125 177.629 145.272 176.738 145.4C176.513 145.433 176.286 145.464 176.056 145.495C175.218 145.607 174.357 145.704 173.475 145.788C173.249 145.809 173.022 145.829 172.793 145.848C171.95 145.919 171.088 145.975 170.211 146.017C169.986 146.028 169.758 146.038 169.53 146.047C168.682 146.08 167.82 146.099 166.948 146.104C166.797 146.105 166.644 146.106 166.492 146.106C166.417 146.106 166.341 146.106 166.266 146.105C165.394 146.103 164.532 146.087 163.684 146.056C163.455 146.048 163.228 146.038 163.002 146.029C162.356 145.999 161.719 145.961 161.09 145.918C160.865 145.902 160.642 145.885 160.42 145.867C160.192 145.849 159.965 145.829 159.738 145.809C158.856 145.73 157.995 145.635 157.157 145.526C156.927 145.496 156.701 145.466 156.475 145.433C155.941 145.358 155.417 145.276 154.904 145.189C154.563 145.131 154.226 145.07 153.893 145.008C153.664 144.964 153.436 144.92 153.211 144.874C152.309 144.69 151.445 144.488 150.629 144.271C150.468 144.228 150.308 144.184 150.15 144.139C150.082 144.121 150.014 144.101 149.947 144.081C149.578 143.975 149.219 143.865 148.871 143.752C148.343 143.58 147.842 143.401 147.366 143.215C147.131 143.123 146.905 143.031 146.684 142.936C145.813 142.562 145.045 142.163 144.394 141.742C144.295 141.678 144.196 141.613 144.102 141.547C143.984 141.465 143.87 141.383 143.762 141.299C143.642 141.209 143.529 141.116 143.421 141.024C142.437 140.183 141.898 139.272 141.898 138.323C141.898 138.256 141.901 138.19 141.908 138.123L141.909 132.745L143.42 132.743L144.102 132.742L146.684 132.738L147.366 132.736L149.38 132.733L149.947 132.732L150.629 132.731L153.211 132.727L153.893 132.726L156.475 132.721L157.157 132.72L159.738 132.716L160.42 132.715L163.002 132.712L163.684 132.711L166.266 132.707L166.948 132.706L169.53 132.702L170.211 132.701L172.793 132.696L173.475 132.695L176.056 132.69L176.738 132.689L179.32 132.685L180.002 132.684L182.584 132.68L183.266 132.68H183.434L185.848 132.676L186.529 132.675L189.111 132.671L189.793 132.67L191.076 132.668L191.085 138.252Z" fill="#FFF494"/>
<path d="M144.102 132.746V141.552C143.983 141.47 143.869 141.388 143.761 141.304C143.642 141.214 143.529 141.121 143.421 141.029V132.747L144.102 132.746Z" fill="#4F5665"/>
<path d="M147.369 132.742V143.222C147.135 143.13 146.908 143.038 146.688 142.943V132.744L147.369 132.742Z" fill="#4F5665"/>
<path d="M150.633 132.735V144.275C150.472 144.232 150.313 144.188 150.154 144.143C150.086 144.125 150.019 144.105 149.952 144.085V132.736L150.633 132.735Z" fill="#4F5665"/>
<path d="M153.894 132.734V145.016C153.665 144.972 153.437 144.928 153.213 144.882V132.735L153.894 132.734Z" fill="#4F5665"/>
<path d="M157.162 132.725V145.53C156.933 145.5 156.706 145.469 156.481 145.436V132.726L157.162 132.725Z" fill="#4F5665"/>
<path d="M160.42 132.719V145.87C160.192 145.851 159.965 145.832 159.739 145.811V132.72L160.42 132.719Z" fill="#4F5665"/>
<path d="M163.685 132.716V146.062C163.456 146.054 163.23 146.044 163.004 146.034V132.718L163.685 132.716Z" fill="#4F5665"/>
<path d="M166.944 132.709V146.108C166.793 146.109 166.64 146.11 166.488 146.11C166.413 146.11 166.337 146.11 166.263 146.109V132.711L166.944 132.709Z" fill="#4F5665"/>
<path d="M170.215 132.704V146.02C169.99 146.031 169.762 146.042 169.534 146.05V132.705L170.215 132.704Z" fill="#4F5665"/>
<path d="M173.476 132.7V145.791C173.251 145.813 173.023 145.833 172.795 145.852V132.701L173.476 132.7Z" fill="#4F5665"/>
<path d="M176.739 132.694V145.403C176.513 145.436 176.287 145.467 176.058 145.498V132.694H176.739Z" fill="#4F5665"/>
<path d="M179.997 132.686V144.827C179.773 144.874 179.546 144.92 179.316 144.964V132.687L179.997 132.686Z" fill="#4F5665"/>
<path d="M183.267 132.682V144.016C183.044 144.082 182.818 144.147 182.586 144.21V132.684L183.267 132.682Z" fill="#4F5665"/>
<path d="M186.526 132.678V142.838C186.306 142.936 186.079 143.031 185.845 143.125V132.678H186.526Z" fill="#4F5665"/>
<path d="M189.789 132.674V140.821C189.585 141.014 189.357 141.201 189.108 141.385V132.674H189.789Z" fill="#4F5665"/>
<path d="M191.073 132.74C191.073 136.69 180.067 139.894 166.488 139.894C164.633 139.894 162.826 139.835 161.088 139.721C158.903 139.579 156.828 139.352 154.906 139.053C153.189 138.786 151.595 138.461 150.153 138.087C149.712 137.973 149.285 137.855 148.875 137.731C147.067 137.191 145.551 136.568 144.399 135.884C144.174 135.751 143.962 135.615 143.767 135.477C142.566 134.634 141.904 133.71 141.904 132.741C141.904 132.653 141.91 132.564 141.924 132.476C142.401 128.648 153.217 125.587 166.488 125.587C169.755 125.587 172.871 125.773 175.722 126.109C176.273 126.174 176.814 126.244 177.344 126.321C179.66 126.653 181.768 127.088 183.601 127.605C184.005 127.719 184.396 127.838 184.772 127.959C186.112 128.393 187.271 128.874 188.217 129.393C189.192 129.927 189.942 130.503 190.428 131.108C190.782 131.55 190.996 132.007 191.054 132.476C191.068 132.563 191.073 132.652 191.073 132.74Z" fill="#FFCE4F"/>
<path opacity="0.3" d="M190.435 131.11L161.096 139.724C158.911 139.582 156.836 139.355 154.913 139.056L188.225 129.394C189.199 129.929 189.949 130.504 190.435 131.11Z" fill="white"/>
<path opacity="0.3" d="M177.347 126.318L144.402 135.882C144.176 135.749 143.965 135.613 143.77 135.475L175.725 126.107C176.276 126.171 176.816 126.241 177.347 126.318Z" fill="white"/>
<path opacity="0.3" d="M184.783 127.96L150.164 138.089C149.723 137.975 149.296 137.856 148.886 137.733L183.613 127.606C184.016 127.72 184.407 127.838 184.783 127.96Z" fill="white"/>
<path d="M186.141 132.743C186.141 132.831 186.132 132.919 186.122 133.006C185.648 136.038 177.025 138.461 166.491 138.461C155.957 138.461 147.335 136.038 146.86 133.006C146.849 132.919 146.841 132.831 146.841 132.743C146.841 129.59 155.656 127.026 166.491 127.026C177.327 127.026 186.141 129.591 186.141 132.743Z" fill="#4F5665"/>
<path d="M186.121 133.006C185.647 136.038 177.024 138.462 166.49 138.462C166.254 138.462 166.022 138.46 165.788 138.458C163.438 138.433 161.193 138.29 159.12 138.045C157.048 137.8 155.15 137.455 153.5 137.03C153.081 136.922 152.678 136.81 152.288 136.692C150.528 136.155 149.118 135.52 148.179 134.817C147.951 134.648 147.751 134.476 147.581 134.3C147.175 133.886 146.931 133.452 146.86 133.006C147.335 129.974 155.957 127.55 166.491 127.55C167.824 127.55 169.126 127.589 170.387 127.664C171.029 127.701 171.662 127.748 172.282 127.804C174.812 128.032 177.126 128.404 179.109 128.889C179.536 128.994 179.951 129.104 180.348 129.219C181.892 129.666 183.183 130.187 184.151 130.762C185.094 131.323 185.73 131.934 185.999 132.579C186.057 132.719 186.099 132.862 186.121 133.006Z" fill="#FFF494"/>
<path opacity="0.2" d="M185.999 132.576L165.79 138.458C163.44 138.433 161.195 138.289 159.122 138.045L184.151 130.761C185.094 131.321 185.73 131.932 185.999 132.576Z" fill="white"/>
<path opacity="0.2" d="M172.285 127.805L148.183 134.817C147.956 134.649 147.756 134.476 147.586 134.3L170.391 127.664C171.032 127.702 171.665 127.748 172.285 127.805Z" fill="white"/>
<path opacity="0.2" d="M180.351 129.213L153.505 137.025C153.085 136.917 152.682 136.804 152.292 136.687L179.111 128.882C179.539 128.987 179.952 129.097 180.351 129.213Z" fill="white"/>
<path d="M76.421 46.8853L77.4955 50.2543C74.105 52.2911 65.5524 57.0809 61.7408 58.5162C60.6084 58.9428 59.0246 59.4724 57.2236 60.0448C56.537 60.2634 55.8181 60.4898 55.0793 60.7172C54.4439 60.9126 53.7942 61.1098 53.1389 61.3081C53.1104 61.3178 53.0801 61.3265 53.0507 61.3343C52.1829 61.4373 51.0818 61.5636 49.8318 61.6958L49.8432 56.3268L51.9022 55.7428L53.1142 55.3998L54.8242 54.9159L58.5675 53.8547C61.369 52.0851 73.5654 48.4265 76.421 46.8853Z" fill="#FDA893"/>
<path d="M81.2405 44.8432C81.3334 44.8072 82.4535 44.3835 82.7826 44.8616C83.1268 45.3592 82.7314 45.8606 82.7314 45.8606C82.7314 45.8606 83.5546 46.3358 83.5754 46.8265C83.5953 47.3173 83.2046 47.6535 83.2046 47.6535C83.2046 47.6535 83.7329 47.9188 83.7167 48.3833C83.7016 48.8478 83.0794 49.527 82.1576 49.7758C81.3391 49.9964 80.9313 49.8186 80.8526 49.7768C80.8431 49.77 80.8374 49.7671 80.8374 49.7671C80.8374 49.7671 80.6857 49.8254 80.4192 49.9158C79.9753 50.0674 79.2128 50.3093 78.3223 50.5134C76.8987 50.8399 75.1357 48.8322 75.0067 47.5359C75.0067 47.5359 75.5283 45.7994 76.1267 44.7995C76.7252 43.8005 77.1595 43.5653 77.8841 43.6625C78.6087 43.7606 79.32 44.0094 79.4755 43.9803C79.632 43.9531 83.3289 41.9852 84.1767 42.2389C85.0066 42.4876 81.4008 44.7431 81.2405 44.8432Z" fill="#FDA893"/>
<path d="M77.2314 46.5885C77.1991 46.5885 77.166 46.5808 77.1356 46.5633C77.0379 46.5088 77.0009 46.3833 77.054 46.2831L77.5017 45.432C77.5282 45.3814 77.5747 45.3435 77.6297 45.3299C77.6847 45.3153 77.7426 45.326 77.79 45.3581C77.7985 45.3639 78.7156 45.9709 79.5569 45.7559C79.8139 45.6898 79.9874 45.5799 80.0576 45.4388C80.1363 45.2783 80.0709 45.1071 80.0699 45.1061C80.0282 45.0011 80.0766 44.8805 80.1781 44.8367C80.2795 44.7929 80.3971 44.8396 80.4408 44.9437C80.455 44.9787 80.5792 45.291 80.4208 45.6188C80.2957 45.8785 80.0386 46.0594 79.6545 46.1576C78.8844 46.3551 78.1068 46.0088 77.7568 45.8172L77.4078 46.4806C77.3727 46.5487 77.3035 46.5885 77.2314 46.5885Z" fill="#1012A7"/>
<path d="M80.8514 49.7692C80.8419 49.7624 80.8362 49.7595 80.8362 49.7595C80.8362 49.7595 80.6847 49.8178 80.4185 49.9082C80.0652 49.4816 80.0396 48.9705 80.0169 48.54C79.998 48.1668 79.9809 47.8432 79.7886 47.6071C79.5897 47.3651 79.5092 47.0959 79.495 46.8394C79.477 46.5926 79.5234 46.3554 79.5822 46.164C79.6039 46.0921 79.6267 46.026 79.6494 45.9697C79.7081 45.821 79.7631 45.7258 79.7706 45.7131C79.8284 45.615 79.9516 45.5819 80.0472 45.6412C80.1429 45.6995 80.1732 45.8258 80.1173 45.924C80.1164 45.925 80.1078 45.9405 80.0946 45.9677C80.0368 46.0804 79.8976 46.3963 79.8976 46.7364C79.8976 46.9414 79.9487 47.1562 80.0993 47.3408C80.3768 47.6809 80.4005 48.1056 80.4214 48.5157C80.445 48.9841 80.4678 49.4272 80.8514 49.7692Z" fill="#1012A7"/>
<path d="M78.0472 48.2404C77.9714 48.2404 77.8994 48.1966 77.8644 48.1217C77.817 48.0186 77.8606 47.8951 77.961 47.8465C77.9733 47.8406 79.1677 47.2473 79.288 46.0781C79.2994 45.9643 79.3998 45.8816 79.5096 45.8942C79.6205 45.9059 79.7 46.008 79.6887 46.1218C79.5447 47.5255 78.1902 48.1937 78.1324 48.2209C78.105 48.2336 78.0756 48.2404 78.0472 48.2404Z" fill="#1012A7"/>
<path d="M73.8932 47.9418C66.3364 50.5597 60.6318 52.3001 54.7309 53.7791C44.1686 56.4272 38.5456 54.8694 38.5456 54.8694L42.5146 62.3423L43.2202 63.6716C44.3792 63.9923 45.7382 64.0215 47.1181 63.8864C51.072 63.5045 55.1861 61.7884 55.1861 61.7884C66.0159 57.4533 73.1013 53.9774 76.0338 51.8997L73.8932 47.9418Z" fill="#3285FF"/>
<path d="M73.6994 47.397L71.8794 48.2716L74.3737 53.1712L76.2515 52.0624L73.6994 47.397Z" fill="#3285FF"/>
<path d="M47.1192 63.8892C45.7402 64.0243 44.3802 63.9951 43.2213 63.6745L42.5157 62.3451C42.6636 61.6785 43.0402 61.1314 43.7742 60.8379C43.7742 60.8379 44.7065 62.7795 47.1192 63.8892Z" fill="#3285FF"/>
<path d="M16.2158 157.202L13.1183 161.448C13.1183 161.448 13.6836 163.346 15.9777 164.808L19.6822 159.923L16.2158 157.202Z" fill="#FDA893"/>
<path d="M15.464 163.491C15.464 163.491 16.9131 163.171 17.4091 163.684C17.9051 164.198 19.1494 171.182 20.3131 172.709C21.4768 174.237 20.3055 175.049 19.5885 175.358C18.8715 175.668 8.60422 165.158 8.60422 165.158C8.60422 165.158 11.1421 161.565 12.3665 160.867C13.5909 160.17 14.1647 162.752 15.464 163.491Z" fill="#3285FF"/>
<path d="M35.215 164.493L35.6845 169.772C35.6845 169.772 37.3442 170.794 40.0035 170.309L39.5672 164.14L35.215 164.493Z" fill="#FDA893"/>
<path d="M39.066 169.563C39.066 169.563 39.9718 168.277 40.7068 168.321C41.4408 168.365 47.1663 172.892 49.1115 173.245C51.0557 173.598 50.7 175.066 50.3548 175.819C50.0096 176.572 34.9557 176.14 34.9557 176.14C34.9557 176.14 34.4009 171.161 34.8751 169.744C35.3493 168.327 37.5543 169.92 39.066 169.563Z" fill="#3285FF"/>
<path d="M32.3281 107.195L29.1993 133.725C29.1993 133.725 26.393 137.628 23.7167 142.621C21.4709 146.812 15.4874 157.686 15.4874 157.686L19.1065 160.513L38.9289 139.466L44.2058 106.936L32.3281 107.195Z" fill="#1F1A1A"/>
<path d="M20.0027 160.445C19.6774 161.282 19.0695 161.851 18.3601 162.329L14.1577 158.693C14.5105 157.929 14.9923 157.269 15.5898 156.701L20.0027 160.445Z" fill="#1F1A1A"/>
<path d="M16.3228 108.294C16.3228 108.294 21.905 122.356 29.1593 133.321C29.1593 133.321 30.2424 143.993 32.0955 149.674C32.9064 152.162 34.4779 163.947 34.4779 163.947L39.9815 163.691L38.5617 130.922L32.7395 107.188L16.3228 108.294Z" fill="#1E1E2D"/>
<path d="M40.4889 163.497C40.8379 164.477 40.7422 165.449 40.4889 166.423L34.1195 166.605C33.8492 165.667 33.7686 164.715 33.8558 163.752L40.4889 163.497Z" fill="#3285FF"/>
<path d="M45.0344 106.461C45.0344 107.614 45.0316 108.529 45.024 109.146C42.358 109.881 39.6931 110.414 37.029 110.74C36.9588 110.749 36.8877 110.759 36.8166 110.767C36.6971 110.782 36.5795 110.796 36.4619 110.809C36.4325 110.812 36.404 110.815 36.3727 110.817C35.9099 110.87 35.4509 110.915 34.9862 110.953C32.6948 111.147 30.4045 111.188 28.1131 111.08C27.9111 111.07 27.7129 111.059 27.5109 111.047C27.3326 111.037 27.1505 111.026 26.9694 111.013C26.8888 111.009 26.8063 111.003 26.7247 110.996C26.5711 110.985 26.4212 110.973 26.2676 110.962C22.9008 110.682 19.5349 110.079 16.17 109.145C16.1529 107.786 16.1368 105.019 16.1311 101.45C16.1311 101.254 16.1292 101.055 16.1311 100.855C16.1273 96.9182 16.1416 92.0857 16.1871 87.1093C16.1909 86.7157 16.1947 86.3231 16.2004 85.9276C16.2041 85.4719 16.2089 85.0132 16.2136 84.5526C16.2146 84.4758 16.2146 84.3971 16.2165 84.3194C16.2193 84.2125 16.2203 84.1046 16.2222 83.9958C16.2231 83.7801 16.226 83.5624 16.2307 83.3466C16.2345 83.0308 16.2392 82.717 16.244 82.4041C16.2468 82.166 16.2506 81.9279 16.2535 81.6888C16.2601 81.2146 16.2686 80.7414 16.2753 80.2701C16.4375 70.3921 16.7637 61.314 17.383 59.0041C17.4409 58.7903 17.5016 58.6349 17.5613 58.5425C17.6267 58.4395 17.7093 58.3356 17.8003 58.2287C17.916 58.0936 18.0507 57.9546 18.2005 57.8137C19.2333 56.84 21.0239 55.7089 22.8401 54.6361C23.0516 54.5107 23.265 54.3863 23.4745 54.2629C23.5068 54.2454 28.41 52.5507 28.4403 52.5312L33.5693 52.8996C34.1848 53.2698 39.0368 54.9606 39.6324 55.3406C39.8088 55.4533 39.9823 55.5661 40.153 55.6778C41.5481 56.599 42.7346 57.5154 43.2524 58.2938C43.9988 59.4181 44.4502 69.503 44.711 80.4751C44.7177 80.7287 44.7233 80.9804 44.73 81.2331C44.7565 82.3943 44.7812 83.5614 44.804 84.7275C44.8267 85.879 44.8466 87.0277 44.8656 88.1685C44.895 90.0353 44.9225 91.8728 44.9434 93.6424C44.9462 93.8436 44.9472 94.0438 44.95 94.243C44.9699 95.9688 44.986 97.6237 44.9984 99.1688C44.9993 99.3709 45.0012 99.5711 45.0022 99.7693C45.0192 102.089 45.0306 104.143 45.0316 105.792V105.794C45.0344 106.026 45.0344 106.246 45.0344 106.461Z" fill="#3285FF"/>
<path d="M35.6112 68.2331L41.4846 67.8833C41.4846 67.8833 41.7037 75.188 38.5778 74.9635C35.4529 74.7391 35.6112 68.2331 35.6112 68.2331Z" fill="#3285FF"/>
<path d="M21.2632 71.8728C21.2632 71.6114 20.9388 71.4977 20.7842 71.7057C18.7234 74.4878 17.4791 77.5207 16.7441 79.918C16.5553 80.5341 16.3931 81.1298 16.2518 81.6973C16.249 81.9354 16.2452 82.1744 16.2424 82.4125C16.2367 82.7254 16.2329 83.0393 16.2291 83.3551C16.2253 83.5699 16.2224 83.7875 16.2205 84.0042C16.2196 84.1131 16.2177 84.2209 16.2149 84.3278C16.2139 84.4046 16.2139 84.4833 16.212 84.5611C16.4055 83.36 16.727 81.7925 17.2552 80.0677C17.976 77.7218 19.1947 74.7551 21.2072 72.038C21.2442 71.9894 21.2632 71.9321 21.2632 71.8728Z" fill="#3285FF"/>
<path d="M22.3063 100.541H22.3072C27.8458 100.516 32.5726 97.9339 35.5629 95.7718C38.797 93.4337 40.7573 91.0646 40.7763 91.0413C40.8711 90.9256 40.8569 90.7536 40.744 90.6564C40.6312 90.5593 40.4633 90.5738 40.3685 90.6895C40.3495 90.7128 38.4252 93.0363 35.2433 95.3345C32.3175 97.4471 27.6979 99.9707 22.3044 99.995C22.1574 99.996 22.0388 100.118 22.0388 100.269C22.0407 100.42 22.1593 100.541 22.3063 100.541Z" fill="#3285FF"/>
<path d="M28.0813 102.469C32.8868 102.469 37.68 99.6624 37.8972 99.5331C38.0242 99.4573 38.0679 99.2902 37.9948 99.16C37.9209 99.0298 37.7577 98.9851 37.6307 99.0609C37.5747 99.0939 31.9355 102.394 26.9356 101.863C26.7877 101.846 26.6587 101.957 26.6435 102.107C26.6283 102.257 26.7345 102.392 26.8806 102.407C27.2789 102.449 27.6801 102.469 28.0813 102.469Z" fill="#3285FF"/>
<path d="M35.8924 93.5441L33.3668 101.524L29.8483 94.3818L30.6885 63.1874L30.7208 62.0126L32.0893 61.8153L32.279 63.3983L35.8924 93.5441Z" fill="white"/>
<path d="M32.2718 63.3999L31.6145 64.2403L30.6834 63.1888L30.7156 62.0128L32.0824 61.8153L32.2718 63.3999Z" fill="white"/>
<path d="M28.9647 60.353L31.3945 63.0447L33.3842 59.7203L31.6477 56.6865L28.9647 60.353Z" fill="white"/>
<path d="M27.6774 52.2556L26.9054 52.8192C26.6929 52.9737 26.4862 53.137 26.2908 53.3138C25.7028 53.8464 25.4942 54.2137 25.6478 55.1524C25.6715 55.2972 25.7019 55.4226 25.7369 55.5227L27.206 62.7632L31.6483 56.6936C31.6464 56.6927 28.4228 55.5168 27.6774 52.2556Z" fill="#3285FF"/>
<path d="M33.5387 52.5381C33.5387 52.5381 35.5758 54.5146 34.9774 56.8721L34.0489 60.8758L31.6495 56.6836C31.6495 56.6836 33.368 55.6147 33.5387 52.5381Z" fill="#3285FF"/>
<path d="M6.95969 114.969C6.83355 116.371 8.50083 115.61 8.02948 112.769C7.55907 109.928 8.89536 107.354 9.47104 107.437C10.0486 107.521 8.994 110.54 9.50708 111.628C10.0192 112.717 10.6812 110.602 11.3403 109.319C12.0241 107.987 11.9843 105.08 11.6732 103.008C11.3621 100.932 15.0315 88.3332 15.0504 84.6823L15.4981 83.1343L17.135 77.467L19.6976 68.592C19.6976 68.592 18.1621 61.8742 15.574 62.4514C15.574 62.4514 14.2035 67.1304 12.7392 72.4071C12.4917 73.303 12.2403 74.2165 11.9928 75.127C10.9496 78.9528 9.96895 82.7301 9.51372 84.9709C8.30926 90.888 8.21631 103.187 8.21631 103.187C8.21631 103.187 6.09191 107.706 6.04164 109.717C5.98664 111.861 7.08488 113.566 6.95969 114.969Z" fill="#FDA893"/>
<path d="M17.8214 58.471C17.7768 58.5721 17.6422 58.2592 17.5625 58.4506C17.2628 59.16 15.9322 60.9121 15.275 62.6185C15.1906 62.8361 15.1042 63.0616 15.016 63.2929C14.0696 65.7854 8.85338 82.1955 7.78738 96.1985L12.8698 97.1751C14.4802 88.0124 15.4893 85.2449 16.4794 80.7242C16.9925 78.9634 17.5246 77.2726 18.0234 75.7197C18.0244 75.7148 18.0263 75.7119 18.0282 75.708C18.2273 75.0871 18.4227 74.4875 18.6086 73.9151C18.6114 73.9044 18.6143 73.8947 18.619 73.886C18.6835 73.6848 18.7461 73.4866 18.8106 73.2932V73.2913C19.5541 70.9872 20.1307 69.1555 20.2958 68.0875C20.7387 65.2121 19.5276 59.5817 17.8214 58.471Z" fill="#3285FF"/>
<path d="M7.47968 95.1907L7.13446 97.3169L13.1549 98.2867L13.576 96.1731L7.47968 95.1907Z" fill="#3285FF"/>
<path d="M7.89182 98.5202C7.89182 98.5202 11.2188 98.2675 12.63 99.3005L12.335 101.296C12.335 101.296 8.44663 100.849 7.53901 100.901C7.53901 100.902 7.44986 98.9303 7.89182 98.5202Z" fill="#1F1A1A"/>
<path d="M9.57123 99.8639C9.57123 100.778 8.96994 101.52 8.22925 101.52C7.48855 101.52 6.88727 100.778 6.88727 99.8639C6.88727 98.9495 7.48855 98.208 8.22925 98.208C8.96994 98.208 9.57123 98.9495 9.57123 99.8639Z" fill="#1F1A1A"/>
<path d="M8.98343 99.8103C8.98343 100.479 8.54489 101.022 8.0031 101.022C7.46131 101.022 7.02277 100.479 7.02277 99.8103C7.02277 99.141 7.46131 98.5983 8.0031 98.5983C8.54489 98.5973 8.98343 99.1401 8.98343 99.8103Z" fill="#3285FF"/>
<path d="M23.1169 39.0988C23.1169 43.6612 25.8577 46.8049 30.3105 46.8049C34.7632 46.8049 37.8663 43.4241 37.8663 38.8627C37.8663 34.3013 35.2298 30.8438 30.7771 30.8438C25.4376 30.8438 23.1169 34.5364 23.1169 39.0988Z" fill="#1F1A1A"/>
<path d="M23.1151 39.0907C23.1151 39.0907 23.6339 35.6438 23.1151 33.8626C22.5963 32.0814 23.1388 31.8783 24.2902 31.5547C25.4415 31.2311 25.0072 29.7735 26.113 29.4897C27.455 29.1457 27.9386 30.0164 28.962 28.7201C29.9853 27.4247 30.9337 27.3548 31.9219 27.8008C33.1501 28.3557 33.4953 27.8669 35.0829 27.6268C36.6885 27.3839 37.8617 28.4771 38.131 29.6112C38.4004 30.7452 37.3107 31.717 37.7621 32.5264C38.2145 33.3359 38.2629 35.9558 37.0556 36.8993C35.8492 37.8419 23.1151 39.0907 23.1151 39.0907Z" fill="#1F1A1A"/>
<path d="M24.117 41.0668C24.117 41.0668 22.8803 39.3769 21.9604 40.7743C21.0404 42.1717 22.3407 46.2997 24.5931 45.292L24.117 41.0668Z" fill="#1012A7"/>
<path d="M24.0995 44.0139C24.0161 44.0139 23.9403 43.9574 23.9167 43.8709C23.5681 42.5956 22.2809 42.0782 22.2686 42.0733C22.171 42.0344 22.1208 41.9225 22.1587 41.8214C22.1956 41.7212 22.3055 41.6696 22.4031 41.7075C22.4627 41.7309 23.8816 42.296 24.2832 43.7648C24.3116 43.8689 24.2529 43.9759 24.1516 44.0051C24.1336 44.0119 24.1165 44.0139 24.0995 44.0139Z" fill="#3285FF"/>
<path d="M22.7987 43.3754C22.7636 43.3754 22.7276 43.3657 22.6964 43.3443C22.6083 43.2859 22.5827 43.1653 22.6395 43.0749C22.649 43.0593 22.8763 42.7033 23.3528 42.4844C23.4484 42.4397 23.5612 42.4844 23.6038 42.5827C23.6464 42.6809 23.6038 42.7967 23.5081 42.8404C23.1397 43.0097 22.9606 43.283 22.9588 43.2859C22.9218 43.3433 22.8612 43.3754 22.7987 43.3754Z" fill="#3285FF"/>
<path d="M36.865 41.0668C36.865 41.0668 38.1017 39.3769 39.0217 40.7743C39.9416 42.1717 38.6414 46.2997 36.3889 45.292L36.865 41.0668Z" fill="#1012A7"/>
<path d="M36.8798 44.0139C36.9631 44.0139 37.0389 43.9574 37.0626 43.8709C37.4112 42.5956 38.6984 42.0782 38.7107 42.0733C38.8082 42.0344 38.8575 41.9225 38.8206 41.8214C38.7836 41.7212 38.6737 41.6696 38.5762 41.7075C38.5156 41.7309 37.0976 42.296 36.696 43.7648C36.6676 43.8689 36.7263 43.9759 36.8277 44.0051C36.8457 44.0119 36.8627 44.0139 36.8798 44.0139Z" fill="#3285FF"/>
<path d="M38.1782 43.3754C38.2132 43.3754 38.2492 43.3657 38.2805 43.3443C38.3685 43.2859 38.3941 43.1653 38.3373 43.0749C38.3278 43.0593 38.1005 42.7033 37.6241 42.4844C37.5284 42.4397 37.4157 42.4844 37.3731 42.5827C37.3304 42.6809 37.3731 42.7967 37.4687 42.8404C37.8372 43.0097 38.0162 43.283 38.0181 43.2859C38.055 43.3433 38.1157 43.3754 38.1782 43.3754Z" fill="#3285FF"/>
<path d="M33.5388 48.7859V52.8906C33.5388 52.8906 34.0784 56.7329 31.0294 56.7096C29.4095 56.697 27.6806 53.323 27.6806 53.323V49.0745L33.5388 48.7859Z" fill="#FDA893"/>
<path d="M33.5388 48.7859V50.607C32.4548 51.8401 30.5296 52.1472 27.6806 51.7167V49.0745L33.5388 48.7859Z" fill="#1012A7"/>
<path d="M37.7562 38.242C37.6823 39.8366 37.5334 41.8316 37.2365 43.4273C37.1625 43.8247 37.0781 44.1998 36.9852 44.5351C36.1421 47.5592 34.0338 52.7464 28.13 50.5862C25.5229 49.6329 24.3146 46.6564 23.776 43.6304C23.4108 41.5751 23.3549 39.4985 23.3824 38.0146C23.4108 36.4996 24.2179 35.1148 25.5039 34.3676C28.9883 32.3434 32.6653 33.0985 35.0865 34.0517C36.7671 34.7125 37.8425 36.4034 37.7562 38.242Z" fill="#FDA893"/>
<path d="M28.3158 41.3039C28.3158 41.7426 28.096 42.0976 27.8242 42.0976C27.5524 42.0976 27.3326 41.7416 27.3326 41.3039C27.3326 40.8652 27.5524 40.5101 27.8242 40.5101C28.096 40.5101 28.3158 40.8652 28.3158 41.3039Z" fill="#1F1A1A"/>
<path d="M34.0302 41.3039C34.0302 41.7426 33.8105 42.0976 33.5386 42.0976C33.2668 42.0976 33.047 41.7416 33.047 41.3039C33.047 40.8652 33.2668 40.5101 33.5386 40.5101C33.8105 40.5101 34.0302 40.8652 34.0302 41.3039Z" fill="#1F1A1A"/>
<path d="M34.8739 38.8525C34.8739 38.8525 33.3204 38.2231 32.1245 38.7533L32.244 39.4351C32.244 39.4351 33.9995 39.2834 34.8834 39.6501C34.9631 39.3875 34.9744 39.1219 34.8739 38.8525Z" fill="#1F1A1A"/>
<path d="M25.8225 38.8522C25.8225 38.8522 27.376 38.2229 28.5719 38.753L28.4524 39.4349C28.4524 39.4349 26.697 39.2832 25.813 39.6499C25.7334 39.3872 25.722 39.1217 25.8225 38.8522Z" fill="#1F1A1A"/>
<path d="M30.6854 44.7379C30.3672 44.7777 30.0366 44.6902 29.9845 44.6757C29.8832 44.6475 29.8235 44.5406 29.851 44.4366C29.8784 44.3326 29.9826 44.2714 30.084 44.2996C30.263 44.3492 30.6854 44.4094 30.8493 44.2782C30.8805 44.2529 30.9232 44.2053 30.9203 44.0868C30.908 43.4027 30.4571 41.1589 30.4534 41.1365C30.4325 41.0306 30.4979 40.9276 30.6011 40.9062C30.7044 40.8839 30.8048 40.9519 30.8256 41.0578C30.8445 41.1511 31.2878 43.3589 31.3011 44.08C31.3058 44.3511 31.1855 44.5056 31.0832 44.5872C30.9715 44.6757 30.8294 44.7194 30.6854 44.7379Z" fill="#1012A7"/>
<path d="M28.0844 45.9056C28.2399 46.7081 28.7568 48.1847 30.4981 48.1847C32.2441 48.1847 32.7334 46.8356 32.9013 45.9056H28.0844Z" fill="white"/>
<path d="M30.3512 49.3938C30.8428 49.3938 31.2605 49.139 31.2775 49.1283C31.3675 49.0731 31.3959 48.9529 31.3419 48.8608C31.2879 48.7688 31.1705 48.7397 31.0805 48.795C31.0777 48.7969 30.7338 49.0043 30.3512 49.0043C29.9998 49.0043 29.6626 48.7979 29.6597 48.7959C29.5707 48.7397 29.4533 48.7678 29.3983 48.8589C29.3434 48.95 29.3708 49.0702 29.4599 49.1264C29.4769 49.138 29.8871 49.3938 30.3512 49.3938Z" fill="#1012A7"/>
<path d="M37.5551 41.0931H36.693C36.7888 40.2059 36.4739 39.134 36.2141 38.4188C35.6251 36.7989 36.8789 36.0847 35.8641 35.2732C34.8503 34.4599 32.3247 34.8087 30.5692 34.7504C28.8024 34.6921 25.9629 34.7174 25.2743 34.8816C24.583 35.0439 24.9623 36.2188 25.2155 37.1293C25.4707 38.0379 24.3686 39.0446 24.1837 39.9863C24.1306 40.2564 24.142 40.6578 24.1837 41.0931H23.4648C23.3794 39.9464 23.3662 38.8794 23.3823 38.0146C23.4107 36.4996 24.2178 35.1148 25.5038 34.3676C28.9882 32.3434 32.6652 33.0985 35.0864 34.0517C36.767 34.7125 37.8425 36.4034 37.7571 38.242C37.7154 39.1165 37.6528 40.1107 37.5551 41.0931Z" fill="#1F1A1A"/>
<path d="M73.0045 1.65247C73.0045 1.65247 73.355 7.95921 78.2139 7.95921C83.0729 7.95921 114.983 7.95921 114.983 7.95921C114.983 7.95921 118.482 8.78921 120.377 1.65247H73.0045Z" fill="#1F1A1A"/>
</svg>
