<svg width="133" height="40" viewBox="0 0 133 40" fill="none" xmlns="http://www.w3.org/2000/svg">
<path d="M24.0199 3.999C23.4899 2.2059 21.635 1.24038 19.9125 1.7921C18.1901 2.34383 17.2626 4.27486 17.7926 6.06797L26.2723 33.2404C26.8685 34.8955 28.591 35.8611 30.2472 35.3783C31.9696 34.8266 33.0296 32.9645 32.4996 31.1714C32.4996 31.1024 24.0199 3.999 24.0199 3.999Z" fill="#DCDCDC"/>
<path d="M10.903 8.48179C10.373 6.68868 8.51807 5.72317 6.79563 6.27489C5.07319 6.82662 4.14573 8.75765 4.67571 10.5508L13.1554 37.7232C13.7516 39.3783 15.4741 40.3439 17.1303 39.8611C18.8527 39.3094 19.9127 37.4473 19.3827 35.6542C19.3827 35.5852 10.903 8.48179 10.903 8.48179Z" fill="#DCDCDC"/>
<path d="M34.7524 26.5506C36.4748 25.9989 37.4023 24.0679 36.8723 22.2748C36.3423 20.4817 34.4874 19.5161 32.765 20.0679L6.59712 28.8265C5.00717 29.4472 4.0797 31.2403 4.54344 32.9644C5.07342 34.7575 6.86211 35.861 8.58455 35.3092C8.71704 35.3092 34.7524 26.5506 34.7524 26.5506Z" fill="#DCDCDC"/>
<path d="M12.0294 34.2057C13.7519 33.6539 15.9381 32.8953 18.2567 32.0677C17.7267 30.2746 16.998 27.9988 16.2031 25.585L9.97577 27.7229L12.0294 34.2057Z" fill="#DCDCDC"/>
<path d="M25.2121 29.723C27.597 28.8954 29.7832 28.2057 31.4393 27.5851C30.9094 25.792 30.1806 23.5161 29.3857 21.1023L23.1584 23.2402L25.2121 29.723Z" fill="#DCDCDC"/>
<path d="M30.4462 12.8265C32.1686 12.2748 33.0961 10.3437 32.5661 8.55064C32.0361 6.75753 30.1812 5.79201 28.4587 6.34374L2.35713 15.1713C0.767183 15.792 -0.160285 17.5851 0.303449 19.3093C0.83343 21.1713 2.62212 22.2748 4.34456 21.6541C4.41081 21.6541 30.4462 12.8265 30.4462 12.8265Z" fill="#DCDCDC"/>
<path d="M7.78946 20.4817C9.5119 19.9299 11.6981 19.1713 14.0167 18.3437C13.2218 15.861 12.5593 13.5851 11.9631 11.861L5.73578 13.9989L7.78946 20.4817Z" fill="#DCDCDC"/>
<path d="M20.9064 16.0678C23.2913 15.2402 25.4775 14.5506 27.1337 13.9299C26.3387 11.4471 25.6762 9.17128 25.08 7.44714L18.8527 9.58507L20.9064 16.0678Z" fill="#DCDCDC"/>
<path d="M61.1852 11.1713C62.3114 11.723 62.4439 12.0678 61.5164 13.8609C60.5889 15.723 60.3902 15.792 59.1977 15.3092C57.7403 14.6885 55.9516 14.2058 54.7591 14.2058C52.8379 14.2058 51.5792 14.8954 51.5792 15.9989C51.5792 19.5851 62.6426 17.654 62.6426 25.3782C62.6426 29.2402 59.4627 31.792 54.6929 31.792C52.1755 31.792 49.0618 30.8954 46.9419 29.792C45.8819 29.2402 45.8157 28.8954 46.7432 27.0333C47.5381 25.4471 47.8031 25.2402 48.9293 25.723C50.7843 26.5506 53.0367 27.1713 54.6266 27.1713C56.4153 27.1713 57.5415 26.4127 57.5415 25.3092C57.5415 21.792 46.2794 23.4471 46.2794 15.9989C46.2794 12.0678 49.4593 9.37817 54.1629 9.37817C56.4153 9.58507 59.264 10.2747 61.1852 11.1713Z" fill="#DCDCDC"/>
<path d="M70.129 2.06787V30.7575C70.129 31.1713 69.6653 31.6541 69.0691 31.6541H66.1542C65.4917 31.6541 65.0942 31.1713 65.0942 30.7575V2.06787C65.0942 0.619593 65.4917 0.550627 67.6116 0.550627C69.9965 0.481662 70.129 0.688558 70.129 2.06787Z" fill="#DCDCDC"/>
<path fill-rule="evenodd" clip-rule="evenodd" d="M90.6655 30.4816V18.1368C90.6655 12.7575 87.1544 9.58508 81.5895 9.58508C79.0721 9.58508 76.2897 10.4127 74.3023 11.792C73.2423 12.4816 73.2423 12.8265 74.3023 14.5506C75.4285 16.2747 75.6273 16.3437 76.6872 15.723C78.0122 14.8954 79.6684 14.3437 81.0596 14.3437C83.9745 14.3437 85.6969 15.723 85.6969 17.9989V19.4472C84.3057 18.8265 82.5833 18.4816 80.7283 18.4816C75.7597 18.4816 72.5136 21.2403 72.5136 25.3782C72.5136 29.2403 75.4285 31.861 79.7346 31.861C81.987 31.861 84.2395 30.8954 85.7632 29.1023L85.6969 30.4127C85.6307 31.1023 86.0944 31.5851 86.7569 31.5851H89.6055C90.2017 31.5851 90.6655 31.1713 90.6655 30.4816ZM80.3307 27.723C78.542 27.723 77.3495 26.7575 77.3495 25.3092C77.3495 23.5161 79.1382 22.1368 81.7881 22.1368C83.0469 22.1368 84.5043 22.3437 85.6305 22.8264V24.7575C84.5043 26.6195 82.5169 27.723 80.3307 27.723Z" fill="#DCDCDC"/>
<path d="M110.341 11.2402C111.401 11.8609 111.401 12.2058 110.275 14.0678C109.215 15.792 109.016 15.9299 107.824 15.3092C106.963 14.8265 105.505 14.4127 104.379 14.4127C100.735 14.4127 98.3504 16.8954 98.3504 20.6885C98.3504 24.6196 100.735 27.2403 104.379 27.2403C105.638 27.2403 107.228 26.7575 108.221 26.1368C109.281 25.5161 109.48 25.5161 110.606 27.2403C111.6 28.8265 111.6 29.1713 110.672 29.8609C109.083 31.0334 106.499 31.9299 104.246 31.9299C97.5554 31.9299 93.0506 27.4471 93.0506 20.7575C93.0506 14.0678 97.5554 9.65404 104.313 9.65404C106.433 9.58508 108.818 10.2747 110.341 11.2402Z" fill="#DCDCDC"/>
<path d="M132.269 28.8952C133.13 29.9987 132.799 30.4125 130.679 31.1711C128.559 31.9987 128.228 31.9297 127.499 30.8952L121.471 22.5504L118.755 25.2401V30.6884C118.755 31.1021 118.291 31.5849 117.695 31.5849H114.78C114.117 31.5849 113.72 31.1021 113.72 30.6884V2.06766C113.72 0.619381 114.117 0.550415 116.237 0.550415C118.688 0.550415 118.755 0.757312 118.755 2.06766V18.3435L126.969 10.1366C127.897 9.24007 128.36 9.30904 130.017 10.4125C131.805 11.5849 131.938 11.9297 131.077 12.8263L124.982 19.0332L132.269 28.8952Z" fill="#DCDCDC"/>
</svg>
