<svg width="25" height="25" viewBox="0 0 25 25" fill="none" xmlns="http://www.w3.org/2000/svg">
<path d="M12.2501 2.5C6.73606 2.5 2.25006 6.986 2.25006 12.5C2.25006 18.014 6.73606 22.5 12.2501 22.5C17.7641 22.5 22.2501 18.014 22.2501 12.5C22.2501 6.986 17.7641 2.5 12.2501 2.5ZM10.2511 16.913L7.24551 13.9139C6.85476 13.524 6.85397 12.8912 7.24375 12.5003C7.63377 12.1092 8.26707 12.1085 8.65799 12.4987L10.2491 14.087L14.8361 9.5C15.2265 9.10953 15.8596 9.10953 16.2501 9.5C16.6405 9.89047 16.6405 10.5235 16.2501 10.914L10.2511 16.913Z" fill="#808080"/>
</svg>
