<svg width="23" height="18" viewBox="0 0 23 18" fill="none" xmlns="http://www.w3.org/2000/svg">
<path d="M22.4167 2.32649C21.6113 2.6762 20.7592 2.9066 19.8872 3.0104C20.8036 2.47417 21.4927 1.62228 21.8254 0.614507C20.959 1.12077 20.0127 1.47599 19.027 1.66494C18.6119 1.23025 18.1127 0.884448 17.5598 0.648543C17.0068 0.412638 16.4116 0.291561 15.8104 0.292671C13.3761 0.292671 11.4061 2.23263 11.4061 4.62404C11.4044 4.95668 11.4425 5.28833 11.5197 5.6119C9.77417 5.53013 8.06491 5.08516 6.50131 4.30545C4.9377 3.52575 3.55418 2.42848 2.43926 1.08385C2.04812 1.74277 1.84126 2.49458 1.84031 3.26071C1.84031 4.76261 2.62445 6.09018 3.80849 6.86795C3.10698 6.85132 2.41984 6.66578 1.80542 6.32709V6.38073C1.80542 8.4816 3.32628 10.2293 5.33919 10.6272C4.96067 10.728 4.57061 10.7791 4.17886 10.7792C3.90089 10.7796 3.62355 10.7527 3.35088 10.6987C3.91047 12.4196 5.53914 13.6712 7.46841 13.707C5.90074 14.9143 3.97606 15.5668 1.99687 15.562C1.64555 15.5615 1.29457 15.5406 0.945679 15.4994C2.95912 16.7842 5.29958 17.4637 7.68849 17.4572C15.801 17.4572 20.233 10.8551 20.233 5.12915C20.233 4.94141 20.228 4.75367 20.2191 4.5704C21.0793 3.95894 21.8235 3.19908 22.4167 2.32649Z" fill="#808080"/>
</svg>
