<svg width="117" height="27" viewBox="0 0 117 27" fill="none" xmlns="http://www.w3.org/2000/svg">
<path d="M18.8573 1.41564V15.5174C18.8573 20.218 16.8915 22.1715 12.2663 22.1715C7.64096 22.1715 5.67521 20.218 5.67521 15.5174V0.805176H1.22336C0.818651 0.805176 0.645203 0.988315 0.645203 1.41564V15.7005C0.645203 23.5755 5.38613 26.3226 12.2663 26.3226C19.1464 26.3226 23.8873 23.5755 23.8873 15.7005V0.805176H19.4355C19.0886 0.805176 18.8573 0.988315 18.8573 1.41564Z" fill="#DCDCDC"/>
<path d="M83.4376 4.89517C83.7845 4.89517 83.958 4.77308 84.0736 4.46784L85.3456 1.11029C85.4034 0.927147 85.3456 0.805054 85.1721 0.805054H67.2491C65.5724 0.805054 64.9365 1.35447 64.9365 2.5754V24.4301C64.9365 25.4678 65.399 25.8952 66.7288 25.8952H83.4376C83.7845 25.8952 83.958 25.7731 84.0736 25.4678L85.3456 22.1103C85.4034 21.9271 85.3456 21.8051 85.1721 21.8051H69.8508V17.3487C69.8508 15.8225 70.6603 15.0899 72.7995 15.0899H79.4483C79.7952 15.0899 79.9687 14.9678 80.0843 14.6626L81.2984 11.4271C81.3563 11.244 81.2984 11.1219 81.125 11.1219H69.793V4.89517H83.4376Z" fill="#DCDCDC"/>
<path fill-rule="evenodd" clip-rule="evenodd" d="M54.6454 7.15389C54.6454 9.5347 53.836 11.5492 51.8702 12.6481C54.5298 13.4417 55.7439 15.9446 55.6861 18.9359C55.6861 23.9417 52.3328 25.8952 47.6497 25.8952H35.2192C33.8894 25.8952 33.4269 25.4678 33.4269 24.4301V2.5754C33.4269 1.35447 34.0629 0.805054 35.7395 0.805054H45.9152C50.367 0.805054 54.6454 1.59866 54.6454 7.15389ZM38.3986 4.83433H46.2616C48.8633 4.83433 49.6149 5.87212 49.6149 8.0698C49.6149 10.2064 48.8633 11.3053 46.2616 11.3053H38.3986V4.83433ZM47.1866 21.8661H38.3986V17.2877C38.3986 15.7615 39.208 15.0289 41.3472 15.0289H47.1866C49.9618 15.0289 50.7712 16.1888 50.7712 18.4475C50.7712 20.7673 49.9618 21.8661 47.1866 21.8661Z" fill="#DCDCDC"/>
<path fill-rule="evenodd" clip-rule="evenodd" d="M111.132 15.8225L116.451 25.4678C116.566 25.5899 116.566 25.8952 116.162 25.8952H111.652C111.318 25.8952 111.199 25.726 111.036 25.496C111.029 25.4867 111.023 25.4773 111.016 25.4678L106.217 16.3109H101.823C99.6839 16.3109 98.8745 17.0434 98.8745 18.5696V25.8952H94.5383C94.1336 25.8952 93.9601 25.712 93.9601 25.2847V2.5754C93.9601 1.35447 94.5961 0.805054 96.2728 0.805054H106.448C112.346 0.805054 115.93 2.45331 115.93 8.55796C115.93 13.2585 113.791 15.0899 111.132 15.8225ZM98.8742 12.4651H107.142C110.264 12.4651 110.9 11.1832 110.9 8.61922C110.9 6.11631 110.206 4.83433 107.142 4.83433H98.8742V12.4651Z" fill="#DCDCDC"/>
</svg>
