<svg width="27" height="20" viewBox="0 0 27 20" fill="none" xmlns="http://www.w3.org/2000/svg">
<path d="M25.9996 4.57019C25.9996 2.34369 24.3186 0.552595 22.2413 0.552595C19.4277 0.424447 16.5582 0.374969 13.6257 0.374969H12.7115C9.78618 0.374969 6.9116 0.424447 4.09796 0.55309C2.02582 0.55309 0.344753 2.35408 0.344753 4.58058C0.217784 6.3415 0.163949 8.10291 0.166996 9.86432C0.161917 11.6257 0.219476 13.3888 0.339674 15.1535C0.339674 17.38 2.02075 19.1859 4.09288 19.1859C7.04872 19.3195 10.0807 19.3789 13.1636 19.374C16.2514 19.3839 19.275 19.3212 22.2342 19.1859C24.3114 19.1859 25.9925 17.38 25.9925 15.1535C26.1144 13.3871 26.1703 11.6257 26.1652 9.85937C26.1767 8.09796 26.1215 6.3349 25.9996 4.57019ZM10.68 14.7181V4.9957L18.0443 9.85443L10.68 14.7181Z" fill="#808080"/>
</svg>
